G04 #@! TF.FileFunction,Copper,L1,Top,Signal*
%FSLAX46Y46*%
G04 Gerber Fmt 4.6, Leading zero omitted, Abs format (unit mm)*
G04 Created by KiCad (PCBNEW 4.0.6) date 06/12/17 13:14:34*
%MOMM*%
%LPD*%
G01*
G04 APERTURE LIST*
%ADD10C,0.100000*%
%ADD11R,1.700000X1.700000*%
%ADD12O,1.700000X1.700000*%
%ADD13R,0.750000X0.800000*%
%ADD14R,0.630000X0.450000*%
%ADD15R,0.850000X1.300000*%
%ADD16C,0.810000*%
%ADD17C,0.380000*%
%ADD18C,0.250000*%
%ADD19C,0.254000*%
G04 APERTURE END LIST*
D10*
D11*
X2200000Y4600000D03*
D12*
X4740000Y4600000D03*
X2200000Y2060000D03*
X4740000Y2060000D03*
D13*
X1200000Y10050000D03*
X1200000Y8550000D03*
D14*
X5340000Y7650000D03*
X5340000Y8600000D03*
X5340000Y9550000D03*
X2660000Y9550000D03*
X2660000Y8600000D03*
X2660000Y7650000D03*
D15*
X3575000Y9250000D03*
X3575000Y7950000D03*
X4425000Y9250000D03*
X4425000Y7950000D03*
D16*
X5600000Y10700000D03*
D17*
X5600000Y10700000D02*
X1850000Y10700000D01*
X6200000Y8600000D02*
X6200000Y10500000D01*
X6200000Y10500000D02*
X6000000Y10700000D01*
X6000000Y10700000D02*
X5600000Y10700000D01*
X5340000Y8600000D02*
X6200000Y8600000D01*
X1850000Y10700000D02*
X1200000Y10050000D01*
D18*
X2200000Y4600000D02*
X2200000Y7190000D01*
X2200000Y7190000D02*
X2660000Y7650000D01*
X5340000Y7650000D02*
X5340000Y5200000D01*
X5340000Y5200000D02*
X4740000Y4600000D01*
D19*
G36*
X2765615Y8453000D02*
X2533000Y8453000D01*
X2533000Y8487500D01*
X1868750Y8487500D01*
X1804250Y8423000D01*
X1327000Y8423000D01*
X1327000Y7673750D01*
X1485750Y7515000D01*
X1701310Y7515000D01*
X1895501Y7595436D01*
X1845032Y7544968D01*
X1736212Y7382107D01*
X1697999Y7190000D01*
X1698000Y7189995D01*
X1698000Y5834385D01*
X1350000Y5834385D01*
X1210292Y5808097D01*
X1081980Y5725530D01*
X995899Y5599547D01*
X965615Y5450000D01*
X965615Y3750000D01*
X991903Y3610292D01*
X1074470Y3481980D01*
X1200453Y3395899D01*
X1350000Y3365615D01*
X1553791Y3365615D01*
X1318642Y3255183D01*
X928355Y2826924D01*
X758524Y2416890D01*
X879845Y2187000D01*
X2073000Y2187000D01*
X2073000Y2207000D01*
X2327000Y2207000D01*
X2327000Y2187000D01*
X2347000Y2187000D01*
X2347000Y1933000D01*
X2327000Y1933000D01*
X2327000Y739181D01*
X2556892Y618514D01*
X3081358Y864817D01*
X3471645Y1293076D01*
X3590048Y1578944D01*
X3848342Y1192380D01*
X4246409Y926400D01*
X4715962Y833000D01*
X4764038Y833000D01*
X5233591Y926400D01*
X5631658Y1192380D01*
X5897638Y1590447D01*
X5991038Y2060000D01*
X5897638Y2529553D01*
X5631658Y2927620D01*
X5233591Y3193600D01*
X4764038Y3287000D01*
X4715962Y3287000D01*
X4246409Y3193600D01*
X3848342Y2927620D01*
X3590048Y2541056D01*
X3471645Y2826924D01*
X3081358Y3255183D01*
X2846209Y3365615D01*
X3050000Y3365615D01*
X3189708Y3391903D01*
X3318020Y3474470D01*
X3404101Y3600453D01*
X3434385Y3750000D01*
X3434385Y5450000D01*
X3408097Y5589708D01*
X3325530Y5718020D01*
X3199547Y5804101D01*
X3050000Y5834385D01*
X2702000Y5834385D01*
X2702000Y6982064D01*
X2760551Y7040615D01*
X2868913Y7040615D01*
X2874470Y7031980D01*
X3000453Y6945899D01*
X3150000Y6915615D01*
X4838000Y6915615D01*
X4838000Y5812288D01*
X4764038Y5827000D01*
X4715962Y5827000D01*
X4246409Y5733600D01*
X3848342Y5467620D01*
X3582362Y5069553D01*
X3488962Y4600000D01*
X3582362Y4130447D01*
X3848342Y3732380D01*
X4246409Y3466400D01*
X4715962Y3373000D01*
X4764038Y3373000D01*
X5233591Y3466400D01*
X5631658Y3732380D01*
X5897638Y4130447D01*
X5991038Y4600000D01*
X5897638Y5069553D01*
X5834768Y5163644D01*
X5842000Y5200000D01*
X5842000Y7097335D01*
X5923020Y7149470D01*
X6009101Y7275453D01*
X6039385Y7425000D01*
X6039385Y7875000D01*
X6013097Y8014708D01*
X6001326Y8033000D01*
X6200000Y8033000D01*
X6416982Y8076160D01*
X6573000Y8180408D01*
X6573000Y427000D01*
X427000Y427000D01*
X427000Y1703110D01*
X758524Y1703110D01*
X928355Y1293076D01*
X1318642Y864817D01*
X1843108Y618514D01*
X2073000Y739181D01*
X2073000Y1933000D01*
X879845Y1933000D01*
X758524Y1703110D01*
X427000Y1703110D01*
X427000Y7649974D01*
X465301Y7611673D01*
X698690Y7515000D01*
X914250Y7515000D01*
X1073000Y7673750D01*
X1073000Y8423000D01*
X1053000Y8423000D01*
X1053000Y8677000D01*
X1073000Y8677000D01*
X1073000Y8697000D01*
X1327000Y8697000D01*
X1327000Y8677000D01*
X2051250Y8677000D01*
X2086750Y8712500D01*
X2533000Y8712500D01*
X2533000Y8747000D01*
X2765615Y8747000D01*
X2765615Y8453000D01*
X2765615Y8453000D01*
G37*
X2765615Y8453000D02*
X2533000Y8453000D01*
X2533000Y8487500D01*
X1868750Y8487500D01*
X1804250Y8423000D01*
X1327000Y8423000D01*
X1327000Y7673750D01*
X1485750Y7515000D01*
X1701310Y7515000D01*
X1895501Y7595436D01*
X1845032Y7544968D01*
X1736212Y7382107D01*
X1697999Y7190000D01*
X1698000Y7189995D01*
X1698000Y5834385D01*
X1350000Y5834385D01*
X1210292Y5808097D01*
X1081980Y5725530D01*
X995899Y5599547D01*
X965615Y5450000D01*
X965615Y3750000D01*
X991903Y3610292D01*
X1074470Y3481980D01*
X1200453Y3395899D01*
X1350000Y3365615D01*
X1553791Y3365615D01*
X1318642Y3255183D01*
X928355Y2826924D01*
X758524Y2416890D01*
X879845Y2187000D01*
X2073000Y2187000D01*
X2073000Y2207000D01*
X2327000Y2207000D01*
X2327000Y2187000D01*
X2347000Y2187000D01*
X2347000Y1933000D01*
X2327000Y1933000D01*
X2327000Y739181D01*
X2556892Y618514D01*
X3081358Y864817D01*
X3471645Y1293076D01*
X3590048Y1578944D01*
X3848342Y1192380D01*
X4246409Y926400D01*
X4715962Y833000D01*
X4764038Y833000D01*
X5233591Y926400D01*
X5631658Y1192380D01*
X5897638Y1590447D01*
X5991038Y2060000D01*
X5897638Y2529553D01*
X5631658Y2927620D01*
X5233591Y3193600D01*
X4764038Y3287000D01*
X4715962Y3287000D01*
X4246409Y3193600D01*
X3848342Y2927620D01*
X3590048Y2541056D01*
X3471645Y2826924D01*
X3081358Y3255183D01*
X2846209Y3365615D01*
X3050000Y3365615D01*
X3189708Y3391903D01*
X3318020Y3474470D01*
X3404101Y3600453D01*
X3434385Y3750000D01*
X3434385Y5450000D01*
X3408097Y5589708D01*
X3325530Y5718020D01*
X3199547Y5804101D01*
X3050000Y5834385D01*
X2702000Y5834385D01*
X2702000Y6982064D01*
X2760551Y7040615D01*
X2868913Y7040615D01*
X2874470Y7031980D01*
X3000453Y6945899D01*
X3150000Y6915615D01*
X4838000Y6915615D01*
X4838000Y5812288D01*
X4764038Y5827000D01*
X4715962Y5827000D01*
X4246409Y5733600D01*
X3848342Y5467620D01*
X3582362Y5069553D01*
X3488962Y4600000D01*
X3582362Y4130447D01*
X3848342Y3732380D01*
X4246409Y3466400D01*
X4715962Y3373000D01*
X4764038Y3373000D01*
X5233591Y3466400D01*
X5631658Y3732380D01*
X5897638Y4130447D01*
X5991038Y4600000D01*
X5897638Y5069553D01*
X5834768Y5163644D01*
X5842000Y5200000D01*
X5842000Y7097335D01*
X5923020Y7149470D01*
X6009101Y7275453D01*
X6039385Y7425000D01*
X6039385Y7875000D01*
X6013097Y8014708D01*
X6001326Y8033000D01*
X6200000Y8033000D01*
X6416982Y8076160D01*
X6573000Y8180408D01*
X6573000Y427000D01*
X427000Y427000D01*
X427000Y1703110D01*
X758524Y1703110D01*
X928355Y1293076D01*
X1318642Y864817D01*
X1843108Y618514D01*
X2073000Y739181D01*
X2073000Y1933000D01*
X879845Y1933000D01*
X758524Y1703110D01*
X427000Y1703110D01*
X427000Y7649974D01*
X465301Y7611673D01*
X698690Y7515000D01*
X914250Y7515000D01*
X1073000Y7673750D01*
X1073000Y8423000D01*
X1053000Y8423000D01*
X1053000Y8677000D01*
X1073000Y8677000D01*
X1073000Y8697000D01*
X1327000Y8697000D01*
X1327000Y8677000D01*
X2051250Y8677000D01*
X2086750Y8712500D01*
X2533000Y8712500D01*
X2533000Y8747000D01*
X2765615Y8747000D01*
X2765615Y8453000D01*
M02*
