G04 #@! TF.FileFunction,Copper,L2,Bot,Signal*
%FSLAX46Y46*%
G04 Gerber Fmt 4.6, Leading zero omitted, Abs format (unit mm)*
G04 Created by KiCad (PCBNEW 4.0.6) date 06/12/17 13:14:34*
%MOMM*%
%LPD*%
G01*
G04 APERTURE LIST*
%ADD10C,0.100000*%
%ADD11R,1.700000X1.700000*%
%ADD12O,1.700000X1.700000*%
%ADD13C,0.810000*%
%ADD14C,0.254000*%
G04 APERTURE END LIST*
D10*
D11*
X2200000Y4600000D03*
D12*
X4740000Y4600000D03*
X2200000Y2060000D03*
X4740000Y2060000D03*
D13*
X5600000Y10700000D03*
D14*
G36*
X6573000Y427000D02*
X427000Y427000D01*
X427000Y2060000D01*
X948962Y2060000D01*
X1042362Y1590447D01*
X1308342Y1192380D01*
X1706409Y926400D01*
X2175962Y833000D01*
X2224038Y833000D01*
X2693591Y926400D01*
X3091658Y1192380D01*
X3349952Y1578944D01*
X3468355Y1293076D01*
X3858642Y864817D01*
X4383108Y618514D01*
X4613000Y739181D01*
X4613000Y1933000D01*
X4867000Y1933000D01*
X4867000Y739181D01*
X5096892Y618514D01*
X5621358Y864817D01*
X6011645Y1293076D01*
X6181476Y1703110D01*
X6060155Y1933000D01*
X4867000Y1933000D01*
X4613000Y1933000D01*
X4593000Y1933000D01*
X4593000Y2187000D01*
X4613000Y2187000D01*
X4613000Y2207000D01*
X4867000Y2207000D01*
X4867000Y2187000D01*
X6060155Y2187000D01*
X6181476Y2416890D01*
X6011645Y2826924D01*
X5621358Y3255183D01*
X5190046Y3457738D01*
X5233591Y3466400D01*
X5631658Y3732380D01*
X5897638Y4130447D01*
X5991038Y4600000D01*
X5897638Y5069553D01*
X5631658Y5467620D01*
X5233591Y5733600D01*
X4764038Y5827000D01*
X4715962Y5827000D01*
X4246409Y5733600D01*
X3848342Y5467620D01*
X3582362Y5069553D01*
X3488962Y4600000D01*
X3582362Y4130447D01*
X3848342Y3732380D01*
X4246409Y3466400D01*
X4289954Y3457738D01*
X3858642Y3255183D01*
X3468355Y2826924D01*
X3349952Y2541056D01*
X3091658Y2927620D01*
X2693591Y3193600D01*
X2224038Y3287000D01*
X2175962Y3287000D01*
X1706409Y3193600D01*
X1308342Y2927620D01*
X1042362Y2529553D01*
X948962Y2060000D01*
X427000Y2060000D01*
X427000Y5450000D01*
X965615Y5450000D01*
X965615Y3750000D01*
X991903Y3610292D01*
X1074470Y3481980D01*
X1200453Y3395899D01*
X1350000Y3365615D01*
X3050000Y3365615D01*
X3189708Y3391903D01*
X3318020Y3474470D01*
X3404101Y3600453D01*
X3434385Y3750000D01*
X3434385Y5450000D01*
X3408097Y5589708D01*
X3325530Y5718020D01*
X3199547Y5804101D01*
X3050000Y5834385D01*
X1350000Y5834385D01*
X1210292Y5808097D01*
X1081980Y5725530D01*
X995899Y5599547D01*
X965615Y5450000D01*
X427000Y5450000D01*
X427000Y11173000D01*
X6573000Y11173000D01*
X6573000Y427000D01*
X6573000Y427000D01*
G37*
X6573000Y427000D02*
X427000Y427000D01*
X427000Y2060000D01*
X948962Y2060000D01*
X1042362Y1590447D01*
X1308342Y1192380D01*
X1706409Y926400D01*
X2175962Y833000D01*
X2224038Y833000D01*
X2693591Y926400D01*
X3091658Y1192380D01*
X3349952Y1578944D01*
X3468355Y1293076D01*
X3858642Y864817D01*
X4383108Y618514D01*
X4613000Y739181D01*
X4613000Y1933000D01*
X4867000Y1933000D01*
X4867000Y739181D01*
X5096892Y618514D01*
X5621358Y864817D01*
X6011645Y1293076D01*
X6181476Y1703110D01*
X6060155Y1933000D01*
X4867000Y1933000D01*
X4613000Y1933000D01*
X4593000Y1933000D01*
X4593000Y2187000D01*
X4613000Y2187000D01*
X4613000Y2207000D01*
X4867000Y2207000D01*
X4867000Y2187000D01*
X6060155Y2187000D01*
X6181476Y2416890D01*
X6011645Y2826924D01*
X5621358Y3255183D01*
X5190046Y3457738D01*
X5233591Y3466400D01*
X5631658Y3732380D01*
X5897638Y4130447D01*
X5991038Y4600000D01*
X5897638Y5069553D01*
X5631658Y5467620D01*
X5233591Y5733600D01*
X4764038Y5827000D01*
X4715962Y5827000D01*
X4246409Y5733600D01*
X3848342Y5467620D01*
X3582362Y5069553D01*
X3488962Y4600000D01*
X3582362Y4130447D01*
X3848342Y3732380D01*
X4246409Y3466400D01*
X4289954Y3457738D01*
X3858642Y3255183D01*
X3468355Y2826924D01*
X3349952Y2541056D01*
X3091658Y2927620D01*
X2693591Y3193600D01*
X2224038Y3287000D01*
X2175962Y3287000D01*
X1706409Y3193600D01*
X1308342Y2927620D01*
X1042362Y2529553D01*
X948962Y2060000D01*
X427000Y2060000D01*
X427000Y5450000D01*
X965615Y5450000D01*
X965615Y3750000D01*
X991903Y3610292D01*
X1074470Y3481980D01*
X1200453Y3395899D01*
X1350000Y3365615D01*
X3050000Y3365615D01*
X3189708Y3391903D01*
X3318020Y3474470D01*
X3404101Y3600453D01*
X3434385Y3750000D01*
X3434385Y5450000D01*
X3408097Y5589708D01*
X3325530Y5718020D01*
X3199547Y5804101D01*
X3050000Y5834385D01*
X1350000Y5834385D01*
X1210292Y5808097D01*
X1081980Y5725530D01*
X995899Y5599547D01*
X965615Y5450000D01*
X427000Y5450000D01*
X427000Y11173000D01*
X6573000Y11173000D01*
X6573000Y427000D01*
M02*
