G04 #@! TF.FileFunction,Legend,Top*
%FSLAX46Y46*%
G04 Gerber Fmt 4.6, Leading zero omitted, Abs format (unit mm)*
G04 Created by KiCad (PCBNEW 4.0.7) date 06/19/19 10:20:30*
%MOMM*%
%LPD*%
G01*
G04 APERTURE LIST*
%ADD10C,0.100000*%
%ADD11C,0.350000*%
%ADD12C,0.250000*%
%ADD13C,0.200000*%
%ADD14C,0.150000*%
%ADD15C,0.120000*%
G04 APERTURE END LIST*
D10*
D11*
X2085714Y3485714D02*
X3114285Y3485714D01*
X2599999Y1685714D02*
X2599999Y3485714D01*
X3714285Y1685714D02*
X3714285Y3485714D01*
X5600000Y1857143D02*
X5514286Y1771429D01*
X5257143Y1685714D01*
X5085714Y1685714D01*
X4828571Y1771429D01*
X4657143Y1942857D01*
X4571428Y2114286D01*
X4485714Y2457143D01*
X4485714Y2714286D01*
X4571428Y3057143D01*
X4657143Y3228571D01*
X4828571Y3400000D01*
X5085714Y3485714D01*
X5257143Y3485714D01*
X5514286Y3400000D01*
X5600000Y3314286D01*
X7314286Y1685714D02*
X6285714Y1685714D01*
X6800000Y1685714D02*
X6800000Y3485714D01*
X6628571Y3228571D01*
X6457143Y3057143D01*
X6285714Y2971429D01*
X8942857Y3485714D02*
X8085714Y3485714D01*
X8000000Y2628571D01*
X8085714Y2714286D01*
X8257143Y2800000D01*
X8685714Y2800000D01*
X8857143Y2714286D01*
X8942857Y2628571D01*
X9028572Y2457143D01*
X9028572Y2028571D01*
X8942857Y1857143D01*
X8857143Y1771429D01*
X8685714Y1685714D01*
X8257143Y1685714D01*
X8085714Y1771429D01*
X8000000Y1857143D01*
X10142858Y3485714D02*
X10314286Y3485714D01*
X10485715Y3400000D01*
X10571429Y3314286D01*
X10657143Y3142857D01*
X10742858Y2800000D01*
X10742858Y2371429D01*
X10657143Y2028571D01*
X10571429Y1857143D01*
X10485715Y1771429D01*
X10314286Y1685714D01*
X10142858Y1685714D01*
X9971429Y1771429D01*
X9885715Y1857143D01*
X9800000Y2028571D01*
X9714286Y2371429D01*
X9714286Y2800000D01*
X9800000Y3142857D01*
X9885715Y3314286D01*
X9971429Y3400000D01*
X10142858Y3485714D01*
D12*
X43023810Y20547619D02*
X43023810Y21547619D01*
X43452381Y21452381D02*
X43500000Y21500000D01*
X43595238Y21547619D01*
X43833334Y21547619D01*
X43928572Y21500000D01*
X43976191Y21452381D01*
X44023810Y21357143D01*
X44023810Y21261905D01*
X43976191Y21119048D01*
X43404762Y20547619D01*
X44023810Y20547619D01*
X45023810Y20642857D02*
X44976191Y20595238D01*
X44833334Y20547619D01*
X44738096Y20547619D01*
X44595238Y20595238D01*
X44500000Y20690476D01*
X44452381Y20785714D01*
X44404762Y20976190D01*
X44404762Y21119048D01*
X44452381Y21309524D01*
X44500000Y21404762D01*
X44595238Y21500000D01*
X44738096Y21547619D01*
X44833334Y21547619D01*
X44976191Y21500000D01*
X45023810Y21452381D01*
D11*
X43142857Y2628571D02*
X42542857Y2628571D01*
X42542857Y1685714D02*
X42542857Y3485714D01*
X43400000Y3485714D01*
X44085714Y1685714D02*
X44085714Y2885714D01*
X44085714Y3485714D02*
X44000000Y3400000D01*
X44085714Y3314286D01*
X44171429Y3400000D01*
X44085714Y3485714D01*
X44085714Y3314286D01*
X44942857Y1685714D02*
X44942857Y2885714D01*
X44942857Y2542857D02*
X45028572Y2714286D01*
X45114286Y2800000D01*
X45285715Y2885714D01*
X45457143Y2885714D01*
X46742858Y1771429D02*
X46571429Y1685714D01*
X46228572Y1685714D01*
X46057143Y1771429D01*
X45971429Y1942857D01*
X45971429Y2628571D01*
X46057143Y2800000D01*
X46228572Y2885714D01*
X46571429Y2885714D01*
X46742858Y2800000D01*
X46828572Y2628571D01*
X46828572Y2457143D01*
X45971429Y2285714D01*
X47600000Y1685714D02*
X47600000Y3485714D01*
X48628572Y1685714D01*
X48628572Y3485714D01*
X49742857Y1685714D02*
X49571429Y1771429D01*
X49485714Y1857143D01*
X49400000Y2028571D01*
X49400000Y2542857D01*
X49485714Y2714286D01*
X49571429Y2800000D01*
X49742857Y2885714D01*
X50000000Y2885714D01*
X50171429Y2800000D01*
X50257143Y2714286D01*
X50342857Y2542857D01*
X50342857Y2028571D01*
X50257143Y1857143D01*
X50171429Y1771429D01*
X50000000Y1685714D01*
X49742857Y1685714D01*
X51885714Y1685714D02*
X51885714Y3485714D01*
X51885714Y1771429D02*
X51714285Y1685714D01*
X51371428Y1685714D01*
X51200000Y1771429D01*
X51114285Y1857143D01*
X51028571Y2028571D01*
X51028571Y2542857D01*
X51114285Y2714286D01*
X51200000Y2800000D01*
X51371428Y2885714D01*
X51714285Y2885714D01*
X51885714Y2800000D01*
X53428571Y1771429D02*
X53257142Y1685714D01*
X52914285Y1685714D01*
X52742856Y1771429D01*
X52657142Y1942857D01*
X52657142Y2628571D01*
X52742856Y2800000D01*
X52914285Y2885714D01*
X53257142Y2885714D01*
X53428571Y2800000D01*
X53514285Y2628571D01*
X53514285Y2457143D01*
X52657142Y2285714D01*
X55485714Y2885714D02*
X55914285Y1685714D01*
X56342857Y2885714D01*
X57971429Y1685714D02*
X56942857Y1685714D01*
X57457143Y1685714D02*
X57457143Y3485714D01*
X57285714Y3228571D01*
X57114286Y3057143D01*
X56942857Y2971429D01*
X58742857Y1857143D02*
X58828572Y1771429D01*
X58742857Y1685714D01*
X58657143Y1771429D01*
X58742857Y1857143D01*
X58742857Y1685714D01*
X59428572Y3485714D02*
X60542858Y3485714D01*
X59942858Y2800000D01*
X60200000Y2800000D01*
X60371429Y2714286D01*
X60457143Y2628571D01*
X60542858Y2457143D01*
X60542858Y2028571D01*
X60457143Y1857143D01*
X60371429Y1771429D01*
X60200000Y1685714D01*
X59685715Y1685714D01*
X59514286Y1771429D01*
X59428572Y1857143D01*
D13*
X44775000Y15265477D02*
X44736905Y15189286D01*
X44736905Y15075001D01*
X44775000Y14960715D01*
X44851190Y14884524D01*
X44927381Y14846429D01*
X45079762Y14808334D01*
X45194048Y14808334D01*
X45346429Y14846429D01*
X45422619Y14884524D01*
X45498810Y14960715D01*
X45536905Y15075001D01*
X45536905Y15151191D01*
X45498810Y15265477D01*
X45460714Y15303572D01*
X45194048Y15303572D01*
X45194048Y15151191D01*
X45536905Y15646429D02*
X44736905Y15646429D01*
X45536905Y16103572D01*
X44736905Y16103572D01*
X45536905Y16484524D02*
X44736905Y16484524D01*
X44736905Y16675000D01*
X44775000Y16789286D01*
X44851190Y16865477D01*
X44927381Y16903572D01*
X45079762Y16941667D01*
X45194048Y16941667D01*
X45346429Y16903572D01*
X45422619Y16865477D01*
X45498810Y16789286D01*
X45536905Y16675000D01*
X45536905Y16484524D01*
X42986905Y14783333D02*
X42186905Y14783333D01*
X42758333Y15050000D01*
X42186905Y15316667D01*
X42986905Y15316667D01*
X42910714Y16154762D02*
X42948810Y16116667D01*
X42986905Y16002381D01*
X42986905Y15926191D01*
X42948810Y15811905D01*
X42872619Y15735714D01*
X42796429Y15697619D01*
X42644048Y15659524D01*
X42529762Y15659524D01*
X42377381Y15697619D01*
X42301190Y15735714D01*
X42225000Y15811905D01*
X42186905Y15926191D01*
X42186905Y16002381D01*
X42225000Y16116667D01*
X42263095Y16154762D01*
X42986905Y16497619D02*
X42186905Y16497619D01*
X42986905Y16954762D02*
X42529762Y16611905D01*
X42186905Y16954762D02*
X42644048Y16497619D01*
X40398810Y15571429D02*
X40436905Y15685715D01*
X40436905Y15876191D01*
X40398810Y15952381D01*
X40360714Y15990477D01*
X40284524Y16028572D01*
X40208333Y16028572D01*
X40132143Y15990477D01*
X40094048Y15952381D01*
X40055952Y15876191D01*
X40017857Y15723810D01*
X39979762Y15647619D01*
X39941667Y15609524D01*
X39865476Y15571429D01*
X39789286Y15571429D01*
X39713095Y15609524D01*
X39675000Y15647619D01*
X39636905Y15723810D01*
X39636905Y15914286D01*
X39675000Y16028572D01*
X40436905Y16371429D02*
X39636905Y16371429D01*
X39636905Y16561905D01*
X39675000Y16676191D01*
X39751190Y16752382D01*
X39827381Y16790477D01*
X39979762Y16828572D01*
X40094048Y16828572D01*
X40246429Y16790477D01*
X40322619Y16752382D01*
X40398810Y16676191D01*
X40436905Y16561905D01*
X40436905Y16371429D01*
X37785714Y16022619D02*
X37823810Y15984524D01*
X37861905Y15870238D01*
X37861905Y15794048D01*
X37823810Y15679762D01*
X37747619Y15603571D01*
X37671429Y15565476D01*
X37519048Y15527381D01*
X37404762Y15527381D01*
X37252381Y15565476D01*
X37176190Y15603571D01*
X37100000Y15679762D01*
X37061905Y15794048D01*
X37061905Y15870238D01*
X37100000Y15984524D01*
X37138095Y16022619D01*
X37861905Y16365476D02*
X37061905Y16365476D01*
X37861905Y16822619D02*
X37404762Y16479762D01*
X37061905Y16822619D02*
X37519048Y16365476D01*
X34486905Y15451191D02*
X35286905Y15641667D01*
X34715476Y15794048D01*
X35286905Y15946429D01*
X34486905Y16136905D01*
X35248810Y16403572D02*
X35286905Y16517858D01*
X35286905Y16708334D01*
X35248810Y16784524D01*
X35210714Y16822620D01*
X35134524Y16860715D01*
X35058333Y16860715D01*
X34982143Y16822620D01*
X34944048Y16784524D01*
X34905952Y16708334D01*
X34867857Y16555953D01*
X34829762Y16479762D01*
X34791667Y16441667D01*
X34715476Y16403572D01*
X34639286Y16403572D01*
X34563095Y16441667D01*
X34525000Y16479762D01*
X34486905Y16555953D01*
X34486905Y16746429D01*
X34525000Y16860715D01*
X15527069Y53925000D02*
G75*
G03X15527069Y53925000I-152069J0D01*
G01*
X36216667Y28138095D02*
X36216667Y28938095D01*
X36292858Y28442857D02*
X36521429Y28138095D01*
X36521429Y28671429D02*
X36216667Y28366667D01*
X31275000Y36850000D02*
G75*
G03X31275000Y36850000I-100000J0D01*
G01*
X19795256Y27975000D02*
G75*
G03X19795256Y27975000I-195256J0D01*
G01*
X5966667Y5238095D02*
X5966667Y6038095D01*
X6042858Y5542857D02*
X6271429Y5238095D01*
X6271429Y5771429D02*
X5966667Y5466667D01*
X10716667Y17413095D02*
X10716667Y18213095D01*
X10792858Y17717857D02*
X11021429Y17413095D01*
X11021429Y17946429D02*
X10716667Y17641667D01*
X44791667Y44438095D02*
X44791667Y45238095D01*
X44867858Y44742857D02*
X45096429Y44438095D01*
X45096429Y44971429D02*
X44791667Y44666667D01*
D14*
X31750000Y72800000D02*
X31750000Y74050000D01*
X34500000Y72800000D02*
X31750000Y72800000D01*
X34500000Y74050000D02*
X34500000Y72800000D01*
X46500000Y74050000D02*
X46500000Y72800000D01*
X46500000Y72800000D02*
X43750000Y72800000D01*
X43750000Y72800000D02*
X43750000Y74050000D01*
X26500000Y57550000D02*
X26500000Y66550000D01*
X53000000Y66550000D02*
X53000000Y57550000D01*
X53000000Y57550000D02*
X26500000Y57550000D01*
X53000000Y70550000D02*
X53000000Y66550000D01*
X26500000Y66550000D02*
X26500000Y74150000D01*
X26500000Y74150000D02*
X52700000Y74150000D01*
X53000000Y70550000D02*
X53000000Y74150000D01*
X53000000Y74150000D02*
X52700000Y74150000D01*
X14800000Y52775000D02*
X14825000Y52775000D01*
X14800000Y56925000D02*
X14905000Y56925000D01*
X24950000Y56925000D02*
X24845000Y56925000D01*
X24950000Y52775000D02*
X24845000Y52775000D01*
X14800000Y52775000D02*
X14800000Y56925000D01*
X24950000Y52775000D02*
X24950000Y56925000D01*
X14825000Y52775000D02*
X14825000Y51400000D01*
D15*
X48870000Y19980000D02*
X48870000Y17320000D01*
X54010000Y19980000D02*
X48870000Y19980000D01*
X54010000Y17320000D02*
X48870000Y17320000D01*
X54010000Y19980000D02*
X54010000Y17320000D01*
X55280000Y19980000D02*
X56610000Y19980000D01*
X56610000Y19980000D02*
X56610000Y18650000D01*
X33350000Y36300000D02*
X33850000Y36300000D01*
X33850000Y36300000D02*
X33850000Y35800000D01*
X33850000Y35800000D02*
X33850000Y35800000D01*
X33850000Y34600000D02*
X33850000Y34100000D01*
X33850000Y34100000D02*
X33350000Y34100000D01*
X33350000Y34100000D02*
X33350000Y34100000D01*
X32150000Y34100000D02*
X31650000Y34100000D01*
X31650000Y34100000D02*
X31650000Y34600000D01*
X31650000Y34600000D02*
X31650000Y34600000D01*
X32150000Y36300000D02*
X31650000Y36300000D01*
X31650000Y36300000D02*
X31650000Y36300000D01*
X33630000Y19980000D02*
X33630000Y17320000D01*
X43850000Y19980000D02*
X33630000Y19980000D01*
X43850000Y17320000D02*
X33630000Y17320000D01*
X43850000Y19980000D02*
X43850000Y17320000D01*
X45120000Y19980000D02*
X46450000Y19980000D01*
X46450000Y19980000D02*
X46450000Y18650000D01*
X51300000Y49900000D02*
X51300000Y50600000D01*
X52500000Y50600000D02*
X52500000Y49900000D01*
X13550000Y21750000D02*
X13550000Y22450000D01*
X14750000Y22450000D02*
X14750000Y21750000D01*
X10350000Y30350000D02*
X11050000Y30350000D01*
X11050000Y29150000D02*
X10350000Y29150000D01*
X10400000Y24300000D02*
X11100000Y24300000D01*
X11100000Y23100000D02*
X10400000Y23100000D01*
X15050000Y21750000D02*
X15050000Y22450000D01*
X16250000Y22450000D02*
X16250000Y21750000D01*
X16300000Y29400000D02*
X16300000Y28700000D01*
X15100000Y28700000D02*
X15100000Y29400000D01*
X47100000Y45650000D02*
X46400000Y45650000D01*
X46400000Y46850000D02*
X47100000Y46850000D01*
X19600000Y31150000D02*
X18900000Y31150000D01*
X18900000Y32350000D02*
X19600000Y32350000D01*
X19300000Y17450000D02*
X20000000Y17450000D01*
X20000000Y16250000D02*
X19300000Y16250000D01*
X55200000Y50710000D02*
X55200000Y52130000D01*
X61800000Y49950000D02*
X61800000Y52130000D01*
X61800000Y56550000D02*
X61800000Y54370000D01*
X55200000Y55790000D02*
X55200000Y54370000D01*
X61800000Y49950000D02*
X55960000Y49950000D01*
X55960000Y49950000D02*
X55200000Y50710000D01*
X55200000Y55790000D02*
X55960000Y56550000D01*
X55960000Y56550000D02*
X61800000Y56550000D01*
X37450000Y40850000D02*
X37450000Y43030000D01*
X37450000Y47450000D02*
X37450000Y45270000D01*
X30850000Y41610000D02*
X30850000Y43030000D01*
X30850000Y46690000D02*
X30850000Y45270000D01*
X37450000Y40850000D02*
X31610000Y40850000D01*
X31610000Y40850000D02*
X30850000Y41610000D01*
X30850000Y46690000D02*
X31610000Y47450000D01*
X31610000Y47450000D02*
X37450000Y47450000D01*
X28300000Y17600000D02*
X28300000Y18300000D01*
X29500000Y18300000D02*
X29500000Y17600000D01*
X30550000Y28300000D02*
X30550000Y29000000D01*
X31750000Y29000000D02*
X31750000Y28300000D01*
X32100000Y28300000D02*
X32100000Y29000000D01*
X33300000Y29000000D02*
X33300000Y28300000D01*
X36600000Y34950000D02*
X36600000Y35650000D01*
X37800000Y35650000D02*
X37800000Y34950000D01*
X59000000Y46650000D02*
X60000000Y46650000D01*
X60000000Y48350000D02*
X59000000Y48350000D01*
X35100000Y34950000D02*
X35100000Y35650000D01*
X36300000Y35650000D02*
X36300000Y34950000D01*
X53400000Y39750000D02*
X53400000Y38750000D01*
X55100000Y38750000D02*
X55100000Y39750000D01*
X33700000Y37200000D02*
X33000000Y37200000D01*
X33000000Y38400000D02*
X33700000Y38400000D01*
X31250000Y33350000D02*
X31950000Y33350000D01*
X31950000Y32150000D02*
X31250000Y32150000D01*
X61250000Y19750000D02*
X60250000Y19750000D01*
X60250000Y18050000D02*
X61250000Y18050000D01*
X52400000Y7600000D02*
X53100000Y7600000D01*
X53100000Y6400000D02*
X52400000Y6400000D01*
X29700000Y6100000D02*
X30400000Y6100000D01*
X30400000Y4900000D02*
X29700000Y4900000D01*
X44400000Y45000000D02*
X44400000Y47000000D01*
X44400000Y47000000D02*
X40500000Y47000000D01*
X44400000Y45000000D02*
X40500000Y45000000D01*
X37100000Y27700000D02*
X35700000Y27700000D01*
X35700000Y27700000D02*
X35700000Y24900000D01*
X37100000Y27700000D02*
X37100000Y24900000D01*
X6650000Y7500000D02*
X6650000Y6100000D01*
X6650000Y6100000D02*
X9450000Y6100000D01*
X6650000Y7500000D02*
X9450000Y7500000D01*
X10150000Y16775000D02*
X10150000Y18775000D01*
X10150000Y18775000D02*
X6250000Y18775000D01*
X10150000Y16775000D02*
X6250000Y16775000D01*
X31380000Y56250000D02*
X31380000Y55250000D01*
X30020000Y55250000D02*
X30020000Y56250000D01*
D14*
X2350000Y51350000D02*
G75*
G03X2350000Y51350000I-100000J0D01*
G01*
X4950000Y53550000D02*
X4950000Y55250000D01*
X4950000Y55250000D02*
X1550000Y55250000D01*
X1550000Y55250000D02*
X1550000Y51850000D01*
X1550000Y51850000D02*
X4950000Y51850000D01*
X4950000Y51850000D02*
X4950000Y53550000D01*
X62900000Y28750000D02*
G75*
G03X62900000Y28750000I-6400000J0D01*
G01*
X64750000Y69500000D02*
X64750000Y74000000D01*
X64750000Y74000000D02*
X58500000Y74000000D01*
X58500000Y74000000D02*
X54250000Y74000000D01*
X54250000Y74000000D02*
X54250000Y65000000D01*
X54250000Y65000000D02*
X62500000Y65000000D01*
X62500000Y65000000D02*
X64750000Y65000000D01*
X64750000Y65000000D02*
X64750000Y69500000D01*
D15*
X35340000Y33030000D02*
X35340000Y30370000D01*
X45560000Y33030000D02*
X35340000Y33030000D01*
X45560000Y30370000D02*
X35340000Y30370000D01*
X45560000Y33030000D02*
X45560000Y30370000D01*
X46830000Y33030000D02*
X48160000Y33030000D01*
X48160000Y33030000D02*
X48160000Y31700000D01*
X18080000Y73580000D02*
X15420000Y73580000D01*
X18080000Y68440000D02*
X18080000Y73580000D01*
X15420000Y68440000D02*
X15420000Y73580000D01*
X18080000Y68440000D02*
X15420000Y68440000D01*
X18080000Y67170000D02*
X18080000Y65840000D01*
X18080000Y65840000D02*
X16750000Y65840000D01*
D14*
X25500000Y58900000D02*
X19800000Y58900000D01*
X19800000Y74200000D02*
X22000000Y74200000D01*
X19800000Y74200000D02*
X19800000Y58900000D01*
X22000000Y74200000D02*
X25500000Y74200000D01*
X25500000Y74200000D02*
X25500000Y58900000D01*
D15*
X13830000Y71230000D02*
X13830000Y55930000D01*
X13830000Y55930000D02*
X8630000Y55930000D01*
X8630000Y55930000D02*
X8630000Y73830000D01*
X8630000Y73830000D02*
X11230000Y73830000D01*
X11230000Y73830000D02*
X11230000Y71230000D01*
X11230000Y71230000D02*
X13830000Y71230000D01*
X13830000Y72500000D02*
X13830000Y73830000D01*
X13830000Y73830000D02*
X12560000Y73830000D01*
X24910000Y39970000D02*
X24910000Y40900000D01*
X24910000Y43130000D02*
X24910000Y42200000D01*
X24910000Y43130000D02*
X22750000Y43130000D01*
X24910000Y39970000D02*
X23450000Y39970000D01*
X46920000Y38740000D02*
X47850000Y38740000D01*
X50080000Y38740000D02*
X49150000Y38740000D01*
X50080000Y38740000D02*
X50080000Y40900000D01*
X46920000Y38740000D02*
X46920000Y40200000D01*
X40920000Y38990000D02*
X41850000Y38990000D01*
X44080000Y38990000D02*
X43150000Y38990000D01*
X44080000Y38990000D02*
X44080000Y41150000D01*
X40920000Y38990000D02*
X40920000Y40450000D01*
X6530000Y33010000D02*
X5600000Y33010000D01*
X3370000Y33010000D02*
X4300000Y33010000D01*
X3370000Y33010000D02*
X3370000Y30850000D01*
X6530000Y33010000D02*
X6530000Y31550000D01*
X55280000Y63150000D02*
X55280000Y62150000D01*
X53920000Y62150000D02*
X53920000Y63150000D01*
X24150000Y43620000D02*
X23150000Y43620000D01*
X23150000Y44980000D02*
X24150000Y44980000D01*
X53920000Y59100000D02*
X53920000Y60100000D01*
X55280000Y60100000D02*
X55280000Y59100000D01*
X24595000Y46475000D02*
X24595000Y47475000D01*
X25955000Y47475000D02*
X25955000Y46475000D01*
X26170000Y46450000D02*
X26170000Y47450000D01*
X27530000Y47450000D02*
X27530000Y46450000D01*
X24300000Y37920000D02*
X23300000Y37920000D01*
X23300000Y39280000D02*
X24300000Y39280000D01*
X42080000Y51950000D02*
X42080000Y50950000D01*
X40720000Y50950000D02*
X40720000Y51950000D01*
X42650000Y53320000D02*
X41650000Y53320000D01*
X41650000Y54680000D02*
X42650000Y54680000D01*
X49000000Y41820000D02*
X48000000Y41820000D01*
X48000000Y43180000D02*
X49000000Y43180000D01*
X42000000Y43180000D02*
X43000000Y43180000D01*
X43000000Y41820000D02*
X42000000Y41820000D01*
X1470000Y31350000D02*
X1470000Y32350000D01*
X2830000Y32350000D02*
X2830000Y31350000D01*
X46180000Y40250000D02*
X46180000Y39250000D01*
X44820000Y39250000D02*
X44820000Y40250000D01*
X34350000Y24770000D02*
X33350000Y24770000D01*
X33350000Y26130000D02*
X34350000Y26130000D01*
X8430000Y32300000D02*
X8430000Y31300000D01*
X7070000Y31300000D02*
X7070000Y32300000D01*
X54930000Y43850000D02*
X54930000Y42850000D01*
X53570000Y42850000D02*
X53570000Y43850000D01*
X17480000Y63950000D02*
X17480000Y62950000D01*
X16120000Y62950000D02*
X16120000Y63950000D01*
X62930000Y40750000D02*
X62930000Y39750000D01*
X61570000Y39750000D02*
X61570000Y40750000D01*
X62930000Y43750000D02*
X62930000Y42750000D01*
X61570000Y42750000D02*
X61570000Y43750000D01*
X11850000Y7530000D02*
X12850000Y7530000D01*
X12850000Y6170000D02*
X11850000Y6170000D01*
X45750000Y55570000D02*
X44750000Y55570000D01*
X44750000Y56930000D02*
X45750000Y56930000D01*
X36850000Y56980000D02*
X37850000Y56980000D01*
X37850000Y55620000D02*
X36850000Y55620000D01*
X33850000Y56980000D02*
X34850000Y56980000D01*
X34850000Y55620000D02*
X33850000Y55620000D01*
D14*
X44464000Y47710000D02*
X44464000Y52790000D01*
X44464000Y52790000D02*
X49036000Y52790000D01*
X49036000Y52790000D02*
X49036000Y47710000D01*
X49036000Y47710000D02*
X44464000Y47710000D01*
X45988000Y47710000D02*
X45988000Y48218000D01*
X45988000Y48218000D02*
X47258000Y48218000D01*
X47258000Y48218000D02*
X47258000Y47710000D01*
X4523607Y49000000D02*
G75*
G03X4523607Y49000000I-223607J0D01*
G01*
X2500000Y50000000D02*
X18500000Y50000000D01*
X18500000Y50000000D02*
X18500000Y34000000D01*
X18500000Y34000000D02*
X2500000Y34000000D01*
X2500000Y34000000D02*
X2500000Y50000000D01*
X18075000Y29425000D02*
X18075000Y28425000D01*
X28425000Y29425000D02*
X28425000Y28350000D01*
X28425000Y19075000D02*
X28425000Y20150000D01*
X18075000Y19075000D02*
X18075000Y20150000D01*
X18075000Y29425000D02*
X19150000Y29425000D01*
X18075000Y19075000D02*
X19150000Y19075000D01*
X28425000Y19075000D02*
X27350000Y19075000D01*
X28425000Y29425000D02*
X27350000Y29425000D01*
X18075000Y28425000D02*
X17050000Y28425000D01*
X60790000Y39964000D02*
X55710000Y39964000D01*
X55710000Y39964000D02*
X55710000Y44536000D01*
X55710000Y44536000D02*
X60790000Y44536000D01*
X60790000Y44536000D02*
X60790000Y39964000D01*
X60790000Y41488000D02*
X60282000Y41488000D01*
X60282000Y41488000D02*
X60282000Y42758000D01*
X60282000Y42758000D02*
X60790000Y42758000D01*
D15*
X33660000Y1720000D02*
X33660000Y4380000D01*
X15820000Y1720000D02*
X33660000Y1720000D01*
X15820000Y4380000D02*
X33660000Y4380000D01*
X15820000Y1720000D02*
X15820000Y4380000D01*
X14550000Y1720000D02*
X13220000Y1720000D01*
X13220000Y1720000D02*
X13220000Y3050000D01*
X9500000Y28400000D02*
X1100000Y28400000D01*
X1100000Y28400000D02*
X1100000Y25000000D01*
X1100000Y25000000D02*
X9500000Y25000000D01*
X9500000Y25000000D02*
X9500000Y28400000D01*
X9500000Y27245000D02*
X10650000Y27650000D01*
X10650000Y27650000D02*
X11100000Y27650000D01*
X9500000Y26155000D02*
X10650000Y25750000D01*
X10650000Y25750000D02*
X11100000Y25750000D01*
D14*
X37351922Y51000000D02*
G75*
G03X37351922Y51000000I-2601922J0D01*
G01*
D15*
X33350000Y24480000D02*
X34350000Y24480000D01*
X34350000Y23120000D02*
X33350000Y23120000D01*
X45900000Y28350000D02*
X45900000Y28800000D01*
X45900000Y28800000D02*
X39600000Y28800000D01*
X39600000Y28800000D02*
X39600000Y28400000D01*
X45900000Y27050000D02*
X45900000Y24350000D01*
X39600000Y24350000D02*
X39600000Y27050000D01*
X45900000Y22600000D02*
X39600000Y22600000D01*
X39600000Y22600000D02*
X39600000Y23050000D01*
X45900000Y23050000D02*
X45900000Y22600000D01*
D14*
X39336905Y56122619D02*
X39336905Y57122619D01*
X39717858Y57122619D01*
X39813096Y57075000D01*
X39860715Y57027381D01*
X39908334Y56932143D01*
X39908334Y56789286D01*
X39860715Y56694048D01*
X39813096Y56646429D01*
X39717858Y56598810D01*
X39336905Y56598810D01*
X40384524Y56122619D02*
X40575000Y56122619D01*
X40670239Y56170238D01*
X40717858Y56217857D01*
X40813096Y56360714D01*
X40860715Y56551190D01*
X40860715Y56932143D01*
X40813096Y57027381D01*
X40765477Y57075000D01*
X40670239Y57122619D01*
X40479762Y57122619D01*
X40384524Y57075000D01*
X40336905Y57027381D01*
X40289286Y56932143D01*
X40289286Y56694048D01*
X40336905Y56598810D01*
X40384524Y56551190D01*
X40479762Y56503571D01*
X40670239Y56503571D01*
X40765477Y56551190D01*
X40813096Y56598810D01*
X40860715Y56694048D01*
X13327381Y54088095D02*
X14136905Y54088095D01*
X14232143Y54135714D01*
X14279762Y54183333D01*
X14327381Y54278571D01*
X14327381Y54469048D01*
X14279762Y54564286D01*
X14232143Y54611905D01*
X14136905Y54659524D01*
X13327381Y54659524D01*
X13327381Y55611905D02*
X13327381Y55135714D01*
X13803571Y55088095D01*
X13755952Y55135714D01*
X13708333Y55230952D01*
X13708333Y55469048D01*
X13755952Y55564286D01*
X13803571Y55611905D01*
X13898810Y55659524D01*
X14136905Y55659524D01*
X14232143Y55611905D01*
X14279762Y55564286D01*
X14327381Y55469048D01*
X14327381Y55230952D01*
X14279762Y55135714D01*
X14232143Y55088095D01*
X51761905Y15547619D02*
X51761905Y16547619D01*
X52142858Y16547619D01*
X52238096Y16500000D01*
X52285715Y16452381D01*
X52333334Y16357143D01*
X52333334Y16214286D01*
X52285715Y16119048D01*
X52238096Y16071429D01*
X52142858Y16023810D01*
X51761905Y16023810D01*
X53190477Y16547619D02*
X53000000Y16547619D01*
X52904762Y16500000D01*
X52857143Y16452381D01*
X52761905Y16309524D01*
X52714286Y16119048D01*
X52714286Y15738095D01*
X52761905Y15642857D01*
X52809524Y15595238D01*
X52904762Y15547619D01*
X53095239Y15547619D01*
X53190477Y15595238D01*
X53238096Y15642857D01*
X53285715Y15738095D01*
X53285715Y15976190D01*
X53238096Y16071429D01*
X53190477Y16119048D01*
X53095239Y16166667D01*
X52904762Y16166667D01*
X52809524Y16119048D01*
X52761905Y16071429D01*
X52714286Y15976190D01*
X33363095Y33397619D02*
X33363095Y32588095D01*
X33410714Y32492857D01*
X33458333Y32445238D01*
X33553571Y32397619D01*
X33744048Y32397619D01*
X33839286Y32445238D01*
X33886905Y32492857D01*
X33934524Y32588095D01*
X33934524Y33397619D01*
X34839286Y33397619D02*
X34648809Y33397619D01*
X34553571Y33350000D01*
X34505952Y33302381D01*
X34410714Y33159524D01*
X34363095Y32969048D01*
X34363095Y32588095D01*
X34410714Y32492857D01*
X34458333Y32445238D01*
X34553571Y32397619D01*
X34744048Y32397619D01*
X34839286Y32445238D01*
X34886905Y32492857D01*
X34934524Y32588095D01*
X34934524Y32826190D01*
X34886905Y32921429D01*
X34839286Y32969048D01*
X34744048Y33016667D01*
X34553571Y33016667D01*
X34458333Y32969048D01*
X34410714Y32921429D01*
X34363095Y32826190D01*
X38036905Y20347619D02*
X38036905Y21347619D01*
X38417858Y21347619D01*
X38513096Y21300000D01*
X38560715Y21252381D01*
X38608334Y21157143D01*
X38608334Y21014286D01*
X38560715Y20919048D01*
X38513096Y20871429D01*
X38417858Y20823810D01*
X38036905Y20823810D01*
X39513096Y21347619D02*
X39036905Y21347619D01*
X38989286Y20871429D01*
X39036905Y20919048D01*
X39132143Y20966667D01*
X39370239Y20966667D01*
X39465477Y20919048D01*
X39513096Y20871429D01*
X39560715Y20776190D01*
X39560715Y20538095D01*
X39513096Y20442857D01*
X39465477Y20395238D01*
X39370239Y20347619D01*
X39132143Y20347619D01*
X39036905Y20395238D01*
X38989286Y20442857D01*
X52282143Y47558334D02*
X52329762Y47510715D01*
X52377381Y47367858D01*
X52377381Y47272620D01*
X52329762Y47129762D01*
X52234524Y47034524D01*
X52139286Y46986905D01*
X51948810Y46939286D01*
X51805952Y46939286D01*
X51615476Y46986905D01*
X51520238Y47034524D01*
X51425000Y47129762D01*
X51377381Y47272620D01*
X51377381Y47367858D01*
X51425000Y47510715D01*
X51472619Y47558334D01*
X52377381Y48510715D02*
X52377381Y47939286D01*
X52377381Y48225000D02*
X51377381Y48225000D01*
X51520238Y48129762D01*
X51615476Y48034524D01*
X51663095Y47939286D01*
X14507143Y19333334D02*
X14554762Y19285715D01*
X14602381Y19142858D01*
X14602381Y19047620D01*
X14554762Y18904762D01*
X14459524Y18809524D01*
X14364286Y18761905D01*
X14173810Y18714286D01*
X14030952Y18714286D01*
X13840476Y18761905D01*
X13745238Y18809524D01*
X13650000Y18904762D01*
X13602381Y19047620D01*
X13602381Y19142858D01*
X13650000Y19285715D01*
X13697619Y19333334D01*
X13697619Y19714286D02*
X13650000Y19761905D01*
X13602381Y19857143D01*
X13602381Y20095239D01*
X13650000Y20190477D01*
X13697619Y20238096D01*
X13792857Y20285715D01*
X13888095Y20285715D01*
X14030952Y20238096D01*
X14602381Y19666667D01*
X14602381Y20285715D01*
X8083334Y29317857D02*
X8035715Y29270238D01*
X7892858Y29222619D01*
X7797620Y29222619D01*
X7654762Y29270238D01*
X7559524Y29365476D01*
X7511905Y29460714D01*
X7464286Y29651190D01*
X7464286Y29794048D01*
X7511905Y29984524D01*
X7559524Y30079762D01*
X7654762Y30175000D01*
X7797620Y30222619D01*
X7892858Y30222619D01*
X8035715Y30175000D01*
X8083334Y30127381D01*
X8416667Y30222619D02*
X9035715Y30222619D01*
X8702381Y29841667D01*
X8845239Y29841667D01*
X8940477Y29794048D01*
X8988096Y29746429D01*
X9035715Y29651190D01*
X9035715Y29413095D01*
X8988096Y29317857D01*
X8940477Y29270238D01*
X8845239Y29222619D01*
X8559524Y29222619D01*
X8464286Y29270238D01*
X8416667Y29317857D01*
X8058334Y23342857D02*
X8010715Y23295238D01*
X7867858Y23247619D01*
X7772620Y23247619D01*
X7629762Y23295238D01*
X7534524Y23390476D01*
X7486905Y23485714D01*
X7439286Y23676190D01*
X7439286Y23819048D01*
X7486905Y24009524D01*
X7534524Y24104762D01*
X7629762Y24200000D01*
X7772620Y24247619D01*
X7867858Y24247619D01*
X8010715Y24200000D01*
X8058334Y24152381D01*
X8915477Y23914286D02*
X8915477Y23247619D01*
X8677381Y24295238D02*
X8439286Y23580952D01*
X9058334Y23580952D01*
X15982143Y19308334D02*
X16029762Y19260715D01*
X16077381Y19117858D01*
X16077381Y19022620D01*
X16029762Y18879762D01*
X15934524Y18784524D01*
X15839286Y18736905D01*
X15648810Y18689286D01*
X15505952Y18689286D01*
X15315476Y18736905D01*
X15220238Y18784524D01*
X15125000Y18879762D01*
X15077381Y19022620D01*
X15077381Y19117858D01*
X15125000Y19260715D01*
X15172619Y19308334D01*
X15077381Y20213096D02*
X15077381Y19736905D01*
X15553571Y19689286D01*
X15505952Y19736905D01*
X15458333Y19832143D01*
X15458333Y20070239D01*
X15505952Y20165477D01*
X15553571Y20213096D01*
X15648810Y20260715D01*
X15886905Y20260715D01*
X15982143Y20213096D01*
X16029762Y20165477D01*
X16077381Y20070239D01*
X16077381Y19832143D01*
X16029762Y19736905D01*
X15982143Y19689286D01*
X14582143Y28833334D02*
X14629762Y28785715D01*
X14677381Y28642858D01*
X14677381Y28547620D01*
X14629762Y28404762D01*
X14534524Y28309524D01*
X14439286Y28261905D01*
X14248810Y28214286D01*
X14105952Y28214286D01*
X13915476Y28261905D01*
X13820238Y28309524D01*
X13725000Y28404762D01*
X13677381Y28547620D01*
X13677381Y28642858D01*
X13725000Y28785715D01*
X13772619Y28833334D01*
X13677381Y29690477D02*
X13677381Y29500000D01*
X13725000Y29404762D01*
X13772619Y29357143D01*
X13915476Y29261905D01*
X14105952Y29214286D01*
X14486905Y29214286D01*
X14582143Y29261905D01*
X14629762Y29309524D01*
X14677381Y29404762D01*
X14677381Y29595239D01*
X14629762Y29690477D01*
X14582143Y29738096D01*
X14486905Y29785715D01*
X14248810Y29785715D01*
X14153571Y29738096D01*
X14105952Y29690477D01*
X14058333Y29595239D01*
X14058333Y29404762D01*
X14105952Y29309524D01*
X14153571Y29261905D01*
X14248810Y29214286D01*
X49283334Y45917857D02*
X49235715Y45870238D01*
X49092858Y45822619D01*
X48997620Y45822619D01*
X48854762Y45870238D01*
X48759524Y45965476D01*
X48711905Y46060714D01*
X48664286Y46251190D01*
X48664286Y46394048D01*
X48711905Y46584524D01*
X48759524Y46679762D01*
X48854762Y46775000D01*
X48997620Y46822619D01*
X49092858Y46822619D01*
X49235715Y46775000D01*
X49283334Y46727381D01*
X49616667Y46822619D02*
X50283334Y46822619D01*
X49854762Y45822619D01*
X19083334Y32892857D02*
X19035715Y32845238D01*
X18892858Y32797619D01*
X18797620Y32797619D01*
X18654762Y32845238D01*
X18559524Y32940476D01*
X18511905Y33035714D01*
X18464286Y33226190D01*
X18464286Y33369048D01*
X18511905Y33559524D01*
X18559524Y33654762D01*
X18654762Y33750000D01*
X18797620Y33797619D01*
X18892858Y33797619D01*
X19035715Y33750000D01*
X19083334Y33702381D01*
X19654762Y33369048D02*
X19559524Y33416667D01*
X19511905Y33464286D01*
X19464286Y33559524D01*
X19464286Y33607143D01*
X19511905Y33702381D01*
X19559524Y33750000D01*
X19654762Y33797619D01*
X19845239Y33797619D01*
X19940477Y33750000D01*
X19988096Y33702381D01*
X20035715Y33607143D01*
X20035715Y33559524D01*
X19988096Y33464286D01*
X19940477Y33416667D01*
X19845239Y33369048D01*
X19654762Y33369048D01*
X19559524Y33321429D01*
X19511905Y33273810D01*
X19464286Y33178571D01*
X19464286Y32988095D01*
X19511905Y32892857D01*
X19559524Y32845238D01*
X19654762Y32797619D01*
X19845239Y32797619D01*
X19940477Y32845238D01*
X19988096Y32892857D01*
X20035715Y32988095D01*
X20035715Y33178571D01*
X19988096Y33273810D01*
X19940477Y33321429D01*
X19845239Y33369048D01*
X17058334Y16442857D02*
X17010715Y16395238D01*
X16867858Y16347619D01*
X16772620Y16347619D01*
X16629762Y16395238D01*
X16534524Y16490476D01*
X16486905Y16585714D01*
X16439286Y16776190D01*
X16439286Y16919048D01*
X16486905Y17109524D01*
X16534524Y17204762D01*
X16629762Y17300000D01*
X16772620Y17347619D01*
X16867858Y17347619D01*
X17010715Y17300000D01*
X17058334Y17252381D01*
X17534524Y16347619D02*
X17725000Y16347619D01*
X17820239Y16395238D01*
X17867858Y16442857D01*
X17963096Y16585714D01*
X18010715Y16776190D01*
X18010715Y17157143D01*
X17963096Y17252381D01*
X17915477Y17300000D01*
X17820239Y17347619D01*
X17629762Y17347619D01*
X17534524Y17300000D01*
X17486905Y17252381D01*
X17439286Y17157143D01*
X17439286Y16919048D01*
X17486905Y16823810D01*
X17534524Y16776190D01*
X17629762Y16728571D01*
X17820239Y16728571D01*
X17915477Y16776190D01*
X17963096Y16823810D01*
X18010715Y16919048D01*
X57832143Y56967857D02*
X57784524Y56920238D01*
X57641667Y56872619D01*
X57546429Y56872619D01*
X57403571Y56920238D01*
X57308333Y57015476D01*
X57260714Y57110714D01*
X57213095Y57301190D01*
X57213095Y57444048D01*
X57260714Y57634524D01*
X57308333Y57729762D01*
X57403571Y57825000D01*
X57546429Y57872619D01*
X57641667Y57872619D01*
X57784524Y57825000D01*
X57832143Y57777381D01*
X58784524Y56872619D02*
X58213095Y56872619D01*
X58498809Y56872619D02*
X58498809Y57872619D01*
X58403571Y57729762D01*
X58308333Y57634524D01*
X58213095Y57586905D01*
X59403571Y57872619D02*
X59498810Y57872619D01*
X59594048Y57825000D01*
X59641667Y57777381D01*
X59689286Y57682143D01*
X59736905Y57491667D01*
X59736905Y57253571D01*
X59689286Y57063095D01*
X59641667Y56967857D01*
X59594048Y56920238D01*
X59498810Y56872619D01*
X59403571Y56872619D01*
X59308333Y56920238D01*
X59260714Y56967857D01*
X59213095Y57063095D01*
X59165476Y57253571D01*
X59165476Y57491667D01*
X59213095Y57682143D01*
X59260714Y57777381D01*
X59308333Y57825000D01*
X59403571Y57872619D01*
X53839048Y50268571D02*
X54600953Y50268571D01*
X54220001Y49887619D02*
X54220001Y50649524D01*
X28757143Y46842857D02*
X28709524Y46795238D01*
X28566667Y46747619D01*
X28471429Y46747619D01*
X28328571Y46795238D01*
X28233333Y46890476D01*
X28185714Y46985714D01*
X28138095Y47176190D01*
X28138095Y47319048D01*
X28185714Y47509524D01*
X28233333Y47604762D01*
X28328571Y47700000D01*
X28471429Y47747619D01*
X28566667Y47747619D01*
X28709524Y47700000D01*
X28757143Y47652381D01*
X29709524Y46747619D02*
X29138095Y46747619D01*
X29423809Y46747619D02*
X29423809Y47747619D01*
X29328571Y47604762D01*
X29233333Y47509524D01*
X29138095Y47461905D01*
X30661905Y46747619D02*
X30090476Y46747619D01*
X30376190Y46747619D02*
X30376190Y47747619D01*
X30280952Y47604762D01*
X30185714Y47509524D01*
X30090476Y47461905D01*
X29489048Y41068571D02*
X30250953Y41068571D01*
X29870001Y40687619D02*
X29870001Y41449524D01*
X29185714Y14735714D02*
X29223810Y14697619D01*
X29261905Y14583333D01*
X29261905Y14507143D01*
X29223810Y14392857D01*
X29147619Y14316666D01*
X29071429Y14278571D01*
X28919048Y14240476D01*
X28804762Y14240476D01*
X28652381Y14278571D01*
X28576190Y14316666D01*
X28500000Y14392857D01*
X28461905Y14507143D01*
X28461905Y14583333D01*
X28500000Y14697619D01*
X28538095Y14735714D01*
X29261905Y15497619D02*
X29261905Y15040476D01*
X29261905Y15269047D02*
X28461905Y15269047D01*
X28576190Y15192857D01*
X28652381Y15116666D01*
X28690476Y15040476D01*
X28538095Y15802381D02*
X28500000Y15840476D01*
X28461905Y15916667D01*
X28461905Y16107143D01*
X28500000Y16183333D01*
X28538095Y16221429D01*
X28614286Y16259524D01*
X28690476Y16259524D01*
X28804762Y16221429D01*
X29261905Y15764286D01*
X29261905Y16259524D01*
X31435714Y25385714D02*
X31473810Y25347619D01*
X31511905Y25233333D01*
X31511905Y25157143D01*
X31473810Y25042857D01*
X31397619Y24966666D01*
X31321429Y24928571D01*
X31169048Y24890476D01*
X31054762Y24890476D01*
X30902381Y24928571D01*
X30826190Y24966666D01*
X30750000Y25042857D01*
X30711905Y25157143D01*
X30711905Y25233333D01*
X30750000Y25347619D01*
X30788095Y25385714D01*
X31511905Y26147619D02*
X31511905Y25690476D01*
X31511905Y25919047D02*
X30711905Y25919047D01*
X30826190Y25842857D01*
X30902381Y25766666D01*
X30940476Y25690476D01*
X30711905Y26414286D02*
X30711905Y26909524D01*
X31016667Y26642857D01*
X31016667Y26757143D01*
X31054762Y26833333D01*
X31092857Y26871429D01*
X31169048Y26909524D01*
X31359524Y26909524D01*
X31435714Y26871429D01*
X31473810Y26833333D01*
X31511905Y26757143D01*
X31511905Y26528571D01*
X31473810Y26452381D01*
X31435714Y26414286D01*
X34485714Y28135714D02*
X34523810Y28097619D01*
X34561905Y27983333D01*
X34561905Y27907143D01*
X34523810Y27792857D01*
X34447619Y27716666D01*
X34371429Y27678571D01*
X34219048Y27640476D01*
X34104762Y27640476D01*
X33952381Y27678571D01*
X33876190Y27716666D01*
X33800000Y27792857D01*
X33761905Y27907143D01*
X33761905Y27983333D01*
X33800000Y28097619D01*
X33838095Y28135714D01*
X34561905Y28897619D02*
X34561905Y28440476D01*
X34561905Y28669047D02*
X33761905Y28669047D01*
X33876190Y28592857D01*
X33952381Y28516666D01*
X33990476Y28440476D01*
X33761905Y29621429D02*
X33761905Y29240476D01*
X34142857Y29202381D01*
X34104762Y29240476D01*
X34066667Y29316667D01*
X34066667Y29507143D01*
X34104762Y29583333D01*
X34142857Y29621429D01*
X34219048Y29659524D01*
X34409524Y29659524D01*
X34485714Y29621429D01*
X34523810Y29583333D01*
X34561905Y29507143D01*
X34561905Y29316667D01*
X34523810Y29240476D01*
X34485714Y29202381D01*
X37582143Y37632143D02*
X37629762Y37584524D01*
X37677381Y37441667D01*
X37677381Y37346429D01*
X37629762Y37203571D01*
X37534524Y37108333D01*
X37439286Y37060714D01*
X37248810Y37013095D01*
X37105952Y37013095D01*
X36915476Y37060714D01*
X36820238Y37108333D01*
X36725000Y37203571D01*
X36677381Y37346429D01*
X36677381Y37441667D01*
X36725000Y37584524D01*
X36772619Y37632143D01*
X37677381Y38584524D02*
X37677381Y38013095D01*
X37677381Y38298809D02*
X36677381Y38298809D01*
X36820238Y38203571D01*
X36915476Y38108333D01*
X36963095Y38013095D01*
X36677381Y39441667D02*
X36677381Y39251190D01*
X36725000Y39155952D01*
X36772619Y39108333D01*
X36915476Y39013095D01*
X37105952Y38965476D01*
X37486905Y38965476D01*
X37582143Y39013095D01*
X37629762Y39060714D01*
X37677381Y39155952D01*
X37677381Y39346429D01*
X37629762Y39441667D01*
X37582143Y39489286D01*
X37486905Y39536905D01*
X37248810Y39536905D01*
X37153571Y39489286D01*
X37105952Y39441667D01*
X37058333Y39346429D01*
X37058333Y39155952D01*
X37105952Y39060714D01*
X37153571Y39013095D01*
X37248810Y38965476D01*
X58832143Y45392857D02*
X58784524Y45345238D01*
X58641667Y45297619D01*
X58546429Y45297619D01*
X58403571Y45345238D01*
X58308333Y45440476D01*
X58260714Y45535714D01*
X58213095Y45726190D01*
X58213095Y45869048D01*
X58260714Y46059524D01*
X58308333Y46154762D01*
X58403571Y46250000D01*
X58546429Y46297619D01*
X58641667Y46297619D01*
X58784524Y46250000D01*
X58832143Y46202381D01*
X59784524Y45297619D02*
X59213095Y45297619D01*
X59498809Y45297619D02*
X59498809Y46297619D01*
X59403571Y46154762D01*
X59308333Y46059524D01*
X59213095Y46011905D01*
X60117857Y46297619D02*
X60784524Y46297619D01*
X60355952Y45297619D01*
X36057143Y37632143D02*
X36104762Y37584524D01*
X36152381Y37441667D01*
X36152381Y37346429D01*
X36104762Y37203571D01*
X36009524Y37108333D01*
X35914286Y37060714D01*
X35723810Y37013095D01*
X35580952Y37013095D01*
X35390476Y37060714D01*
X35295238Y37108333D01*
X35200000Y37203571D01*
X35152381Y37346429D01*
X35152381Y37441667D01*
X35200000Y37584524D01*
X35247619Y37632143D01*
X36152381Y38584524D02*
X36152381Y38013095D01*
X36152381Y38298809D02*
X35152381Y38298809D01*
X35295238Y38203571D01*
X35390476Y38108333D01*
X35438095Y38013095D01*
X35580952Y39155952D02*
X35533333Y39060714D01*
X35485714Y39013095D01*
X35390476Y38965476D01*
X35342857Y38965476D01*
X35247619Y39013095D01*
X35200000Y39060714D01*
X35152381Y39155952D01*
X35152381Y39346429D01*
X35200000Y39441667D01*
X35247619Y39489286D01*
X35342857Y39536905D01*
X35390476Y39536905D01*
X35485714Y39489286D01*
X35533333Y39441667D01*
X35580952Y39346429D01*
X35580952Y39155952D01*
X35628571Y39060714D01*
X35676190Y39013095D01*
X35771429Y38965476D01*
X35961905Y38965476D01*
X36057143Y39013095D01*
X36104762Y39060714D01*
X36152381Y39155952D01*
X36152381Y39346429D01*
X36104762Y39441667D01*
X36057143Y39489286D01*
X35961905Y39536905D01*
X35771429Y39536905D01*
X35676190Y39489286D01*
X35628571Y39441667D01*
X35580952Y39346429D01*
X53107143Y38607143D02*
X53154762Y38559524D01*
X53202381Y38416667D01*
X53202381Y38321429D01*
X53154762Y38178571D01*
X53059524Y38083333D01*
X52964286Y38035714D01*
X52773810Y37988095D01*
X52630952Y37988095D01*
X52440476Y38035714D01*
X52345238Y38083333D01*
X52250000Y38178571D01*
X52202381Y38321429D01*
X52202381Y38416667D01*
X52250000Y38559524D01*
X52297619Y38607143D01*
X53202381Y39559524D02*
X53202381Y38988095D01*
X53202381Y39273809D02*
X52202381Y39273809D01*
X52345238Y39178571D01*
X52440476Y39083333D01*
X52488095Y38988095D01*
X53202381Y40035714D02*
X53202381Y40226190D01*
X53154762Y40321429D01*
X53107143Y40369048D01*
X52964286Y40464286D01*
X52773810Y40511905D01*
X52392857Y40511905D01*
X52297619Y40464286D01*
X52250000Y40416667D01*
X52202381Y40321429D01*
X52202381Y40130952D01*
X52250000Y40035714D01*
X52297619Y39988095D01*
X52392857Y39940476D01*
X52630952Y39940476D01*
X52726190Y39988095D01*
X52773810Y40035714D01*
X52821429Y40130952D01*
X52821429Y40321429D01*
X52773810Y40416667D01*
X52726190Y40464286D01*
X52630952Y40511905D01*
X29707143Y37417857D02*
X29659524Y37370238D01*
X29516667Y37322619D01*
X29421429Y37322619D01*
X29278571Y37370238D01*
X29183333Y37465476D01*
X29135714Y37560714D01*
X29088095Y37751190D01*
X29088095Y37894048D01*
X29135714Y38084524D01*
X29183333Y38179762D01*
X29278571Y38275000D01*
X29421429Y38322619D01*
X29516667Y38322619D01*
X29659524Y38275000D01*
X29707143Y38227381D01*
X30088095Y38227381D02*
X30135714Y38275000D01*
X30230952Y38322619D01*
X30469048Y38322619D01*
X30564286Y38275000D01*
X30611905Y38227381D01*
X30659524Y38132143D01*
X30659524Y38036905D01*
X30611905Y37894048D01*
X30040476Y37322619D01*
X30659524Y37322619D01*
X31278571Y38322619D02*
X31373810Y38322619D01*
X31469048Y38275000D01*
X31516667Y38227381D01*
X31564286Y38132143D01*
X31611905Y37941667D01*
X31611905Y37703571D01*
X31564286Y37513095D01*
X31516667Y37417857D01*
X31469048Y37370238D01*
X31373810Y37322619D01*
X31278571Y37322619D01*
X31183333Y37370238D01*
X31135714Y37417857D01*
X31088095Y37513095D01*
X31040476Y37703571D01*
X31040476Y37941667D01*
X31088095Y38132143D01*
X31135714Y38227381D01*
X31183333Y38275000D01*
X31278571Y38322619D01*
X30957143Y31067857D02*
X30909524Y31020238D01*
X30766667Y30972619D01*
X30671429Y30972619D01*
X30528571Y31020238D01*
X30433333Y31115476D01*
X30385714Y31210714D01*
X30338095Y31401190D01*
X30338095Y31544048D01*
X30385714Y31734524D01*
X30433333Y31829762D01*
X30528571Y31925000D01*
X30671429Y31972619D01*
X30766667Y31972619D01*
X30909524Y31925000D01*
X30957143Y31877381D01*
X31338095Y31877381D02*
X31385714Y31925000D01*
X31480952Y31972619D01*
X31719048Y31972619D01*
X31814286Y31925000D01*
X31861905Y31877381D01*
X31909524Y31782143D01*
X31909524Y31686905D01*
X31861905Y31544048D01*
X31290476Y30972619D01*
X31909524Y30972619D01*
X32861905Y30972619D02*
X32290476Y30972619D01*
X32576190Y30972619D02*
X32576190Y31972619D01*
X32480952Y31829762D01*
X32385714Y31734524D01*
X32290476Y31686905D01*
X60107143Y20042857D02*
X60059524Y19995238D01*
X59916667Y19947619D01*
X59821429Y19947619D01*
X59678571Y19995238D01*
X59583333Y20090476D01*
X59535714Y20185714D01*
X59488095Y20376190D01*
X59488095Y20519048D01*
X59535714Y20709524D01*
X59583333Y20804762D01*
X59678571Y20900000D01*
X59821429Y20947619D01*
X59916667Y20947619D01*
X60059524Y20900000D01*
X60107143Y20852381D01*
X60488095Y20852381D02*
X60535714Y20900000D01*
X60630952Y20947619D01*
X60869048Y20947619D01*
X60964286Y20900000D01*
X61011905Y20852381D01*
X61059524Y20757143D01*
X61059524Y20661905D01*
X61011905Y20519048D01*
X60440476Y19947619D01*
X61059524Y19947619D01*
X61440476Y20852381D02*
X61488095Y20900000D01*
X61583333Y20947619D01*
X61821429Y20947619D01*
X61916667Y20900000D01*
X61964286Y20852381D01*
X62011905Y20757143D01*
X62011905Y20661905D01*
X61964286Y20519048D01*
X61392857Y19947619D01*
X62011905Y19947619D01*
X55457143Y6642857D02*
X55409524Y6595238D01*
X55266667Y6547619D01*
X55171429Y6547619D01*
X55028571Y6595238D01*
X54933333Y6690476D01*
X54885714Y6785714D01*
X54838095Y6976190D01*
X54838095Y7119048D01*
X54885714Y7309524D01*
X54933333Y7404762D01*
X55028571Y7500000D01*
X55171429Y7547619D01*
X55266667Y7547619D01*
X55409524Y7500000D01*
X55457143Y7452381D01*
X55838095Y7452381D02*
X55885714Y7500000D01*
X55980952Y7547619D01*
X56219048Y7547619D01*
X56314286Y7500000D01*
X56361905Y7452381D01*
X56409524Y7357143D01*
X56409524Y7261905D01*
X56361905Y7119048D01*
X55790476Y6547619D01*
X56409524Y6547619D01*
X56742857Y7547619D02*
X57361905Y7547619D01*
X57028571Y7166667D01*
X57171429Y7166667D01*
X57266667Y7119048D01*
X57314286Y7071429D01*
X57361905Y6976190D01*
X57361905Y6738095D01*
X57314286Y6642857D01*
X57266667Y6595238D01*
X57171429Y6547619D01*
X56885714Y6547619D01*
X56790476Y6595238D01*
X56742857Y6642857D01*
X32382143Y5142857D02*
X32334524Y5095238D01*
X32191667Y5047619D01*
X32096429Y5047619D01*
X31953571Y5095238D01*
X31858333Y5190476D01*
X31810714Y5285714D01*
X31763095Y5476190D01*
X31763095Y5619048D01*
X31810714Y5809524D01*
X31858333Y5904762D01*
X31953571Y6000000D01*
X32096429Y6047619D01*
X32191667Y6047619D01*
X32334524Y6000000D01*
X32382143Y5952381D01*
X32763095Y5952381D02*
X32810714Y6000000D01*
X32905952Y6047619D01*
X33144048Y6047619D01*
X33239286Y6000000D01*
X33286905Y5952381D01*
X33334524Y5857143D01*
X33334524Y5761905D01*
X33286905Y5619048D01*
X32715476Y5047619D01*
X33334524Y5047619D01*
X34191667Y5714286D02*
X34191667Y5047619D01*
X33953571Y6095238D02*
X33715476Y5380952D01*
X34334524Y5380952D01*
X40536905Y47422619D02*
X40536905Y48422619D01*
X40775000Y48422619D01*
X40917858Y48375000D01*
X41013096Y48279762D01*
X41060715Y48184524D01*
X41108334Y47994048D01*
X41108334Y47851190D01*
X41060715Y47660714D01*
X41013096Y47565476D01*
X40917858Y47470238D01*
X40775000Y47422619D01*
X40536905Y47422619D01*
X42060715Y47422619D02*
X41489286Y47422619D01*
X41775000Y47422619D02*
X41775000Y48422619D01*
X41679762Y48279762D01*
X41584524Y48184524D01*
X41489286Y48136905D01*
X36877381Y21986905D02*
X35877381Y21986905D01*
X35877381Y22225000D01*
X35925000Y22367858D01*
X36020238Y22463096D01*
X36115476Y22510715D01*
X36305952Y22558334D01*
X36448810Y22558334D01*
X36639286Y22510715D01*
X36734524Y22463096D01*
X36829762Y22367858D01*
X36877381Y22225000D01*
X36877381Y21986905D01*
X35972619Y22939286D02*
X35925000Y22986905D01*
X35877381Y23082143D01*
X35877381Y23320239D01*
X35925000Y23415477D01*
X35972619Y23463096D01*
X36067857Y23510715D01*
X36163095Y23510715D01*
X36305952Y23463096D01*
X36877381Y22891667D01*
X36877381Y23510715D01*
X7711905Y4647619D02*
X7711905Y5647619D01*
X7950000Y5647619D01*
X8092858Y5600000D01*
X8188096Y5504762D01*
X8235715Y5409524D01*
X8283334Y5219048D01*
X8283334Y5076190D01*
X8235715Y4885714D01*
X8188096Y4790476D01*
X8092858Y4695238D01*
X7950000Y4647619D01*
X7711905Y4647619D01*
X8616667Y5647619D02*
X9235715Y5647619D01*
X8902381Y5266667D01*
X9045239Y5266667D01*
X9140477Y5219048D01*
X9188096Y5171429D01*
X9235715Y5076190D01*
X9235715Y4838095D01*
X9188096Y4742857D01*
X9140477Y4695238D01*
X9045239Y4647619D01*
X8759524Y4647619D01*
X8664286Y4695238D01*
X8616667Y4742857D01*
X7161905Y15322619D02*
X7161905Y16322619D01*
X7400000Y16322619D01*
X7542858Y16275000D01*
X7638096Y16179762D01*
X7685715Y16084524D01*
X7733334Y15894048D01*
X7733334Y15751190D01*
X7685715Y15560714D01*
X7638096Y15465476D01*
X7542858Y15370238D01*
X7400000Y15322619D01*
X7161905Y15322619D01*
X8590477Y15989286D02*
X8590477Y15322619D01*
X8352381Y16370238D02*
X8114286Y15655952D01*
X8733334Y15655952D01*
X29178571Y54991667D02*
X29178571Y54658333D01*
X29702381Y54658333D02*
X28702381Y54658333D01*
X28702381Y55134524D01*
X29178571Y55848810D02*
X29226190Y55991667D01*
X29273810Y56039286D01*
X29369048Y56086905D01*
X29511905Y56086905D01*
X29607143Y56039286D01*
X29654762Y55991667D01*
X29702381Y55896429D01*
X29702381Y55515476D01*
X28702381Y55515476D01*
X28702381Y55848810D01*
X28750000Y55944048D01*
X28797619Y55991667D01*
X28892857Y56039286D01*
X28988095Y56039286D01*
X29083333Y55991667D01*
X29130952Y55944048D01*
X29178571Y55848810D01*
X29178571Y55515476D01*
X29702381Y57039286D02*
X29702381Y56467857D01*
X29702381Y56753571D02*
X28702381Y56753571D01*
X28845238Y56658333D01*
X28940476Y56563095D01*
X28988095Y56467857D01*
X941667Y56922619D02*
X941667Y56208333D01*
X894047Y56065476D01*
X798809Y55970238D01*
X655952Y55922619D01*
X560714Y55922619D01*
X1941667Y55922619D02*
X1370238Y55922619D01*
X1655952Y55922619D02*
X1655952Y56922619D01*
X1560714Y56779762D01*
X1465476Y56684524D01*
X1370238Y56636905D01*
X25902381Y51616667D02*
X26616667Y51616667D01*
X26759524Y51569047D01*
X26854762Y51473809D01*
X26902381Y51330952D01*
X26902381Y51235714D01*
X26902381Y52092857D02*
X25902381Y52092857D01*
X25902381Y52473810D01*
X25950000Y52569048D01*
X25997619Y52616667D01*
X26092857Y52664286D01*
X26235714Y52664286D01*
X26330952Y52616667D01*
X26378571Y52569048D01*
X26426190Y52473810D01*
X26426190Y52092857D01*
X26902381Y53616667D02*
X26902381Y53045238D01*
X26902381Y53330952D02*
X25902381Y53330952D01*
X26045238Y53235714D01*
X26140476Y53140476D01*
X26188095Y53045238D01*
X48008334Y25522619D02*
X47532143Y25522619D01*
X47532143Y26522619D01*
X48294048Y26427381D02*
X48341667Y26475000D01*
X48436905Y26522619D01*
X48675001Y26522619D01*
X48770239Y26475000D01*
X48817858Y26427381D01*
X48865477Y26332143D01*
X48865477Y26236905D01*
X48817858Y26094048D01*
X48246429Y25522619D01*
X48865477Y25522619D01*
X58536905Y63397619D02*
X58536905Y64397619D01*
X58917858Y64397619D01*
X59013096Y64350000D01*
X59060715Y64302381D01*
X59108334Y64207143D01*
X59108334Y64064286D01*
X59060715Y63969048D01*
X59013096Y63921429D01*
X58917858Y63873810D01*
X58536905Y63873810D01*
X60060715Y63397619D02*
X59489286Y63397619D01*
X59775000Y63397619D02*
X59775000Y64397619D01*
X59679762Y64254762D01*
X59584524Y64159524D01*
X59489286Y64111905D01*
X41186905Y33872619D02*
X41186905Y34872619D01*
X41567858Y34872619D01*
X41663096Y34825000D01*
X41710715Y34777381D01*
X41758334Y34682143D01*
X41758334Y34539286D01*
X41710715Y34444048D01*
X41663096Y34396429D01*
X41567858Y34348810D01*
X41186905Y34348810D01*
X42139286Y34777381D02*
X42186905Y34825000D01*
X42282143Y34872619D01*
X42520239Y34872619D01*
X42615477Y34825000D01*
X42663096Y34777381D01*
X42710715Y34682143D01*
X42710715Y34586905D01*
X42663096Y34444048D01*
X42091667Y33872619D01*
X42710715Y33872619D01*
X15127381Y68836905D02*
X14127381Y68836905D01*
X14127381Y69217858D01*
X14175000Y69313096D01*
X14222619Y69360715D01*
X14317857Y69408334D01*
X14460714Y69408334D01*
X14555952Y69360715D01*
X14603571Y69313096D01*
X14651190Y69217858D01*
X14651190Y68836905D01*
X14127381Y69741667D02*
X14127381Y70360715D01*
X14508333Y70027381D01*
X14508333Y70170239D01*
X14555952Y70265477D01*
X14603571Y70313096D01*
X14698810Y70360715D01*
X14936905Y70360715D01*
X15032143Y70313096D01*
X15079762Y70265477D01*
X15127381Y70170239D01*
X15127381Y69884524D01*
X15079762Y69789286D01*
X15032143Y69741667D01*
X19577381Y64361905D02*
X18577381Y64361905D01*
X18577381Y64742858D01*
X18625000Y64838096D01*
X18672619Y64885715D01*
X18767857Y64933334D01*
X18910714Y64933334D01*
X19005952Y64885715D01*
X19053571Y64838096D01*
X19101190Y64742858D01*
X19101190Y64361905D01*
X18910714Y65790477D02*
X19577381Y65790477D01*
X18529762Y65552381D02*
X19244048Y65314286D01*
X19244048Y65933334D01*
X8202381Y63486905D02*
X7202381Y63486905D01*
X7202381Y63867858D01*
X7250000Y63963096D01*
X7297619Y64010715D01*
X7392857Y64058334D01*
X7535714Y64058334D01*
X7630952Y64010715D01*
X7678571Y63963096D01*
X7726190Y63867858D01*
X7726190Y63486905D01*
X7202381Y64391667D02*
X7202381Y65058334D01*
X8202381Y64629762D01*
X26904762Y41027381D02*
X26809524Y41075000D01*
X26714286Y41170238D01*
X26571429Y41313095D01*
X26476190Y41360714D01*
X26380952Y41360714D01*
X26428571Y41122619D02*
X26333333Y41170238D01*
X26238095Y41265476D01*
X26190476Y41455952D01*
X26190476Y41789286D01*
X26238095Y41979762D01*
X26333333Y42075000D01*
X26428571Y42122619D01*
X26619048Y42122619D01*
X26714286Y42075000D01*
X26809524Y41979762D01*
X26857143Y41789286D01*
X26857143Y41455952D01*
X26809524Y41265476D01*
X26714286Y41170238D01*
X26619048Y41122619D01*
X26428571Y41122619D01*
X27809524Y41122619D02*
X27238095Y41122619D01*
X27523809Y41122619D02*
X27523809Y42122619D01*
X27428571Y41979762D01*
X27333333Y41884524D01*
X27238095Y41836905D01*
X48429762Y36302381D02*
X48334524Y36350000D01*
X48239286Y36445238D01*
X48096429Y36588095D01*
X48001190Y36635714D01*
X47905952Y36635714D01*
X47953571Y36397619D02*
X47858333Y36445238D01*
X47763095Y36540476D01*
X47715476Y36730952D01*
X47715476Y37064286D01*
X47763095Y37254762D01*
X47858333Y37350000D01*
X47953571Y37397619D01*
X48144048Y37397619D01*
X48239286Y37350000D01*
X48334524Y37254762D01*
X48382143Y37064286D01*
X48382143Y36730952D01*
X48334524Y36540476D01*
X48239286Y36445238D01*
X48144048Y36397619D01*
X47953571Y36397619D01*
X48763095Y37302381D02*
X48810714Y37350000D01*
X48905952Y37397619D01*
X49144048Y37397619D01*
X49239286Y37350000D01*
X49286905Y37302381D01*
X49334524Y37207143D01*
X49334524Y37111905D01*
X49286905Y36969048D01*
X48715476Y36397619D01*
X49334524Y36397619D01*
X42379762Y36577381D02*
X42284524Y36625000D01*
X42189286Y36720238D01*
X42046429Y36863095D01*
X41951190Y36910714D01*
X41855952Y36910714D01*
X41903571Y36672619D02*
X41808333Y36720238D01*
X41713095Y36815476D01*
X41665476Y37005952D01*
X41665476Y37339286D01*
X41713095Y37529762D01*
X41808333Y37625000D01*
X41903571Y37672619D01*
X42094048Y37672619D01*
X42189286Y37625000D01*
X42284524Y37529762D01*
X42332143Y37339286D01*
X42332143Y37005952D01*
X42284524Y36815476D01*
X42189286Y36720238D01*
X42094048Y36672619D01*
X41903571Y36672619D01*
X42665476Y37672619D02*
X43284524Y37672619D01*
X42951190Y37291667D01*
X43094048Y37291667D01*
X43189286Y37244048D01*
X43236905Y37196429D01*
X43284524Y37101190D01*
X43284524Y36863095D01*
X43236905Y36767857D01*
X43189286Y36720238D01*
X43094048Y36672619D01*
X42808333Y36672619D01*
X42713095Y36720238D01*
X42665476Y36767857D01*
X4904762Y29102381D02*
X4809524Y29150000D01*
X4714286Y29245238D01*
X4571429Y29388095D01*
X4476190Y29435714D01*
X4380952Y29435714D01*
X4428571Y29197619D02*
X4333333Y29245238D01*
X4238095Y29340476D01*
X4190476Y29530952D01*
X4190476Y29864286D01*
X4238095Y30054762D01*
X4333333Y30150000D01*
X4428571Y30197619D01*
X4619048Y30197619D01*
X4714286Y30150000D01*
X4809524Y30054762D01*
X4857143Y29864286D01*
X4857143Y29530952D01*
X4809524Y29340476D01*
X4714286Y29245238D01*
X4619048Y29197619D01*
X4428571Y29197619D01*
X5714286Y29864286D02*
X5714286Y29197619D01*
X5476190Y30245238D02*
X5238095Y29530952D01*
X5857143Y29530952D01*
X56577381Y62558334D02*
X56101190Y62225000D01*
X56577381Y61986905D02*
X55577381Y61986905D01*
X55577381Y62367858D01*
X55625000Y62463096D01*
X55672619Y62510715D01*
X55767857Y62558334D01*
X55910714Y62558334D01*
X56005952Y62510715D01*
X56053571Y62463096D01*
X56101190Y62367858D01*
X56101190Y61986905D01*
X56577381Y63510715D02*
X56577381Y62939286D01*
X56577381Y63225000D02*
X55577381Y63225000D01*
X55720238Y63129762D01*
X55815476Y63034524D01*
X55863095Y62939286D01*
X25858334Y43797619D02*
X25525000Y44273810D01*
X25286905Y43797619D02*
X25286905Y44797619D01*
X25667858Y44797619D01*
X25763096Y44750000D01*
X25810715Y44702381D01*
X25858334Y44607143D01*
X25858334Y44464286D01*
X25810715Y44369048D01*
X25763096Y44321429D01*
X25667858Y44273810D01*
X25286905Y44273810D01*
X26239286Y44702381D02*
X26286905Y44750000D01*
X26382143Y44797619D01*
X26620239Y44797619D01*
X26715477Y44750000D01*
X26763096Y44702381D01*
X26810715Y44607143D01*
X26810715Y44511905D01*
X26763096Y44369048D01*
X26191667Y43797619D01*
X26810715Y43797619D01*
X56602381Y59408334D02*
X56126190Y59075000D01*
X56602381Y58836905D02*
X55602381Y58836905D01*
X55602381Y59217858D01*
X55650000Y59313096D01*
X55697619Y59360715D01*
X55792857Y59408334D01*
X55935714Y59408334D01*
X56030952Y59360715D01*
X56078571Y59313096D01*
X56126190Y59217858D01*
X56126190Y58836905D01*
X55602381Y59741667D02*
X55602381Y60360715D01*
X55983333Y60027381D01*
X55983333Y60170239D01*
X56030952Y60265477D01*
X56078571Y60313096D01*
X56173810Y60360715D01*
X56411905Y60360715D01*
X56507143Y60313096D01*
X56554762Y60265477D01*
X56602381Y60170239D01*
X56602381Y59884524D01*
X56554762Y59789286D01*
X56507143Y59741667D01*
X25752381Y49108334D02*
X25276190Y48775000D01*
X25752381Y48536905D02*
X24752381Y48536905D01*
X24752381Y48917858D01*
X24800000Y49013096D01*
X24847619Y49060715D01*
X24942857Y49108334D01*
X25085714Y49108334D01*
X25180952Y49060715D01*
X25228571Y49013096D01*
X25276190Y48917858D01*
X25276190Y48536905D01*
X25085714Y49965477D02*
X25752381Y49965477D01*
X24704762Y49727381D02*
X25419048Y49489286D01*
X25419048Y50108334D01*
X27252381Y49158334D02*
X26776190Y48825000D01*
X27252381Y48586905D02*
X26252381Y48586905D01*
X26252381Y48967858D01*
X26300000Y49063096D01*
X26347619Y49110715D01*
X26442857Y49158334D01*
X26585714Y49158334D01*
X26680952Y49110715D01*
X26728571Y49063096D01*
X26776190Y48967858D01*
X26776190Y48586905D01*
X26252381Y50063096D02*
X26252381Y49586905D01*
X26728571Y49539286D01*
X26680952Y49586905D01*
X26633333Y49682143D01*
X26633333Y49920239D01*
X26680952Y50015477D01*
X26728571Y50063096D01*
X26823810Y50110715D01*
X27061905Y50110715D01*
X27157143Y50063096D01*
X27204762Y50015477D01*
X27252381Y49920239D01*
X27252381Y49682143D01*
X27204762Y49586905D01*
X27157143Y49539286D01*
X26058334Y38097619D02*
X25725000Y38573810D01*
X25486905Y38097619D02*
X25486905Y39097619D01*
X25867858Y39097619D01*
X25963096Y39050000D01*
X26010715Y39002381D01*
X26058334Y38907143D01*
X26058334Y38764286D01*
X26010715Y38669048D01*
X25963096Y38621429D01*
X25867858Y38573810D01*
X25486905Y38573810D01*
X26915477Y39097619D02*
X26725000Y39097619D01*
X26629762Y39050000D01*
X26582143Y39002381D01*
X26486905Y38859524D01*
X26439286Y38669048D01*
X26439286Y38288095D01*
X26486905Y38192857D01*
X26534524Y38145238D01*
X26629762Y38097619D01*
X26820239Y38097619D01*
X26915477Y38145238D01*
X26963096Y38192857D01*
X27010715Y38288095D01*
X27010715Y38526190D01*
X26963096Y38621429D01*
X26915477Y38669048D01*
X26820239Y38716667D01*
X26629762Y38716667D01*
X26534524Y38669048D01*
X26486905Y38621429D01*
X26439286Y38526190D01*
X40402381Y51283334D02*
X39926190Y50950000D01*
X40402381Y50711905D02*
X39402381Y50711905D01*
X39402381Y51092858D01*
X39450000Y51188096D01*
X39497619Y51235715D01*
X39592857Y51283334D01*
X39735714Y51283334D01*
X39830952Y51235715D01*
X39878571Y51188096D01*
X39926190Y51092858D01*
X39926190Y50711905D01*
X39402381Y51616667D02*
X39402381Y52283334D01*
X40402381Y51854762D01*
X41983334Y54997619D02*
X41650000Y55473810D01*
X41411905Y54997619D02*
X41411905Y55997619D01*
X41792858Y55997619D01*
X41888096Y55950000D01*
X41935715Y55902381D01*
X41983334Y55807143D01*
X41983334Y55664286D01*
X41935715Y55569048D01*
X41888096Y55521429D01*
X41792858Y55473810D01*
X41411905Y55473810D01*
X42554762Y55569048D02*
X42459524Y55616667D01*
X42411905Y55664286D01*
X42364286Y55759524D01*
X42364286Y55807143D01*
X42411905Y55902381D01*
X42459524Y55950000D01*
X42554762Y55997619D01*
X42745239Y55997619D01*
X42840477Y55950000D01*
X42888096Y55902381D01*
X42935715Y55807143D01*
X42935715Y55759524D01*
X42888096Y55664286D01*
X42840477Y55616667D01*
X42745239Y55569048D01*
X42554762Y55569048D01*
X42459524Y55521429D01*
X42411905Y55473810D01*
X42364286Y55378571D01*
X42364286Y55188095D01*
X42411905Y55092857D01*
X42459524Y55045238D01*
X42554762Y54997619D01*
X42745239Y54997619D01*
X42840477Y55045238D01*
X42888096Y55092857D01*
X42935715Y55188095D01*
X42935715Y55378571D01*
X42888096Y55473810D01*
X42840477Y55521429D01*
X42745239Y55569048D01*
X46033334Y42022619D02*
X45700000Y42498810D01*
X45461905Y42022619D02*
X45461905Y43022619D01*
X45842858Y43022619D01*
X45938096Y42975000D01*
X45985715Y42927381D01*
X46033334Y42832143D01*
X46033334Y42689286D01*
X45985715Y42594048D01*
X45938096Y42546429D01*
X45842858Y42498810D01*
X45461905Y42498810D01*
X46509524Y42022619D02*
X46700000Y42022619D01*
X46795239Y42070238D01*
X46842858Y42117857D01*
X46938096Y42260714D01*
X46985715Y42451190D01*
X46985715Y42832143D01*
X46938096Y42927381D01*
X46890477Y42975000D01*
X46795239Y43022619D01*
X46604762Y43022619D01*
X46509524Y42975000D01*
X46461905Y42927381D01*
X46414286Y42832143D01*
X46414286Y42594048D01*
X46461905Y42498810D01*
X46509524Y42451190D01*
X46604762Y42403571D01*
X46795239Y42403571D01*
X46890477Y42451190D01*
X46938096Y42498810D01*
X46985715Y42594048D01*
X39032143Y41922619D02*
X38698809Y42398810D01*
X38460714Y41922619D02*
X38460714Y42922619D01*
X38841667Y42922619D01*
X38936905Y42875000D01*
X38984524Y42827381D01*
X39032143Y42732143D01*
X39032143Y42589286D01*
X38984524Y42494048D01*
X38936905Y42446429D01*
X38841667Y42398810D01*
X38460714Y42398810D01*
X39984524Y41922619D02*
X39413095Y41922619D01*
X39698809Y41922619D02*
X39698809Y42922619D01*
X39603571Y42779762D01*
X39508333Y42684524D01*
X39413095Y42636905D01*
X40603571Y42922619D02*
X40698810Y42922619D01*
X40794048Y42875000D01*
X40841667Y42827381D01*
X40889286Y42732143D01*
X40936905Y42541667D01*
X40936905Y42303571D01*
X40889286Y42113095D01*
X40841667Y42017857D01*
X40794048Y41970238D01*
X40698810Y41922619D01*
X40603571Y41922619D01*
X40508333Y41970238D01*
X40460714Y42017857D01*
X40413095Y42113095D01*
X40365476Y42303571D01*
X40365476Y42541667D01*
X40413095Y42732143D01*
X40460714Y42827381D01*
X40508333Y42875000D01*
X40603571Y42922619D01*
X1211905Y31410714D02*
X830952Y31144047D01*
X1211905Y30953571D02*
X411905Y30953571D01*
X411905Y31258333D01*
X450000Y31334524D01*
X488095Y31372619D01*
X564286Y31410714D01*
X678571Y31410714D01*
X754762Y31372619D01*
X792857Y31334524D01*
X830952Y31258333D01*
X830952Y30953571D01*
X1211905Y32172619D02*
X1211905Y31715476D01*
X1211905Y31944047D02*
X411905Y31944047D01*
X526190Y31867857D01*
X602381Y31791666D01*
X640476Y31715476D01*
X1211905Y32934524D02*
X1211905Y32477381D01*
X1211905Y32705952D02*
X411905Y32705952D01*
X526190Y32629762D01*
X602381Y32553571D01*
X640476Y32477381D01*
X45877381Y36132143D02*
X45401190Y35798809D01*
X45877381Y35560714D02*
X44877381Y35560714D01*
X44877381Y35941667D01*
X44925000Y36036905D01*
X44972619Y36084524D01*
X45067857Y36132143D01*
X45210714Y36132143D01*
X45305952Y36084524D01*
X45353571Y36036905D01*
X45401190Y35941667D01*
X45401190Y35560714D01*
X45877381Y37084524D02*
X45877381Y36513095D01*
X45877381Y36798809D02*
X44877381Y36798809D01*
X45020238Y36703571D01*
X45115476Y36608333D01*
X45163095Y36513095D01*
X44972619Y37465476D02*
X44925000Y37513095D01*
X44877381Y37608333D01*
X44877381Y37846429D01*
X44925000Y37941667D01*
X44972619Y37989286D01*
X45067857Y38036905D01*
X45163095Y38036905D01*
X45305952Y37989286D01*
X45877381Y37417857D01*
X45877381Y38036905D01*
X33335714Y26463095D02*
X33069047Y26844048D01*
X32878571Y26463095D02*
X32878571Y27263095D01*
X33183333Y27263095D01*
X33259524Y27225000D01*
X33297619Y27186905D01*
X33335714Y27110714D01*
X33335714Y26996429D01*
X33297619Y26920238D01*
X33259524Y26882143D01*
X33183333Y26844048D01*
X32878571Y26844048D01*
X34097619Y26463095D02*
X33640476Y26463095D01*
X33869047Y26463095D02*
X33869047Y27263095D01*
X33792857Y27148810D01*
X33716666Y27072619D01*
X33640476Y27034524D01*
X34364286Y27263095D02*
X34859524Y27263095D01*
X34592857Y26958333D01*
X34707143Y26958333D01*
X34783333Y26920238D01*
X34821429Y26882143D01*
X34859524Y26805952D01*
X34859524Y26615476D01*
X34821429Y26539286D01*
X34783333Y26501190D01*
X34707143Y26463095D01*
X34478571Y26463095D01*
X34402381Y26501190D01*
X34364286Y26539286D01*
X9586905Y31360714D02*
X9205952Y31094047D01*
X9586905Y30903571D02*
X8786905Y30903571D01*
X8786905Y31208333D01*
X8825000Y31284524D01*
X8863095Y31322619D01*
X8939286Y31360714D01*
X9053571Y31360714D01*
X9129762Y31322619D01*
X9167857Y31284524D01*
X9205952Y31208333D01*
X9205952Y30903571D01*
X9586905Y32122619D02*
X9586905Y31665476D01*
X9586905Y31894047D02*
X8786905Y31894047D01*
X8901190Y31817857D01*
X8977381Y31741666D01*
X9015476Y31665476D01*
X9053571Y32808333D02*
X9586905Y32808333D01*
X8748810Y32617857D02*
X9320238Y32427381D01*
X9320238Y32922619D01*
X53252381Y42707143D02*
X52776190Y42373809D01*
X53252381Y42135714D02*
X52252381Y42135714D01*
X52252381Y42516667D01*
X52300000Y42611905D01*
X52347619Y42659524D01*
X52442857Y42707143D01*
X52585714Y42707143D01*
X52680952Y42659524D01*
X52728571Y42611905D01*
X52776190Y42516667D01*
X52776190Y42135714D01*
X53252381Y43659524D02*
X53252381Y43088095D01*
X53252381Y43373809D02*
X52252381Y43373809D01*
X52395238Y43278571D01*
X52490476Y43183333D01*
X52538095Y43088095D01*
X52252381Y44564286D02*
X52252381Y44088095D01*
X52728571Y44040476D01*
X52680952Y44088095D01*
X52633333Y44183333D01*
X52633333Y44421429D01*
X52680952Y44516667D01*
X52728571Y44564286D01*
X52823810Y44611905D01*
X53061905Y44611905D01*
X53157143Y44564286D01*
X53204762Y44516667D01*
X53252381Y44421429D01*
X53252381Y44183333D01*
X53204762Y44088095D01*
X53157143Y44040476D01*
X15777381Y62782143D02*
X15301190Y62448809D01*
X15777381Y62210714D02*
X14777381Y62210714D01*
X14777381Y62591667D01*
X14825000Y62686905D01*
X14872619Y62734524D01*
X14967857Y62782143D01*
X15110714Y62782143D01*
X15205952Y62734524D01*
X15253571Y62686905D01*
X15301190Y62591667D01*
X15301190Y62210714D01*
X15777381Y63734524D02*
X15777381Y63163095D01*
X15777381Y63448809D02*
X14777381Y63448809D01*
X14920238Y63353571D01*
X15015476Y63258333D01*
X15063095Y63163095D01*
X14777381Y64591667D02*
X14777381Y64401190D01*
X14825000Y64305952D01*
X14872619Y64258333D01*
X15015476Y64163095D01*
X15205952Y64115476D01*
X15586905Y64115476D01*
X15682143Y64163095D01*
X15729762Y64210714D01*
X15777381Y64305952D01*
X15777381Y64496429D01*
X15729762Y64591667D01*
X15682143Y64639286D01*
X15586905Y64686905D01*
X15348810Y64686905D01*
X15253571Y64639286D01*
X15205952Y64591667D01*
X15158333Y64496429D01*
X15158333Y64305952D01*
X15205952Y64210714D01*
X15253571Y64163095D01*
X15348810Y64115476D01*
X62677381Y36582143D02*
X62201190Y36248809D01*
X62677381Y36010714D02*
X61677381Y36010714D01*
X61677381Y36391667D01*
X61725000Y36486905D01*
X61772619Y36534524D01*
X61867857Y36582143D01*
X62010714Y36582143D01*
X62105952Y36534524D01*
X62153571Y36486905D01*
X62201190Y36391667D01*
X62201190Y36010714D01*
X62677381Y37534524D02*
X62677381Y36963095D01*
X62677381Y37248809D02*
X61677381Y37248809D01*
X61820238Y37153571D01*
X61915476Y37058333D01*
X61963095Y36963095D01*
X61677381Y37867857D02*
X61677381Y38534524D01*
X62677381Y38105952D01*
X62752381Y45232143D02*
X62276190Y44898809D01*
X62752381Y44660714D02*
X61752381Y44660714D01*
X61752381Y45041667D01*
X61800000Y45136905D01*
X61847619Y45184524D01*
X61942857Y45232143D01*
X62085714Y45232143D01*
X62180952Y45184524D01*
X62228571Y45136905D01*
X62276190Y45041667D01*
X62276190Y44660714D01*
X62752381Y46184524D02*
X62752381Y45613095D01*
X62752381Y45898809D02*
X61752381Y45898809D01*
X61895238Y45803571D01*
X61990476Y45708333D01*
X62038095Y45613095D01*
X62180952Y46755952D02*
X62133333Y46660714D01*
X62085714Y46613095D01*
X61990476Y46565476D01*
X61942857Y46565476D01*
X61847619Y46613095D01*
X61800000Y46660714D01*
X61752381Y46755952D01*
X61752381Y46946429D01*
X61800000Y47041667D01*
X61847619Y47089286D01*
X61942857Y47136905D01*
X61990476Y47136905D01*
X62085714Y47089286D01*
X62133333Y47041667D01*
X62180952Y46946429D01*
X62180952Y46755952D01*
X62228571Y46660714D01*
X62276190Y46613095D01*
X62371429Y46565476D01*
X62561905Y46565476D01*
X62657143Y46613095D01*
X62704762Y46660714D01*
X62752381Y46755952D01*
X62752381Y46946429D01*
X62704762Y47041667D01*
X62657143Y47089286D01*
X62561905Y47136905D01*
X62371429Y47136905D01*
X62276190Y47089286D01*
X62228571Y47041667D01*
X62180952Y46946429D01*
X14507143Y6422619D02*
X14173809Y6898810D01*
X13935714Y6422619D02*
X13935714Y7422619D01*
X14316667Y7422619D01*
X14411905Y7375000D01*
X14459524Y7327381D01*
X14507143Y7232143D01*
X14507143Y7089286D01*
X14459524Y6994048D01*
X14411905Y6946429D01*
X14316667Y6898810D01*
X13935714Y6898810D01*
X15459524Y6422619D02*
X14888095Y6422619D01*
X15173809Y6422619D02*
X15173809Y7422619D01*
X15078571Y7279762D01*
X14983333Y7184524D01*
X14888095Y7136905D01*
X15935714Y6422619D02*
X16126190Y6422619D01*
X16221429Y6470238D01*
X16269048Y6517857D01*
X16364286Y6660714D01*
X16411905Y6851190D01*
X16411905Y7232143D01*
X16364286Y7327381D01*
X16316667Y7375000D01*
X16221429Y7422619D01*
X16030952Y7422619D01*
X15935714Y7375000D01*
X15888095Y7327381D01*
X15840476Y7232143D01*
X15840476Y6994048D01*
X15888095Y6898810D01*
X15935714Y6851190D01*
X16030952Y6803571D01*
X16221429Y6803571D01*
X16316667Y6851190D01*
X16364286Y6898810D01*
X16411905Y6994048D01*
X47507143Y55822619D02*
X47173809Y56298810D01*
X46935714Y55822619D02*
X46935714Y56822619D01*
X47316667Y56822619D01*
X47411905Y56775000D01*
X47459524Y56727381D01*
X47507143Y56632143D01*
X47507143Y56489286D01*
X47459524Y56394048D01*
X47411905Y56346429D01*
X47316667Y56298810D01*
X46935714Y56298810D01*
X47888095Y56727381D02*
X47935714Y56775000D01*
X48030952Y56822619D01*
X48269048Y56822619D01*
X48364286Y56775000D01*
X48411905Y56727381D01*
X48459524Y56632143D01*
X48459524Y56536905D01*
X48411905Y56394048D01*
X47840476Y55822619D01*
X48459524Y55822619D01*
X49078571Y56822619D02*
X49173810Y56822619D01*
X49269048Y56775000D01*
X49316667Y56727381D01*
X49364286Y56632143D01*
X49411905Y56441667D01*
X49411905Y56203571D01*
X49364286Y56013095D01*
X49316667Y55917857D01*
X49269048Y55870238D01*
X49173810Y55822619D01*
X49078571Y55822619D01*
X48983333Y55870238D01*
X48935714Y55917857D01*
X48888095Y56013095D01*
X48840476Y56203571D01*
X48840476Y56441667D01*
X48888095Y56632143D01*
X48935714Y56727381D01*
X48983333Y56775000D01*
X49078571Y56822619D01*
X36707143Y54397619D02*
X36373809Y54873810D01*
X36135714Y54397619D02*
X36135714Y55397619D01*
X36516667Y55397619D01*
X36611905Y55350000D01*
X36659524Y55302381D01*
X36707143Y55207143D01*
X36707143Y55064286D01*
X36659524Y54969048D01*
X36611905Y54921429D01*
X36516667Y54873810D01*
X36135714Y54873810D01*
X37088095Y55302381D02*
X37135714Y55350000D01*
X37230952Y55397619D01*
X37469048Y55397619D01*
X37564286Y55350000D01*
X37611905Y55302381D01*
X37659524Y55207143D01*
X37659524Y55111905D01*
X37611905Y54969048D01*
X37040476Y54397619D01*
X37659524Y54397619D01*
X38611905Y54397619D02*
X38040476Y54397619D01*
X38326190Y54397619D02*
X38326190Y55397619D01*
X38230952Y55254762D01*
X38135714Y55159524D01*
X38040476Y55111905D01*
X33707143Y54397619D02*
X33373809Y54873810D01*
X33135714Y54397619D02*
X33135714Y55397619D01*
X33516667Y55397619D01*
X33611905Y55350000D01*
X33659524Y55302381D01*
X33707143Y55207143D01*
X33707143Y55064286D01*
X33659524Y54969048D01*
X33611905Y54921429D01*
X33516667Y54873810D01*
X33135714Y54873810D01*
X34088095Y55302381D02*
X34135714Y55350000D01*
X34230952Y55397619D01*
X34469048Y55397619D01*
X34564286Y55350000D01*
X34611905Y55302381D01*
X34659524Y55207143D01*
X34659524Y55111905D01*
X34611905Y54969048D01*
X34040476Y54397619D01*
X34659524Y54397619D01*
X35040476Y55302381D02*
X35088095Y55350000D01*
X35183333Y55397619D01*
X35421429Y55397619D01*
X35516667Y55350000D01*
X35564286Y55302381D01*
X35611905Y55207143D01*
X35611905Y55111905D01*
X35564286Y54969048D01*
X34992857Y54397619D01*
X35611905Y54397619D01*
X46738095Y54147619D02*
X46738095Y53338095D01*
X46785714Y53242857D01*
X46833333Y53195238D01*
X46928571Y53147619D01*
X47119048Y53147619D01*
X47214286Y53195238D01*
X47261905Y53242857D01*
X47309524Y53338095D01*
X47309524Y54147619D01*
X48309524Y53147619D02*
X47738095Y53147619D01*
X48023809Y53147619D02*
X48023809Y54147619D01*
X47928571Y54004762D01*
X47833333Y53909524D01*
X47738095Y53861905D01*
X9513095Y51672619D02*
X9513095Y50863095D01*
X9560714Y50767857D01*
X9608333Y50720238D01*
X9703571Y50672619D01*
X9894048Y50672619D01*
X9989286Y50720238D01*
X10036905Y50767857D01*
X10084524Y50863095D01*
X10084524Y51672619D01*
X10513095Y51577381D02*
X10560714Y51625000D01*
X10655952Y51672619D01*
X10894048Y51672619D01*
X10989286Y51625000D01*
X11036905Y51577381D01*
X11084524Y51482143D01*
X11084524Y51386905D01*
X11036905Y51244048D01*
X10465476Y50672619D01*
X11084524Y50672619D01*
X22488095Y31997619D02*
X22488095Y31188095D01*
X22535714Y31092857D01*
X22583333Y31045238D01*
X22678571Y30997619D01*
X22869048Y30997619D01*
X22964286Y31045238D01*
X23011905Y31092857D01*
X23059524Y31188095D01*
X23059524Y31997619D01*
X23440476Y31997619D02*
X24059524Y31997619D01*
X23726190Y31616667D01*
X23869048Y31616667D01*
X23964286Y31569048D01*
X24011905Y31521429D01*
X24059524Y31426190D01*
X24059524Y31188095D01*
X24011905Y31092857D01*
X23964286Y31045238D01*
X23869048Y30997619D01*
X23583333Y30997619D01*
X23488095Y31045238D01*
X23440476Y31092857D01*
X57488095Y37722619D02*
X57488095Y36913095D01*
X57535714Y36817857D01*
X57583333Y36770238D01*
X57678571Y36722619D01*
X57869048Y36722619D01*
X57964286Y36770238D01*
X58011905Y36817857D01*
X58059524Y36913095D01*
X58059524Y37722619D01*
X58440476Y37722619D02*
X59107143Y37722619D01*
X58678571Y36722619D01*
X11672381Y2288095D02*
X12481905Y2288095D01*
X12577143Y2335714D01*
X12624762Y2383333D01*
X12672381Y2478571D01*
X12672381Y2669048D01*
X12624762Y2764286D01*
X12577143Y2811905D01*
X12481905Y2859524D01*
X11672381Y2859524D01*
X12100952Y3478571D02*
X12053333Y3383333D01*
X12005714Y3335714D01*
X11910476Y3288095D01*
X11862857Y3288095D01*
X11767619Y3335714D01*
X11720000Y3383333D01*
X11672381Y3478571D01*
X11672381Y3669048D01*
X11720000Y3764286D01*
X11767619Y3811905D01*
X11862857Y3859524D01*
X11910476Y3859524D01*
X12005714Y3811905D01*
X12053333Y3764286D01*
X12100952Y3669048D01*
X12100952Y3478571D01*
X12148571Y3383333D01*
X12196190Y3335714D01*
X12291429Y3288095D01*
X12481905Y3288095D01*
X12577143Y3335714D01*
X12624762Y3383333D01*
X12672381Y3478571D01*
X12672381Y3669048D01*
X12624762Y3764286D01*
X12577143Y3811905D01*
X12481905Y3859524D01*
X12291429Y3859524D01*
X12196190Y3811905D01*
X12148571Y3764286D01*
X12100952Y3669048D01*
X4248809Y23873810D02*
X4248809Y23397619D01*
X3915476Y24397619D02*
X4248809Y23873810D01*
X4582143Y24397619D01*
X5439286Y23397619D02*
X4867857Y23397619D01*
X5153571Y23397619D02*
X5153571Y24397619D01*
X5058333Y24254762D01*
X4963095Y24159524D01*
X4867857Y24111905D01*
X30383334Y52097619D02*
X29907143Y52097619D01*
X29907143Y53097619D01*
X31240477Y52097619D02*
X30669048Y52097619D01*
X30954762Y52097619D02*
X30954762Y53097619D01*
X30859524Y52954762D01*
X30764286Y52859524D01*
X30669048Y52811905D01*
X33335714Y21988095D02*
X33069047Y22369048D01*
X32878571Y21988095D02*
X32878571Y22788095D01*
X33183333Y22788095D01*
X33259524Y22750000D01*
X33297619Y22711905D01*
X33335714Y22635714D01*
X33335714Y22521429D01*
X33297619Y22445238D01*
X33259524Y22407143D01*
X33183333Y22369048D01*
X32878571Y22369048D01*
X33640476Y22711905D02*
X33678571Y22750000D01*
X33754762Y22788095D01*
X33945238Y22788095D01*
X34021428Y22750000D01*
X34059524Y22711905D01*
X34097619Y22635714D01*
X34097619Y22559524D01*
X34059524Y22445238D01*
X33602381Y21988095D01*
X34097619Y21988095D01*
X34364286Y22788095D02*
X34859524Y22788095D01*
X34592857Y22483333D01*
X34707143Y22483333D01*
X34783333Y22445238D01*
X34821429Y22407143D01*
X34859524Y22330952D01*
X34859524Y22140476D01*
X34821429Y22064286D01*
X34783333Y22026190D01*
X34707143Y21988095D01*
X34478571Y21988095D01*
X34402381Y22026190D01*
X34364286Y22064286D01*
X42138095Y30097619D02*
X42138095Y29288095D01*
X42185714Y29192857D01*
X42233333Y29145238D01*
X42328571Y29097619D01*
X42519048Y29097619D01*
X42614286Y29145238D01*
X42661905Y29192857D01*
X42709524Y29288095D01*
X42709524Y30097619D01*
X43233333Y29097619D02*
X43423809Y29097619D01*
X43519048Y29145238D01*
X43566667Y29192857D01*
X43661905Y29335714D01*
X43709524Y29526190D01*
X43709524Y29907143D01*
X43661905Y30002381D01*
X43614286Y30050000D01*
X43519048Y30097619D01*
X43328571Y30097619D01*
X43233333Y30050000D01*
X43185714Y30002381D01*
X43138095Y29907143D01*
X43138095Y29669048D01*
X43185714Y29573810D01*
X43233333Y29526190D01*
X43328571Y29478571D01*
X43519048Y29478571D01*
X43614286Y29526190D01*
X43661905Y29573810D01*
X43709524Y29669048D01*
M02*
