G04 #@! TF.FileFunction,Paste,Top*
%FSLAX46Y46*%
G04 Gerber Fmt 4.6, Leading zero omitted, Abs format (unit mm)*
G04 Created by KiCad (PCBNEW 4.0.7) date 06/19/19 10:16:13*
%MOMM*%
%LPD*%
G01*
G04 APERTURE LIST*
%ADD10C,0.100000*%
%ADD11R,0.600000X1.500000*%
%ADD12R,0.500000X0.300000*%
%ADD13R,0.450000X0.450000*%
%ADD14R,0.300000X0.500000*%
%ADD15R,0.750000X0.800000*%
%ADD16R,0.800000X0.750000*%
%ADD17R,3.500000X1.600000*%
%ADD18R,1.000000X1.250000*%
%ADD19R,1.250000X1.000000*%
%ADD20R,0.900000X1.200000*%
%ADD21R,1.200000X1.200000*%
%ADD22R,0.900000X0.500000*%
%ADD23R,1.000000X1.000000*%
%ADD24R,1.000000X2.200000*%
%ADD25R,1.000000X1.500000*%
%ADD26R,1.500000X1.000000*%
%ADD27R,4.750000X14.000000*%
%ADD28R,0.900000X0.800000*%
%ADD29R,0.800000X0.900000*%
%ADD30R,0.500000X0.900000*%
%ADD31R,1.143000X0.508000*%
%ADD32R,2.000000X1.000000*%
%ADD33R,1.000000X0.250000*%
%ADD34R,0.250000X1.000000*%
%ADD35R,0.508000X1.143000*%
%ADD36R,2.000000X5.000000*%
%ADD37R,2.750000X1.000000*%
G04 APERTURE END LIST*
D10*
D11*
X15430000Y52150000D03*
X16700000Y52150000D03*
X17970000Y52150000D03*
X19240000Y52150000D03*
X20510000Y52150000D03*
X21780000Y52150000D03*
X23050000Y52150000D03*
X24320000Y52150000D03*
X24320000Y57550000D03*
X23050000Y57550000D03*
X21780000Y57550000D03*
X20510000Y57550000D03*
X19240000Y57550000D03*
X17970000Y57550000D03*
X16700000Y57550000D03*
X15430000Y57550000D03*
D12*
X31975000Y35450000D03*
X31975000Y34950000D03*
X33525000Y35450000D03*
X33525000Y34950000D03*
D13*
X31950000Y34400000D03*
X33550000Y34400000D03*
X31950000Y36000000D03*
X33550000Y36000000D03*
D14*
X32500000Y34425000D03*
X33000000Y34425000D03*
X33000000Y35975000D03*
X32500000Y35975000D03*
D15*
X51900000Y49500000D03*
X51900000Y51000000D03*
X14150000Y21350000D03*
X14150000Y22850000D03*
D16*
X9950000Y29750000D03*
X11450000Y29750000D03*
X10000000Y23700000D03*
X11500000Y23700000D03*
D15*
X15650000Y21350000D03*
X15650000Y22850000D03*
X15700000Y29800000D03*
X15700000Y28300000D03*
D16*
X47500000Y46250000D03*
X46000000Y46250000D03*
X20000000Y31750000D03*
X18500000Y31750000D03*
X18900000Y16850000D03*
X20400000Y16850000D03*
D17*
X55800000Y53250000D03*
X61200000Y53250000D03*
X31450000Y44150000D03*
X36850000Y44150000D03*
D15*
X28900000Y17200000D03*
X28900000Y18700000D03*
X31150000Y27900000D03*
X31150000Y29400000D03*
X32700000Y27900000D03*
X32700000Y29400000D03*
X37200000Y34550000D03*
X37200000Y36050000D03*
D18*
X60500000Y47500000D03*
X58500000Y47500000D03*
D15*
X35700000Y34550000D03*
X35700000Y36050000D03*
D19*
X54250000Y38250000D03*
X54250000Y40250000D03*
D16*
X34100000Y37800000D03*
X32600000Y37800000D03*
X30850000Y32750000D03*
X32350000Y32750000D03*
D18*
X59750000Y18900000D03*
X61750000Y18900000D03*
D16*
X52000000Y7000000D03*
X53500000Y7000000D03*
X29300000Y5500000D03*
X30800000Y5500000D03*
D20*
X43800000Y46000000D03*
X40500000Y46000000D03*
D21*
X36400000Y24800000D03*
X36400000Y27000000D03*
X9550000Y6800000D03*
X7350000Y6800000D03*
D20*
X9550000Y17775000D03*
X6250000Y17775000D03*
D22*
X30700000Y55000000D03*
X30700000Y56500000D03*
D23*
X3250000Y51850000D03*
D24*
X4850000Y53550000D03*
X1650000Y53550000D03*
D23*
X3250000Y55250000D03*
D25*
X28000000Y53900000D03*
D26*
X28250000Y52400000D03*
D25*
X28000000Y50900000D03*
D27*
X61125000Y28750000D03*
X51875000Y28750000D03*
D28*
X23150000Y42500000D03*
X23150000Y40600000D03*
X25150000Y41550000D03*
D29*
X49450000Y40500000D03*
X47550000Y40500000D03*
X48500000Y38500000D03*
X43450000Y40750000D03*
X41550000Y40750000D03*
X42500000Y38750000D03*
X4000000Y31250000D03*
X5900000Y31250000D03*
X4950000Y33250000D03*
D22*
X54600000Y61900000D03*
X54600000Y63400000D03*
D30*
X22900000Y44300000D03*
X24400000Y44300000D03*
D22*
X54600000Y60350000D03*
X54600000Y58850000D03*
X25275000Y47725000D03*
X25275000Y46225000D03*
X26850000Y47700000D03*
X26850000Y46200000D03*
D30*
X23050000Y38600000D03*
X24550000Y38600000D03*
D22*
X41400000Y50700000D03*
X41400000Y52200000D03*
D30*
X41400000Y54000000D03*
X42900000Y54000000D03*
X47750000Y42500000D03*
X49250000Y42500000D03*
X43250000Y42500000D03*
X41750000Y42500000D03*
D22*
X2150000Y32600000D03*
X2150000Y31100000D03*
X45500000Y39000000D03*
X45500000Y40500000D03*
D30*
X33100000Y25450000D03*
X34600000Y25450000D03*
D22*
X7750000Y31050000D03*
X7750000Y32550000D03*
X54250000Y42600000D03*
X54250000Y44100000D03*
X16800000Y62700000D03*
X16800000Y64200000D03*
X62250000Y39500000D03*
X62250000Y41000000D03*
X62250000Y42500000D03*
X62250000Y44000000D03*
D30*
X13100000Y6850000D03*
X11600000Y6850000D03*
X44500000Y56250000D03*
X46000000Y56250000D03*
X38100000Y56300000D03*
X36600000Y56300000D03*
X35100000Y56300000D03*
X33600000Y56300000D03*
D31*
X43575000Y48345000D03*
X43575000Y49615000D03*
X43575000Y50885000D03*
X43575000Y52155000D03*
X49925000Y52155000D03*
X49925000Y50885000D03*
X49925000Y49615000D03*
X49925000Y48345000D03*
D32*
X2500000Y49000000D03*
X2500000Y47000000D03*
X2500000Y45000000D03*
X2500000Y43000000D03*
X2500000Y41000000D03*
X2500000Y39000000D03*
X2500000Y37000000D03*
X2500000Y35000000D03*
X18500000Y35000000D03*
X18500000Y37000000D03*
X18500000Y39000000D03*
X18500000Y41000000D03*
X18500000Y43000000D03*
X18500000Y45000000D03*
X18500000Y47000000D03*
X18500000Y49000000D03*
D33*
X17550000Y28000000D03*
X17550000Y27500000D03*
X17550000Y27000000D03*
X17550000Y26500000D03*
X17550000Y26000000D03*
X17550000Y25500000D03*
X17550000Y25000000D03*
X17550000Y24500000D03*
X17550000Y24000000D03*
X17550000Y23500000D03*
X17550000Y23000000D03*
X17550000Y22500000D03*
X17550000Y22000000D03*
X17550000Y21500000D03*
X17550000Y21000000D03*
X17550000Y20500000D03*
D34*
X19500000Y18550000D03*
X20000000Y18550000D03*
X20500000Y18550000D03*
X21000000Y18550000D03*
X21500000Y18550000D03*
X22000000Y18550000D03*
X22500000Y18550000D03*
X23000000Y18550000D03*
X23500000Y18550000D03*
X24000000Y18550000D03*
X24500000Y18550000D03*
X25000000Y18550000D03*
X25500000Y18550000D03*
X26000000Y18550000D03*
X26500000Y18550000D03*
X27000000Y18550000D03*
D33*
X28950000Y20500000D03*
X28950000Y21000000D03*
X28950000Y21500000D03*
X28950000Y22000000D03*
X28950000Y22500000D03*
X28950000Y23000000D03*
X28950000Y23500000D03*
X28950000Y24000000D03*
X28950000Y24500000D03*
X28950000Y25000000D03*
X28950000Y25500000D03*
X28950000Y26000000D03*
X28950000Y26500000D03*
X28950000Y27000000D03*
X28950000Y27500000D03*
X28950000Y28000000D03*
D34*
X27000000Y29950000D03*
X26500000Y29950000D03*
X26000000Y29950000D03*
X25500000Y29950000D03*
X25000000Y29950000D03*
X24500000Y29950000D03*
X24000000Y29950000D03*
X23500000Y29950000D03*
X23000000Y29950000D03*
X22500000Y29950000D03*
X22000000Y29950000D03*
X21500000Y29950000D03*
X21000000Y29950000D03*
X20500000Y29950000D03*
X20000000Y29950000D03*
X19500000Y29950000D03*
D35*
X60155000Y39075000D03*
X58885000Y39075000D03*
X57615000Y39075000D03*
X56345000Y39075000D03*
X56345000Y45425000D03*
X57615000Y45425000D03*
X58885000Y45425000D03*
X60155000Y45425000D03*
D36*
X36850000Y51000000D03*
X32650000Y51000000D03*
D30*
X34600000Y23800000D03*
X33100000Y23800000D03*
D37*
X39870000Y23700000D03*
X45630000Y23700000D03*
X45630000Y27700000D03*
X39870000Y27700000D03*
M02*
