G04 #@! TF.FileFunction,Soldermask,Top*
%FSLAX46Y46*%
G04 Gerber Fmt 4.6, Leading zero omitted, Abs format (unit mm)*
G04 Created by KiCad (PCBNEW 4.0.7) date 06/19/19 10:20:30*
%MOMM*%
%LPD*%
G01*
G04 APERTURE LIST*
%ADD10C,0.100000*%
%ADD11C,1.000000*%
%ADD12C,5.000000*%
%ADD13C,3.700000*%
%ADD14C,1.700000*%
%ADD15R,1.000000X1.900000*%
%ADD16R,2.100000X2.100000*%
%ADD17O,2.100000X2.100000*%
%ADD18R,0.900000X0.700000*%
%ADD19R,0.850000X0.850000*%
%ADD20R,0.700000X0.900000*%
%ADD21R,1.150000X1.200000*%
%ADD22R,1.200000X1.150000*%
%ADD23R,3.900000X2.000000*%
%ADD24R,1.400000X1.650000*%
%ADD25R,1.650000X1.400000*%
%ADD26R,1.300000X1.600000*%
%ADD27R,1.600000X1.600000*%
%ADD28R,1.300000X0.900000*%
%ADD29R,1.400000X1.400000*%
%ADD30R,1.400000X2.600000*%
%ADD31R,1.400000X1.900000*%
%ADD32R,1.900000X1.400000*%
%ADD33R,5.150000X14.400000*%
%ADD34C,2.600000*%
%ADD35C,2.000000*%
%ADD36R,1.300000X1.200000*%
%ADD37R,1.200000X1.300000*%
%ADD38R,0.900000X1.300000*%
%ADD39R,1.543000X0.908000*%
%ADD40R,2.400000X1.400000*%
%ADD41R,1.400000X0.650000*%
%ADD42R,0.650000X1.400000*%
%ADD43R,0.908000X1.543000*%
%ADD44C,1.400000*%
%ADD45R,2.400000X5.400000*%
%ADD46R,3.150000X1.400000*%
G04 APERTURE END LIST*
D10*
D11*
X2000000Y67000000D03*
D12*
X61500000Y60500000D03*
D13*
X50500000Y66550000D03*
X28910000Y66550000D03*
D14*
X47250000Y61470000D03*
X46230000Y63500000D03*
X45210000Y61470000D03*
X44190000Y63500000D03*
X32160000Y63500000D03*
X33180000Y61470000D03*
X34200000Y63500000D03*
X35220000Y61470000D03*
D15*
X15430000Y52150000D03*
X16700000Y52150000D03*
X17970000Y52150000D03*
X19240000Y52150000D03*
X20510000Y52150000D03*
X21780000Y52150000D03*
X23050000Y52150000D03*
X24320000Y52150000D03*
X24320000Y57550000D03*
X23050000Y57550000D03*
X21780000Y57550000D03*
X20510000Y57550000D03*
X19240000Y57550000D03*
X17970000Y57550000D03*
X16700000Y57550000D03*
X15430000Y57550000D03*
D16*
X55280000Y18650000D03*
D17*
X52740000Y18650000D03*
X50200000Y18650000D03*
D18*
X31975000Y35450000D03*
X31975000Y34950000D03*
X33525000Y35450000D03*
X33525000Y34950000D03*
D19*
X31950000Y34400000D03*
X33550000Y34400000D03*
X31950000Y36000000D03*
X33550000Y36000000D03*
D20*
X32500000Y34425000D03*
X33000000Y34425000D03*
X33000000Y35975000D03*
X32500000Y35975000D03*
D16*
X45120000Y18650000D03*
D17*
X42580000Y18650000D03*
X40040000Y18650000D03*
X37500000Y18650000D03*
X34960000Y18650000D03*
D12*
X3500000Y11500000D03*
X61500000Y11500000D03*
X3500000Y60500000D03*
D21*
X51900000Y49500000D03*
X51900000Y51000000D03*
X14150000Y21350000D03*
X14150000Y22850000D03*
D22*
X9950000Y29750000D03*
X11450000Y29750000D03*
X10000000Y23700000D03*
X11500000Y23700000D03*
D21*
X15650000Y21350000D03*
X15650000Y22850000D03*
X15700000Y29800000D03*
X15700000Y28300000D03*
D22*
X47500000Y46250000D03*
X46000000Y46250000D03*
X20000000Y31750000D03*
X18500000Y31750000D03*
X18900000Y16850000D03*
X20400000Y16850000D03*
D23*
X55800000Y53250000D03*
X61200000Y53250000D03*
X31450000Y44150000D03*
X36850000Y44150000D03*
D21*
X28900000Y17200000D03*
X28900000Y18700000D03*
X31150000Y27900000D03*
X31150000Y29400000D03*
X32700000Y27900000D03*
X32700000Y29400000D03*
X37200000Y34550000D03*
X37200000Y36050000D03*
D24*
X60500000Y47500000D03*
X58500000Y47500000D03*
D21*
X35700000Y34550000D03*
X35700000Y36050000D03*
D25*
X54250000Y38250000D03*
X54250000Y40250000D03*
D22*
X34100000Y37800000D03*
X32600000Y37800000D03*
X30850000Y32750000D03*
X32350000Y32750000D03*
D24*
X59750000Y18900000D03*
X61750000Y18900000D03*
D22*
X52000000Y7000000D03*
X53500000Y7000000D03*
X29300000Y5500000D03*
X30800000Y5500000D03*
D26*
X43800000Y46000000D03*
X40500000Y46000000D03*
D27*
X36400000Y24800000D03*
X36400000Y27000000D03*
X9550000Y6800000D03*
X7350000Y6800000D03*
D26*
X9550000Y17775000D03*
X6250000Y17775000D03*
D28*
X30700000Y55000000D03*
X30700000Y56500000D03*
D29*
X3250000Y51850000D03*
D30*
X4850000Y53550000D03*
X1650000Y53550000D03*
D29*
X3250000Y55250000D03*
D16*
X56650000Y12800000D03*
D17*
X56650000Y10260000D03*
X54110000Y12800000D03*
X54110000Y10260000D03*
X51570000Y12800000D03*
X51570000Y10260000D03*
X49030000Y12800000D03*
X49030000Y10260000D03*
X46490000Y12800000D03*
X46490000Y10260000D03*
X43950000Y12800000D03*
X43950000Y10260000D03*
X41410000Y12800000D03*
X41410000Y10260000D03*
X38870000Y12800000D03*
X38870000Y10260000D03*
X36330000Y12800000D03*
X36330000Y10260000D03*
X33790000Y12800000D03*
X33790000Y10260000D03*
X31250000Y12800000D03*
X31250000Y10260000D03*
X28710000Y12800000D03*
X28710000Y10260000D03*
X26170000Y12800000D03*
X26170000Y10260000D03*
X23630000Y12800000D03*
X23630000Y10260000D03*
X21090000Y12800000D03*
X21090000Y10260000D03*
X18550000Y12800000D03*
X18550000Y10260000D03*
X16010000Y12800000D03*
X16010000Y10260000D03*
X13470000Y12800000D03*
X13470000Y10260000D03*
X10930000Y12800000D03*
X10930000Y10260000D03*
X8390000Y12800000D03*
X8390000Y10260000D03*
D31*
X28000000Y53900000D03*
D32*
X28250000Y52400000D03*
D31*
X28000000Y50900000D03*
D33*
X61125000Y28750000D03*
X51875000Y28750000D03*
D34*
X62000000Y69500000D03*
X57000000Y69500000D03*
D16*
X46830000Y31700000D03*
D17*
X44290000Y31700000D03*
X41750000Y31700000D03*
X39210000Y31700000D03*
X36670000Y31700000D03*
D16*
X16750000Y67170000D03*
D17*
X16750000Y69710000D03*
X16750000Y72250000D03*
D35*
X22000000Y71500000D03*
X22000000Y69000000D03*
X22000000Y66500000D03*
X22000000Y64000000D03*
X22000000Y61500000D03*
D16*
X12500000Y72500000D03*
D17*
X9960000Y72500000D03*
X12500000Y69960000D03*
X9960000Y69960000D03*
X12500000Y67420000D03*
X9960000Y67420000D03*
X12500000Y64880000D03*
X9960000Y64880000D03*
X12500000Y62340000D03*
X9960000Y62340000D03*
X12500000Y59800000D03*
X9960000Y59800000D03*
X12500000Y57260000D03*
X9960000Y57260000D03*
D16*
X3000000Y69800000D03*
D17*
X5540000Y69800000D03*
X3000000Y72340000D03*
X5540000Y72340000D03*
D36*
X23150000Y42500000D03*
X23150000Y40600000D03*
X25150000Y41550000D03*
D37*
X49450000Y40500000D03*
X47550000Y40500000D03*
X48500000Y38500000D03*
X43450000Y40750000D03*
X41550000Y40750000D03*
X42500000Y38750000D03*
X4000000Y31250000D03*
X5900000Y31250000D03*
X4950000Y33250000D03*
D28*
X54600000Y61900000D03*
X54600000Y63400000D03*
D38*
X22900000Y44300000D03*
X24400000Y44300000D03*
D28*
X54600000Y60350000D03*
X54600000Y58850000D03*
X25275000Y47725000D03*
X25275000Y46225000D03*
X26850000Y47700000D03*
X26850000Y46200000D03*
D38*
X23050000Y38600000D03*
X24550000Y38600000D03*
D28*
X41400000Y50700000D03*
X41400000Y52200000D03*
D38*
X41400000Y54000000D03*
X42900000Y54000000D03*
X47750000Y42500000D03*
X49250000Y42500000D03*
X43250000Y42500000D03*
X41750000Y42500000D03*
D28*
X2150000Y32600000D03*
X2150000Y31100000D03*
X45500000Y39000000D03*
X45500000Y40500000D03*
D38*
X33100000Y25450000D03*
X34600000Y25450000D03*
D28*
X7750000Y31050000D03*
X7750000Y32550000D03*
X54250000Y42600000D03*
X54250000Y44100000D03*
X16800000Y62700000D03*
X16800000Y64200000D03*
X62250000Y39500000D03*
X62250000Y41000000D03*
X62250000Y42500000D03*
X62250000Y44000000D03*
D38*
X13100000Y6850000D03*
X11600000Y6850000D03*
X44500000Y56250000D03*
X46000000Y56250000D03*
X38100000Y56300000D03*
X36600000Y56300000D03*
X35100000Y56300000D03*
X33600000Y56300000D03*
D39*
X43575000Y48345000D03*
X43575000Y49615000D03*
X43575000Y50885000D03*
X43575000Y52155000D03*
X49925000Y52155000D03*
X49925000Y50885000D03*
X49925000Y49615000D03*
X49925000Y48345000D03*
D40*
X2500000Y49000000D03*
X2500000Y47000000D03*
X2500000Y45000000D03*
X2500000Y43000000D03*
X2500000Y41000000D03*
X2500000Y39000000D03*
X2500000Y37000000D03*
X2500000Y35000000D03*
X18500000Y35000000D03*
X18500000Y37000000D03*
X18500000Y39000000D03*
X18500000Y41000000D03*
X18500000Y43000000D03*
X18500000Y45000000D03*
X18500000Y47000000D03*
X18500000Y49000000D03*
D41*
X17550000Y28000000D03*
X17550000Y27500000D03*
X17550000Y27000000D03*
X17550000Y26500000D03*
X17550000Y26000000D03*
X17550000Y25500000D03*
X17550000Y25000000D03*
X17550000Y24500000D03*
X17550000Y24000000D03*
X17550000Y23500000D03*
X17550000Y23000000D03*
X17550000Y22500000D03*
X17550000Y22000000D03*
X17550000Y21500000D03*
X17550000Y21000000D03*
X17550000Y20500000D03*
D42*
X19500000Y18550000D03*
X20000000Y18550000D03*
X20500000Y18550000D03*
X21000000Y18550000D03*
X21500000Y18550000D03*
X22000000Y18550000D03*
X22500000Y18550000D03*
X23000000Y18550000D03*
X23500000Y18550000D03*
X24000000Y18550000D03*
X24500000Y18550000D03*
X25000000Y18550000D03*
X25500000Y18550000D03*
X26000000Y18550000D03*
X26500000Y18550000D03*
X27000000Y18550000D03*
D41*
X28950000Y20500000D03*
X28950000Y21000000D03*
X28950000Y21500000D03*
X28950000Y22000000D03*
X28950000Y22500000D03*
X28950000Y23000000D03*
X28950000Y23500000D03*
X28950000Y24000000D03*
X28950000Y24500000D03*
X28950000Y25000000D03*
X28950000Y25500000D03*
X28950000Y26000000D03*
X28950000Y26500000D03*
X28950000Y27000000D03*
X28950000Y27500000D03*
X28950000Y28000000D03*
D42*
X27000000Y29950000D03*
X26500000Y29950000D03*
X26000000Y29950000D03*
X25500000Y29950000D03*
X25000000Y29950000D03*
X24500000Y29950000D03*
X24000000Y29950000D03*
X23500000Y29950000D03*
X23000000Y29950000D03*
X22500000Y29950000D03*
X22000000Y29950000D03*
X21500000Y29950000D03*
X21000000Y29950000D03*
X20500000Y29950000D03*
X20000000Y29950000D03*
X19500000Y29950000D03*
D43*
X60155000Y39075000D03*
X58885000Y39075000D03*
X57615000Y39075000D03*
X56345000Y39075000D03*
X56345000Y45425000D03*
X57615000Y45425000D03*
X58885000Y45425000D03*
X60155000Y45425000D03*
D16*
X14550000Y3050000D03*
D17*
X17090000Y3050000D03*
X19630000Y3050000D03*
X22170000Y3050000D03*
X24710000Y3050000D03*
X27250000Y3050000D03*
X29790000Y3050000D03*
X32330000Y3050000D03*
D44*
X11800000Y27650000D03*
X11800000Y25750000D03*
D45*
X36850000Y51000000D03*
X32650000Y51000000D03*
D38*
X34600000Y23800000D03*
X33100000Y23800000D03*
D46*
X39870000Y23700000D03*
X45630000Y23700000D03*
X45630000Y27700000D03*
X39870000Y27700000D03*
D11*
X63000000Y2000000D03*
M02*
