%FSLAX45Y45*%
G04 Gerber Fmt 4.5, Leading zero omitted, Abs format (unit mm)*
G04 Created by KiCad (PCBNEW 4.0.7) date 06/19/19 10:20:38*
%MOMM*%
%LPD*%
G01*
G04 APERTURE LIST*
%ADD10C,0.127000*%
%ADD11C,0.150000*%
%ADD12C,0.200000*%
%ADD13C,0.300000*%
G04 APERTURE END LIST*
D10*
D11*
X6500000Y7500000D02*
X0Y7500000D01*
X6500000Y0D02*
X6500000Y7500000D01*
X0Y0D02*
X6500000Y0D01*
X0Y7500000D02*
X0Y0D01*
D12*
X281331Y2103583D02*
X316331Y2068583D01*
X316331Y2103583D02*
X281331Y2068583D01*
X537583Y4098720D02*
X572583Y4063720D01*
X572583Y4098720D02*
X537583Y4063720D01*
X587500Y6705000D02*
X622500Y6670000D01*
X622500Y6705000D02*
X587500Y6670000D01*
X720000Y1792500D02*
X755000Y1757500D01*
X755000Y1792500D02*
X720000Y1757500D01*
X1072500Y3717500D02*
X1107500Y3682500D01*
X1107500Y3717500D02*
X1072500Y3682500D01*
X1077500Y4117500D02*
X1112500Y4082500D01*
X1112500Y4117500D02*
X1077500Y4082500D01*
X1083305Y5018686D02*
X1118305Y4983686D01*
X1118305Y5018686D02*
X1083305Y4983686D01*
X1137500Y3852500D02*
X1172500Y3817500D01*
X1172500Y3852500D02*
X1137500Y3817500D01*
X1142500Y5072500D02*
X1177500Y5037500D01*
X1177500Y5072500D02*
X1142500Y5037500D01*
X1217500Y4312500D02*
X1252500Y4277500D01*
X1252500Y4312500D02*
X1217500Y4277500D01*
X1307501Y4517499D02*
X1342501Y4482499D01*
X1342501Y4517499D02*
X1307501Y4482499D01*
X1392500Y3922500D02*
X1427500Y3887500D01*
X1427500Y3922500D02*
X1392500Y3887500D01*
X1397500Y4816430D02*
X1432500Y4781430D01*
X1432500Y4816430D02*
X1397500Y4781430D01*
X1397500Y4732500D02*
X1432500Y4697500D01*
X1432500Y4732500D02*
X1397500Y4697500D01*
X1418355Y3382046D02*
X1453355Y3347046D01*
X1453355Y3382046D02*
X1418355Y3347046D01*
X1422611Y2546920D02*
X1457611Y2511920D01*
X1457611Y2546920D02*
X1422611Y2511920D01*
X1611262Y1550670D02*
X1646262Y1515670D01*
X1646262Y1550670D02*
X1611262Y1515670D01*
X1657500Y6177500D02*
X1692500Y6142500D01*
X1692500Y6177500D02*
X1657500Y6142500D01*
X1907500Y2642500D02*
X1942500Y2607500D01*
X1942500Y2642500D02*
X1907500Y2607500D01*
X1946019Y3392783D02*
X1981019Y3357783D01*
X1981019Y3392783D02*
X1946019Y3357783D01*
X1976731Y2703512D02*
X2011731Y2668512D01*
X2011731Y2703512D02*
X1976731Y2668512D01*
X2059992Y2643107D02*
X2094992Y2608107D01*
X2094992Y2643107D02*
X2059992Y2608107D01*
X2061329Y2051964D02*
X2096329Y2016964D01*
X2096329Y2051964D02*
X2061329Y2016964D01*
X2120398Y2566375D02*
X2155398Y2531375D01*
X2155398Y2566375D02*
X2120398Y2531375D01*
X2136006Y2112677D02*
X2171006Y2077677D01*
X2171006Y2112677D02*
X2136006Y2077677D01*
X2145467Y3273444D02*
X2180467Y3238444D01*
X2180467Y3273444D02*
X2145467Y3238444D01*
X2202331Y2051219D02*
X2237331Y2016219D01*
X2237331Y2051219D02*
X2202331Y2016219D01*
X2236029Y5615798D02*
X2271029Y5580799D01*
X2271029Y5615798D02*
X2236029Y5580799D01*
X2277175Y2105375D02*
X2312175Y2070375D01*
X2312175Y2105375D02*
X2277175Y2070375D01*
X2286184Y3753203D02*
X2321184Y3718203D01*
X2321184Y3753203D02*
X2286184Y3718203D01*
X2315291Y5541101D02*
X2350291Y5506101D01*
X2350291Y5541101D02*
X2315291Y5506101D01*
X2340617Y2855696D02*
X2375617Y2820696D01*
X2375617Y2855696D02*
X2340617Y2820696D01*
X2344609Y2686733D02*
X2379609Y2651733D01*
X2379609Y2686733D02*
X2344609Y2651733D01*
X2348492Y2058792D02*
X2383492Y2023792D01*
X2383492Y2058792D02*
X2348492Y2023792D01*
X2403599Y5479697D02*
X2438599Y5444697D01*
X2438599Y5479697D02*
X2403599Y5444697D01*
X2416451Y2753254D02*
X2451451Y2718254D01*
X2451451Y2753254D02*
X2416451Y2718254D01*
X2423264Y2107896D02*
X2458264Y2072896D01*
X2458264Y2107896D02*
X2423264Y2072896D01*
X2426735Y3620829D02*
X2461735Y3585829D01*
X2461735Y3620829D02*
X2426735Y3585829D01*
X2480312Y2702698D02*
X2515312Y2667698D01*
X2515312Y2702698D02*
X2480312Y2667698D01*
X2487500Y2057500D02*
X2522500Y2022500D01*
X2522500Y2057500D02*
X2487500Y2022500D01*
X2500684Y5425834D02*
X2535684Y5390834D01*
X2535684Y5425834D02*
X2500684Y5390834D01*
X2548958Y2108715D02*
X2583958Y2073715D01*
X2583958Y2108715D02*
X2548958Y2073715D01*
X2621292Y2384928D02*
X2656292Y2349928D01*
X2656292Y2384928D02*
X2621292Y2349928D01*
X2670468Y2458663D02*
X2705468Y2423663D01*
X2705468Y2458663D02*
X2670468Y2423663D01*
X2728680Y2535333D02*
X2763680Y2500333D01*
X2763680Y2535333D02*
X2728680Y2500333D01*
X2799567Y3707447D02*
X2834567Y3672447D01*
X2834567Y3707447D02*
X2799567Y3672447D01*
X2877945Y3637777D02*
X2912945Y3602777D01*
X2912945Y3637777D02*
X2877945Y3602777D01*
X2920991Y3500768D02*
X2955991Y3465768D01*
X2955991Y3500768D02*
X2920991Y3465768D01*
X2941881Y3413865D02*
X2976881Y3378865D01*
X2976881Y3413865D02*
X2941881Y3378865D01*
X3087741Y1862816D02*
X3122741Y1827816D01*
X3122741Y1862816D02*
X3087741Y1827816D01*
X3150176Y1925620D02*
X3185176Y1890620D01*
X3185176Y1925620D02*
X3150176Y1890620D01*
X3209354Y1979454D02*
X3244354Y1944454D01*
X3244354Y1979454D02*
X3209354Y1944454D01*
X3289330Y1973702D02*
X3324330Y1938702D01*
X3324330Y1973702D02*
X3289330Y1938702D01*
X3387500Y2807500D02*
X3422500Y2772500D01*
X3422500Y2807500D02*
X3387500Y2772500D01*
X3423901Y2692500D02*
X3458901Y2657500D01*
X3458901Y2692500D02*
X3423901Y2657500D01*
X3457500Y4982500D02*
X3492500Y4947500D01*
X3492500Y4982500D02*
X3457500Y4947500D01*
X3652500Y6002500D02*
X3687500Y5967500D01*
X3687500Y6002500D02*
X3652500Y5967500D01*
X3932500Y3472500D02*
X3967500Y3437500D01*
X3967500Y3472500D02*
X3932500Y3437500D01*
X4158348Y4412824D02*
X4193348Y4377824D01*
X4193348Y4412824D02*
X4158348Y4377824D01*
X4392500Y5417500D02*
X4427500Y5382500D01*
X4427500Y5417500D02*
X4392500Y5382500D01*
X4602500Y6882500D02*
X4637500Y6847500D01*
X4637500Y6882500D02*
X4602500Y6847500D01*
X4756904Y4422762D02*
X4791904Y4387762D01*
X4791904Y4422762D02*
X4756904Y4387762D01*
X4767500Y5120000D02*
X4802500Y5085000D01*
X4802500Y5120000D02*
X4767500Y5085000D01*
X5352500Y5117500D02*
X5387500Y5082500D01*
X5387500Y5117500D02*
X5352500Y5082500D01*
X185500Y5687500D02*
G75*
G03X185500Y5687500I-20500J0D01*
G01*
X345500Y5687500D02*
G75*
G03X345500Y5687500I-20500J0D01*
G01*
X468659Y5691460D02*
G75*
G03X468659Y5691460I-20500J0D01*
G01*
X515500Y3475000D02*
G75*
G03X515500Y3475000I-20500J0D01*
G01*
X580500Y2250000D02*
G75*
G03X580500Y2250000I-20500J0D01*
G01*
X661559Y2176770D02*
G75*
G03X661559Y2176770I-20500J0D01*
G01*
X1199021Y3441368D02*
G75*
G03X1199021Y3441368I-20500J0D01*
G01*
X1199021Y3114410D02*
G75*
G03X1199021Y3114410I-20500J0D01*
G01*
X2194322Y1727028D02*
G75*
G03X2194322Y1727028I-20500J0D01*
G01*
X2530500Y1685000D02*
G75*
G03X2530500Y1685000I-20500J0D01*
G01*
X2650500Y1685000D02*
G75*
G03X2650500Y1685000I-20500J0D01*
G01*
X2900500Y3255000D02*
G75*
G03X2900500Y3255000I-20500J0D01*
G01*
X3040500Y1720000D02*
G75*
G03X3040500Y1720000I-20500J0D01*
G01*
X3076811Y3522541D02*
G75*
G03X3076811Y3522541I-20500J0D01*
G01*
X3094516Y3941518D02*
G75*
G03X3094516Y3941518I-20500J0D01*
G01*
X3280500Y3905000D02*
G75*
G03X3280500Y3905000I-20500J0D01*
G01*
X4010500Y2630000D02*
G75*
G03X4010500Y2630000I-20500J0D01*
G01*
X4511381Y4204119D02*
G75*
G03X4511381Y4204119I-20500J0D01*
G01*
X4585500Y2630000D02*
G75*
G03X4585500Y2630000I-20500J0D01*
G01*
X5450500Y4540000D02*
G75*
G03X5450500Y4540000I-20500J0D01*
G01*
X5495500Y5770000D02*
G75*
G03X5495500Y5770000I-20500J0D01*
G01*
X5680500Y4710000D02*
G75*
G03X5680500Y4710000I-20500J0D01*
G01*
X6045500Y4335000D02*
G75*
G03X6045500Y4335000I-20500J0D01*
G01*
X240000Y2970000D02*
X240000Y2920000D01*
X215000Y2945000D02*
X265000Y2945000D01*
X560000Y700000D02*
X560000Y650000D01*
X535000Y675000D02*
X585000Y675000D01*
X1180000Y2790000D02*
X1180000Y2740000D01*
X1155000Y2765000D02*
X1205000Y2765000D01*
X1180000Y2600000D02*
X1180000Y2550000D01*
X1155000Y2575000D02*
X1205000Y2575000D01*
X1650000Y3155000D02*
X1650000Y3105000D01*
X1625000Y3130000D02*
X1675000Y3130000D01*
X2422826Y5074738D02*
X2422826Y5024738D01*
X2397826Y5049738D02*
X2447826Y5049738D01*
X6175000Y1735000D02*
X6175000Y1685000D01*
X6150000Y1710000D02*
X6200000Y1710000D01*
X466567Y4678433D02*
X466567Y4721567D01*
X423433Y4721567D01*
X423433Y4678433D01*
X466567Y4678433D01*
X484067Y1693433D02*
X484067Y1736567D01*
X440933Y1736567D01*
X440933Y1693433D01*
X484067Y1693433D01*
X1672232Y3482489D02*
X1672232Y3525623D01*
X1629098Y3525623D01*
X1629098Y3482489D01*
X1672232Y3482489D01*
X2111567Y4873433D02*
X2111567Y4916567D01*
X2068433Y4916567D01*
X2068433Y4873433D01*
X2111567Y4873433D01*
X2820351Y5540525D02*
X2820351Y5583659D01*
X2777217Y5583659D01*
X2777217Y5540525D01*
X2820351Y5540525D01*
X2985021Y5071580D02*
X2985021Y5114714D01*
X2941887Y5114714D01*
X2941887Y5071580D01*
X2985021Y5071580D01*
X3706567Y4158433D02*
X3706567Y4201567D01*
X3663433Y4201567D01*
X3663433Y4158433D01*
X3706567Y4158433D01*
X3891567Y4628433D02*
X3891567Y4671567D01*
X3848433Y4671567D01*
X3848433Y4628433D01*
X3891567Y4628433D01*
X4206567Y6688433D02*
X4206567Y6731567D01*
X4163433Y6731567D01*
X4163433Y6688433D01*
X4206567Y6688433D01*
X4611567Y5368433D02*
X4611567Y5411567D01*
X4568433Y5411567D01*
X4568433Y5368433D01*
X4611567Y5368433D01*
X5221567Y528433D02*
X5221567Y571567D01*
X5178433Y571567D01*
X5178433Y528433D01*
X5221567Y528433D01*
X5889067Y6440933D02*
X5889067Y6484067D01*
X5845933Y6484067D01*
X5845933Y6440933D01*
X5889067Y6440933D01*
X6136567Y5078433D02*
X6136567Y5121567D01*
X6093433Y5121567D01*
X6093433Y5078433D01*
X6136567Y5078433D01*
X6266567Y4728433D02*
X6266567Y4771567D01*
X6223433Y4771567D01*
X6223433Y4728433D01*
X6266567Y4728433D01*
X5637500Y2831500D02*
X5678500Y2872500D01*
X5637500Y2913500D01*
X5596500Y2872500D01*
X5637500Y2831500D01*
X6228125Y4526451D02*
X6269125Y4567451D01*
X6228125Y4608451D01*
X6187125Y4567451D01*
X6228125Y4526451D01*
X2155000Y7195000D02*
X2245000Y7105000D01*
X2245000Y7195000D02*
X2155000Y7105000D01*
X2245000Y7150000D02*
G75*
G03X2245000Y7150000I-45000J0D01*
G01*
X2155000Y6945000D02*
X2245000Y6855000D01*
X2245000Y6945000D02*
X2155000Y6855000D01*
X2245000Y6900000D02*
G75*
G03X2245000Y6900000I-45000J0D01*
G01*
X2155000Y6695000D02*
X2245000Y6605000D01*
X2245000Y6695000D02*
X2155000Y6605000D01*
X2245000Y6650000D02*
G75*
G03X2245000Y6650000I-45000J0D01*
G01*
X2155000Y6445000D02*
X2245000Y6355000D01*
X2245000Y6445000D02*
X2155000Y6355000D01*
X2245000Y6400000D02*
G75*
G03X2245000Y6400000I-45000J0D01*
G01*
X2155000Y6195000D02*
X2245000Y6105000D01*
X2245000Y6195000D02*
X2155000Y6105000D01*
X2245000Y6150000D02*
G75*
G03X2245000Y6150000I-45000J0D01*
G01*
X3171000Y6395000D02*
X3261000Y6305000D01*
X3261000Y6395000D02*
X3171000Y6305000D01*
X3261000Y6350000D02*
G75*
G03X3261000Y6350000I-45000J0D01*
G01*
X3273000Y6192000D02*
X3363000Y6102000D01*
X3363000Y6192000D02*
X3273000Y6102000D01*
X3363000Y6147000D02*
G75*
G03X3363000Y6147000I-45000J0D01*
G01*
X3375000Y6395000D02*
X3465000Y6305000D01*
X3465000Y6395000D02*
X3375000Y6305000D01*
X3465000Y6350000D02*
G75*
G03X3465000Y6350000I-45000J0D01*
G01*
X3477000Y6192000D02*
X3567000Y6102000D01*
X3567000Y6192000D02*
X3477000Y6102000D01*
X3567000Y6147000D02*
G75*
G03X3567000Y6147000I-45000J0D01*
G01*
X4374000Y6395000D02*
X4464000Y6305000D01*
X4464000Y6395000D02*
X4374000Y6305000D01*
X4464000Y6350000D02*
G75*
G03X4464000Y6350000I-45000J0D01*
G01*
X4476000Y6192000D02*
X4566000Y6102000D01*
X4566000Y6192000D02*
X4476000Y6102000D01*
X4566000Y6147000D02*
G75*
G03X4566000Y6147000I-45000J0D01*
G01*
X4578000Y6395000D02*
X4668000Y6305000D01*
X4668000Y6395000D02*
X4578000Y6305000D01*
X4668000Y6350000D02*
G75*
G03X4668000Y6350000I-45000J0D01*
G01*
X4680000Y6192000D02*
X4770000Y6102000D01*
X4770000Y6192000D02*
X4680000Y6102000D01*
X4770000Y6147000D02*
G75*
G03X4770000Y6147000I-45000J0D01*
G01*
X250000Y7284000D02*
X350000Y7184000D01*
X350000Y7284000D02*
X250000Y7184000D01*
X300000Y7284000D02*
X300000Y7184000D01*
X250000Y7234000D02*
X350000Y7234000D01*
X250000Y7030000D02*
X350000Y6930000D01*
X350000Y7030000D02*
X250000Y6930000D01*
X300000Y7030000D02*
X300000Y6930000D01*
X250000Y6980000D02*
X350000Y6980000D01*
X504000Y7284000D02*
X604000Y7184000D01*
X604000Y7284000D02*
X504000Y7184000D01*
X554000Y7284000D02*
X554000Y7184000D01*
X504000Y7234000D02*
X604000Y7234000D01*
X504000Y7030000D02*
X604000Y6930000D01*
X604000Y7030000D02*
X504000Y6930000D01*
X554000Y7030000D02*
X554000Y6930000D01*
X504000Y6980000D02*
X604000Y6980000D01*
X789000Y1330000D02*
X889000Y1230000D01*
X889000Y1330000D02*
X789000Y1230000D01*
X839000Y1330000D02*
X839000Y1230000D01*
X789000Y1280000D02*
X889000Y1280000D01*
X789000Y1076000D02*
X889000Y976000D01*
X889000Y1076000D02*
X789000Y976000D01*
X839000Y1076000D02*
X839000Y976000D01*
X789000Y1026000D02*
X889000Y1026000D01*
X946000Y7300000D02*
X1046000Y7200000D01*
X1046000Y7300000D02*
X946000Y7200000D01*
X996000Y7300000D02*
X996000Y7200000D01*
X946000Y7250000D02*
X1046000Y7250000D01*
X946000Y7046000D02*
X1046000Y6946000D01*
X1046000Y7046000D02*
X946000Y6946000D01*
X996000Y7046000D02*
X996000Y6946000D01*
X946000Y6996000D02*
X1046000Y6996000D01*
X946000Y6792000D02*
X1046000Y6692000D01*
X1046000Y6792000D02*
X946000Y6692000D01*
X996000Y6792000D02*
X996000Y6692000D01*
X946000Y6742000D02*
X1046000Y6742000D01*
X946000Y6538000D02*
X1046000Y6438000D01*
X1046000Y6538000D02*
X946000Y6438000D01*
X996000Y6538000D02*
X996000Y6438000D01*
X946000Y6488000D02*
X1046000Y6488000D01*
X946000Y6284000D02*
X1046000Y6184000D01*
X1046000Y6284000D02*
X946000Y6184000D01*
X996000Y6284000D02*
X996000Y6184000D01*
X946000Y6234000D02*
X1046000Y6234000D01*
X946000Y6030000D02*
X1046000Y5930000D01*
X1046000Y6030000D02*
X946000Y5930000D01*
X996000Y6030000D02*
X996000Y5930000D01*
X946000Y5980000D02*
X1046000Y5980000D01*
X946000Y5776000D02*
X1046000Y5676000D01*
X1046000Y5776000D02*
X946000Y5676000D01*
X996000Y5776000D02*
X996000Y5676000D01*
X946000Y5726000D02*
X1046000Y5726000D01*
X1043000Y1330000D02*
X1143000Y1230000D01*
X1143000Y1330000D02*
X1043000Y1230000D01*
X1093000Y1330000D02*
X1093000Y1230000D01*
X1043000Y1280000D02*
X1143000Y1280000D01*
X1043000Y1076000D02*
X1143000Y976000D01*
X1143000Y1076000D02*
X1043000Y976000D01*
X1093000Y1076000D02*
X1093000Y976000D01*
X1043000Y1026000D02*
X1143000Y1026000D01*
X1200000Y7300000D02*
X1300000Y7200000D01*
X1300000Y7300000D02*
X1200000Y7200000D01*
X1250000Y7300000D02*
X1250000Y7200000D01*
X1200000Y7250000D02*
X1300000Y7250000D01*
X1200000Y7046000D02*
X1300000Y6946000D01*
X1300000Y7046000D02*
X1200000Y6946000D01*
X1250000Y7046000D02*
X1250000Y6946000D01*
X1200000Y6996000D02*
X1300000Y6996000D01*
X1200000Y6792000D02*
X1300000Y6692000D01*
X1300000Y6792000D02*
X1200000Y6692000D01*
X1250000Y6792000D02*
X1250000Y6692000D01*
X1200000Y6742000D02*
X1300000Y6742000D01*
X1200000Y6538000D02*
X1300000Y6438000D01*
X1300000Y6538000D02*
X1200000Y6438000D01*
X1250000Y6538000D02*
X1250000Y6438000D01*
X1200000Y6488000D02*
X1300000Y6488000D01*
X1200000Y6284000D02*
X1300000Y6184000D01*
X1300000Y6284000D02*
X1200000Y6184000D01*
X1250000Y6284000D02*
X1250000Y6184000D01*
X1200000Y6234000D02*
X1300000Y6234000D01*
X1200000Y6030000D02*
X1300000Y5930000D01*
X1300000Y6030000D02*
X1200000Y5930000D01*
X1250000Y6030000D02*
X1250000Y5930000D01*
X1200000Y5980000D02*
X1300000Y5980000D01*
X1200000Y5776000D02*
X1300000Y5676000D01*
X1300000Y5776000D02*
X1200000Y5676000D01*
X1250000Y5776000D02*
X1250000Y5676000D01*
X1200000Y5726000D02*
X1300000Y5726000D01*
X1297000Y1330000D02*
X1397000Y1230000D01*
X1397000Y1330000D02*
X1297000Y1230000D01*
X1347000Y1330000D02*
X1347000Y1230000D01*
X1297000Y1280000D02*
X1397000Y1280000D01*
X1297000Y1076000D02*
X1397000Y976000D01*
X1397000Y1076000D02*
X1297000Y976000D01*
X1347000Y1076000D02*
X1347000Y976000D01*
X1297000Y1026000D02*
X1397000Y1026000D01*
X1405000Y355000D02*
X1505000Y255000D01*
X1505000Y355000D02*
X1405000Y255000D01*
X1455000Y355000D02*
X1455000Y255000D01*
X1405000Y305000D02*
X1505000Y305000D01*
X1551000Y1330000D02*
X1651000Y1230000D01*
X1651000Y1330000D02*
X1551000Y1230000D01*
X1601000Y1330000D02*
X1601000Y1230000D01*
X1551000Y1280000D02*
X1651000Y1280000D01*
X1551000Y1076000D02*
X1651000Y976000D01*
X1651000Y1076000D02*
X1551000Y976000D01*
X1601000Y1076000D02*
X1601000Y976000D01*
X1551000Y1026000D02*
X1651000Y1026000D01*
X1625000Y7275000D02*
X1725000Y7175000D01*
X1725000Y7275000D02*
X1625000Y7175000D01*
X1675000Y7275000D02*
X1675000Y7175000D01*
X1625000Y7225000D02*
X1725000Y7225000D01*
X1625000Y7021000D02*
X1725000Y6921000D01*
X1725000Y7021000D02*
X1625000Y6921000D01*
X1675000Y7021000D02*
X1675000Y6921000D01*
X1625000Y6971000D02*
X1725000Y6971000D01*
X1625000Y6767000D02*
X1725000Y6667000D01*
X1725000Y6767000D02*
X1625000Y6667000D01*
X1675000Y6767000D02*
X1675000Y6667000D01*
X1625000Y6717000D02*
X1725000Y6717000D01*
X1659000Y355000D02*
X1759000Y255000D01*
X1759000Y355000D02*
X1659000Y255000D01*
X1709000Y355000D02*
X1709000Y255000D01*
X1659000Y305000D02*
X1759000Y305000D01*
X1805000Y1330000D02*
X1905000Y1230000D01*
X1905000Y1330000D02*
X1805000Y1230000D01*
X1855000Y1330000D02*
X1855000Y1230000D01*
X1805000Y1280000D02*
X1905000Y1280000D01*
X1805000Y1076000D02*
X1905000Y976000D01*
X1905000Y1076000D02*
X1805000Y976000D01*
X1855000Y1076000D02*
X1855000Y976000D01*
X1805000Y1026000D02*
X1905000Y1026000D01*
X1913000Y355000D02*
X2013000Y255000D01*
X2013000Y355000D02*
X1913000Y255000D01*
X1963000Y355000D02*
X1963000Y255000D01*
X1913000Y305000D02*
X2013000Y305000D01*
X2059000Y1330000D02*
X2159000Y1230000D01*
X2159000Y1330000D02*
X2059000Y1230000D01*
X2109000Y1330000D02*
X2109000Y1230000D01*
X2059000Y1280000D02*
X2159000Y1280000D01*
X2059000Y1076000D02*
X2159000Y976000D01*
X2159000Y1076000D02*
X2059000Y976000D01*
X2109000Y1076000D02*
X2109000Y976000D01*
X2059000Y1026000D02*
X2159000Y1026000D01*
X2167000Y355000D02*
X2267000Y255000D01*
X2267000Y355000D02*
X2167000Y255000D01*
X2217000Y355000D02*
X2217000Y255000D01*
X2167000Y305000D02*
X2267000Y305000D01*
X2313000Y1330000D02*
X2413000Y1230000D01*
X2413000Y1330000D02*
X2313000Y1230000D01*
X2363000Y1330000D02*
X2363000Y1230000D01*
X2313000Y1280000D02*
X2413000Y1280000D01*
X2313000Y1076000D02*
X2413000Y976000D01*
X2413000Y1076000D02*
X2313000Y976000D01*
X2363000Y1076000D02*
X2363000Y976000D01*
X2313000Y1026000D02*
X2413000Y1026000D01*
X2421000Y355000D02*
X2521000Y255000D01*
X2521000Y355000D02*
X2421000Y255000D01*
X2471000Y355000D02*
X2471000Y255000D01*
X2421000Y305000D02*
X2521000Y305000D01*
X2567000Y1330000D02*
X2667000Y1230000D01*
X2667000Y1330000D02*
X2567000Y1230000D01*
X2617000Y1330000D02*
X2617000Y1230000D01*
X2567000Y1280000D02*
X2667000Y1280000D01*
X2567000Y1076000D02*
X2667000Y976000D01*
X2667000Y1076000D02*
X2567000Y976000D01*
X2617000Y1076000D02*
X2617000Y976000D01*
X2567000Y1026000D02*
X2667000Y1026000D01*
X2675000Y355000D02*
X2775000Y255000D01*
X2775000Y355000D02*
X2675000Y255000D01*
X2725000Y355000D02*
X2725000Y255000D01*
X2675000Y305000D02*
X2775000Y305000D01*
X2821000Y1330000D02*
X2921000Y1230000D01*
X2921000Y1330000D02*
X2821000Y1230000D01*
X2871000Y1330000D02*
X2871000Y1230000D01*
X2821000Y1280000D02*
X2921000Y1280000D01*
X2821000Y1076000D02*
X2921000Y976000D01*
X2921000Y1076000D02*
X2821000Y976000D01*
X2871000Y1076000D02*
X2871000Y976000D01*
X2821000Y1026000D02*
X2921000Y1026000D01*
X2929000Y355000D02*
X3029000Y255000D01*
X3029000Y355000D02*
X2929000Y255000D01*
X2979000Y355000D02*
X2979000Y255000D01*
X2929000Y305000D02*
X3029000Y305000D01*
X3075000Y1330000D02*
X3175000Y1230000D01*
X3175000Y1330000D02*
X3075000Y1230000D01*
X3125000Y1330000D02*
X3125000Y1230000D01*
X3075000Y1280000D02*
X3175000Y1280000D01*
X3075000Y1076000D02*
X3175000Y976000D01*
X3175000Y1076000D02*
X3075000Y976000D01*
X3125000Y1076000D02*
X3125000Y976000D01*
X3075000Y1026000D02*
X3175000Y1026000D01*
X3183000Y355000D02*
X3283000Y255000D01*
X3283000Y355000D02*
X3183000Y255000D01*
X3233000Y355000D02*
X3233000Y255000D01*
X3183000Y305000D02*
X3283000Y305000D01*
X3329000Y1330000D02*
X3429000Y1230000D01*
X3429000Y1330000D02*
X3329000Y1230000D01*
X3379000Y1330000D02*
X3379000Y1230000D01*
X3329000Y1280000D02*
X3429000Y1280000D01*
X3329000Y1076000D02*
X3429000Y976000D01*
X3429000Y1076000D02*
X3329000Y976000D01*
X3379000Y1076000D02*
X3379000Y976000D01*
X3329000Y1026000D02*
X3429000Y1026000D01*
X3446000Y1915000D02*
X3546000Y1815000D01*
X3546000Y1915000D02*
X3446000Y1815000D01*
X3496000Y1915000D02*
X3496000Y1815000D01*
X3446000Y1865000D02*
X3546000Y1865000D01*
X3583000Y1330000D02*
X3683000Y1230000D01*
X3683000Y1330000D02*
X3583000Y1230000D01*
X3633000Y1330000D02*
X3633000Y1230000D01*
X3583000Y1280000D02*
X3683000Y1280000D01*
X3583000Y1076000D02*
X3683000Y976000D01*
X3683000Y1076000D02*
X3583000Y976000D01*
X3633000Y1076000D02*
X3633000Y976000D01*
X3583000Y1026000D02*
X3683000Y1026000D01*
X3617000Y3220000D02*
X3717000Y3120000D01*
X3717000Y3220000D02*
X3617000Y3120000D01*
X3667000Y3220000D02*
X3667000Y3120000D01*
X3617000Y3170000D02*
X3717000Y3170000D01*
X3700000Y1915000D02*
X3800000Y1815000D01*
X3800000Y1915000D02*
X3700000Y1815000D01*
X3750000Y1915000D02*
X3750000Y1815000D01*
X3700000Y1865000D02*
X3800000Y1865000D01*
X3837000Y1330000D02*
X3937000Y1230000D01*
X3937000Y1330000D02*
X3837000Y1230000D01*
X3887000Y1330000D02*
X3887000Y1230000D01*
X3837000Y1280000D02*
X3937000Y1280000D01*
X3837000Y1076000D02*
X3937000Y976000D01*
X3937000Y1076000D02*
X3837000Y976000D01*
X3887000Y1076000D02*
X3887000Y976000D01*
X3837000Y1026000D02*
X3937000Y1026000D01*
X3871000Y3220000D02*
X3971000Y3120000D01*
X3971000Y3220000D02*
X3871000Y3120000D01*
X3921000Y3220000D02*
X3921000Y3120000D01*
X3871000Y3170000D02*
X3971000Y3170000D01*
X3954000Y1915000D02*
X4054000Y1815000D01*
X4054000Y1915000D02*
X3954000Y1815000D01*
X4004000Y1915000D02*
X4004000Y1815000D01*
X3954000Y1865000D02*
X4054000Y1865000D01*
X4091000Y1330000D02*
X4191000Y1230000D01*
X4191000Y1330000D02*
X4091000Y1230000D01*
X4141000Y1330000D02*
X4141000Y1230000D01*
X4091000Y1280000D02*
X4191000Y1280000D01*
X4091000Y1076000D02*
X4191000Y976000D01*
X4191000Y1076000D02*
X4091000Y976000D01*
X4141000Y1076000D02*
X4141000Y976000D01*
X4091000Y1026000D02*
X4191000Y1026000D01*
X4125000Y3220000D02*
X4225000Y3120000D01*
X4225000Y3220000D02*
X4125000Y3120000D01*
X4175000Y3220000D02*
X4175000Y3120000D01*
X4125000Y3170000D02*
X4225000Y3170000D01*
X4208000Y1915000D02*
X4308000Y1815000D01*
X4308000Y1915000D02*
X4208000Y1815000D01*
X4258000Y1915000D02*
X4258000Y1815000D01*
X4208000Y1865000D02*
X4308000Y1865000D01*
X4345000Y1330000D02*
X4445000Y1230000D01*
X4445000Y1330000D02*
X4345000Y1230000D01*
X4395000Y1330000D02*
X4395000Y1230000D01*
X4345000Y1280000D02*
X4445000Y1280000D01*
X4345000Y1076000D02*
X4445000Y976000D01*
X4445000Y1076000D02*
X4345000Y976000D01*
X4395000Y1076000D02*
X4395000Y976000D01*
X4345000Y1026000D02*
X4445000Y1026000D01*
X4379000Y3220000D02*
X4479000Y3120000D01*
X4479000Y3220000D02*
X4379000Y3120000D01*
X4429000Y3220000D02*
X4429000Y3120000D01*
X4379000Y3170000D02*
X4479000Y3170000D01*
X4462000Y1915000D02*
X4562000Y1815000D01*
X4562000Y1915000D02*
X4462000Y1815000D01*
X4512000Y1915000D02*
X4512000Y1815000D01*
X4462000Y1865000D02*
X4562000Y1865000D01*
X4599000Y1330000D02*
X4699000Y1230000D01*
X4699000Y1330000D02*
X4599000Y1230000D01*
X4649000Y1330000D02*
X4649000Y1230000D01*
X4599000Y1280000D02*
X4699000Y1280000D01*
X4599000Y1076000D02*
X4699000Y976000D01*
X4699000Y1076000D02*
X4599000Y976000D01*
X4649000Y1076000D02*
X4649000Y976000D01*
X4599000Y1026000D02*
X4699000Y1026000D01*
X4633000Y3220000D02*
X4733000Y3120000D01*
X4733000Y3220000D02*
X4633000Y3120000D01*
X4683000Y3220000D02*
X4683000Y3120000D01*
X4633000Y3170000D02*
X4733000Y3170000D01*
X4853000Y1330000D02*
X4953000Y1230000D01*
X4953000Y1330000D02*
X4853000Y1230000D01*
X4903000Y1330000D02*
X4903000Y1230000D01*
X4853000Y1280000D02*
X4953000Y1280000D01*
X4853000Y1076000D02*
X4953000Y976000D01*
X4953000Y1076000D02*
X4853000Y976000D01*
X4903000Y1076000D02*
X4903000Y976000D01*
X4853000Y1026000D02*
X4953000Y1026000D01*
X4970000Y1915000D02*
X5070000Y1815000D01*
X5070000Y1915000D02*
X4970000Y1815000D01*
X5020000Y1915000D02*
X5020000Y1815000D01*
X4970000Y1865000D02*
X5070000Y1865000D01*
X5107000Y1330000D02*
X5207000Y1230000D01*
X5207000Y1330000D02*
X5107000Y1230000D01*
X5157000Y1330000D02*
X5157000Y1230000D01*
X5107000Y1280000D02*
X5207000Y1280000D01*
X5107000Y1076000D02*
X5207000Y976000D01*
X5207000Y1076000D02*
X5107000Y976000D01*
X5157000Y1076000D02*
X5157000Y976000D01*
X5107000Y1026000D02*
X5207000Y1026000D01*
X5224000Y1915000D02*
X5324000Y1815000D01*
X5324000Y1915000D02*
X5224000Y1815000D01*
X5274000Y1915000D02*
X5274000Y1815000D01*
X5224000Y1865000D02*
X5324000Y1865000D01*
X5361000Y1330000D02*
X5461000Y1230000D01*
X5461000Y1330000D02*
X5361000Y1230000D01*
X5411000Y1330000D02*
X5411000Y1230000D01*
X5361000Y1280000D02*
X5461000Y1280000D01*
X5361000Y1076000D02*
X5461000Y976000D01*
X5461000Y1076000D02*
X5361000Y976000D01*
X5411000Y1076000D02*
X5411000Y976000D01*
X5361000Y1026000D02*
X5461000Y1026000D01*
X5478000Y1915000D02*
X5578000Y1815000D01*
X5578000Y1915000D02*
X5478000Y1815000D01*
X5528000Y1915000D02*
X5528000Y1815000D01*
X5478000Y1865000D02*
X5578000Y1865000D01*
X5615000Y1330000D02*
X5715000Y1230000D01*
X5715000Y1330000D02*
X5615000Y1230000D01*
X5665000Y1330000D02*
X5665000Y1230000D01*
X5615000Y1280000D02*
X5715000Y1280000D01*
X5615000Y1076000D02*
X5715000Y976000D01*
X5715000Y1076000D02*
X5615000Y976000D01*
X5665000Y1076000D02*
X5665000Y976000D01*
X5615000Y1026000D02*
X5715000Y1026000D01*
X5635000Y7015000D02*
X5765000Y6885000D01*
X5765000Y7015000D02*
X5635000Y6885000D01*
X5745962Y6904038D02*
X5745962Y6995962D01*
X5654038Y6995962D01*
X5654038Y6904038D01*
X5745962Y6904038D01*
X6135000Y7015000D02*
X6265000Y6885000D01*
X6265000Y7015000D02*
X6135000Y6885000D01*
X6245962Y6904038D02*
X6245962Y6995962D01*
X6154038Y6995962D01*
X6154038Y6904038D01*
X6245962Y6904038D01*
D13*
X263929Y-473214D02*
X263929Y-173214D01*
X335357Y-173214D01*
X378214Y-187500D01*
X406786Y-216071D01*
X421071Y-244643D01*
X435357Y-301786D01*
X435357Y-344643D01*
X421071Y-401786D01*
X406786Y-430357D01*
X378214Y-458929D01*
X335357Y-473214D01*
X263929Y-473214D01*
X563929Y-473214D02*
X563929Y-273214D01*
X563929Y-330357D02*
X578214Y-301786D01*
X592500Y-287500D01*
X621071Y-273214D01*
X649643Y-273214D01*
X749643Y-473214D02*
X749643Y-273214D01*
X749643Y-173214D02*
X735357Y-187500D01*
X749643Y-201786D01*
X763928Y-187500D01*
X749643Y-173214D01*
X749643Y-201786D01*
X935357Y-473214D02*
X906786Y-458929D01*
X892500Y-430357D01*
X892500Y-173214D01*
X1092500Y-473214D02*
X1063929Y-458929D01*
X1049643Y-430357D01*
X1049643Y-173214D01*
X1435357Y-473214D02*
X1435357Y-173214D01*
X1535357Y-387500D01*
X1635357Y-173214D01*
X1635357Y-473214D01*
X1906786Y-473214D02*
X1906786Y-316072D01*
X1892500Y-287500D01*
X1863928Y-273214D01*
X1806786Y-273214D01*
X1778214Y-287500D01*
X1906786Y-458929D02*
X1878214Y-473214D01*
X1806786Y-473214D01*
X1778214Y-458929D01*
X1763928Y-430357D01*
X1763928Y-401786D01*
X1778214Y-373214D01*
X1806786Y-358929D01*
X1878214Y-358929D01*
X1906786Y-344643D01*
X2049643Y-273214D02*
X2049643Y-573214D01*
X2049643Y-287500D02*
X2078214Y-273214D01*
X2135357Y-273214D01*
X2163929Y-287500D01*
X2178214Y-301786D01*
X2192500Y-330357D01*
X2192500Y-416071D01*
X2178214Y-444643D01*
X2163929Y-458929D01*
X2135357Y-473214D01*
X2078214Y-473214D01*
X2049643Y-458929D01*
X2321071Y-444643D02*
X2335357Y-458929D01*
X2321071Y-473214D01*
X2306786Y-458929D01*
X2321071Y-444643D01*
X2321071Y-473214D01*
X2321071Y-287500D02*
X2335357Y-301786D01*
X2321071Y-316072D01*
X2306786Y-301786D01*
X2321071Y-287500D01*
X2321071Y-316072D01*
X-42500Y-950000D02*
X-7500Y-985000D01*
X-7500Y-950000D02*
X-42500Y-985000D01*
X321071Y-803214D02*
X349643Y-803214D01*
X378214Y-817500D01*
X392500Y-831786D01*
X406786Y-860357D01*
X421071Y-917500D01*
X421071Y-988929D01*
X406786Y-1046071D01*
X392500Y-1074643D01*
X378214Y-1088929D01*
X349643Y-1103214D01*
X321071Y-1103214D01*
X292500Y-1088929D01*
X278214Y-1074643D01*
X263929Y-1046071D01*
X249643Y-988929D01*
X249643Y-917500D01*
X263929Y-860357D01*
X278214Y-831786D01*
X292500Y-817500D01*
X321071Y-803214D01*
X549643Y-1074643D02*
X563929Y-1088929D01*
X549643Y-1103214D01*
X535357Y-1088929D01*
X549643Y-1074643D01*
X549643Y-1103214D01*
X663928Y-803214D02*
X849643Y-803214D01*
X749643Y-917500D01*
X792500Y-917500D01*
X821071Y-931786D01*
X835357Y-946071D01*
X849643Y-974643D01*
X849643Y-1046071D01*
X835357Y-1074643D01*
X821071Y-1088929D01*
X792500Y-1103214D01*
X706786Y-1103214D01*
X678214Y-1088929D01*
X663928Y-1074643D01*
X1121071Y-803214D02*
X978214Y-803214D01*
X963928Y-946071D01*
X978214Y-931786D01*
X1006786Y-917500D01*
X1078214Y-917500D01*
X1106786Y-931786D01*
X1121071Y-946071D01*
X1135357Y-974643D01*
X1135357Y-1046071D01*
X1121071Y-1074643D01*
X1106786Y-1088929D01*
X1078214Y-1103214D01*
X1006786Y-1103214D01*
X978214Y-1088929D01*
X963928Y-1074643D01*
X1263929Y-1103214D02*
X1263929Y-903214D01*
X1263929Y-931786D02*
X1278214Y-917500D01*
X1306786Y-903214D01*
X1349643Y-903214D01*
X1378214Y-917500D01*
X1392500Y-946071D01*
X1392500Y-1103214D01*
X1392500Y-946071D02*
X1406786Y-917500D01*
X1435357Y-903214D01*
X1478214Y-903214D01*
X1506786Y-917500D01*
X1521071Y-946071D01*
X1521071Y-1103214D01*
X1663928Y-1103214D02*
X1663928Y-903214D01*
X1663928Y-931786D02*
X1678214Y-917500D01*
X1706786Y-903214D01*
X1749643Y-903214D01*
X1778214Y-917500D01*
X1792500Y-946071D01*
X1792500Y-1103214D01*
X1792500Y-946071D02*
X1806786Y-917500D01*
X1835357Y-903214D01*
X1878214Y-903214D01*
X1906786Y-917500D01*
X1921071Y-946071D01*
X1921071Y-1103214D01*
X2506786Y-788929D02*
X2249643Y-1174643D01*
X2892500Y-803214D02*
X2921071Y-803214D01*
X2949643Y-817500D01*
X2963928Y-831786D01*
X2978214Y-860357D01*
X2992500Y-917500D01*
X2992500Y-988929D01*
X2978214Y-1046071D01*
X2963928Y-1074643D01*
X2949643Y-1088929D01*
X2921071Y-1103214D01*
X2892500Y-1103214D01*
X2863928Y-1088929D01*
X2849643Y-1074643D01*
X2835357Y-1046071D01*
X2821071Y-988929D01*
X2821071Y-917500D01*
X2835357Y-860357D01*
X2849643Y-831786D01*
X2863928Y-817500D01*
X2892500Y-803214D01*
X3121071Y-1074643D02*
X3135357Y-1088929D01*
X3121071Y-1103214D01*
X3106786Y-1088929D01*
X3121071Y-1074643D01*
X3121071Y-1103214D01*
X3321071Y-803214D02*
X3349643Y-803214D01*
X3378214Y-817500D01*
X3392500Y-831786D01*
X3406785Y-860357D01*
X3421071Y-917500D01*
X3421071Y-988929D01*
X3406785Y-1046071D01*
X3392500Y-1074643D01*
X3378214Y-1088929D01*
X3349643Y-1103214D01*
X3321071Y-1103214D01*
X3292500Y-1088929D01*
X3278214Y-1074643D01*
X3263928Y-1046071D01*
X3249643Y-988929D01*
X3249643Y-917500D01*
X3263928Y-860357D01*
X3278214Y-831786D01*
X3292500Y-817500D01*
X3321071Y-803214D01*
X3706785Y-1103214D02*
X3535357Y-1103214D01*
X3621071Y-1103214D02*
X3621071Y-803214D01*
X3592500Y-846071D01*
X3563928Y-874643D01*
X3535357Y-888929D01*
X3963928Y-903214D02*
X3963928Y-1103214D01*
X3892500Y-788929D02*
X3821071Y-1003214D01*
X4006785Y-1003214D01*
X4106786Y-803214D02*
X4106786Y-860357D01*
X4221071Y-803214D02*
X4221071Y-860357D01*
X4663928Y-1217500D02*
X4649643Y-1203214D01*
X4621071Y-1160357D01*
X4606786Y-1131786D01*
X4592500Y-1088929D01*
X4578214Y-1017500D01*
X4578214Y-960357D01*
X4592500Y-888929D01*
X4606786Y-846071D01*
X4621071Y-817500D01*
X4649643Y-774643D01*
X4663928Y-760357D01*
X4906786Y-803214D02*
X4849643Y-803214D01*
X4821071Y-817500D01*
X4806786Y-831786D01*
X4778214Y-874643D01*
X4763928Y-931786D01*
X4763928Y-1046071D01*
X4778214Y-1074643D01*
X4792500Y-1088929D01*
X4821071Y-1103214D01*
X4878214Y-1103214D01*
X4906786Y-1088929D01*
X4921071Y-1074643D01*
X4935357Y-1046071D01*
X4935357Y-974643D01*
X4921071Y-946071D01*
X4906786Y-931786D01*
X4878214Y-917500D01*
X4821071Y-917500D01*
X4792500Y-931786D01*
X4778214Y-946071D01*
X4763928Y-974643D01*
X5192500Y-903214D02*
X5192500Y-1103214D01*
X5121071Y-788929D02*
X5049643Y-1003214D01*
X5235357Y-1003214D01*
X5578214Y-1103214D02*
X5578214Y-803214D01*
X5706785Y-1103214D02*
X5706785Y-946071D01*
X5692500Y-917500D01*
X5663928Y-903214D01*
X5621071Y-903214D01*
X5592500Y-917500D01*
X5578214Y-931786D01*
X5892500Y-1103214D02*
X5863928Y-1088929D01*
X5849643Y-1074643D01*
X5835357Y-1046071D01*
X5835357Y-960357D01*
X5849643Y-931786D01*
X5863928Y-917500D01*
X5892500Y-903214D01*
X5935357Y-903214D01*
X5963928Y-917500D01*
X5978214Y-931786D01*
X5992500Y-960357D01*
X5992500Y-1046071D01*
X5978214Y-1074643D01*
X5963928Y-1088929D01*
X5935357Y-1103214D01*
X5892500Y-1103214D01*
X6163928Y-1103214D02*
X6135357Y-1088929D01*
X6121071Y-1060357D01*
X6121071Y-803214D01*
X6392500Y-1088929D02*
X6363928Y-1103214D01*
X6306786Y-1103214D01*
X6278214Y-1088929D01*
X6263928Y-1060357D01*
X6263928Y-946071D01*
X6278214Y-917500D01*
X6306786Y-903214D01*
X6363928Y-903214D01*
X6392500Y-917500D01*
X6406786Y-946071D01*
X6406786Y-974643D01*
X6263928Y-1003214D01*
X6521071Y-1088929D02*
X6549643Y-1103214D01*
X6606786Y-1103214D01*
X6635357Y-1088929D01*
X6649643Y-1060357D01*
X6649643Y-1046071D01*
X6635357Y-1017500D01*
X6606786Y-1003214D01*
X6563928Y-1003214D01*
X6535357Y-988929D01*
X6521071Y-960357D01*
X6521071Y-946071D01*
X6535357Y-917500D01*
X6563928Y-903214D01*
X6606786Y-903214D01*
X6635357Y-917500D01*
X6749643Y-1217500D02*
X6763928Y-1203214D01*
X6792500Y-1160357D01*
X6806786Y-1131786D01*
X6821071Y-1088929D01*
X6835357Y-1017500D01*
X6835357Y-960357D01*
X6821071Y-888929D01*
X6806786Y-846071D01*
X6792500Y-817500D01*
X6763928Y-774643D01*
X6749643Y-760357D01*
X-7500Y-1363500D02*
G75*
G03X-7500Y-1363500I-20500J0D01*
G01*
X321071Y-1199214D02*
X349643Y-1199214D01*
X378214Y-1213500D01*
X392500Y-1227786D01*
X406786Y-1256357D01*
X421071Y-1313500D01*
X421071Y-1384929D01*
X406786Y-1442071D01*
X392500Y-1470643D01*
X378214Y-1484929D01*
X349643Y-1499214D01*
X321071Y-1499214D01*
X292500Y-1484929D01*
X278214Y-1470643D01*
X263929Y-1442071D01*
X249643Y-1384929D01*
X249643Y-1313500D01*
X263929Y-1256357D01*
X278214Y-1227786D01*
X292500Y-1213500D01*
X321071Y-1199214D01*
X549643Y-1470643D02*
X563929Y-1484929D01*
X549643Y-1499214D01*
X535357Y-1484929D01*
X549643Y-1470643D01*
X549643Y-1499214D01*
X821071Y-1299214D02*
X821071Y-1499214D01*
X749643Y-1184929D02*
X678214Y-1399214D01*
X863928Y-1399214D01*
X1135357Y-1499214D02*
X963928Y-1499214D01*
X1049643Y-1499214D02*
X1049643Y-1199214D01*
X1021071Y-1242072D01*
X992500Y-1270643D01*
X963928Y-1284929D01*
X1263929Y-1499214D02*
X1263929Y-1299214D01*
X1263929Y-1327786D02*
X1278214Y-1313500D01*
X1306786Y-1299214D01*
X1349643Y-1299214D01*
X1378214Y-1313500D01*
X1392500Y-1342072D01*
X1392500Y-1499214D01*
X1392500Y-1342072D02*
X1406786Y-1313500D01*
X1435357Y-1299214D01*
X1478214Y-1299214D01*
X1506786Y-1313500D01*
X1521071Y-1342072D01*
X1521071Y-1499214D01*
X1663928Y-1499214D02*
X1663928Y-1299214D01*
X1663928Y-1327786D02*
X1678214Y-1313500D01*
X1706786Y-1299214D01*
X1749643Y-1299214D01*
X1778214Y-1313500D01*
X1792500Y-1342072D01*
X1792500Y-1499214D01*
X1792500Y-1342072D02*
X1806786Y-1313500D01*
X1835357Y-1299214D01*
X1878214Y-1299214D01*
X1906786Y-1313500D01*
X1921071Y-1342072D01*
X1921071Y-1499214D01*
X2506786Y-1184929D02*
X2249643Y-1570643D01*
X2892500Y-1199214D02*
X2921071Y-1199214D01*
X2949643Y-1213500D01*
X2963928Y-1227786D01*
X2978214Y-1256357D01*
X2992500Y-1313500D01*
X2992500Y-1384929D01*
X2978214Y-1442071D01*
X2963928Y-1470643D01*
X2949643Y-1484929D01*
X2921071Y-1499214D01*
X2892500Y-1499214D01*
X2863928Y-1484929D01*
X2849643Y-1470643D01*
X2835357Y-1442071D01*
X2821071Y-1384929D01*
X2821071Y-1313500D01*
X2835357Y-1256357D01*
X2849643Y-1227786D01*
X2863928Y-1213500D01*
X2892500Y-1199214D01*
X3121071Y-1470643D02*
X3135357Y-1484929D01*
X3121071Y-1499214D01*
X3106786Y-1484929D01*
X3121071Y-1470643D01*
X3121071Y-1499214D01*
X3321071Y-1199214D02*
X3349643Y-1199214D01*
X3378214Y-1213500D01*
X3392500Y-1227786D01*
X3406785Y-1256357D01*
X3421071Y-1313500D01*
X3421071Y-1384929D01*
X3406785Y-1442071D01*
X3392500Y-1470643D01*
X3378214Y-1484929D01*
X3349643Y-1499214D01*
X3321071Y-1499214D01*
X3292500Y-1484929D01*
X3278214Y-1470643D01*
X3263928Y-1442071D01*
X3249643Y-1384929D01*
X3249643Y-1313500D01*
X3263928Y-1256357D01*
X3278214Y-1227786D01*
X3292500Y-1213500D01*
X3321071Y-1199214D01*
X3706785Y-1499214D02*
X3535357Y-1499214D01*
X3621071Y-1499214D02*
X3621071Y-1199214D01*
X3592500Y-1242072D01*
X3563928Y-1270643D01*
X3535357Y-1284929D01*
X3963928Y-1199214D02*
X3906785Y-1199214D01*
X3878214Y-1213500D01*
X3863928Y-1227786D01*
X3835357Y-1270643D01*
X3821071Y-1327786D01*
X3821071Y-1442071D01*
X3835357Y-1470643D01*
X3849643Y-1484929D01*
X3878214Y-1499214D01*
X3935357Y-1499214D01*
X3963928Y-1484929D01*
X3978214Y-1470643D01*
X3992500Y-1442071D01*
X3992500Y-1370643D01*
X3978214Y-1342072D01*
X3963928Y-1327786D01*
X3935357Y-1313500D01*
X3878214Y-1313500D01*
X3849643Y-1327786D01*
X3835357Y-1342072D01*
X3821071Y-1370643D01*
X4106786Y-1199214D02*
X4106786Y-1256357D01*
X4221071Y-1199214D02*
X4221071Y-1256357D01*
X4663928Y-1613500D02*
X4649643Y-1599214D01*
X4621071Y-1556357D01*
X4606786Y-1527786D01*
X4592500Y-1484929D01*
X4578214Y-1413500D01*
X4578214Y-1356357D01*
X4592500Y-1284929D01*
X4606786Y-1242072D01*
X4621071Y-1213500D01*
X4649643Y-1170643D01*
X4663928Y-1156357D01*
X4763928Y-1227786D02*
X4778214Y-1213500D01*
X4806786Y-1199214D01*
X4878214Y-1199214D01*
X4906786Y-1213500D01*
X4921071Y-1227786D01*
X4935357Y-1256357D01*
X4935357Y-1284929D01*
X4921071Y-1327786D01*
X4749643Y-1499214D01*
X4935357Y-1499214D01*
X5035357Y-1199214D02*
X5221071Y-1199214D01*
X5121071Y-1313500D01*
X5163928Y-1313500D01*
X5192500Y-1327786D01*
X5206786Y-1342072D01*
X5221071Y-1370643D01*
X5221071Y-1442071D01*
X5206786Y-1470643D01*
X5192500Y-1484929D01*
X5163928Y-1499214D01*
X5078214Y-1499214D01*
X5049643Y-1484929D01*
X5035357Y-1470643D01*
X5578214Y-1499214D02*
X5578214Y-1199214D01*
X5706785Y-1499214D02*
X5706785Y-1342072D01*
X5692500Y-1313500D01*
X5663928Y-1299214D01*
X5621071Y-1299214D01*
X5592500Y-1313500D01*
X5578214Y-1327786D01*
X5892500Y-1499214D02*
X5863928Y-1484929D01*
X5849643Y-1470643D01*
X5835357Y-1442071D01*
X5835357Y-1356357D01*
X5849643Y-1327786D01*
X5863928Y-1313500D01*
X5892500Y-1299214D01*
X5935357Y-1299214D01*
X5963928Y-1313500D01*
X5978214Y-1327786D01*
X5992500Y-1356357D01*
X5992500Y-1442071D01*
X5978214Y-1470643D01*
X5963928Y-1484929D01*
X5935357Y-1499214D01*
X5892500Y-1499214D01*
X6163928Y-1499214D02*
X6135357Y-1484929D01*
X6121071Y-1456357D01*
X6121071Y-1199214D01*
X6392500Y-1484929D02*
X6363928Y-1499214D01*
X6306786Y-1499214D01*
X6278214Y-1484929D01*
X6263928Y-1456357D01*
X6263928Y-1342072D01*
X6278214Y-1313500D01*
X6306786Y-1299214D01*
X6363928Y-1299214D01*
X6392500Y-1313500D01*
X6406786Y-1342072D01*
X6406786Y-1370643D01*
X6263928Y-1399214D01*
X6521071Y-1484929D02*
X6549643Y-1499214D01*
X6606786Y-1499214D01*
X6635357Y-1484929D01*
X6649643Y-1456357D01*
X6649643Y-1442071D01*
X6635357Y-1413500D01*
X6606786Y-1399214D01*
X6563928Y-1399214D01*
X6535357Y-1384929D01*
X6521071Y-1356357D01*
X6521071Y-1342072D01*
X6535357Y-1313500D01*
X6563928Y-1299214D01*
X6606786Y-1299214D01*
X6635357Y-1313500D01*
X6749643Y-1613500D02*
X6763928Y-1599214D01*
X6792500Y-1556357D01*
X6806786Y-1527786D01*
X6821071Y-1484929D01*
X6835357Y-1413500D01*
X6835357Y-1356357D01*
X6821071Y-1284929D01*
X6806786Y-1242072D01*
X6792500Y-1213500D01*
X6763928Y-1170643D01*
X6749643Y-1156357D01*
X-32500Y-1734500D02*
X-32500Y-1784500D01*
X-57500Y-1759500D02*
X-7500Y-1759500D01*
X321071Y-1595214D02*
X349643Y-1595214D01*
X378214Y-1609500D01*
X392500Y-1623786D01*
X406786Y-1652357D01*
X421071Y-1709500D01*
X421071Y-1780929D01*
X406786Y-1838071D01*
X392500Y-1866643D01*
X378214Y-1880929D01*
X349643Y-1895214D01*
X321071Y-1895214D01*
X292500Y-1880929D01*
X278214Y-1866643D01*
X263929Y-1838071D01*
X249643Y-1780929D01*
X249643Y-1709500D01*
X263929Y-1652357D01*
X278214Y-1623786D01*
X292500Y-1609500D01*
X321071Y-1595214D01*
X549643Y-1866643D02*
X563929Y-1880929D01*
X549643Y-1895214D01*
X535357Y-1880929D01*
X549643Y-1866643D01*
X549643Y-1895214D01*
X835357Y-1595214D02*
X692500Y-1595214D01*
X678214Y-1738071D01*
X692500Y-1723786D01*
X721071Y-1709500D01*
X792500Y-1709500D01*
X821071Y-1723786D01*
X835357Y-1738071D01*
X849643Y-1766643D01*
X849643Y-1838071D01*
X835357Y-1866643D01*
X821071Y-1880929D01*
X792500Y-1895214D01*
X721071Y-1895214D01*
X692500Y-1880929D01*
X678214Y-1866643D01*
X1035357Y-1595214D02*
X1063929Y-1595214D01*
X1092500Y-1609500D01*
X1106786Y-1623786D01*
X1121071Y-1652357D01*
X1135357Y-1709500D01*
X1135357Y-1780929D01*
X1121071Y-1838071D01*
X1106786Y-1866643D01*
X1092500Y-1880929D01*
X1063929Y-1895214D01*
X1035357Y-1895214D01*
X1006786Y-1880929D01*
X992500Y-1866643D01*
X978214Y-1838071D01*
X963928Y-1780929D01*
X963928Y-1709500D01*
X978214Y-1652357D01*
X992500Y-1623786D01*
X1006786Y-1609500D01*
X1035357Y-1595214D01*
X1263929Y-1895214D02*
X1263929Y-1695214D01*
X1263929Y-1723786D02*
X1278214Y-1709500D01*
X1306786Y-1695214D01*
X1349643Y-1695214D01*
X1378214Y-1709500D01*
X1392500Y-1738071D01*
X1392500Y-1895214D01*
X1392500Y-1738071D02*
X1406786Y-1709500D01*
X1435357Y-1695214D01*
X1478214Y-1695214D01*
X1506786Y-1709500D01*
X1521071Y-1738071D01*
X1521071Y-1895214D01*
X1663928Y-1895214D02*
X1663928Y-1695214D01*
X1663928Y-1723786D02*
X1678214Y-1709500D01*
X1706786Y-1695214D01*
X1749643Y-1695214D01*
X1778214Y-1709500D01*
X1792500Y-1738071D01*
X1792500Y-1895214D01*
X1792500Y-1738071D02*
X1806786Y-1709500D01*
X1835357Y-1695214D01*
X1878214Y-1695214D01*
X1906786Y-1709500D01*
X1921071Y-1738071D01*
X1921071Y-1895214D01*
X2506786Y-1580929D02*
X2249643Y-1966643D01*
X2892500Y-1595214D02*
X2921071Y-1595214D01*
X2949643Y-1609500D01*
X2963928Y-1623786D01*
X2978214Y-1652357D01*
X2992500Y-1709500D01*
X2992500Y-1780929D01*
X2978214Y-1838071D01*
X2963928Y-1866643D01*
X2949643Y-1880929D01*
X2921071Y-1895214D01*
X2892500Y-1895214D01*
X2863928Y-1880929D01*
X2849643Y-1866643D01*
X2835357Y-1838071D01*
X2821071Y-1780929D01*
X2821071Y-1709500D01*
X2835357Y-1652357D01*
X2849643Y-1623786D01*
X2863928Y-1609500D01*
X2892500Y-1595214D01*
X3121071Y-1866643D02*
X3135357Y-1880929D01*
X3121071Y-1895214D01*
X3106786Y-1880929D01*
X3121071Y-1866643D01*
X3121071Y-1895214D01*
X3321071Y-1595214D02*
X3349643Y-1595214D01*
X3378214Y-1609500D01*
X3392500Y-1623786D01*
X3406785Y-1652357D01*
X3421071Y-1709500D01*
X3421071Y-1780929D01*
X3406785Y-1838071D01*
X3392500Y-1866643D01*
X3378214Y-1880929D01*
X3349643Y-1895214D01*
X3321071Y-1895214D01*
X3292500Y-1880929D01*
X3278214Y-1866643D01*
X3263928Y-1838071D01*
X3249643Y-1780929D01*
X3249643Y-1709500D01*
X3263928Y-1652357D01*
X3278214Y-1623786D01*
X3292500Y-1609500D01*
X3321071Y-1595214D01*
X3535357Y-1623786D02*
X3549643Y-1609500D01*
X3578214Y-1595214D01*
X3649643Y-1595214D01*
X3678214Y-1609500D01*
X3692500Y-1623786D01*
X3706785Y-1652357D01*
X3706785Y-1680929D01*
X3692500Y-1723786D01*
X3521071Y-1895214D01*
X3706785Y-1895214D01*
X3892500Y-1595214D02*
X3921071Y-1595214D01*
X3949643Y-1609500D01*
X3963928Y-1623786D01*
X3978214Y-1652357D01*
X3992500Y-1709500D01*
X3992500Y-1780929D01*
X3978214Y-1838071D01*
X3963928Y-1866643D01*
X3949643Y-1880929D01*
X3921071Y-1895214D01*
X3892500Y-1895214D01*
X3863928Y-1880929D01*
X3849643Y-1866643D01*
X3835357Y-1838071D01*
X3821071Y-1780929D01*
X3821071Y-1709500D01*
X3835357Y-1652357D01*
X3849643Y-1623786D01*
X3863928Y-1609500D01*
X3892500Y-1595214D01*
X4106786Y-1595214D02*
X4106786Y-1652357D01*
X4221071Y-1595214D02*
X4221071Y-1652357D01*
X4663928Y-2009500D02*
X4649643Y-1995214D01*
X4621071Y-1952357D01*
X4606786Y-1923786D01*
X4592500Y-1880929D01*
X4578214Y-1809500D01*
X4578214Y-1752357D01*
X4592500Y-1680929D01*
X4606786Y-1638071D01*
X4621071Y-1609500D01*
X4649643Y-1566643D01*
X4663928Y-1552357D01*
X4749643Y-1595214D02*
X4949643Y-1595214D01*
X4821071Y-1895214D01*
X5292500Y-1895214D02*
X5292500Y-1595214D01*
X5421071Y-1895214D02*
X5421071Y-1738071D01*
X5406786Y-1709500D01*
X5378214Y-1695214D01*
X5335357Y-1695214D01*
X5306786Y-1709500D01*
X5292500Y-1723786D01*
X5606785Y-1895214D02*
X5578214Y-1880929D01*
X5563928Y-1866643D01*
X5549643Y-1838071D01*
X5549643Y-1752357D01*
X5563928Y-1723786D01*
X5578214Y-1709500D01*
X5606785Y-1695214D01*
X5649643Y-1695214D01*
X5678214Y-1709500D01*
X5692500Y-1723786D01*
X5706785Y-1752357D01*
X5706785Y-1838071D01*
X5692500Y-1866643D01*
X5678214Y-1880929D01*
X5649643Y-1895214D01*
X5606785Y-1895214D01*
X5878214Y-1895214D02*
X5849643Y-1880929D01*
X5835357Y-1852357D01*
X5835357Y-1595214D01*
X6106786Y-1880929D02*
X6078214Y-1895214D01*
X6021071Y-1895214D01*
X5992500Y-1880929D01*
X5978214Y-1852357D01*
X5978214Y-1738071D01*
X5992500Y-1709500D01*
X6021071Y-1695214D01*
X6078214Y-1695214D01*
X6106786Y-1709500D01*
X6121071Y-1738071D01*
X6121071Y-1766643D01*
X5978214Y-1795214D01*
X6235357Y-1880929D02*
X6263928Y-1895214D01*
X6321071Y-1895214D01*
X6349643Y-1880929D01*
X6363928Y-1852357D01*
X6363928Y-1838071D01*
X6349643Y-1809500D01*
X6321071Y-1795214D01*
X6278214Y-1795214D01*
X6249643Y-1780929D01*
X6235357Y-1752357D01*
X6235357Y-1738071D01*
X6249643Y-1709500D01*
X6278214Y-1695214D01*
X6321071Y-1695214D01*
X6349643Y-1709500D01*
X6463928Y-2009500D02*
X6478214Y-1995214D01*
X6506786Y-1952357D01*
X6521071Y-1923786D01*
X6535357Y-1880929D01*
X6549643Y-1809500D01*
X6549643Y-1752357D01*
X6535357Y-1680929D01*
X6521071Y-1638071D01*
X6506786Y-1609500D01*
X6478214Y-1566643D01*
X6463928Y-1552357D01*
X-16433Y-2177067D02*
X-16433Y-2133933D01*
X-59567Y-2133933D01*
X-59567Y-2177067D01*
X-16433Y-2177067D01*
X321071Y-1991214D02*
X349643Y-1991214D01*
X378214Y-2005500D01*
X392500Y-2019786D01*
X406786Y-2048357D01*
X421071Y-2105500D01*
X421071Y-2176929D01*
X406786Y-2234072D01*
X392500Y-2262643D01*
X378214Y-2276929D01*
X349643Y-2291214D01*
X321071Y-2291214D01*
X292500Y-2276929D01*
X278214Y-2262643D01*
X263929Y-2234072D01*
X249643Y-2176929D01*
X249643Y-2105500D01*
X263929Y-2048357D01*
X278214Y-2019786D01*
X292500Y-2005500D01*
X321071Y-1991214D01*
X549643Y-2262643D02*
X563929Y-2276929D01*
X549643Y-2291214D01*
X535357Y-2276929D01*
X549643Y-2262643D01*
X549643Y-2291214D01*
X821071Y-1991214D02*
X763928Y-1991214D01*
X735357Y-2005500D01*
X721071Y-2019786D01*
X692500Y-2062643D01*
X678214Y-2119786D01*
X678214Y-2234072D01*
X692500Y-2262643D01*
X706786Y-2276929D01*
X735357Y-2291214D01*
X792500Y-2291214D01*
X821071Y-2276929D01*
X835357Y-2262643D01*
X849643Y-2234072D01*
X849643Y-2162643D01*
X835357Y-2134072D01*
X821071Y-2119786D01*
X792500Y-2105500D01*
X735357Y-2105500D01*
X706786Y-2119786D01*
X692500Y-2134072D01*
X678214Y-2162643D01*
X1135357Y-2291214D02*
X963928Y-2291214D01*
X1049643Y-2291214D02*
X1049643Y-1991214D01*
X1021071Y-2034071D01*
X992500Y-2062643D01*
X963928Y-2076929D01*
X1263929Y-2291214D02*
X1263929Y-2091214D01*
X1263929Y-2119786D02*
X1278214Y-2105500D01*
X1306786Y-2091214D01*
X1349643Y-2091214D01*
X1378214Y-2105500D01*
X1392500Y-2134072D01*
X1392500Y-2291214D01*
X1392500Y-2134072D02*
X1406786Y-2105500D01*
X1435357Y-2091214D01*
X1478214Y-2091214D01*
X1506786Y-2105500D01*
X1521071Y-2134072D01*
X1521071Y-2291214D01*
X1663928Y-2291214D02*
X1663928Y-2091214D01*
X1663928Y-2119786D02*
X1678214Y-2105500D01*
X1706786Y-2091214D01*
X1749643Y-2091214D01*
X1778214Y-2105500D01*
X1792500Y-2134072D01*
X1792500Y-2291214D01*
X1792500Y-2134072D02*
X1806786Y-2105500D01*
X1835357Y-2091214D01*
X1878214Y-2091214D01*
X1906786Y-2105500D01*
X1921071Y-2134072D01*
X1921071Y-2291214D01*
X2506786Y-1976929D02*
X2249643Y-2362643D01*
X2892500Y-1991214D02*
X2921071Y-1991214D01*
X2949643Y-2005500D01*
X2963928Y-2019786D01*
X2978214Y-2048357D01*
X2992500Y-2105500D01*
X2992500Y-2176929D01*
X2978214Y-2234072D01*
X2963928Y-2262643D01*
X2949643Y-2276929D01*
X2921071Y-2291214D01*
X2892500Y-2291214D01*
X2863928Y-2276929D01*
X2849643Y-2262643D01*
X2835357Y-2234072D01*
X2821071Y-2176929D01*
X2821071Y-2105500D01*
X2835357Y-2048357D01*
X2849643Y-2019786D01*
X2863928Y-2005500D01*
X2892500Y-1991214D01*
X3121071Y-2262643D02*
X3135357Y-2276929D01*
X3121071Y-2291214D01*
X3106786Y-2276929D01*
X3121071Y-2262643D01*
X3121071Y-2291214D01*
X3321071Y-1991214D02*
X3349643Y-1991214D01*
X3378214Y-2005500D01*
X3392500Y-2019786D01*
X3406785Y-2048357D01*
X3421071Y-2105500D01*
X3421071Y-2176929D01*
X3406785Y-2234072D01*
X3392500Y-2262643D01*
X3378214Y-2276929D01*
X3349643Y-2291214D01*
X3321071Y-2291214D01*
X3292500Y-2276929D01*
X3278214Y-2262643D01*
X3263928Y-2234072D01*
X3249643Y-2176929D01*
X3249643Y-2105500D01*
X3263928Y-2048357D01*
X3278214Y-2019786D01*
X3292500Y-2005500D01*
X3321071Y-1991214D01*
X3535357Y-2019786D02*
X3549643Y-2005500D01*
X3578214Y-1991214D01*
X3649643Y-1991214D01*
X3678214Y-2005500D01*
X3692500Y-2019786D01*
X3706785Y-2048357D01*
X3706785Y-2076929D01*
X3692500Y-2119786D01*
X3521071Y-2291214D01*
X3706785Y-2291214D01*
X3963928Y-2091214D02*
X3963928Y-2291214D01*
X3892500Y-1976929D02*
X3821071Y-2191214D01*
X4006785Y-2191214D01*
X4106786Y-1991214D02*
X4106786Y-2048357D01*
X4221071Y-1991214D02*
X4221071Y-2048357D01*
X4663928Y-2405500D02*
X4649643Y-2391214D01*
X4621071Y-2348357D01*
X4606786Y-2319786D01*
X4592500Y-2276929D01*
X4578214Y-2205500D01*
X4578214Y-2148357D01*
X4592500Y-2076929D01*
X4606786Y-2034071D01*
X4621071Y-2005500D01*
X4649643Y-1962643D01*
X4663928Y-1948357D01*
X4935357Y-2291214D02*
X4763928Y-2291214D01*
X4849643Y-2291214D02*
X4849643Y-1991214D01*
X4821071Y-2034071D01*
X4792500Y-2062643D01*
X4763928Y-2076929D01*
X5192500Y-2091214D02*
X5192500Y-2291214D01*
X5121071Y-1976929D02*
X5049643Y-2191214D01*
X5235357Y-2191214D01*
X5578214Y-2291214D02*
X5578214Y-1991214D01*
X5706785Y-2291214D02*
X5706785Y-2134072D01*
X5692500Y-2105500D01*
X5663928Y-2091214D01*
X5621071Y-2091214D01*
X5592500Y-2105500D01*
X5578214Y-2119786D01*
X5892500Y-2291214D02*
X5863928Y-2276929D01*
X5849643Y-2262643D01*
X5835357Y-2234072D01*
X5835357Y-2148357D01*
X5849643Y-2119786D01*
X5863928Y-2105500D01*
X5892500Y-2091214D01*
X5935357Y-2091214D01*
X5963928Y-2105500D01*
X5978214Y-2119786D01*
X5992500Y-2148357D01*
X5992500Y-2234072D01*
X5978214Y-2262643D01*
X5963928Y-2276929D01*
X5935357Y-2291214D01*
X5892500Y-2291214D01*
X6163928Y-2291214D02*
X6135357Y-2276929D01*
X6121071Y-2248357D01*
X6121071Y-1991214D01*
X6392500Y-2276929D02*
X6363928Y-2291214D01*
X6306786Y-2291214D01*
X6278214Y-2276929D01*
X6263928Y-2248357D01*
X6263928Y-2134072D01*
X6278214Y-2105500D01*
X6306786Y-2091214D01*
X6363928Y-2091214D01*
X6392500Y-2105500D01*
X6406786Y-2134072D01*
X6406786Y-2162643D01*
X6263928Y-2191214D01*
X6521071Y-2276929D02*
X6549643Y-2291214D01*
X6606786Y-2291214D01*
X6635357Y-2276929D01*
X6649643Y-2248357D01*
X6649643Y-2234072D01*
X6635357Y-2205500D01*
X6606786Y-2191214D01*
X6563928Y-2191214D01*
X6535357Y-2176929D01*
X6521071Y-2148357D01*
X6521071Y-2134072D01*
X6535357Y-2105500D01*
X6563928Y-2091214D01*
X6606786Y-2091214D01*
X6635357Y-2105500D01*
X6749643Y-2405500D02*
X6763928Y-2391214D01*
X6792500Y-2348357D01*
X6806786Y-2319786D01*
X6821071Y-2276929D01*
X6835357Y-2205500D01*
X6835357Y-2148357D01*
X6821071Y-2076929D01*
X6806786Y-2034071D01*
X6792500Y-2005500D01*
X6763928Y-1962643D01*
X6749643Y-1948357D01*
X-48500Y-2592500D02*
X-7500Y-2551500D01*
X-48500Y-2510500D01*
X-89500Y-2551500D01*
X-48500Y-2592500D01*
X321071Y-2387214D02*
X349643Y-2387214D01*
X378214Y-2401500D01*
X392500Y-2415786D01*
X406786Y-2444357D01*
X421071Y-2501500D01*
X421071Y-2572929D01*
X406786Y-2630072D01*
X392500Y-2658643D01*
X378214Y-2672929D01*
X349643Y-2687214D01*
X321071Y-2687214D01*
X292500Y-2672929D01*
X278214Y-2658643D01*
X263929Y-2630072D01*
X249643Y-2572929D01*
X249643Y-2501500D01*
X263929Y-2444357D01*
X278214Y-2415786D01*
X292500Y-2401500D01*
X321071Y-2387214D01*
X549643Y-2658643D02*
X563929Y-2672929D01*
X549643Y-2687214D01*
X535357Y-2672929D01*
X549643Y-2658643D01*
X549643Y-2687214D01*
X735357Y-2515786D02*
X706786Y-2501500D01*
X692500Y-2487214D01*
X678214Y-2458643D01*
X678214Y-2444357D01*
X692500Y-2415786D01*
X706786Y-2401500D01*
X735357Y-2387214D01*
X792500Y-2387214D01*
X821071Y-2401500D01*
X835357Y-2415786D01*
X849643Y-2444357D01*
X849643Y-2458643D01*
X835357Y-2487214D01*
X821071Y-2501500D01*
X792500Y-2515786D01*
X735357Y-2515786D01*
X706786Y-2530072D01*
X692500Y-2544357D01*
X678214Y-2572929D01*
X678214Y-2630072D01*
X692500Y-2658643D01*
X706786Y-2672929D01*
X735357Y-2687214D01*
X792500Y-2687214D01*
X821071Y-2672929D01*
X835357Y-2658643D01*
X849643Y-2630072D01*
X849643Y-2572929D01*
X835357Y-2544357D01*
X821071Y-2530072D01*
X792500Y-2515786D01*
X963928Y-2415786D02*
X978214Y-2401500D01*
X1006786Y-2387214D01*
X1078214Y-2387214D01*
X1106786Y-2401500D01*
X1121071Y-2415786D01*
X1135357Y-2444357D01*
X1135357Y-2472929D01*
X1121071Y-2515786D01*
X949643Y-2687214D01*
X1135357Y-2687214D01*
X1263929Y-2687214D02*
X1263929Y-2487214D01*
X1263929Y-2515786D02*
X1278214Y-2501500D01*
X1306786Y-2487214D01*
X1349643Y-2487214D01*
X1378214Y-2501500D01*
X1392500Y-2530072D01*
X1392500Y-2687214D01*
X1392500Y-2530072D02*
X1406786Y-2501500D01*
X1435357Y-2487214D01*
X1478214Y-2487214D01*
X1506786Y-2501500D01*
X1521071Y-2530072D01*
X1521071Y-2687214D01*
X1663928Y-2687214D02*
X1663928Y-2487214D01*
X1663928Y-2515786D02*
X1678214Y-2501500D01*
X1706786Y-2487214D01*
X1749643Y-2487214D01*
X1778214Y-2501500D01*
X1792500Y-2530072D01*
X1792500Y-2687214D01*
X1792500Y-2530072D02*
X1806786Y-2501500D01*
X1835357Y-2487214D01*
X1878214Y-2487214D01*
X1906786Y-2501500D01*
X1921071Y-2530072D01*
X1921071Y-2687214D01*
X2506786Y-2372929D02*
X2249643Y-2758643D01*
X2892500Y-2387214D02*
X2921071Y-2387214D01*
X2949643Y-2401500D01*
X2963928Y-2415786D01*
X2978214Y-2444357D01*
X2992500Y-2501500D01*
X2992500Y-2572929D01*
X2978214Y-2630072D01*
X2963928Y-2658643D01*
X2949643Y-2672929D01*
X2921071Y-2687214D01*
X2892500Y-2687214D01*
X2863928Y-2672929D01*
X2849643Y-2658643D01*
X2835357Y-2630072D01*
X2821071Y-2572929D01*
X2821071Y-2501500D01*
X2835357Y-2444357D01*
X2849643Y-2415786D01*
X2863928Y-2401500D01*
X2892500Y-2387214D01*
X3121071Y-2658643D02*
X3135357Y-2672929D01*
X3121071Y-2687214D01*
X3106786Y-2672929D01*
X3121071Y-2658643D01*
X3121071Y-2687214D01*
X3321071Y-2387214D02*
X3349643Y-2387214D01*
X3378214Y-2401500D01*
X3392500Y-2415786D01*
X3406785Y-2444357D01*
X3421071Y-2501500D01*
X3421071Y-2572929D01*
X3406785Y-2630072D01*
X3392500Y-2658643D01*
X3378214Y-2672929D01*
X3349643Y-2687214D01*
X3321071Y-2687214D01*
X3292500Y-2672929D01*
X3278214Y-2658643D01*
X3263928Y-2630072D01*
X3249643Y-2572929D01*
X3249643Y-2501500D01*
X3263928Y-2444357D01*
X3278214Y-2415786D01*
X3292500Y-2401500D01*
X3321071Y-2387214D01*
X3521071Y-2387214D02*
X3706785Y-2387214D01*
X3606785Y-2501500D01*
X3649643Y-2501500D01*
X3678214Y-2515786D01*
X3692500Y-2530072D01*
X3706785Y-2558643D01*
X3706785Y-2630072D01*
X3692500Y-2658643D01*
X3678214Y-2672929D01*
X3649643Y-2687214D01*
X3563928Y-2687214D01*
X3535357Y-2672929D01*
X3521071Y-2658643D01*
X3821071Y-2415786D02*
X3835357Y-2401500D01*
X3863928Y-2387214D01*
X3935357Y-2387214D01*
X3963928Y-2401500D01*
X3978214Y-2415786D01*
X3992500Y-2444357D01*
X3992500Y-2472929D01*
X3978214Y-2515786D01*
X3806785Y-2687214D01*
X3992500Y-2687214D01*
X4106786Y-2387214D02*
X4106786Y-2444357D01*
X4221071Y-2387214D02*
X4221071Y-2444357D01*
X4663928Y-2801500D02*
X4649643Y-2787214D01*
X4621071Y-2744357D01*
X4606786Y-2715786D01*
X4592500Y-2672929D01*
X4578214Y-2601500D01*
X4578214Y-2544357D01*
X4592500Y-2472929D01*
X4606786Y-2430072D01*
X4621071Y-2401500D01*
X4649643Y-2358643D01*
X4663928Y-2344357D01*
X4763928Y-2415786D02*
X4778214Y-2401500D01*
X4806786Y-2387214D01*
X4878214Y-2387214D01*
X4906786Y-2401500D01*
X4921071Y-2415786D01*
X4935357Y-2444357D01*
X4935357Y-2472929D01*
X4921071Y-2515786D01*
X4749643Y-2687214D01*
X4935357Y-2687214D01*
X5292500Y-2687214D02*
X5292500Y-2387214D01*
X5421071Y-2687214D02*
X5421071Y-2530072D01*
X5406786Y-2501500D01*
X5378214Y-2487214D01*
X5335357Y-2487214D01*
X5306786Y-2501500D01*
X5292500Y-2515786D01*
X5606785Y-2687214D02*
X5578214Y-2672929D01*
X5563928Y-2658643D01*
X5549643Y-2630072D01*
X5549643Y-2544357D01*
X5563928Y-2515786D01*
X5578214Y-2501500D01*
X5606785Y-2487214D01*
X5649643Y-2487214D01*
X5678214Y-2501500D01*
X5692500Y-2515786D01*
X5706785Y-2544357D01*
X5706785Y-2630072D01*
X5692500Y-2658643D01*
X5678214Y-2672929D01*
X5649643Y-2687214D01*
X5606785Y-2687214D01*
X5878214Y-2687214D02*
X5849643Y-2672929D01*
X5835357Y-2644357D01*
X5835357Y-2387214D01*
X6106786Y-2672929D02*
X6078214Y-2687214D01*
X6021071Y-2687214D01*
X5992500Y-2672929D01*
X5978214Y-2644357D01*
X5978214Y-2530072D01*
X5992500Y-2501500D01*
X6021071Y-2487214D01*
X6078214Y-2487214D01*
X6106786Y-2501500D01*
X6121071Y-2530072D01*
X6121071Y-2558643D01*
X5978214Y-2587214D01*
X6235357Y-2672929D02*
X6263928Y-2687214D01*
X6321071Y-2687214D01*
X6349643Y-2672929D01*
X6363928Y-2644357D01*
X6363928Y-2630072D01*
X6349643Y-2601500D01*
X6321071Y-2587214D01*
X6278214Y-2587214D01*
X6249643Y-2572929D01*
X6235357Y-2544357D01*
X6235357Y-2530072D01*
X6249643Y-2501500D01*
X6278214Y-2487214D01*
X6321071Y-2487214D01*
X6349643Y-2501500D01*
X6463928Y-2801500D02*
X6478214Y-2787214D01*
X6506786Y-2744357D01*
X6521071Y-2715786D01*
X6535357Y-2672929D01*
X6549643Y-2601500D01*
X6549643Y-2544357D01*
X6535357Y-2472929D01*
X6521071Y-2430072D01*
X6506786Y-2401500D01*
X6478214Y-2358643D01*
X6463928Y-2344357D01*
X-97500Y-2902500D02*
X-7500Y-2992500D01*
X-7500Y-2902500D02*
X-97500Y-2992500D01*
X-7500Y-2947500D02*
G75*
G03X-7500Y-2947500I-45000J0D01*
G01*
X321071Y-2783214D02*
X349643Y-2783214D01*
X378214Y-2797500D01*
X392500Y-2811786D01*
X406786Y-2840357D01*
X421071Y-2897500D01*
X421071Y-2968929D01*
X406786Y-3026071D01*
X392500Y-3054643D01*
X378214Y-3068929D01*
X349643Y-3083214D01*
X321071Y-3083214D01*
X292500Y-3068929D01*
X278214Y-3054643D01*
X263929Y-3026071D01*
X249643Y-2968929D01*
X249643Y-2897500D01*
X263929Y-2840357D01*
X278214Y-2811786D01*
X292500Y-2797500D01*
X321071Y-2783214D01*
X549643Y-3054643D02*
X563929Y-3068929D01*
X549643Y-3083214D01*
X535357Y-3068929D01*
X549643Y-3054643D01*
X549643Y-3083214D01*
X706786Y-3083214D02*
X763928Y-3083214D01*
X792500Y-3068929D01*
X806786Y-3054643D01*
X835357Y-3011786D01*
X849643Y-2954643D01*
X849643Y-2840357D01*
X835357Y-2811786D01*
X821071Y-2797500D01*
X792500Y-2783214D01*
X735357Y-2783214D01*
X706786Y-2797500D01*
X692500Y-2811786D01*
X678214Y-2840357D01*
X678214Y-2911786D01*
X692500Y-2940357D01*
X706786Y-2954643D01*
X735357Y-2968929D01*
X792500Y-2968929D01*
X821071Y-2954643D01*
X835357Y-2940357D01*
X849643Y-2911786D01*
X1035357Y-2783214D02*
X1063929Y-2783214D01*
X1092500Y-2797500D01*
X1106786Y-2811786D01*
X1121071Y-2840357D01*
X1135357Y-2897500D01*
X1135357Y-2968929D01*
X1121071Y-3026071D01*
X1106786Y-3054643D01*
X1092500Y-3068929D01*
X1063929Y-3083214D01*
X1035357Y-3083214D01*
X1006786Y-3068929D01*
X992500Y-3054643D01*
X978214Y-3026071D01*
X963928Y-2968929D01*
X963928Y-2897500D01*
X978214Y-2840357D01*
X992500Y-2811786D01*
X1006786Y-2797500D01*
X1035357Y-2783214D01*
X1263929Y-3083214D02*
X1263929Y-2883214D01*
X1263929Y-2911786D02*
X1278214Y-2897500D01*
X1306786Y-2883214D01*
X1349643Y-2883214D01*
X1378214Y-2897500D01*
X1392500Y-2926071D01*
X1392500Y-3083214D01*
X1392500Y-2926071D02*
X1406786Y-2897500D01*
X1435357Y-2883214D01*
X1478214Y-2883214D01*
X1506786Y-2897500D01*
X1521071Y-2926071D01*
X1521071Y-3083214D01*
X1663928Y-3083214D02*
X1663928Y-2883214D01*
X1663928Y-2911786D02*
X1678214Y-2897500D01*
X1706786Y-2883214D01*
X1749643Y-2883214D01*
X1778214Y-2897500D01*
X1792500Y-2926071D01*
X1792500Y-3083214D01*
X1792500Y-2926071D02*
X1806786Y-2897500D01*
X1835357Y-2883214D01*
X1878214Y-2883214D01*
X1906786Y-2897500D01*
X1921071Y-2926071D01*
X1921071Y-3083214D01*
X2506786Y-2768929D02*
X2249643Y-3154643D01*
X2892500Y-2783214D02*
X2921071Y-2783214D01*
X2949643Y-2797500D01*
X2963928Y-2811786D01*
X2978214Y-2840357D01*
X2992500Y-2897500D01*
X2992500Y-2968929D01*
X2978214Y-3026071D01*
X2963928Y-3054643D01*
X2949643Y-3068929D01*
X2921071Y-3083214D01*
X2892500Y-3083214D01*
X2863928Y-3068929D01*
X2849643Y-3054643D01*
X2835357Y-3026071D01*
X2821071Y-2968929D01*
X2821071Y-2897500D01*
X2835357Y-2840357D01*
X2849643Y-2811786D01*
X2863928Y-2797500D01*
X2892500Y-2783214D01*
X3121071Y-3054643D02*
X3135357Y-3068929D01*
X3121071Y-3083214D01*
X3106786Y-3068929D01*
X3121071Y-3054643D01*
X3121071Y-3083214D01*
X3321071Y-2783214D02*
X3349643Y-2783214D01*
X3378214Y-2797500D01*
X3392500Y-2811786D01*
X3406785Y-2840357D01*
X3421071Y-2897500D01*
X3421071Y-2968929D01*
X3406785Y-3026071D01*
X3392500Y-3054643D01*
X3378214Y-3068929D01*
X3349643Y-3083214D01*
X3321071Y-3083214D01*
X3292500Y-3068929D01*
X3278214Y-3054643D01*
X3263928Y-3026071D01*
X3249643Y-2968929D01*
X3249643Y-2897500D01*
X3263928Y-2840357D01*
X3278214Y-2811786D01*
X3292500Y-2797500D01*
X3321071Y-2783214D01*
X3521071Y-2783214D02*
X3706785Y-2783214D01*
X3606785Y-2897500D01*
X3649643Y-2897500D01*
X3678214Y-2911786D01*
X3692500Y-2926071D01*
X3706785Y-2954643D01*
X3706785Y-3026071D01*
X3692500Y-3054643D01*
X3678214Y-3068929D01*
X3649643Y-3083214D01*
X3563928Y-3083214D01*
X3535357Y-3068929D01*
X3521071Y-3054643D01*
X3978214Y-2783214D02*
X3835357Y-2783214D01*
X3821071Y-2926071D01*
X3835357Y-2911786D01*
X3863928Y-2897500D01*
X3935357Y-2897500D01*
X3963928Y-2911786D01*
X3978214Y-2926071D01*
X3992500Y-2954643D01*
X3992500Y-3026071D01*
X3978214Y-3054643D01*
X3963928Y-3068929D01*
X3935357Y-3083214D01*
X3863928Y-3083214D01*
X3835357Y-3068929D01*
X3821071Y-3054643D01*
X4106786Y-2783214D02*
X4106786Y-2840357D01*
X4221071Y-2783214D02*
X4221071Y-2840357D01*
X4663928Y-3197500D02*
X4649643Y-3183214D01*
X4621071Y-3140357D01*
X4606786Y-3111786D01*
X4592500Y-3068929D01*
X4578214Y-2997500D01*
X4578214Y-2940357D01*
X4592500Y-2868929D01*
X4606786Y-2826071D01*
X4621071Y-2797500D01*
X4649643Y-2754643D01*
X4663928Y-2740357D01*
X4935357Y-3083214D02*
X4763928Y-3083214D01*
X4849643Y-3083214D02*
X4849643Y-2783214D01*
X4821071Y-2826071D01*
X4792500Y-2854643D01*
X4763928Y-2868929D01*
X5035357Y-2783214D02*
X5221071Y-2783214D01*
X5121071Y-2897500D01*
X5163928Y-2897500D01*
X5192500Y-2911786D01*
X5206786Y-2926071D01*
X5221071Y-2954643D01*
X5221071Y-3026071D01*
X5206786Y-3054643D01*
X5192500Y-3068929D01*
X5163928Y-3083214D01*
X5078214Y-3083214D01*
X5049643Y-3068929D01*
X5035357Y-3054643D01*
X5578214Y-3083214D02*
X5578214Y-2783214D01*
X5706785Y-3083214D02*
X5706785Y-2926071D01*
X5692500Y-2897500D01*
X5663928Y-2883214D01*
X5621071Y-2883214D01*
X5592500Y-2897500D01*
X5578214Y-2911786D01*
X5892500Y-3083214D02*
X5863928Y-3068929D01*
X5849643Y-3054643D01*
X5835357Y-3026071D01*
X5835357Y-2940357D01*
X5849643Y-2911786D01*
X5863928Y-2897500D01*
X5892500Y-2883214D01*
X5935357Y-2883214D01*
X5963928Y-2897500D01*
X5978214Y-2911786D01*
X5992500Y-2940357D01*
X5992500Y-3026071D01*
X5978214Y-3054643D01*
X5963928Y-3068929D01*
X5935357Y-3083214D01*
X5892500Y-3083214D01*
X6163928Y-3083214D02*
X6135357Y-3068929D01*
X6121071Y-3040357D01*
X6121071Y-2783214D01*
X6392500Y-3068929D02*
X6363928Y-3083214D01*
X6306786Y-3083214D01*
X6278214Y-3068929D01*
X6263928Y-3040357D01*
X6263928Y-2926071D01*
X6278214Y-2897500D01*
X6306786Y-2883214D01*
X6363928Y-2883214D01*
X6392500Y-2897500D01*
X6406786Y-2926071D01*
X6406786Y-2954643D01*
X6263928Y-2983214D01*
X6521071Y-3068929D02*
X6549643Y-3083214D01*
X6606786Y-3083214D01*
X6635357Y-3068929D01*
X6649643Y-3040357D01*
X6649643Y-3026071D01*
X6635357Y-2997500D01*
X6606786Y-2983214D01*
X6563928Y-2983214D01*
X6535357Y-2968929D01*
X6521071Y-2940357D01*
X6521071Y-2926071D01*
X6535357Y-2897500D01*
X6563928Y-2883214D01*
X6606786Y-2883214D01*
X6635357Y-2897500D01*
X6749643Y-3197500D02*
X6763928Y-3183214D01*
X6792500Y-3140357D01*
X6806786Y-3111786D01*
X6821071Y-3068929D01*
X6835357Y-2997500D01*
X6835357Y-2940357D01*
X6821071Y-2868929D01*
X6806786Y-2826071D01*
X6792500Y-2797500D01*
X6763928Y-2754643D01*
X6749643Y-2740357D01*
X-107500Y-3293500D02*
X-7500Y-3393500D01*
X-7500Y-3293500D02*
X-107500Y-3393500D01*
X-57500Y-3293500D02*
X-57500Y-3393500D01*
X-107500Y-3343500D02*
X-7500Y-3343500D01*
X421071Y-3479214D02*
X249643Y-3479214D01*
X335357Y-3479214D02*
X335357Y-3179214D01*
X306786Y-3222071D01*
X278214Y-3250643D01*
X249643Y-3264929D01*
X549643Y-3450643D02*
X563929Y-3464929D01*
X549643Y-3479214D01*
X535357Y-3464929D01*
X549643Y-3450643D01*
X549643Y-3479214D01*
X749643Y-3179214D02*
X778214Y-3179214D01*
X806786Y-3193500D01*
X821071Y-3207786D01*
X835357Y-3236357D01*
X849643Y-3293500D01*
X849643Y-3364929D01*
X835357Y-3422071D01*
X821071Y-3450643D01*
X806786Y-3464929D01*
X778214Y-3479214D01*
X749643Y-3479214D01*
X721071Y-3464929D01*
X706786Y-3450643D01*
X692500Y-3422071D01*
X678214Y-3364929D01*
X678214Y-3293500D01*
X692500Y-3236357D01*
X706786Y-3207786D01*
X721071Y-3193500D01*
X749643Y-3179214D01*
X1035357Y-3179214D02*
X1063929Y-3179214D01*
X1092500Y-3193500D01*
X1106786Y-3207786D01*
X1121071Y-3236357D01*
X1135357Y-3293500D01*
X1135357Y-3364929D01*
X1121071Y-3422071D01*
X1106786Y-3450643D01*
X1092500Y-3464929D01*
X1063929Y-3479214D01*
X1035357Y-3479214D01*
X1006786Y-3464929D01*
X992500Y-3450643D01*
X978214Y-3422071D01*
X963928Y-3364929D01*
X963928Y-3293500D01*
X978214Y-3236357D01*
X992500Y-3207786D01*
X1006786Y-3193500D01*
X1035357Y-3179214D01*
X1263929Y-3479214D02*
X1263929Y-3279214D01*
X1263929Y-3307786D02*
X1278214Y-3293500D01*
X1306786Y-3279214D01*
X1349643Y-3279214D01*
X1378214Y-3293500D01*
X1392500Y-3322071D01*
X1392500Y-3479214D01*
X1392500Y-3322071D02*
X1406786Y-3293500D01*
X1435357Y-3279214D01*
X1478214Y-3279214D01*
X1506786Y-3293500D01*
X1521071Y-3322071D01*
X1521071Y-3479214D01*
X1663928Y-3479214D02*
X1663928Y-3279214D01*
X1663928Y-3307786D02*
X1678214Y-3293500D01*
X1706786Y-3279214D01*
X1749643Y-3279214D01*
X1778214Y-3293500D01*
X1792500Y-3322071D01*
X1792500Y-3479214D01*
X1792500Y-3322071D02*
X1806786Y-3293500D01*
X1835357Y-3279214D01*
X1878214Y-3279214D01*
X1906786Y-3293500D01*
X1921071Y-3322071D01*
X1921071Y-3479214D01*
X2506786Y-3164929D02*
X2249643Y-3550643D01*
X2892500Y-3179214D02*
X2921071Y-3179214D01*
X2949643Y-3193500D01*
X2963928Y-3207786D01*
X2978214Y-3236357D01*
X2992500Y-3293500D01*
X2992500Y-3364929D01*
X2978214Y-3422071D01*
X2963928Y-3450643D01*
X2949643Y-3464929D01*
X2921071Y-3479214D01*
X2892500Y-3479214D01*
X2863928Y-3464929D01*
X2849643Y-3450643D01*
X2835357Y-3422071D01*
X2821071Y-3364929D01*
X2821071Y-3293500D01*
X2835357Y-3236357D01*
X2849643Y-3207786D01*
X2863928Y-3193500D01*
X2892500Y-3179214D01*
X3121071Y-3450643D02*
X3135357Y-3464929D01*
X3121071Y-3479214D01*
X3106786Y-3464929D01*
X3121071Y-3450643D01*
X3121071Y-3479214D01*
X3321071Y-3179214D02*
X3349643Y-3179214D01*
X3378214Y-3193500D01*
X3392500Y-3207786D01*
X3406785Y-3236357D01*
X3421071Y-3293500D01*
X3421071Y-3364929D01*
X3406785Y-3422071D01*
X3392500Y-3450643D01*
X3378214Y-3464929D01*
X3349643Y-3479214D01*
X3321071Y-3479214D01*
X3292500Y-3464929D01*
X3278214Y-3450643D01*
X3263928Y-3422071D01*
X3249643Y-3364929D01*
X3249643Y-3293500D01*
X3263928Y-3236357D01*
X3278214Y-3207786D01*
X3292500Y-3193500D01*
X3321071Y-3179214D01*
X3521071Y-3179214D02*
X3706785Y-3179214D01*
X3606785Y-3293500D01*
X3649643Y-3293500D01*
X3678214Y-3307786D01*
X3692500Y-3322071D01*
X3706785Y-3350643D01*
X3706785Y-3422071D01*
X3692500Y-3450643D01*
X3678214Y-3464929D01*
X3649643Y-3479214D01*
X3563928Y-3479214D01*
X3535357Y-3464929D01*
X3521071Y-3450643D01*
X3849643Y-3479214D02*
X3906785Y-3479214D01*
X3935357Y-3464929D01*
X3949643Y-3450643D01*
X3978214Y-3407786D01*
X3992500Y-3350643D01*
X3992500Y-3236357D01*
X3978214Y-3207786D01*
X3963928Y-3193500D01*
X3935357Y-3179214D01*
X3878214Y-3179214D01*
X3849643Y-3193500D01*
X3835357Y-3207786D01*
X3821071Y-3236357D01*
X3821071Y-3307786D01*
X3835357Y-3336357D01*
X3849643Y-3350643D01*
X3878214Y-3364929D01*
X3935357Y-3364929D01*
X3963928Y-3350643D01*
X3978214Y-3336357D01*
X3992500Y-3307786D01*
X4106786Y-3179214D02*
X4106786Y-3236357D01*
X4221071Y-3179214D02*
X4221071Y-3236357D01*
X4663928Y-3593500D02*
X4649643Y-3579214D01*
X4621071Y-3536357D01*
X4606786Y-3507786D01*
X4592500Y-3464929D01*
X4578214Y-3393500D01*
X4578214Y-3336357D01*
X4592500Y-3264929D01*
X4606786Y-3222071D01*
X4621071Y-3193500D01*
X4649643Y-3150643D01*
X4663928Y-3136357D01*
X4821071Y-3307786D02*
X4792500Y-3293500D01*
X4778214Y-3279214D01*
X4763928Y-3250643D01*
X4763928Y-3236357D01*
X4778214Y-3207786D01*
X4792500Y-3193500D01*
X4821071Y-3179214D01*
X4878214Y-3179214D01*
X4906786Y-3193500D01*
X4921071Y-3207786D01*
X4935357Y-3236357D01*
X4935357Y-3250643D01*
X4921071Y-3279214D01*
X4906786Y-3293500D01*
X4878214Y-3307786D01*
X4821071Y-3307786D01*
X4792500Y-3322071D01*
X4778214Y-3336357D01*
X4763928Y-3364929D01*
X4763928Y-3422071D01*
X4778214Y-3450643D01*
X4792500Y-3464929D01*
X4821071Y-3479214D01*
X4878214Y-3479214D01*
X4906786Y-3464929D01*
X4921071Y-3450643D01*
X4935357Y-3422071D01*
X4935357Y-3364929D01*
X4921071Y-3336357D01*
X4906786Y-3322071D01*
X4878214Y-3307786D01*
X5049643Y-3207786D02*
X5063928Y-3193500D01*
X5092500Y-3179214D01*
X5163928Y-3179214D01*
X5192500Y-3193500D01*
X5206786Y-3207786D01*
X5221071Y-3236357D01*
X5221071Y-3264929D01*
X5206786Y-3307786D01*
X5035357Y-3479214D01*
X5221071Y-3479214D01*
X5578214Y-3479214D02*
X5578214Y-3179214D01*
X5706785Y-3479214D02*
X5706785Y-3322071D01*
X5692500Y-3293500D01*
X5663928Y-3279214D01*
X5621071Y-3279214D01*
X5592500Y-3293500D01*
X5578214Y-3307786D01*
X5892500Y-3479214D02*
X5863928Y-3464929D01*
X5849643Y-3450643D01*
X5835357Y-3422071D01*
X5835357Y-3336357D01*
X5849643Y-3307786D01*
X5863928Y-3293500D01*
X5892500Y-3279214D01*
X5935357Y-3279214D01*
X5963928Y-3293500D01*
X5978214Y-3307786D01*
X5992500Y-3336357D01*
X5992500Y-3422071D01*
X5978214Y-3450643D01*
X5963928Y-3464929D01*
X5935357Y-3479214D01*
X5892500Y-3479214D01*
X6163928Y-3479214D02*
X6135357Y-3464929D01*
X6121071Y-3436357D01*
X6121071Y-3179214D01*
X6392500Y-3464929D02*
X6363928Y-3479214D01*
X6306786Y-3479214D01*
X6278214Y-3464929D01*
X6263928Y-3436357D01*
X6263928Y-3322071D01*
X6278214Y-3293500D01*
X6306786Y-3279214D01*
X6363928Y-3279214D01*
X6392500Y-3293500D01*
X6406786Y-3322071D01*
X6406786Y-3350643D01*
X6263928Y-3379214D01*
X6521071Y-3464929D02*
X6549643Y-3479214D01*
X6606786Y-3479214D01*
X6635357Y-3464929D01*
X6649643Y-3436357D01*
X6649643Y-3422071D01*
X6635357Y-3393500D01*
X6606786Y-3379214D01*
X6563928Y-3379214D01*
X6535357Y-3364929D01*
X6521071Y-3336357D01*
X6521071Y-3322071D01*
X6535357Y-3293500D01*
X6563928Y-3279214D01*
X6606786Y-3279214D01*
X6635357Y-3293500D01*
X6749643Y-3593500D02*
X6763928Y-3579214D01*
X6792500Y-3536357D01*
X6806786Y-3507786D01*
X6821071Y-3464929D01*
X6835357Y-3393500D01*
X6835357Y-3336357D01*
X6821071Y-3264929D01*
X6806786Y-3222071D01*
X6792500Y-3193500D01*
X6763928Y-3150643D01*
X6749643Y-3136357D01*
X-137500Y-3674500D02*
X-7500Y-3804500D01*
X-7500Y-3674500D02*
X-137500Y-3804500D01*
X-26538Y-3785462D02*
X-26538Y-3693538D01*
X-118462Y-3693538D01*
X-118462Y-3785462D01*
X-26538Y-3785462D01*
X421071Y-3875214D02*
X249643Y-3875214D01*
X335357Y-3875214D02*
X335357Y-3575214D01*
X306786Y-3618071D01*
X278214Y-3646643D01*
X249643Y-3660929D01*
X549643Y-3846643D02*
X563929Y-3860929D01*
X549643Y-3875214D01*
X535357Y-3860929D01*
X549643Y-3846643D01*
X549643Y-3875214D01*
X663928Y-3575214D02*
X849643Y-3575214D01*
X749643Y-3689500D01*
X792500Y-3689500D01*
X821071Y-3703786D01*
X835357Y-3718071D01*
X849643Y-3746643D01*
X849643Y-3818071D01*
X835357Y-3846643D01*
X821071Y-3860929D01*
X792500Y-3875214D01*
X706786Y-3875214D01*
X678214Y-3860929D01*
X663928Y-3846643D01*
X1035357Y-3575214D02*
X1063929Y-3575214D01*
X1092500Y-3589500D01*
X1106786Y-3603786D01*
X1121071Y-3632357D01*
X1135357Y-3689500D01*
X1135357Y-3760929D01*
X1121071Y-3818071D01*
X1106786Y-3846643D01*
X1092500Y-3860929D01*
X1063929Y-3875214D01*
X1035357Y-3875214D01*
X1006786Y-3860929D01*
X992500Y-3846643D01*
X978214Y-3818071D01*
X963928Y-3760929D01*
X963928Y-3689500D01*
X978214Y-3632357D01*
X992500Y-3603786D01*
X1006786Y-3589500D01*
X1035357Y-3575214D01*
X1263929Y-3875214D02*
X1263929Y-3675214D01*
X1263929Y-3703786D02*
X1278214Y-3689500D01*
X1306786Y-3675214D01*
X1349643Y-3675214D01*
X1378214Y-3689500D01*
X1392500Y-3718071D01*
X1392500Y-3875214D01*
X1392500Y-3718071D02*
X1406786Y-3689500D01*
X1435357Y-3675214D01*
X1478214Y-3675214D01*
X1506786Y-3689500D01*
X1521071Y-3718071D01*
X1521071Y-3875214D01*
X1663928Y-3875214D02*
X1663928Y-3675214D01*
X1663928Y-3703786D02*
X1678214Y-3689500D01*
X1706786Y-3675214D01*
X1749643Y-3675214D01*
X1778214Y-3689500D01*
X1792500Y-3718071D01*
X1792500Y-3875214D01*
X1792500Y-3718071D02*
X1806786Y-3689500D01*
X1835357Y-3675214D01*
X1878214Y-3675214D01*
X1906786Y-3689500D01*
X1921071Y-3718071D01*
X1921071Y-3875214D01*
X2506786Y-3560929D02*
X2249643Y-3946643D01*
X2892500Y-3575214D02*
X2921071Y-3575214D01*
X2949643Y-3589500D01*
X2963928Y-3603786D01*
X2978214Y-3632357D01*
X2992500Y-3689500D01*
X2992500Y-3760929D01*
X2978214Y-3818071D01*
X2963928Y-3846643D01*
X2949643Y-3860929D01*
X2921071Y-3875214D01*
X2892500Y-3875214D01*
X2863928Y-3860929D01*
X2849643Y-3846643D01*
X2835357Y-3818071D01*
X2821071Y-3760929D01*
X2821071Y-3689500D01*
X2835357Y-3632357D01*
X2849643Y-3603786D01*
X2863928Y-3589500D01*
X2892500Y-3575214D01*
X3121071Y-3846643D02*
X3135357Y-3860929D01*
X3121071Y-3875214D01*
X3106786Y-3860929D01*
X3121071Y-3846643D01*
X3121071Y-3875214D01*
X3321071Y-3575214D02*
X3349643Y-3575214D01*
X3378214Y-3589500D01*
X3392500Y-3603786D01*
X3406785Y-3632357D01*
X3421071Y-3689500D01*
X3421071Y-3760929D01*
X3406785Y-3818071D01*
X3392500Y-3846643D01*
X3378214Y-3860929D01*
X3349643Y-3875214D01*
X3321071Y-3875214D01*
X3292500Y-3860929D01*
X3278214Y-3846643D01*
X3263928Y-3818071D01*
X3249643Y-3760929D01*
X3249643Y-3689500D01*
X3263928Y-3632357D01*
X3278214Y-3603786D01*
X3292500Y-3589500D01*
X3321071Y-3575214D01*
X3692500Y-3575214D02*
X3549643Y-3575214D01*
X3535357Y-3718071D01*
X3549643Y-3703786D01*
X3578214Y-3689500D01*
X3649643Y-3689500D01*
X3678214Y-3703786D01*
X3692500Y-3718071D01*
X3706785Y-3746643D01*
X3706785Y-3818071D01*
X3692500Y-3846643D01*
X3678214Y-3860929D01*
X3649643Y-3875214D01*
X3578214Y-3875214D01*
X3549643Y-3860929D01*
X3535357Y-3846643D01*
X3992500Y-3875214D02*
X3821071Y-3875214D01*
X3906785Y-3875214D02*
X3906785Y-3575214D01*
X3878214Y-3618071D01*
X3849643Y-3646643D01*
X3821071Y-3660929D01*
X4106786Y-3575214D02*
X4106786Y-3632357D01*
X4221071Y-3575214D02*
X4221071Y-3632357D01*
X4663928Y-3989500D02*
X4649643Y-3975214D01*
X4621071Y-3932357D01*
X4606786Y-3903786D01*
X4592500Y-3860929D01*
X4578214Y-3789500D01*
X4578214Y-3732357D01*
X4592500Y-3660929D01*
X4606786Y-3618071D01*
X4621071Y-3589500D01*
X4649643Y-3546643D01*
X4663928Y-3532357D01*
X4763928Y-3603786D02*
X4778214Y-3589500D01*
X4806786Y-3575214D01*
X4878214Y-3575214D01*
X4906786Y-3589500D01*
X4921071Y-3603786D01*
X4935357Y-3632357D01*
X4935357Y-3660929D01*
X4921071Y-3703786D01*
X4749643Y-3875214D01*
X4935357Y-3875214D01*
X5292500Y-3875214D02*
X5292500Y-3575214D01*
X5421071Y-3875214D02*
X5421071Y-3718071D01*
X5406786Y-3689500D01*
X5378214Y-3675214D01*
X5335357Y-3675214D01*
X5306786Y-3689500D01*
X5292500Y-3703786D01*
X5606785Y-3875214D02*
X5578214Y-3860929D01*
X5563928Y-3846643D01*
X5549643Y-3818071D01*
X5549643Y-3732357D01*
X5563928Y-3703786D01*
X5578214Y-3689500D01*
X5606785Y-3675214D01*
X5649643Y-3675214D01*
X5678214Y-3689500D01*
X5692500Y-3703786D01*
X5706785Y-3732357D01*
X5706785Y-3818071D01*
X5692500Y-3846643D01*
X5678214Y-3860929D01*
X5649643Y-3875214D01*
X5606785Y-3875214D01*
X5878214Y-3875214D02*
X5849643Y-3860929D01*
X5835357Y-3832357D01*
X5835357Y-3575214D01*
X6106786Y-3860929D02*
X6078214Y-3875214D01*
X6021071Y-3875214D01*
X5992500Y-3860929D01*
X5978214Y-3832357D01*
X5978214Y-3718071D01*
X5992500Y-3689500D01*
X6021071Y-3675214D01*
X6078214Y-3675214D01*
X6106786Y-3689500D01*
X6121071Y-3718071D01*
X6121071Y-3746643D01*
X5978214Y-3775214D01*
X6235357Y-3860929D02*
X6263928Y-3875214D01*
X6321071Y-3875214D01*
X6349643Y-3860929D01*
X6363928Y-3832357D01*
X6363928Y-3818071D01*
X6349643Y-3789500D01*
X6321071Y-3775214D01*
X6278214Y-3775214D01*
X6249643Y-3760929D01*
X6235357Y-3732357D01*
X6235357Y-3718071D01*
X6249643Y-3689500D01*
X6278214Y-3675214D01*
X6321071Y-3675214D01*
X6349643Y-3689500D01*
X6463928Y-3989500D02*
X6478214Y-3975214D01*
X6506786Y-3932357D01*
X6521071Y-3903786D01*
X6535357Y-3860929D01*
X6549643Y-3789500D01*
X6549643Y-3732357D01*
X6535357Y-3660929D01*
X6521071Y-3618071D01*
X6506786Y-3589500D01*
X6478214Y-3546643D01*
X6463928Y-3532357D01*
M02*
