G04 #@! TF.FileFunction,Copper,L1,Top,Signal*
%FSLAX46Y46*%
G04 Gerber Fmt 4.6, Leading zero omitted, Abs format (unit mm)*
G04 Created by KiCad (PCBNEW 4.0.7) date 06/19/19 10:20:30*
%MOMM*%
%LPD*%
G01*
G04 APERTURE LIST*
%ADD10C,0.100000*%
%ADD11C,0.500000*%
%ADD12C,1.300000*%
%ADD13R,0.600000X1.500000*%
%ADD14R,1.700000X1.700000*%
%ADD15O,1.700000X1.700000*%
%ADD16R,0.500000X0.300000*%
%ADD17R,0.450000X0.450000*%
%ADD18R,0.300000X0.500000*%
%ADD19R,0.750000X0.800000*%
%ADD20R,0.800000X0.750000*%
%ADD21R,3.500000X1.600000*%
%ADD22R,1.000000X1.250000*%
%ADD23R,1.250000X1.000000*%
%ADD24R,0.900000X1.200000*%
%ADD25R,1.200000X1.200000*%
%ADD26R,0.900000X0.500000*%
%ADD27R,1.000000X1.000000*%
%ADD28R,1.000000X2.200000*%
%ADD29R,1.000000X1.500000*%
%ADD30R,1.500000X1.000000*%
%ADD31R,4.750000X14.000000*%
%ADD32C,2.200000*%
%ADD33C,1.600000*%
%ADD34R,0.900000X0.800000*%
%ADD35R,0.800000X0.900000*%
%ADD36R,0.500000X0.900000*%
%ADD37R,1.143000X0.508000*%
%ADD38R,2.000000X1.000000*%
%ADD39R,1.000000X0.250000*%
%ADD40R,0.250000X1.000000*%
%ADD41R,0.508000X1.143000*%
%ADD42C,1.000000*%
%ADD43R,2.000000X5.000000*%
%ADD44R,2.750000X1.000000*%
%ADD45C,0.810000*%
%ADD46C,1.220000*%
%ADD47C,0.650000*%
%ADD48C,0.900000*%
%ADD49C,1.640000*%
%ADD50C,0.250000*%
%ADD51C,0.500000*%
%ADD52C,0.400000*%
%ADD53C,0.300000*%
%ADD54C,0.800000*%
%ADD55C,0.640000*%
%ADD56C,1.270000*%
%ADD57C,0.254000*%
G04 APERTURE END LIST*
D10*
D11*
X2000000Y67000000D03*
D12*
X47250000Y61470000D03*
X46230000Y63500000D03*
X45210000Y61470000D03*
X44190000Y63500000D03*
X32160000Y63500000D03*
X33180000Y61470000D03*
X34200000Y63500000D03*
X35220000Y61470000D03*
D13*
X15430000Y52150000D03*
X16700000Y52150000D03*
X17970000Y52150000D03*
X19240000Y52150000D03*
X20510000Y52150000D03*
X21780000Y52150000D03*
X23050000Y52150000D03*
X24320000Y52150000D03*
X24320000Y57550000D03*
X23050000Y57550000D03*
X21780000Y57550000D03*
X20510000Y57550000D03*
X19240000Y57550000D03*
X17970000Y57550000D03*
X16700000Y57550000D03*
X15430000Y57550000D03*
D14*
X55280000Y18650000D03*
D15*
X52740000Y18650000D03*
X50200000Y18650000D03*
D16*
X31975000Y35450000D03*
X31975000Y34950000D03*
X33525000Y35450000D03*
X33525000Y34950000D03*
D17*
X31950000Y34400000D03*
X33550000Y34400000D03*
X31950000Y36000000D03*
X33550000Y36000000D03*
D18*
X32500000Y34425000D03*
X33000000Y34425000D03*
X33000000Y35975000D03*
X32500000Y35975000D03*
D14*
X45120000Y18650000D03*
D15*
X42580000Y18650000D03*
X40040000Y18650000D03*
X37500000Y18650000D03*
X34960000Y18650000D03*
D19*
X51900000Y49500000D03*
X51900000Y51000000D03*
X14150000Y21350000D03*
X14150000Y22850000D03*
D20*
X9950000Y29750000D03*
X11450000Y29750000D03*
X10000000Y23700000D03*
X11500000Y23700000D03*
D19*
X15650000Y21350000D03*
X15650000Y22850000D03*
X15700000Y29800000D03*
X15700000Y28300000D03*
D20*
X47500000Y46250000D03*
X46000000Y46250000D03*
X20000000Y31750000D03*
X18500000Y31750000D03*
X18900000Y16850000D03*
X20400000Y16850000D03*
D21*
X55800000Y53250000D03*
X61200000Y53250000D03*
X31450000Y44150000D03*
X36850000Y44150000D03*
D19*
X28900000Y17200000D03*
X28900000Y18700000D03*
X31150000Y27900000D03*
X31150000Y29400000D03*
X32700000Y27900000D03*
X32700000Y29400000D03*
X37200000Y34550000D03*
X37200000Y36050000D03*
D22*
X60500000Y47500000D03*
X58500000Y47500000D03*
D19*
X35700000Y34550000D03*
X35700000Y36050000D03*
D23*
X54250000Y38250000D03*
X54250000Y40250000D03*
D20*
X34100000Y37800000D03*
X32600000Y37800000D03*
X30850000Y32750000D03*
X32350000Y32750000D03*
D22*
X59750000Y18900000D03*
X61750000Y18900000D03*
D20*
X52000000Y7000000D03*
X53500000Y7000000D03*
X29300000Y5500000D03*
X30800000Y5500000D03*
D24*
X43800000Y46000000D03*
X40500000Y46000000D03*
D25*
X36400000Y24800000D03*
X36400000Y27000000D03*
X9550000Y6800000D03*
X7350000Y6800000D03*
D24*
X9550000Y17775000D03*
X6250000Y17775000D03*
D26*
X30700000Y55000000D03*
X30700000Y56500000D03*
D27*
X3250000Y51850000D03*
D28*
X4850000Y53550000D03*
X1650000Y53550000D03*
D27*
X3250000Y55250000D03*
D14*
X56650000Y12800000D03*
D15*
X56650000Y10260000D03*
X54110000Y12800000D03*
X54110000Y10260000D03*
X51570000Y12800000D03*
X51570000Y10260000D03*
X49030000Y12800000D03*
X49030000Y10260000D03*
X46490000Y12800000D03*
X46490000Y10260000D03*
X43950000Y12800000D03*
X43950000Y10260000D03*
X41410000Y12800000D03*
X41410000Y10260000D03*
X38870000Y12800000D03*
X38870000Y10260000D03*
X36330000Y12800000D03*
X36330000Y10260000D03*
X33790000Y12800000D03*
X33790000Y10260000D03*
X31250000Y12800000D03*
X31250000Y10260000D03*
X28710000Y12800000D03*
X28710000Y10260000D03*
X26170000Y12800000D03*
X26170000Y10260000D03*
X23630000Y12800000D03*
X23630000Y10260000D03*
X21090000Y12800000D03*
X21090000Y10260000D03*
X18550000Y12800000D03*
X18550000Y10260000D03*
X16010000Y12800000D03*
X16010000Y10260000D03*
X13470000Y12800000D03*
X13470000Y10260000D03*
X10930000Y12800000D03*
X10930000Y10260000D03*
X8390000Y12800000D03*
X8390000Y10260000D03*
D29*
X28000000Y53900000D03*
D30*
X28250000Y52400000D03*
D29*
X28000000Y50900000D03*
D31*
X61125000Y28750000D03*
X51875000Y28750000D03*
D32*
X62000000Y69500000D03*
X57000000Y69500000D03*
D14*
X46830000Y31700000D03*
D15*
X44290000Y31700000D03*
X41750000Y31700000D03*
X39210000Y31700000D03*
X36670000Y31700000D03*
D14*
X16750000Y67170000D03*
D15*
X16750000Y69710000D03*
X16750000Y72250000D03*
D33*
X22000000Y71500000D03*
X22000000Y69000000D03*
X22000000Y66500000D03*
X22000000Y64000000D03*
X22000000Y61500000D03*
D14*
X12500000Y72500000D03*
D15*
X9960000Y72500000D03*
X12500000Y69960000D03*
X9960000Y69960000D03*
X12500000Y67420000D03*
X9960000Y67420000D03*
X12500000Y64880000D03*
X9960000Y64880000D03*
X12500000Y62340000D03*
X9960000Y62340000D03*
X12500000Y59800000D03*
X9960000Y59800000D03*
X12500000Y57260000D03*
X9960000Y57260000D03*
D14*
X3000000Y69800000D03*
D15*
X5540000Y69800000D03*
X3000000Y72340000D03*
X5540000Y72340000D03*
D34*
X23150000Y42500000D03*
X23150000Y40600000D03*
X25150000Y41550000D03*
D35*
X49450000Y40500000D03*
X47550000Y40500000D03*
X48500000Y38500000D03*
X43450000Y40750000D03*
X41550000Y40750000D03*
X42500000Y38750000D03*
X4000000Y31250000D03*
X5900000Y31250000D03*
X4950000Y33250000D03*
D26*
X54600000Y61900000D03*
X54600000Y63400000D03*
D36*
X22900000Y44300000D03*
X24400000Y44300000D03*
D26*
X54600000Y60350000D03*
X54600000Y58850000D03*
X25275000Y47725000D03*
X25275000Y46225000D03*
X26850000Y47700000D03*
X26850000Y46200000D03*
D36*
X23050000Y38600000D03*
X24550000Y38600000D03*
D26*
X41400000Y50700000D03*
X41400000Y52200000D03*
D36*
X41400000Y54000000D03*
X42900000Y54000000D03*
X47750000Y42500000D03*
X49250000Y42500000D03*
X43250000Y42500000D03*
X41750000Y42500000D03*
D26*
X2150000Y32600000D03*
X2150000Y31100000D03*
X45500000Y39000000D03*
X45500000Y40500000D03*
D36*
X33100000Y25450000D03*
X34600000Y25450000D03*
D26*
X7750000Y31050000D03*
X7750000Y32550000D03*
X54250000Y42600000D03*
X54250000Y44100000D03*
X16800000Y62700000D03*
X16800000Y64200000D03*
X62250000Y39500000D03*
X62250000Y41000000D03*
X62250000Y42500000D03*
X62250000Y44000000D03*
D36*
X13100000Y6850000D03*
X11600000Y6850000D03*
X44500000Y56250000D03*
X46000000Y56250000D03*
X38100000Y56300000D03*
X36600000Y56300000D03*
X35100000Y56300000D03*
X33600000Y56300000D03*
D37*
X43575000Y48345000D03*
X43575000Y49615000D03*
X43575000Y50885000D03*
X43575000Y52155000D03*
X49925000Y52155000D03*
X49925000Y50885000D03*
X49925000Y49615000D03*
X49925000Y48345000D03*
D38*
X2500000Y49000000D03*
X2500000Y47000000D03*
X2500000Y45000000D03*
X2500000Y43000000D03*
X2500000Y41000000D03*
X2500000Y39000000D03*
X2500000Y37000000D03*
X2500000Y35000000D03*
X18500000Y35000000D03*
X18500000Y37000000D03*
X18500000Y39000000D03*
X18500000Y41000000D03*
X18500000Y43000000D03*
X18500000Y45000000D03*
X18500000Y47000000D03*
X18500000Y49000000D03*
D39*
X17550000Y28000000D03*
X17550000Y27500000D03*
X17550000Y27000000D03*
X17550000Y26500000D03*
X17550000Y26000000D03*
X17550000Y25500000D03*
X17550000Y25000000D03*
X17550000Y24500000D03*
X17550000Y24000000D03*
X17550000Y23500000D03*
X17550000Y23000000D03*
X17550000Y22500000D03*
X17550000Y22000000D03*
X17550000Y21500000D03*
X17550000Y21000000D03*
X17550000Y20500000D03*
D40*
X19500000Y18550000D03*
X20000000Y18550000D03*
X20500000Y18550000D03*
X21000000Y18550000D03*
X21500000Y18550000D03*
X22000000Y18550000D03*
X22500000Y18550000D03*
X23000000Y18550000D03*
X23500000Y18550000D03*
X24000000Y18550000D03*
X24500000Y18550000D03*
X25000000Y18550000D03*
X25500000Y18550000D03*
X26000000Y18550000D03*
X26500000Y18550000D03*
X27000000Y18550000D03*
D39*
X28950000Y20500000D03*
X28950000Y21000000D03*
X28950000Y21500000D03*
X28950000Y22000000D03*
X28950000Y22500000D03*
X28950000Y23000000D03*
X28950000Y23500000D03*
X28950000Y24000000D03*
X28950000Y24500000D03*
X28950000Y25000000D03*
X28950000Y25500000D03*
X28950000Y26000000D03*
X28950000Y26500000D03*
X28950000Y27000000D03*
X28950000Y27500000D03*
X28950000Y28000000D03*
D40*
X27000000Y29950000D03*
X26500000Y29950000D03*
X26000000Y29950000D03*
X25500000Y29950000D03*
X25000000Y29950000D03*
X24500000Y29950000D03*
X24000000Y29950000D03*
X23500000Y29950000D03*
X23000000Y29950000D03*
X22500000Y29950000D03*
X22000000Y29950000D03*
X21500000Y29950000D03*
X21000000Y29950000D03*
X20500000Y29950000D03*
X20000000Y29950000D03*
X19500000Y29950000D03*
D41*
X60155000Y39075000D03*
X58885000Y39075000D03*
X57615000Y39075000D03*
X56345000Y39075000D03*
X56345000Y45425000D03*
X57615000Y45425000D03*
X58885000Y45425000D03*
X60155000Y45425000D03*
D14*
X14550000Y3050000D03*
D15*
X17090000Y3050000D03*
X19630000Y3050000D03*
X22170000Y3050000D03*
X24710000Y3050000D03*
X27250000Y3050000D03*
X29790000Y3050000D03*
X32330000Y3050000D03*
D42*
X11800000Y27650000D03*
X11800000Y25750000D03*
D43*
X36850000Y51000000D03*
X32650000Y51000000D03*
D36*
X34600000Y23800000D03*
X33100000Y23800000D03*
D44*
X39870000Y23700000D03*
X45630000Y23700000D03*
X45630000Y27700000D03*
X39870000Y27700000D03*
D11*
X63000000Y2000000D03*
D45*
X4481594Y56914596D03*
X3250000Y56875000D03*
X1650000Y56875000D03*
D46*
X4625000Y17150000D03*
D47*
X2988314Y20860831D03*
D48*
X24228264Y50497379D03*
D46*
X20900000Y48950000D03*
D47*
X21629669Y32559436D03*
X23036837Y37357028D03*
D45*
X45650000Y26300000D03*
X39900000Y26300000D03*
X32600000Y39050000D03*
D48*
X16500000Y31300000D03*
X2400000Y29450000D03*
X5600000Y6750000D03*
X61750000Y17100000D03*
D47*
X39500000Y34550000D03*
D46*
X52000000Y5500000D03*
D45*
X54300000Y45400000D03*
X56600000Y47100000D03*
X30200000Y17200000D03*
X11785209Y31144101D03*
X11785209Y34413678D03*
X4950000Y34750000D03*
D49*
X62281248Y45674508D03*
D45*
X54750000Y57700000D03*
D46*
X45900000Y53900000D03*
D47*
X44100000Y54000000D03*
X53700000Y51000000D03*
D45*
X28800000Y32550000D03*
D47*
X34050000Y27900000D03*
D46*
X16506647Y35040565D03*
D45*
X60250000Y43350000D03*
D46*
X36850000Y41800000D03*
X38700000Y46500000D03*
D45*
X44908812Y42041188D03*
D46*
X62450000Y47500000D03*
X61150000Y51000000D03*
X4450000Y47000000D03*
D45*
X30563112Y35225414D03*
D47*
X34750000Y49650000D03*
X47850000Y51025000D03*
D45*
X30740165Y39415185D03*
D46*
X29634541Y50931469D03*
X58675000Y64625000D03*
D49*
X56375000Y28725000D03*
D46*
X27987844Y55620920D03*
X41850000Y67100000D03*
D47*
X7375000Y17750000D03*
X33068304Y19562025D03*
X47744039Y44052618D03*
X5550831Y40812198D03*
X24978116Y26851978D03*
X32268545Y19619540D03*
X24339514Y27357539D03*
X31676759Y19081202D03*
X16287625Y15331702D03*
X23621086Y26692328D03*
X31052413Y18453165D03*
X34414015Y26750000D03*
X19635190Y33752831D03*
X24442351Y36033292D03*
X28170671Y36899466D03*
X14358550Y33645458D03*
X14401115Y25294198D03*
X25050000Y20400000D03*
D45*
X21738215Y17270280D03*
X5600000Y22500000D03*
X25100000Y16850000D03*
X6410594Y21767697D03*
X26300000Y16850000D03*
D47*
X29384913Y34832680D03*
X6050000Y66875000D03*
X28954453Y36202770D03*
X11008047Y50011861D03*
X14150000Y47150000D03*
X11600000Y50550000D03*
X14150000Y47989299D03*
X36700000Y59850000D03*
X21378979Y25488754D03*
X20774923Y26256067D03*
X19942306Y26860123D03*
X46200000Y68650000D03*
X19250000Y26250000D03*
X29593813Y33963654D03*
X41758483Y43953239D03*
X16750000Y61600000D03*
X25664579Y20912149D03*
X14100000Y39050000D03*
X24407640Y20903963D03*
X10900000Y37000000D03*
X21535055Y20951767D03*
X11550000Y38350000D03*
X22198307Y20337193D03*
X10950000Y41000000D03*
X20788288Y20344637D03*
X12350000Y42950000D03*
X22946748Y20878748D03*
X13250010Y44999990D03*
X23659917Y20412921D03*
X23327910Y55236010D03*
X26387917Y23674280D03*
X24210985Y54621974D03*
X26879675Y24411629D03*
X25181843Y54083337D03*
X27461798Y25178327D03*
X23581173Y28381963D03*
X22535290Y55982985D03*
D50*
X51900000Y49500000D02*
X50040000Y49500000D01*
X50040000Y49500000D02*
X49925000Y49615000D01*
D51*
X18900000Y16850000D02*
X12600000Y16850000D01*
X12600000Y16850000D02*
X11885000Y16135000D01*
X11885000Y16135000D02*
X5640000Y16135000D01*
X5640000Y16135000D02*
X4625000Y17150000D01*
D50*
X20000000Y18550000D02*
X20000000Y18017971D01*
X20000000Y18017971D02*
X18900000Y16917971D01*
X18900000Y16917971D02*
X18900000Y16850000D01*
D52*
X4850000Y56546190D02*
X4481594Y56914596D01*
X4850000Y53550000D02*
X4850000Y56546190D01*
X3250000Y55250000D02*
X3250000Y56875000D01*
X1650000Y53550000D02*
X1650000Y56875000D01*
D51*
X6250000Y17775000D02*
X5250000Y17775000D01*
X5250000Y17775000D02*
X4625000Y17150000D01*
D53*
X11485831Y20860831D02*
X2988314Y20860831D01*
X13475000Y22850000D02*
X11485831Y20860831D01*
X14150000Y22850000D02*
X13475000Y22850000D01*
D51*
X36400000Y27000000D02*
X36947802Y27547802D01*
X36947802Y27547802D02*
X39717802Y27547802D01*
X39717802Y27547802D02*
X39870000Y27700000D01*
D54*
X24320000Y50589115D02*
X24228264Y50497379D01*
X24320000Y52150000D02*
X24320000Y50589115D01*
D51*
X18500000Y49000000D02*
X20850000Y49000000D01*
X20850000Y49000000D02*
X20900000Y48950000D01*
D53*
X21304670Y32234437D02*
X21629669Y32559436D01*
X20820233Y31750000D02*
X21304670Y32234437D01*
X20000000Y31750000D02*
X20820233Y31750000D01*
D51*
X45650000Y26680000D02*
X45650000Y26300000D01*
X45630000Y27700000D02*
X45630000Y26700000D01*
X45630000Y26700000D02*
X45650000Y26680000D01*
X39870000Y27700000D02*
X39870000Y26330000D01*
X39870000Y26330000D02*
X39900000Y26300000D01*
D53*
X32600000Y37800000D02*
X32600000Y39050000D01*
X15700000Y29800000D02*
X15700000Y30500000D01*
X15700000Y30500000D02*
X16500000Y31300000D01*
X4950000Y30200000D02*
X4200000Y29450000D01*
X4200000Y29450000D02*
X2400000Y29450000D01*
X4950000Y32500000D02*
X4950000Y30200000D01*
X4950000Y33250000D02*
X4950000Y32500000D01*
X10000000Y23700000D02*
X10000000Y29700000D01*
X10000000Y29700000D02*
X9950000Y29750000D01*
X31150000Y27900000D02*
X32700000Y27900000D01*
D52*
X7350000Y6800000D02*
X5650000Y6800000D01*
X5650000Y6800000D02*
X5600000Y6750000D01*
X61750000Y18900000D02*
X61750000Y17100000D01*
D50*
X37825000Y34550000D02*
X39500000Y34550000D01*
X37200000Y34550000D02*
X37825000Y34550000D01*
D53*
X14150000Y22850000D02*
X13900000Y22850000D01*
D51*
X29300000Y5500000D02*
X29300000Y6375000D01*
X29300000Y6375000D02*
X30025000Y7100000D01*
X30025000Y7100000D02*
X31730369Y7100000D01*
X31730369Y7100000D02*
X33790000Y9159631D01*
X33790000Y9159631D02*
X33790000Y10260000D01*
X27160000Y5500000D02*
X29300000Y5500000D01*
D55*
X24710000Y3050000D02*
X27160000Y5500000D01*
D56*
X52000000Y7000000D02*
X52000000Y5500000D01*
X51570000Y10260000D02*
X51570000Y7430000D01*
X51570000Y7430000D02*
X52000000Y7000000D01*
D50*
X54250000Y44100000D02*
X54250000Y45350000D01*
X54250000Y45350000D02*
X54300000Y45400000D01*
X57615000Y46485000D02*
X57000000Y47100000D01*
X57000000Y47100000D02*
X56600000Y47100000D01*
X57615000Y46246500D02*
X57615000Y46485000D01*
X57615000Y45425000D02*
X57615000Y46246500D01*
X28900000Y17200000D02*
X30200000Y17200000D01*
X26500000Y18550000D02*
X26500000Y17800000D01*
X26500000Y17800000D02*
X27100000Y17200000D01*
X27100000Y17200000D02*
X28275000Y17200000D01*
X28275000Y17200000D02*
X28900000Y17200000D01*
D53*
X9950000Y29750000D02*
X9950000Y30365045D01*
X9950000Y30365045D02*
X10729056Y31144101D01*
X10729056Y31144101D02*
X11785209Y31144101D01*
X11448887Y34750000D02*
X11785209Y34413678D01*
X4950000Y34750000D02*
X11448887Y34750000D01*
X4950000Y33250000D02*
X4950000Y34750000D01*
D56*
X61121593Y45674508D02*
X62281248Y45674508D01*
X60604518Y45674508D02*
X61121593Y45674508D01*
X60355010Y45425000D02*
X60604518Y45674508D01*
D53*
X54750000Y58800000D02*
X54750000Y57700000D01*
D51*
X45200000Y51770000D02*
X45200000Y53200000D01*
X45200000Y53200000D02*
X45900000Y53900000D01*
X44315000Y50885000D02*
X45200000Y51770000D01*
X43575000Y50885000D02*
X44315000Y50885000D01*
D53*
X42900000Y54000000D02*
X44100000Y54000000D01*
X51900000Y51000000D02*
X53700000Y51000000D01*
X49925000Y50885000D02*
X51785000Y50885000D01*
X51785000Y50885000D02*
X51900000Y51000000D01*
D50*
X20000000Y29950000D02*
X20000000Y31750000D01*
D52*
X30850000Y32750000D02*
X29000000Y32750000D01*
X29000000Y32750000D02*
X28800000Y32550000D01*
D50*
X32700000Y27900000D02*
X34050000Y27900000D01*
X28950000Y27500000D02*
X30750000Y27500000D01*
X30750000Y27500000D02*
X31150000Y27900000D01*
X35700000Y34550000D02*
X37200000Y34550000D01*
X31975000Y35450000D02*
X32475000Y35450000D01*
X32475000Y35450000D02*
X32500000Y35475000D01*
X32500000Y35475000D02*
X32500000Y35975000D01*
X33000000Y35975000D02*
X32500000Y35975000D01*
X33000000Y34425000D02*
X33000000Y34925000D01*
X33000000Y34925000D02*
X33025000Y34950000D01*
X33025000Y34950000D02*
X33525000Y34950000D01*
D51*
X16547212Y35000000D02*
X16506647Y35040565D01*
X18500000Y35000000D02*
X16547212Y35000000D01*
D50*
X17550000Y22500000D02*
X16273797Y22500000D01*
X16273797Y22500000D02*
X15923797Y22850000D01*
X15923797Y22850000D02*
X15650000Y22850000D01*
D52*
X62250000Y44000000D02*
X62339332Y44000000D01*
X61417346Y43996733D02*
X60770613Y43350000D01*
X62339332Y44000000D02*
X62342599Y43996733D01*
X62342599Y43996733D02*
X61417346Y43996733D01*
X60770613Y43350000D02*
X60250000Y43350000D01*
D50*
X32600000Y37800000D02*
X32600000Y37175000D01*
X32600000Y37175000D02*
X32500816Y37075816D01*
X32500816Y37075816D02*
X32500816Y35999185D01*
X32500816Y35999185D02*
X32523887Y35976114D01*
X35700000Y34550000D02*
X35075000Y34550000D01*
X35075000Y34550000D02*
X34674999Y34950001D01*
X34674999Y34950001D02*
X34025000Y34950000D01*
X34025000Y34950000D02*
X33525000Y34950000D01*
X23050000Y38600000D02*
X23050000Y37300000D01*
D51*
X36850000Y44150000D02*
X36850000Y41800000D01*
X40500000Y46000000D02*
X39200000Y46000000D01*
X39200000Y46000000D02*
X38700000Y46500000D01*
X45500000Y40500000D02*
X45500000Y41450000D01*
X45500000Y41450000D02*
X44908812Y42041188D01*
X62250000Y47300000D02*
X62450000Y47500000D01*
X60500000Y47500000D02*
X62450000Y47500000D01*
X61200000Y53250000D02*
X61200000Y51050000D01*
X61200000Y51050000D02*
X61150000Y51000000D01*
X2500000Y47000000D02*
X4450000Y47000000D01*
D53*
X14150000Y22850000D02*
X15650000Y22850000D01*
D51*
X19600000Y20400000D02*
X20600000Y21400000D01*
X19600000Y20200000D02*
X19600000Y20400000D01*
X20050000Y19750000D02*
X19600000Y20200000D01*
X20100000Y19750000D02*
X20050000Y19750000D01*
D53*
X20500000Y19350000D02*
X20100000Y19750000D01*
X20500000Y18550000D02*
X20500000Y19350000D01*
D50*
X20500000Y18550000D02*
X20500000Y16950000D01*
X20500000Y16950000D02*
X20400000Y16850000D01*
X20400000Y16850000D02*
X20550000Y16850000D01*
X31975000Y34950000D02*
X30838526Y34950000D01*
X30838526Y34950000D02*
X30655928Y35132598D01*
X30655928Y35132598D02*
X30563112Y35225414D01*
X25275000Y47725000D02*
X26825000Y47725000D01*
X26825000Y47725000D02*
X26850000Y47700000D01*
D55*
X46425000Y41675000D02*
X46425000Y42225000D01*
X47550000Y40500000D02*
X47550000Y40550000D01*
X47550000Y40550000D02*
X46425000Y41675000D01*
D53*
X18525000Y29950000D02*
X19075000Y29950000D01*
X19500000Y29950000D02*
X19075000Y29950000D01*
X19075000Y29950000D02*
X18500000Y30525000D01*
X18500000Y30525000D02*
X18500000Y30735000D01*
X28950000Y28000000D02*
X28950000Y28425000D01*
X28950000Y28425000D02*
X29925000Y29400000D01*
X29925000Y29400000D02*
X30475000Y29400000D01*
X30475000Y29400000D02*
X31150000Y29400000D01*
X27000000Y18550000D02*
X28750000Y18550000D01*
X28750000Y18550000D02*
X28900000Y18700000D01*
D52*
X18525000Y29950000D02*
X17550000Y28975000D01*
X17550000Y28975000D02*
X17550000Y28025001D01*
D50*
X17550000Y28000000D02*
X16000000Y28000000D01*
X16000000Y28000000D02*
X15700000Y28300000D01*
X17550000Y22000000D02*
X16300000Y22000000D01*
X16300000Y22000000D02*
X15650000Y21350000D01*
X49925000Y52155000D02*
X48980000Y52155000D01*
X48980000Y52155000D02*
X47850000Y51025000D01*
X33550000Y36000000D02*
X35650000Y36000000D01*
X35650000Y36000000D02*
X35700000Y36050000D01*
X33525000Y35450000D02*
X33525000Y35975000D01*
X33525000Y35975000D02*
X33550000Y36000000D01*
D55*
X18500000Y31750000D02*
X18500000Y30735000D01*
D50*
X16750000Y27000000D02*
X17550000Y27000000D01*
X16750000Y27000000D02*
X12586081Y27000000D01*
X12586081Y27000000D02*
X11936081Y27650000D01*
X11936081Y27650000D02*
X11800000Y27650000D01*
X11800000Y27650000D02*
X11800000Y29400000D01*
X11800000Y29400000D02*
X11450000Y29750000D01*
X16750000Y26500000D02*
X17550000Y26500000D01*
X16750000Y26500000D02*
X12550000Y26500000D01*
X12550000Y26500000D02*
X11800000Y25750000D01*
X11800000Y25750000D02*
X11800000Y24000000D01*
X11800000Y24000000D02*
X11500000Y23700000D01*
D52*
X47500000Y46250000D02*
X47830000Y46250000D01*
X47830000Y46250000D02*
X49925000Y48345000D01*
D54*
X36850000Y51000000D02*
X39505000Y48345000D01*
X39505000Y48345000D02*
X43575000Y48345000D01*
D52*
X46000000Y46250000D02*
X46000000Y47069905D01*
X46000000Y47069905D02*
X44724905Y48345000D01*
X44724905Y48345000D02*
X43575000Y48345000D01*
D54*
X43800000Y46000000D02*
X43800000Y48120000D01*
X43800000Y48120000D02*
X43575000Y48345000D01*
X28000000Y50900000D02*
X29603072Y50900000D01*
X29603072Y50900000D02*
X29634541Y50931469D01*
D56*
X57000000Y69500000D02*
X57000000Y68921074D01*
X56003997Y53250000D02*
X55800000Y53250000D01*
X57000000Y68921074D02*
X56366031Y68287105D01*
X56366031Y68287105D02*
X56366031Y53528886D01*
X56045571Y53208426D02*
X56003997Y53250000D01*
X56366031Y53528886D02*
X56045571Y53208426D01*
D50*
X57000000Y69500000D02*
X56044166Y69500000D01*
X56044166Y69500000D02*
X54600000Y68055834D01*
X54600000Y68055834D02*
X54600000Y63400000D01*
D56*
X57000000Y69500000D02*
X56592825Y69092825D01*
D50*
X41400000Y50700000D02*
X41600000Y50700000D01*
X41600000Y50700000D02*
X42685000Y49615000D01*
X42685000Y49615000D02*
X42753500Y49615000D01*
X42753500Y49615000D02*
X43575000Y49615000D01*
D54*
X43575000Y49615000D02*
X44511829Y49615000D01*
X44511829Y49615000D02*
X48146829Y53250000D01*
X48146829Y53250000D02*
X55800000Y53250000D01*
D56*
X58885000Y45425000D02*
X58885000Y47115000D01*
X58885000Y47115000D02*
X58500000Y47500000D01*
X55800000Y53250000D02*
X55800000Y50200000D01*
X55800000Y50200000D02*
X58500000Y47500000D01*
D52*
X54250000Y38250000D02*
X55520000Y38250000D01*
X55520000Y38250000D02*
X56345000Y39075000D01*
D50*
X56345000Y38757500D02*
X56345000Y39075000D01*
D52*
X54250000Y40250000D02*
X54250000Y42600000D01*
D50*
X32500000Y34437500D02*
X32500000Y32900000D01*
X32500000Y32900000D02*
X32350000Y32750000D01*
X41850000Y67100000D02*
X47195741Y72445741D01*
X47195741Y72445741D02*
X58464235Y72445741D01*
X58464235Y72445741D02*
X59788841Y71121135D01*
X59788841Y71121135D02*
X59788841Y65738841D01*
X59788841Y65738841D02*
X58675000Y64625000D01*
D56*
X51875000Y28750000D02*
X56350000Y28750000D01*
X56350000Y28750000D02*
X56375000Y28725000D01*
D54*
X28000000Y53900000D02*
X28000000Y55608764D01*
X28000000Y55608764D02*
X27987844Y55620920D01*
D56*
X54110000Y10260000D02*
X54130214Y10239786D01*
X56629786Y10239786D02*
X56650000Y10260000D01*
X54130214Y10239786D02*
X56629786Y10239786D01*
X56650000Y10260000D02*
X57499999Y9410001D01*
X57499999Y9410001D02*
X57589999Y9410001D01*
X55070000Y9300000D02*
X55850000Y9300000D01*
X54110000Y10260000D02*
X55070000Y9300000D01*
D50*
X56650000Y10260000D02*
X56590000Y10260000D01*
X56590000Y10260000D02*
X55740001Y11109999D01*
X55740001Y11109999D02*
X55350000Y11500000D01*
X55350000Y11500000D02*
X55350000Y14375000D01*
X55350000Y14375000D02*
X59750000Y18775000D01*
X59750000Y18775000D02*
X59750000Y18900000D01*
X54110000Y10260000D02*
X55350000Y11500000D01*
D52*
X27250000Y3050000D02*
X28700000Y4500000D01*
X28700000Y4500000D02*
X30575000Y4500000D01*
X30575000Y4500000D02*
X30800000Y4725000D01*
X30800000Y4725000D02*
X30800000Y5500000D01*
D50*
X34600000Y25450000D02*
X35158495Y25450000D01*
X35158495Y25450000D02*
X35808495Y24800000D01*
X35808495Y24800000D02*
X36400000Y24800000D01*
X11600000Y6850000D02*
X9600000Y6850000D01*
X9600000Y6850000D02*
X9550000Y6800000D01*
X9550000Y17775000D02*
X18305368Y17775000D01*
X18305368Y17775000D02*
X19080368Y18550000D01*
X19080368Y18550000D02*
X19500000Y18550000D01*
X7834619Y17750000D02*
X7859619Y17775000D01*
X7859619Y17775000D02*
X9550000Y17775000D01*
X7375000Y17750000D02*
X7834619Y17750000D01*
X19475156Y18525156D02*
X19500000Y18550000D01*
D54*
X24320000Y57550000D02*
X25334356Y57550000D01*
X25334356Y57550000D02*
X26250000Y56634356D01*
X26250000Y56634356D02*
X26250000Y52850000D01*
X26250000Y52850000D02*
X26700000Y52400000D01*
X26700000Y52400000D02*
X28250000Y52400000D01*
X28250000Y52400000D02*
X29162789Y52400000D01*
X29162789Y52400000D02*
X30700000Y53937211D01*
X30700000Y53937211D02*
X30700000Y53950000D01*
X30700000Y53950000D02*
X30700000Y55000000D01*
X30700000Y56500000D02*
X30700000Y57550000D01*
X30700000Y57550000D02*
X26750000Y61500000D01*
X26750000Y61500000D02*
X23131370Y61500000D01*
X23131370Y61500000D02*
X22000000Y61500000D01*
D50*
X3250000Y51850000D02*
X3250000Y49182682D01*
X3250000Y49182682D02*
X3067318Y49000000D01*
X3067318Y49000000D02*
X2500000Y49000000D01*
X28950000Y25500000D02*
X29804273Y25500000D01*
X46641847Y22600044D02*
X48959041Y20282850D01*
X29804273Y25500000D02*
X32704229Y22600044D01*
X32704229Y22600044D02*
X46641847Y22600044D01*
X48959041Y20282850D02*
X51107150Y20282850D01*
X51107150Y20282850D02*
X52740000Y18650000D01*
X50300000Y15610000D02*
X50300000Y16210000D01*
X50300000Y16210000D02*
X52740000Y18650000D01*
X50300000Y15610000D02*
X50310000Y15610000D01*
X49030000Y10260000D02*
X50300000Y11530000D01*
X50300000Y11530000D02*
X50300000Y15610000D01*
X50200000Y18650000D02*
X49969655Y18650000D01*
X49969655Y18650000D02*
X46419622Y22200033D01*
X46419622Y22200033D02*
X32538540Y22200033D01*
X29738573Y25000000D02*
X28950000Y25000000D01*
X32538540Y22200033D02*
X29738573Y25000000D01*
X47759273Y15609273D02*
X47759273Y16209273D01*
X47759273Y16209273D02*
X50200000Y18650000D01*
X47759273Y15609273D02*
X47769273Y15609273D01*
X47759273Y15609273D02*
X47759273Y11529273D01*
X47759273Y11529273D02*
X46490000Y10260000D01*
X30000000Y9300000D02*
X27700000Y7000000D01*
X30000000Y11510000D02*
X30000000Y9500000D01*
X27700000Y7000000D02*
X26572442Y7000000D01*
X30000000Y9500000D02*
X30000000Y9300000D01*
X24972442Y5400000D02*
X24520000Y5400000D01*
X22170000Y3050000D02*
X24520000Y5400000D01*
X28710000Y12800000D02*
X30000000Y11510000D01*
X26572442Y7000000D02*
X24972442Y5400000D01*
X28710000Y10260000D02*
X25750000Y7300000D01*
X25750000Y7300000D02*
X17700000Y7300000D01*
X14550000Y3050000D02*
X14550000Y4150000D01*
X14550000Y4150000D02*
X17700000Y7300000D01*
X13100000Y6850000D02*
X15140000Y6850000D01*
X15140000Y6850000D02*
X18550000Y10260000D01*
X16010000Y12800000D02*
X17741682Y14531682D01*
X17741682Y14531682D02*
X31631682Y14531682D01*
X31631682Y14531682D02*
X32881498Y15781498D01*
X32881498Y15781498D02*
X32881498Y18915600D01*
X32881498Y18915600D02*
X33068304Y19102406D01*
X33068304Y19102406D02*
X33068304Y19562025D01*
X47750000Y44046657D02*
X47744039Y44052618D01*
X47750000Y42500000D02*
X47750000Y44046657D01*
X5550831Y40812198D02*
X6363029Y40000000D01*
X21369867Y44300000D02*
X22900000Y44300000D01*
X6363029Y40000000D02*
X19963605Y40000000D01*
X19963605Y40000000D02*
X20430544Y40466939D01*
X20430544Y43360676D02*
X21369867Y44300000D01*
X20430544Y40466939D02*
X20430544Y43360676D01*
X26000000Y27873862D02*
X25303115Y27176977D01*
X26000000Y29950000D02*
X26000000Y27873862D01*
X25303115Y27176977D02*
X24978116Y26851978D01*
X13470000Y10260000D02*
X14319999Y11109999D01*
X14319999Y11109999D02*
X14319999Y11119999D01*
X14319999Y11119999D02*
X14750000Y11550000D01*
X14750000Y11550000D02*
X14750000Y13750000D01*
X14750000Y13750000D02*
X15450151Y14450151D01*
X15450151Y14450151D02*
X16650434Y14450151D01*
X16650434Y14450151D02*
X17131974Y14931691D01*
X17131974Y14931691D02*
X31241676Y14931691D01*
X31241676Y14931691D02*
X32287216Y15977231D01*
X32287216Y15977231D02*
X32287216Y19600869D01*
X32287216Y19600869D02*
X32268545Y19619540D01*
X10930000Y12800000D02*
X8480000Y15250000D01*
X8480000Y15250000D02*
X3419263Y15250000D01*
X3419263Y15250000D02*
X890763Y17778500D01*
X890763Y17778500D02*
X890763Y31957471D01*
X890763Y31957471D02*
X1533292Y32600000D01*
X1533292Y32600000D02*
X2150000Y32600000D01*
X24664513Y27682538D02*
X24339514Y27357539D01*
X25500000Y29950000D02*
X25500000Y28518025D01*
X25500000Y28518025D02*
X24664513Y27682538D01*
X16287625Y15331702D02*
X30888122Y15331702D01*
X30888122Y15331702D02*
X31676759Y16120339D01*
X31676759Y16120339D02*
X31676759Y18621583D01*
X31676759Y18621583D02*
X31676759Y19081202D01*
X23621086Y27151947D02*
X23621086Y26692328D01*
X23621086Y27530494D02*
X23621086Y27151947D01*
X25000000Y29950000D02*
X25000000Y28909408D01*
X25000000Y28909408D02*
X23621086Y27530494D01*
X8390000Y10260000D02*
X9680000Y11550000D01*
X9680000Y11550000D02*
X11800000Y11550000D01*
X11800000Y11550000D02*
X12200000Y11950000D01*
X12200000Y11950000D02*
X12200000Y13900000D01*
X12200000Y13900000D02*
X14250000Y15950000D01*
X14250000Y15950000D02*
X30570172Y15950000D01*
X30570172Y15950000D02*
X31052413Y16432241D01*
X31052413Y16432241D02*
X31052413Y18453165D01*
D54*
X60155000Y39075000D02*
X60155000Y29720000D01*
X60155000Y29720000D02*
X61125000Y28750000D01*
D50*
X44290000Y31700000D02*
X44290000Y32360000D01*
X44290000Y32360000D02*
X43500000Y33150000D01*
X43500000Y33150000D02*
X36150000Y33150000D01*
X36150000Y33150000D02*
X33550000Y30550000D01*
X27700000Y29950000D02*
X27000000Y29950000D01*
X33550000Y30550000D02*
X28300000Y30550000D01*
X28300000Y30550000D02*
X27700000Y29950000D01*
X28950000Y27000000D02*
X30065699Y27000000D01*
X30315699Y26750000D02*
X34414015Y26750000D01*
X30065699Y27000000D02*
X30315699Y26750000D01*
X19635190Y33752831D02*
X14465923Y33752831D01*
X24442351Y36033292D02*
X25308525Y36899466D01*
X25308525Y36899466D02*
X27711052Y36899466D01*
X27711052Y36899466D02*
X28170671Y36899466D01*
X7750000Y32550000D02*
X8523016Y33323016D01*
X8523016Y33323016D02*
X14030994Y33323016D01*
X14030994Y33323016D02*
X14033551Y33320459D01*
X14033551Y33320459D02*
X14358550Y33645458D01*
X14465923Y33752831D02*
X14358550Y33645458D01*
X7750000Y32550000D02*
X7200000Y32550000D01*
X7200000Y32550000D02*
X5900000Y31250000D01*
X14695313Y25000000D02*
X14401115Y25294198D01*
X17550000Y25000000D02*
X14695313Y25000000D01*
X5900000Y31250000D02*
X6148492Y31001508D01*
X16800000Y64200000D02*
X16800000Y67120000D01*
X16800000Y67120000D02*
X16750000Y67170000D01*
X24500000Y18550000D02*
X24500000Y19513771D01*
X24500000Y19513771D02*
X25050000Y20063771D01*
X25050000Y20063771D02*
X25050000Y20400000D01*
D52*
X22000000Y71500000D02*
X19940532Y71500000D01*
X19940532Y71500000D02*
X18549990Y70109458D01*
X18549990Y70109458D02*
X18549990Y61723917D01*
X18549990Y61723917D02*
X15430000Y58603927D01*
X15430000Y58603927D02*
X15430000Y57550000D01*
X19100000Y61300000D02*
X16700000Y58900000D01*
X16700000Y58900000D02*
X16700000Y57550000D01*
X22000000Y69000000D02*
X20300000Y69000000D01*
X20300000Y69000000D02*
X19100000Y67800000D01*
X19100000Y67800000D02*
X19100000Y61300000D01*
X19650010Y65511297D02*
X19650010Y61150000D01*
X19650010Y61150000D02*
X19650010Y60936160D01*
X17970000Y57550000D02*
X17970000Y59256149D01*
X17970000Y59256149D02*
X19650010Y60936159D01*
X19650010Y60936159D02*
X19650010Y61150000D01*
X22000000Y66500000D02*
X20638713Y66500000D01*
X20638713Y66500000D02*
X19650010Y65511297D01*
X19240000Y57550000D02*
X19240000Y59748319D01*
X19240000Y59748319D02*
X19900000Y60408319D01*
X20200020Y63400020D02*
X20800000Y64000000D01*
X19900000Y60400000D02*
X19900000Y60408319D01*
X19900000Y60408319D02*
X20200020Y60708339D01*
X20200020Y60708339D02*
X20200020Y63400020D01*
X20800000Y64000000D02*
X22000000Y64000000D01*
D50*
X28950000Y22500000D02*
X31464640Y22500000D01*
X31464640Y22500000D02*
X32164618Y21800022D01*
X32164618Y21800022D02*
X39429978Y21800022D01*
X39429978Y21800022D02*
X42580000Y18650000D01*
X28950000Y22000000D02*
X31398940Y22000000D01*
X31398940Y22000000D02*
X31998929Y21400011D01*
X37289989Y21400011D02*
X40040000Y18650000D01*
X31998929Y21400011D02*
X37289989Y21400011D01*
X28950000Y21000000D02*
X35150000Y21000000D01*
X35150000Y21000000D02*
X37500000Y18650000D01*
X28950000Y20500000D02*
X33571497Y20500000D01*
X33571497Y20500000D02*
X34960000Y19111497D01*
X34960000Y19111497D02*
X34960000Y18650000D01*
X21529720Y17270280D02*
X21738215Y17270280D01*
X21000000Y18550000D02*
X21000000Y17800000D01*
X21000000Y17800000D02*
X21529720Y17270280D01*
X13774784Y24500000D02*
X11798997Y22524213D01*
X5624213Y22524213D02*
X5600000Y22500000D01*
X17550000Y24500000D02*
X13774784Y24500000D01*
X11798997Y22524213D02*
X5624213Y22524213D01*
X25500000Y18550000D02*
X25500000Y17132061D01*
X25500000Y17132061D02*
X25217939Y16850000D01*
X25217939Y16850000D02*
X25100000Y16850000D01*
X6983350Y21767697D02*
X6410594Y21767697D01*
X11619024Y21767697D02*
X6983350Y21767697D01*
X13851327Y24000000D02*
X11619024Y21767697D01*
X17550000Y24000000D02*
X13851327Y24000000D01*
X26000000Y18550000D02*
X26000000Y17131685D01*
X26000000Y17131685D02*
X26281685Y16850000D01*
X26281685Y16850000D02*
X26300000Y16850000D01*
X31950000Y34400000D02*
X30252107Y34400000D01*
X29844532Y34807575D02*
X29844532Y34832680D01*
X30252107Y34400000D02*
X29844532Y34807575D01*
X29844532Y34832680D02*
X29384913Y34832680D01*
X7799989Y63100011D02*
X7799989Y65125011D01*
X7799989Y65125011D02*
X6050000Y66875000D01*
X7799989Y53200000D02*
X7799989Y63100011D01*
X7819908Y53200000D02*
X7799989Y53200000D01*
X11008047Y50011861D02*
X7819908Y53200000D01*
X25275000Y46225000D02*
X21125000Y46225000D01*
X21125000Y46225000D02*
X20910657Y46010657D01*
X20910657Y46010657D02*
X15289343Y46010657D01*
X15289343Y46010657D02*
X14150000Y47150000D01*
X28954453Y36202770D02*
X28954453Y38954757D01*
X28954453Y38954757D02*
X27619328Y40289882D01*
X27619328Y43480672D02*
X25275000Y45825000D01*
X27619328Y40289882D02*
X27619328Y43480672D01*
X25275000Y45825000D02*
X25275000Y46225000D01*
X26808439Y36202770D02*
X28494834Y36202770D01*
X22000000Y31394331D02*
X26808439Y36202770D01*
X22000000Y29950000D02*
X22000000Y31394331D01*
X28494834Y36202770D02*
X28954453Y36202770D01*
X2128684Y72340000D02*
X3000000Y72340000D01*
X11600000Y50550000D02*
X8200000Y53950000D01*
X8200000Y53950000D02*
X8200000Y66000000D01*
X8200000Y66000000D02*
X7200000Y67000000D01*
X7200000Y67000000D02*
X7200000Y71493426D01*
X7200000Y71493426D02*
X6353426Y72340000D01*
X6353426Y72340000D02*
X5540000Y72340000D01*
X26850000Y46200000D02*
X26850000Y46700000D01*
X26850000Y46700000D02*
X26550000Y47000000D01*
X26550000Y47000000D02*
X22664299Y47000000D01*
X22664299Y47000000D02*
X21675000Y47989299D01*
X21675000Y47989299D02*
X14350000Y47989299D01*
X14350000Y47989299D02*
X14150000Y47989299D01*
X28019339Y43884281D02*
X26850000Y45053620D01*
X26850000Y45053620D02*
X26850000Y46200000D01*
X31950000Y36000000D02*
X31950000Y36524910D01*
X31950000Y36524910D02*
X28019339Y40455571D01*
X28019339Y40455571D02*
X28019339Y43884281D01*
X26694861Y35523492D02*
X29185676Y35523492D01*
X29662184Y36000000D02*
X31475000Y36000000D01*
X31475000Y36000000D02*
X31950000Y36000000D01*
X22500000Y31328631D02*
X26694861Y35523492D01*
X22500000Y29950000D02*
X22500000Y31328631D01*
X29185676Y35523492D02*
X29662184Y36000000D01*
X17550000Y20500000D02*
X18543248Y20500000D01*
X18543248Y20500000D02*
X21378979Y23335731D01*
X21378979Y23335731D02*
X21378979Y25029135D01*
X21378979Y25029135D02*
X21378979Y25488754D01*
X36700000Y59850000D02*
X37803642Y59850000D01*
X37803642Y59850000D02*
X43053642Y65100000D01*
X43053642Y65100000D02*
X44630000Y65100000D01*
X44630000Y65100000D02*
X46230000Y63500000D01*
X44500000Y56250000D02*
X44500000Y60760000D01*
X44500000Y60760000D02*
X45210000Y61470000D01*
X17550000Y21000000D02*
X18431990Y21000000D01*
X18431990Y21000000D02*
X20774923Y23342933D01*
X20774923Y23342933D02*
X20774923Y25796448D01*
X20774923Y25796448D02*
X20774923Y26256067D01*
X33600000Y56300000D02*
X33600000Y57000000D01*
X33600000Y57000000D02*
X31779861Y58820139D01*
X31779861Y58820139D02*
X31779861Y63132745D01*
X31779861Y63132745D02*
X32147116Y63500000D01*
X32147116Y63500000D02*
X32160000Y63500000D01*
X38100000Y56300000D02*
X38100000Y56500000D01*
X38100000Y56500000D02*
X33180000Y61420000D01*
X33180000Y61420000D02*
X33180000Y61470000D01*
X26500000Y29950000D02*
X26500000Y27203091D01*
X26500000Y27203091D02*
X25324026Y26027117D01*
X25324026Y26027117D02*
X22485228Y26027117D01*
X22485228Y26027117D02*
X21652222Y26860123D01*
X20401925Y26860123D02*
X19942306Y26860123D01*
X21652222Y26860123D02*
X20401925Y26860123D01*
X23850000Y42500000D02*
X24400000Y43050000D01*
X24400000Y43050000D02*
X24400000Y44300000D01*
X23150000Y42500000D02*
X23850000Y42500000D01*
X25150000Y41550000D02*
X25150000Y38915325D01*
X25150000Y38915325D02*
X24834675Y38600000D01*
X24834675Y38600000D02*
X24550000Y38600000D01*
X21500000Y31460031D02*
X23150000Y33110031D01*
X21500000Y29950000D02*
X21500000Y31460031D01*
X23150000Y33110031D02*
X23150000Y36150000D01*
X23150000Y36150000D02*
X24550000Y37550000D01*
X24550000Y37900000D02*
X24550000Y38600000D01*
X24550000Y37550000D02*
X24550000Y37900000D01*
X49450000Y40500000D02*
X49450000Y42300000D01*
X49450000Y42300000D02*
X49250000Y42500000D01*
X45500000Y39000000D02*
X42750000Y39000000D01*
X42750000Y39000000D02*
X42500000Y38750000D01*
X45500000Y39000000D02*
X48000000Y39000000D01*
X48000000Y39000000D02*
X48500000Y38500000D01*
X56261500Y36900000D02*
X50750000Y36900000D01*
X50750000Y36900000D02*
X49150000Y38500000D01*
X49150000Y38500000D02*
X48500000Y38500000D01*
X57615000Y39075000D02*
X57615000Y38253500D01*
X57615000Y38253500D02*
X56261500Y36900000D01*
X43450000Y40750000D02*
X43450000Y42300000D01*
X43450000Y42300000D02*
X43250000Y42500000D01*
X2150000Y31100000D02*
X3850000Y31100000D01*
X3850000Y31100000D02*
X4000000Y31250000D01*
X17550000Y21500000D02*
X18326288Y21500000D01*
X18326288Y21500000D02*
X19250000Y22423712D01*
X19250000Y22423712D02*
X19250000Y25790381D01*
X19250000Y25790381D02*
X19250000Y26250000D01*
X46200000Y68650000D02*
X46200000Y65900000D01*
X46200000Y65900000D02*
X50200000Y61900000D01*
X50200000Y61900000D02*
X54600000Y61900000D01*
X54600000Y60350000D02*
X54600000Y61900000D01*
X41400000Y54000000D02*
X41400000Y52200000D01*
X43575000Y52155000D02*
X41445000Y52155000D01*
X41445000Y52155000D02*
X41400000Y52200000D01*
X29134194Y33963654D02*
X29593813Y33963654D01*
X23000000Y30700000D02*
X26263654Y33963654D01*
X23000000Y29950000D02*
X23000000Y30700000D01*
X26263654Y33963654D02*
X29134194Y33963654D01*
X41750000Y43944756D02*
X41758483Y43953239D01*
X41750000Y42500000D02*
X41750000Y43944756D01*
X33100000Y25450000D02*
X31050000Y25450000D01*
X31050000Y25450000D02*
X30000000Y26500000D01*
X30000000Y26500000D02*
X28950000Y26500000D01*
X16750000Y61600000D02*
X16750000Y62650000D01*
X16750000Y62650000D02*
X16800000Y62700000D01*
X25000000Y18550000D02*
X25000000Y19448073D01*
X25000000Y19448073D02*
X25664579Y20112652D01*
X25664579Y20112652D02*
X25664579Y20912149D01*
X57900000Y42500000D02*
X56345000Y44055000D01*
X56345000Y44055000D02*
X56345000Y45425000D01*
X62250000Y42500000D02*
X57900000Y42500000D01*
X62250000Y41000000D02*
X62250000Y42500000D01*
X24000000Y18550000D02*
X24000000Y19774062D01*
X24000000Y19774062D02*
X24407640Y20181702D01*
X24407640Y20181702D02*
X24407640Y20444344D01*
X24407640Y20444344D02*
X24407640Y20903963D01*
X14100000Y39050000D02*
X3050000Y39050000D01*
X3050000Y39050000D02*
X3000000Y39000000D01*
X3000000Y39000000D02*
X2500000Y39000000D01*
X22000000Y19677920D02*
X21535055Y20142865D01*
X22000000Y18550000D02*
X22000000Y19677920D01*
X21535055Y20142865D02*
X21535055Y20492148D01*
X21535055Y20492148D02*
X21535055Y20951767D01*
X10900000Y37000000D02*
X18500000Y37000000D01*
X22500000Y20035500D02*
X22198307Y20337193D01*
X22500000Y18550000D02*
X22500000Y20035500D01*
X11550000Y38350000D02*
X16600000Y38350000D01*
X16600000Y38350000D02*
X17250000Y39000000D01*
X17250000Y39000000D02*
X18500000Y39000000D01*
X21500000Y18550000D02*
X21500000Y19540815D01*
X21500000Y19540815D02*
X21156604Y19884211D01*
X21156604Y19884211D02*
X21156604Y19897687D01*
X21156604Y19897687D02*
X20765081Y20289210D01*
X20765081Y20289210D02*
X20751605Y20289210D01*
X18500000Y41000000D02*
X10950000Y41000000D01*
X23000000Y20825496D02*
X22946748Y20878748D01*
X23000000Y18550000D02*
X23000000Y20825496D01*
X12350000Y42950000D02*
X18450000Y42950000D01*
X18450000Y42950000D02*
X18500000Y43000000D01*
X23500000Y20253004D02*
X23659917Y20412921D01*
X23500000Y18550000D02*
X23500000Y20253004D01*
X18500000Y45000000D02*
X13250020Y45000000D01*
X13250020Y45000000D02*
X13250010Y44999990D01*
X23327910Y55236010D02*
X19012296Y55236010D01*
X19012296Y55236010D02*
X16700000Y52923714D01*
X16700000Y52923714D02*
X16700000Y52150000D01*
X26712916Y23349281D02*
X26387917Y23674280D01*
X28950000Y23000000D02*
X27062197Y23000000D01*
X27062197Y23000000D02*
X26712916Y23349281D01*
X24210985Y54621974D02*
X19676624Y54621974D01*
X19676624Y54621974D02*
X17970000Y52915350D01*
X17970000Y52915350D02*
X17970000Y52150000D01*
X28950000Y23500000D02*
X27791304Y23500000D01*
X27791304Y23500000D02*
X27204674Y24086630D01*
X27204674Y24086630D02*
X26879675Y24411629D01*
X19240000Y52150000D02*
X19240000Y52600000D01*
X19240000Y52600000D02*
X20562909Y53922909D01*
X20562909Y53922909D02*
X24981309Y53922909D01*
X24981309Y53922909D02*
X25141737Y54083337D01*
X25141737Y54083337D02*
X25181843Y54083337D01*
X28950000Y24000000D02*
X28200000Y24000000D01*
X27461798Y24738202D02*
X27461798Y25178327D01*
X28200000Y24000000D02*
X27461798Y24738202D01*
X33512500Y34450000D02*
X33987500Y34450000D01*
X33987500Y34450000D02*
X34350000Y34087500D01*
X34350000Y34087500D02*
X34350000Y32242783D01*
X34350000Y32242783D02*
X33448560Y31341343D01*
X33448560Y31341343D02*
X25228331Y31341343D01*
X25228331Y31341343D02*
X24500000Y30613012D01*
X24500000Y30613012D02*
X24500000Y29950000D01*
X23500000Y28463136D02*
X23581173Y28381963D01*
X23500000Y29950000D02*
X23500000Y28463136D01*
X22535290Y55982985D02*
X18523519Y55982985D01*
X15430000Y52889466D02*
X15430000Y52150000D01*
X18523519Y55982985D02*
X15430000Y52889466D01*
X34600000Y23800000D02*
X34750000Y23650000D01*
X34750000Y23650000D02*
X39820000Y23650000D01*
X39820000Y23650000D02*
X39870000Y23700000D01*
X39870000Y23700000D02*
X41495000Y23700000D01*
X41495000Y23700000D02*
X45630000Y23700000D01*
X29900000Y26000000D02*
X32050000Y23850000D01*
X33100000Y23800000D02*
X32100000Y23800000D01*
X32100000Y23800000D02*
X32050000Y23850000D01*
X28950000Y26000000D02*
X29900000Y26000000D01*
D57*
G36*
X58379110Y37907069D02*
X58631000Y37856060D01*
X59120000Y37856060D01*
X59120000Y36397440D01*
X58750000Y36397440D01*
X58514683Y36353162D01*
X58298559Y36214090D01*
X58153569Y36001890D01*
X58102560Y35750000D01*
X58102560Y21750000D01*
X58146838Y21514683D01*
X58285910Y21298559D01*
X58498110Y21153569D01*
X58750000Y21102560D01*
X63500000Y21102560D01*
X63735317Y21146838D01*
X63873000Y21235435D01*
X63873000Y12767012D01*
X63770774Y13014418D01*
X63018379Y13768127D01*
X62034824Y14176535D01*
X60969848Y14177464D01*
X59985582Y13770774D01*
X59231873Y13018379D01*
X58823465Y12034824D01*
X58822536Y10969848D01*
X59229226Y9985582D01*
X59981621Y9231873D01*
X60965176Y8823465D01*
X62030152Y8822536D01*
X63014418Y9229226D01*
X63768127Y9981621D01*
X63873000Y10234183D01*
X63873000Y2204678D01*
X63750704Y2500657D01*
X63501967Y2749829D01*
X63176810Y2884846D01*
X62824735Y2885153D01*
X62499343Y2750704D01*
X62250171Y2501967D01*
X62115154Y2176810D01*
X62114847Y1824735D01*
X62249296Y1499343D01*
X62498033Y1250171D01*
X62794662Y1127000D01*
X1127000Y1127000D01*
X1127000Y10232988D01*
X1229226Y9985582D01*
X1981621Y9231873D01*
X2965176Y8823465D01*
X4030152Y8822536D01*
X5014418Y9229226D01*
X5768127Y9981621D01*
X6176535Y10965176D01*
X6177464Y12030152D01*
X5770774Y13014418D01*
X5018379Y13768127D01*
X4034824Y14176535D01*
X2969848Y14177464D01*
X1985582Y13770774D01*
X1231873Y13018379D01*
X1127000Y12765817D01*
X1127000Y14873000D01*
X2721461Y14873000D01*
X2881862Y14712599D01*
X3128424Y14547852D01*
X3419263Y14490000D01*
X8165198Y14490000D01*
X8349217Y14305981D01*
X7821715Y14201054D01*
X7339946Y13879147D01*
X7018039Y13397378D01*
X6905000Y12829093D01*
X6905000Y12770907D01*
X7018039Y12202622D01*
X7339946Y11720853D01*
X7625578Y11530000D01*
X7339946Y11339147D01*
X7018039Y10857378D01*
X6905000Y10289093D01*
X6905000Y10230907D01*
X7018039Y9662622D01*
X7339946Y9180853D01*
X7821715Y8858946D01*
X8390000Y8745907D01*
X8958285Y8858946D01*
X9440054Y9180853D01*
X9660000Y9510026D01*
X9879946Y9180853D01*
X10361715Y8858946D01*
X10930000Y8745907D01*
X11498285Y8858946D01*
X11980054Y9180853D01*
X12200000Y9510026D01*
X12419946Y9180853D01*
X12901715Y8858946D01*
X13470000Y8745907D01*
X14038285Y8858946D01*
X14520054Y9180853D01*
X14740000Y9510026D01*
X14959946Y9180853D01*
X15441715Y8858946D01*
X15969217Y8754019D01*
X14825198Y7610000D01*
X13905105Y7610000D01*
X13814090Y7751441D01*
X13601890Y7896431D01*
X13350000Y7947440D01*
X12850000Y7947440D01*
X12614683Y7903162D01*
X12398559Y7764090D01*
X12350866Y7694289D01*
X12314090Y7751441D01*
X12101890Y7896431D01*
X11850000Y7947440D01*
X11350000Y7947440D01*
X11114683Y7903162D01*
X10898559Y7764090D01*
X10793274Y7610000D01*
X10757926Y7610000D01*
X10753162Y7635317D01*
X10614090Y7851441D01*
X10401890Y7996431D01*
X10150000Y8047440D01*
X8950000Y8047440D01*
X8714683Y8003162D01*
X8498559Y7864090D01*
X8450866Y7794289D01*
X8414090Y7851441D01*
X8201890Y7996431D01*
X7950000Y8047440D01*
X6750000Y8047440D01*
X6514683Y8003162D01*
X6298559Y7864090D01*
X6176493Y7685440D01*
X5816767Y7834811D01*
X5385127Y7835188D01*
X4986200Y7670354D01*
X4680718Y7365405D01*
X4515189Y6966767D01*
X4514812Y6535127D01*
X4679646Y6136200D01*
X4984595Y5830718D01*
X5383233Y5665189D01*
X5814873Y5664812D01*
X6213800Y5829646D01*
X6225936Y5841761D01*
X6285910Y5748559D01*
X6498110Y5603569D01*
X6750000Y5552560D01*
X7950000Y5552560D01*
X8185317Y5596838D01*
X8401441Y5735910D01*
X8449134Y5805711D01*
X8485910Y5748559D01*
X8698110Y5603569D01*
X8950000Y5552560D01*
X10150000Y5552560D01*
X10385317Y5596838D01*
X10601441Y5735910D01*
X10746431Y5948110D01*
X10775164Y6090000D01*
X10794895Y6090000D01*
X10885910Y5948559D01*
X11098110Y5803569D01*
X11350000Y5752560D01*
X11850000Y5752560D01*
X12085317Y5796838D01*
X12301441Y5935910D01*
X12349134Y6005711D01*
X12385910Y5948559D01*
X12598110Y5803569D01*
X12850000Y5752560D01*
X13350000Y5752560D01*
X13585317Y5796838D01*
X13801441Y5935910D01*
X13906726Y6090000D01*
X15140000Y6090000D01*
X15430839Y6147852D01*
X15558048Y6232850D01*
X14012599Y4687401D01*
X13919080Y4547440D01*
X13700000Y4547440D01*
X13464683Y4503162D01*
X13248559Y4364090D01*
X13103569Y4151890D01*
X13052560Y3900000D01*
X13052560Y2200000D01*
X13096838Y1964683D01*
X13235910Y1748559D01*
X13448110Y1603569D01*
X13700000Y1552560D01*
X15400000Y1552560D01*
X15635317Y1596838D01*
X15851441Y1735910D01*
X15996431Y1948110D01*
X16010086Y2015541D01*
X16039946Y1970853D01*
X16521715Y1648946D01*
X17090000Y1535907D01*
X17658285Y1648946D01*
X18140054Y1970853D01*
X18360000Y2300026D01*
X18579946Y1970853D01*
X19061715Y1648946D01*
X19630000Y1535907D01*
X20198285Y1648946D01*
X20680054Y1970853D01*
X20900000Y2300026D01*
X21119946Y1970853D01*
X21601715Y1648946D01*
X22170000Y1535907D01*
X22738285Y1648946D01*
X23220054Y1970853D01*
X23440000Y2300026D01*
X23659946Y1970853D01*
X24141715Y1648946D01*
X24710000Y1535907D01*
X25278285Y1648946D01*
X25760054Y1970853D01*
X25990610Y2315906D01*
X26178980Y2021306D01*
X26654171Y1689749D01*
X26709476Y1666867D01*
X26932500Y1762315D01*
X26932500Y2732500D01*
X26912500Y2732500D01*
X26912500Y3367500D01*
X26932500Y3367500D01*
X26932500Y3387500D01*
X27567500Y3387500D01*
X27567500Y3367500D01*
X27587500Y3367500D01*
X27587500Y2732500D01*
X27567500Y2732500D01*
X27567500Y1762315D01*
X27790524Y1666867D01*
X27845829Y1689749D01*
X28321020Y2021306D01*
X28509390Y2315906D01*
X28739946Y1970853D01*
X29221715Y1648946D01*
X29790000Y1535907D01*
X30358285Y1648946D01*
X30840054Y1970853D01*
X31060000Y2300026D01*
X31279946Y1970853D01*
X31761715Y1648946D01*
X32330000Y1535907D01*
X32898285Y1648946D01*
X33380054Y1970853D01*
X33701961Y2452622D01*
X33815000Y3020907D01*
X33815000Y3079093D01*
X33701961Y3647378D01*
X33380054Y4129147D01*
X32898285Y4451054D01*
X32330000Y4564093D01*
X31761715Y4451054D01*
X31279946Y4129147D01*
X31060000Y3799974D01*
X30840054Y4129147D01*
X30358285Y4451054D01*
X29951164Y4532035D01*
X30038646Y4588329D01*
X30040302Y4586673D01*
X30273691Y4490000D01*
X30441250Y4490000D01*
X30600000Y4648750D01*
X30600000Y5312500D01*
X31000000Y5312500D01*
X31000000Y4648750D01*
X31158750Y4490000D01*
X31326309Y4490000D01*
X31559698Y4586673D01*
X31738327Y4765301D01*
X31835000Y4998690D01*
X31835000Y5153750D01*
X31676250Y5312500D01*
X31000000Y5312500D01*
X30600000Y5312500D01*
X30462500Y5312500D01*
X30462500Y5687500D01*
X30600000Y5687500D01*
X30600000Y5837500D01*
X31000000Y5837500D01*
X31000000Y5687500D01*
X31676250Y5687500D01*
X31835000Y5846250D01*
X31835000Y6001310D01*
X31745260Y6217961D01*
X32012853Y6271190D01*
X32069044Y6282367D01*
X32356159Y6474210D01*
X32356160Y6474211D01*
X34415787Y8533839D01*
X34415790Y8533841D01*
X34607633Y8820956D01*
X34615190Y8858946D01*
X34654569Y9056916D01*
X34840054Y9180853D01*
X35060000Y9510026D01*
X35279946Y9180853D01*
X35761715Y8858946D01*
X36330000Y8745907D01*
X36898285Y8858946D01*
X37380054Y9180853D01*
X37600000Y9510026D01*
X37819946Y9180853D01*
X38301715Y8858946D01*
X38870000Y8745907D01*
X39438285Y8858946D01*
X39920054Y9180853D01*
X40140000Y9510026D01*
X40359946Y9180853D01*
X40841715Y8858946D01*
X41410000Y8745907D01*
X41978285Y8858946D01*
X42460054Y9180853D01*
X42680000Y9510026D01*
X42899946Y9180853D01*
X43381715Y8858946D01*
X43950000Y8745907D01*
X44518285Y8858946D01*
X45000054Y9180853D01*
X45220000Y9510026D01*
X45439946Y9180853D01*
X45921715Y8858946D01*
X46490000Y8745907D01*
X47058285Y8858946D01*
X47540054Y9180853D01*
X47760000Y9510026D01*
X47979946Y9180853D01*
X48461715Y8858946D01*
X49030000Y8745907D01*
X49598285Y8858946D01*
X50080054Y9180853D01*
X50300000Y9510026D01*
X50300000Y7430005D01*
X50299999Y7430000D01*
X50396673Y6943992D01*
X50671974Y6531974D01*
X50730000Y6473948D01*
X50730000Y5500000D01*
X50754890Y5374869D01*
X50754784Y5253441D01*
X50801563Y5140226D01*
X50826673Y5013992D01*
X50897555Y4907910D01*
X50943925Y4795685D01*
X51030467Y4708992D01*
X51101974Y4601974D01*
X51208057Y4531092D01*
X51293843Y4445156D01*
X51406974Y4398180D01*
X51513992Y4326673D01*
X51639126Y4301782D01*
X51751268Y4255217D01*
X51873764Y4255110D01*
X52000000Y4230000D01*
X52125131Y4254890D01*
X52246559Y4254784D01*
X52359774Y4301563D01*
X52486008Y4326673D01*
X52592090Y4397555D01*
X52704315Y4443925D01*
X52791008Y4530467D01*
X52898026Y4601974D01*
X52968908Y4708057D01*
X53054844Y4793843D01*
X53101820Y4906974D01*
X53173327Y5013992D01*
X53198218Y5139126D01*
X53244783Y5251268D01*
X53244890Y5373764D01*
X53270000Y5500000D01*
X53270000Y6118750D01*
X53300000Y6148750D01*
X53300000Y6812500D01*
X53700000Y6812500D01*
X53700000Y6148750D01*
X53858750Y5990000D01*
X54026309Y5990000D01*
X54259698Y6086673D01*
X54438327Y6265301D01*
X54535000Y6498690D01*
X54535000Y6653750D01*
X54376250Y6812500D01*
X53700000Y6812500D01*
X53300000Y6812500D01*
X53270000Y6812500D01*
X53270000Y6999995D01*
X53270001Y7000000D01*
X53232705Y7187500D01*
X53300000Y7187500D01*
X53300000Y7851250D01*
X53700000Y7851250D01*
X53700000Y7187500D01*
X54376250Y7187500D01*
X54535000Y7346250D01*
X54535000Y7501310D01*
X54438327Y7734699D01*
X54259698Y7913327D01*
X54026309Y8010000D01*
X53858750Y8010000D01*
X53700000Y7851250D01*
X53300000Y7851250D01*
X53141250Y8010000D01*
X52973691Y8010000D01*
X52841010Y7955042D01*
X52840000Y7956051D01*
X52840000Y9510026D01*
X52850610Y9525906D01*
X53038980Y9231306D01*
X53514171Y8899749D01*
X53569476Y8876867D01*
X53792500Y8972315D01*
X53792500Y9942500D01*
X54427500Y9942500D01*
X54427500Y8972315D01*
X54650524Y8876867D01*
X54705829Y8899749D01*
X55181020Y9231306D01*
X55380000Y9542499D01*
X55578980Y9231306D01*
X56054171Y8899749D01*
X56109476Y8876867D01*
X56332500Y8972315D01*
X56332500Y9942500D01*
X56967500Y9942500D01*
X56967500Y8972315D01*
X57190524Y8876867D01*
X57245829Y8899749D01*
X57721020Y9231306D01*
X58033158Y9719472D01*
X57941936Y9942500D01*
X56967500Y9942500D01*
X56332500Y9942500D01*
X54427500Y9942500D01*
X53792500Y9942500D01*
X53772500Y9942500D01*
X53772500Y10577500D01*
X53792500Y10577500D01*
X53792500Y10597500D01*
X54427500Y10597500D01*
X54427500Y10577500D01*
X56332500Y10577500D01*
X56332500Y10597500D01*
X56967500Y10597500D01*
X56967500Y10577500D01*
X57941936Y10577500D01*
X58033158Y10800528D01*
X57721020Y11288694D01*
X57658424Y11332370D01*
X57735317Y11346838D01*
X57951441Y11485910D01*
X58096431Y11698110D01*
X58147440Y11950000D01*
X58147440Y13650000D01*
X58103162Y13885317D01*
X57964090Y14101441D01*
X57751890Y14246431D01*
X57500000Y14297440D01*
X55800000Y14297440D01*
X55564683Y14253162D01*
X55348559Y14114090D01*
X55203569Y13901890D01*
X55189914Y13834459D01*
X55160054Y13879147D01*
X54678285Y14201054D01*
X54110000Y14314093D01*
X53541715Y14201054D01*
X53059946Y13879147D01*
X52840000Y13549974D01*
X52620054Y13879147D01*
X52138285Y14201054D01*
X51570000Y14314093D01*
X51060000Y14212648D01*
X51060000Y15559727D01*
X51070000Y15610000D01*
X51060000Y15660273D01*
X51060000Y15895198D01*
X52373592Y17208790D01*
X52740000Y17135907D01*
X53308285Y17248946D01*
X53790054Y17570853D01*
X53817850Y17612452D01*
X53826838Y17564683D01*
X53965910Y17348559D01*
X54178110Y17203569D01*
X54430000Y17152560D01*
X56130000Y17152560D01*
X56365317Y17196838D01*
X56581441Y17335910D01*
X56726431Y17548110D01*
X56777440Y17800000D01*
X56777440Y18428750D01*
X58615000Y18428750D01*
X58615000Y18148690D01*
X58711673Y17915301D01*
X58890302Y17736673D01*
X59123691Y17640000D01*
X59341250Y17640000D01*
X59500000Y17798750D01*
X59500000Y18587500D01*
X58773750Y18587500D01*
X58615000Y18428750D01*
X56777440Y18428750D01*
X56777440Y19500000D01*
X56748970Y19651310D01*
X58615000Y19651310D01*
X58615000Y19371250D01*
X58773750Y19212500D01*
X59500000Y19212500D01*
X59500000Y20001250D01*
X60000000Y20001250D01*
X60000000Y19212500D01*
X60087500Y19212500D01*
X60087500Y18587500D01*
X60000000Y18587500D01*
X60000000Y17798750D01*
X60158750Y17640000D01*
X60376309Y17640000D01*
X60609698Y17736673D01*
X60750936Y17877910D01*
X60785910Y17823559D01*
X60876830Y17761436D01*
X60830718Y17715405D01*
X60665189Y17316767D01*
X60664812Y16885127D01*
X60829646Y16486200D01*
X61134595Y16180718D01*
X61533233Y16015189D01*
X61964873Y16014812D01*
X62363800Y16179646D01*
X62669282Y16484595D01*
X62834811Y16883233D01*
X62835188Y17314873D01*
X62670354Y17713800D01*
X62623488Y17760748D01*
X62701441Y17810910D01*
X62846431Y18023110D01*
X62897440Y18275000D01*
X62897440Y19525000D01*
X62853162Y19760317D01*
X62714090Y19976441D01*
X62501890Y20121431D01*
X62250000Y20172440D01*
X61250000Y20172440D01*
X61014683Y20128162D01*
X60798559Y19989090D01*
X60752031Y19920994D01*
X60609698Y20063327D01*
X60376309Y20160000D01*
X60158750Y20160000D01*
X60000000Y20001250D01*
X59500000Y20001250D01*
X59341250Y20160000D01*
X59123691Y20160000D01*
X58890302Y20063327D01*
X58711673Y19884699D01*
X58615000Y19651310D01*
X56748970Y19651310D01*
X56733162Y19735317D01*
X56594090Y19951441D01*
X56381890Y20096431D01*
X56130000Y20147440D01*
X54430000Y20147440D01*
X54194683Y20103162D01*
X53978559Y19964090D01*
X53833569Y19751890D01*
X53819914Y19684459D01*
X53790054Y19729147D01*
X53308285Y20051054D01*
X52740000Y20164093D01*
X52373592Y20091210D01*
X51644551Y20820251D01*
X51397989Y20984998D01*
X51107150Y21042850D01*
X49273843Y21042850D01*
X48127000Y22189693D01*
X48127000Y28273750D01*
X48865000Y28273750D01*
X48865000Y21623690D01*
X48961673Y21390301D01*
X49140302Y21211673D01*
X49373691Y21115000D01*
X51398750Y21115000D01*
X51557500Y21273750D01*
X51557500Y28432500D01*
X52192500Y28432500D01*
X52192500Y21273750D01*
X52351250Y21115000D01*
X54376309Y21115000D01*
X54609698Y21211673D01*
X54788327Y21390301D01*
X54885000Y21623690D01*
X54885000Y28273750D01*
X54726250Y28432500D01*
X52192500Y28432500D01*
X51557500Y28432500D01*
X49023750Y28432500D01*
X48865000Y28273750D01*
X48127000Y28273750D01*
X48127000Y30383052D01*
X48131441Y30385910D01*
X48276431Y30598110D01*
X48327440Y30850000D01*
X48327440Y32550000D01*
X48283162Y32785317D01*
X48144090Y33001441D01*
X48127000Y33013118D01*
X48127000Y37402560D01*
X48900000Y37402560D01*
X49129462Y37445736D01*
X50190198Y36385000D01*
X49373691Y36385000D01*
X49140302Y36288327D01*
X48961673Y36109699D01*
X48865000Y35876310D01*
X48865000Y29226250D01*
X49023750Y29067500D01*
X51557500Y29067500D01*
X51557500Y29087500D01*
X52192500Y29087500D01*
X52192500Y29067500D01*
X54726250Y29067500D01*
X54885000Y29226250D01*
X54885000Y35876310D01*
X54788327Y36109699D01*
X54758026Y36140000D01*
X56261500Y36140000D01*
X56552339Y36197852D01*
X56798901Y36362599D01*
X58152401Y37716099D01*
X58311067Y37953561D01*
X58379110Y37907069D01*
X58379110Y37907069D01*
G37*
X58379110Y37907069D02*
X58631000Y37856060D01*
X59120000Y37856060D01*
X59120000Y36397440D01*
X58750000Y36397440D01*
X58514683Y36353162D01*
X58298559Y36214090D01*
X58153569Y36001890D01*
X58102560Y35750000D01*
X58102560Y21750000D01*
X58146838Y21514683D01*
X58285910Y21298559D01*
X58498110Y21153569D01*
X58750000Y21102560D01*
X63500000Y21102560D01*
X63735317Y21146838D01*
X63873000Y21235435D01*
X63873000Y12767012D01*
X63770774Y13014418D01*
X63018379Y13768127D01*
X62034824Y14176535D01*
X60969848Y14177464D01*
X59985582Y13770774D01*
X59231873Y13018379D01*
X58823465Y12034824D01*
X58822536Y10969848D01*
X59229226Y9985582D01*
X59981621Y9231873D01*
X60965176Y8823465D01*
X62030152Y8822536D01*
X63014418Y9229226D01*
X63768127Y9981621D01*
X63873000Y10234183D01*
X63873000Y2204678D01*
X63750704Y2500657D01*
X63501967Y2749829D01*
X63176810Y2884846D01*
X62824735Y2885153D01*
X62499343Y2750704D01*
X62250171Y2501967D01*
X62115154Y2176810D01*
X62114847Y1824735D01*
X62249296Y1499343D01*
X62498033Y1250171D01*
X62794662Y1127000D01*
X1127000Y1127000D01*
X1127000Y10232988D01*
X1229226Y9985582D01*
X1981621Y9231873D01*
X2965176Y8823465D01*
X4030152Y8822536D01*
X5014418Y9229226D01*
X5768127Y9981621D01*
X6176535Y10965176D01*
X6177464Y12030152D01*
X5770774Y13014418D01*
X5018379Y13768127D01*
X4034824Y14176535D01*
X2969848Y14177464D01*
X1985582Y13770774D01*
X1231873Y13018379D01*
X1127000Y12765817D01*
X1127000Y14873000D01*
X2721461Y14873000D01*
X2881862Y14712599D01*
X3128424Y14547852D01*
X3419263Y14490000D01*
X8165198Y14490000D01*
X8349217Y14305981D01*
X7821715Y14201054D01*
X7339946Y13879147D01*
X7018039Y13397378D01*
X6905000Y12829093D01*
X6905000Y12770907D01*
X7018039Y12202622D01*
X7339946Y11720853D01*
X7625578Y11530000D01*
X7339946Y11339147D01*
X7018039Y10857378D01*
X6905000Y10289093D01*
X6905000Y10230907D01*
X7018039Y9662622D01*
X7339946Y9180853D01*
X7821715Y8858946D01*
X8390000Y8745907D01*
X8958285Y8858946D01*
X9440054Y9180853D01*
X9660000Y9510026D01*
X9879946Y9180853D01*
X10361715Y8858946D01*
X10930000Y8745907D01*
X11498285Y8858946D01*
X11980054Y9180853D01*
X12200000Y9510026D01*
X12419946Y9180853D01*
X12901715Y8858946D01*
X13470000Y8745907D01*
X14038285Y8858946D01*
X14520054Y9180853D01*
X14740000Y9510026D01*
X14959946Y9180853D01*
X15441715Y8858946D01*
X15969217Y8754019D01*
X14825198Y7610000D01*
X13905105Y7610000D01*
X13814090Y7751441D01*
X13601890Y7896431D01*
X13350000Y7947440D01*
X12850000Y7947440D01*
X12614683Y7903162D01*
X12398559Y7764090D01*
X12350866Y7694289D01*
X12314090Y7751441D01*
X12101890Y7896431D01*
X11850000Y7947440D01*
X11350000Y7947440D01*
X11114683Y7903162D01*
X10898559Y7764090D01*
X10793274Y7610000D01*
X10757926Y7610000D01*
X10753162Y7635317D01*
X10614090Y7851441D01*
X10401890Y7996431D01*
X10150000Y8047440D01*
X8950000Y8047440D01*
X8714683Y8003162D01*
X8498559Y7864090D01*
X8450866Y7794289D01*
X8414090Y7851441D01*
X8201890Y7996431D01*
X7950000Y8047440D01*
X6750000Y8047440D01*
X6514683Y8003162D01*
X6298559Y7864090D01*
X6176493Y7685440D01*
X5816767Y7834811D01*
X5385127Y7835188D01*
X4986200Y7670354D01*
X4680718Y7365405D01*
X4515189Y6966767D01*
X4514812Y6535127D01*
X4679646Y6136200D01*
X4984595Y5830718D01*
X5383233Y5665189D01*
X5814873Y5664812D01*
X6213800Y5829646D01*
X6225936Y5841761D01*
X6285910Y5748559D01*
X6498110Y5603569D01*
X6750000Y5552560D01*
X7950000Y5552560D01*
X8185317Y5596838D01*
X8401441Y5735910D01*
X8449134Y5805711D01*
X8485910Y5748559D01*
X8698110Y5603569D01*
X8950000Y5552560D01*
X10150000Y5552560D01*
X10385317Y5596838D01*
X10601441Y5735910D01*
X10746431Y5948110D01*
X10775164Y6090000D01*
X10794895Y6090000D01*
X10885910Y5948559D01*
X11098110Y5803569D01*
X11350000Y5752560D01*
X11850000Y5752560D01*
X12085317Y5796838D01*
X12301441Y5935910D01*
X12349134Y6005711D01*
X12385910Y5948559D01*
X12598110Y5803569D01*
X12850000Y5752560D01*
X13350000Y5752560D01*
X13585317Y5796838D01*
X13801441Y5935910D01*
X13906726Y6090000D01*
X15140000Y6090000D01*
X15430839Y6147852D01*
X15558048Y6232850D01*
X14012599Y4687401D01*
X13919080Y4547440D01*
X13700000Y4547440D01*
X13464683Y4503162D01*
X13248559Y4364090D01*
X13103569Y4151890D01*
X13052560Y3900000D01*
X13052560Y2200000D01*
X13096838Y1964683D01*
X13235910Y1748559D01*
X13448110Y1603569D01*
X13700000Y1552560D01*
X15400000Y1552560D01*
X15635317Y1596838D01*
X15851441Y1735910D01*
X15996431Y1948110D01*
X16010086Y2015541D01*
X16039946Y1970853D01*
X16521715Y1648946D01*
X17090000Y1535907D01*
X17658285Y1648946D01*
X18140054Y1970853D01*
X18360000Y2300026D01*
X18579946Y1970853D01*
X19061715Y1648946D01*
X19630000Y1535907D01*
X20198285Y1648946D01*
X20680054Y1970853D01*
X20900000Y2300026D01*
X21119946Y1970853D01*
X21601715Y1648946D01*
X22170000Y1535907D01*
X22738285Y1648946D01*
X23220054Y1970853D01*
X23440000Y2300026D01*
X23659946Y1970853D01*
X24141715Y1648946D01*
X24710000Y1535907D01*
X25278285Y1648946D01*
X25760054Y1970853D01*
X25990610Y2315906D01*
X26178980Y2021306D01*
X26654171Y1689749D01*
X26709476Y1666867D01*
X26932500Y1762315D01*
X26932500Y2732500D01*
X26912500Y2732500D01*
X26912500Y3367500D01*
X26932500Y3367500D01*
X26932500Y3387500D01*
X27567500Y3387500D01*
X27567500Y3367500D01*
X27587500Y3367500D01*
X27587500Y2732500D01*
X27567500Y2732500D01*
X27567500Y1762315D01*
X27790524Y1666867D01*
X27845829Y1689749D01*
X28321020Y2021306D01*
X28509390Y2315906D01*
X28739946Y1970853D01*
X29221715Y1648946D01*
X29790000Y1535907D01*
X30358285Y1648946D01*
X30840054Y1970853D01*
X31060000Y2300026D01*
X31279946Y1970853D01*
X31761715Y1648946D01*
X32330000Y1535907D01*
X32898285Y1648946D01*
X33380054Y1970853D01*
X33701961Y2452622D01*
X33815000Y3020907D01*
X33815000Y3079093D01*
X33701961Y3647378D01*
X33380054Y4129147D01*
X32898285Y4451054D01*
X32330000Y4564093D01*
X31761715Y4451054D01*
X31279946Y4129147D01*
X31060000Y3799974D01*
X30840054Y4129147D01*
X30358285Y4451054D01*
X29951164Y4532035D01*
X30038646Y4588329D01*
X30040302Y4586673D01*
X30273691Y4490000D01*
X30441250Y4490000D01*
X30600000Y4648750D01*
X30600000Y5312500D01*
X31000000Y5312500D01*
X31000000Y4648750D01*
X31158750Y4490000D01*
X31326309Y4490000D01*
X31559698Y4586673D01*
X31738327Y4765301D01*
X31835000Y4998690D01*
X31835000Y5153750D01*
X31676250Y5312500D01*
X31000000Y5312500D01*
X30600000Y5312500D01*
X30462500Y5312500D01*
X30462500Y5687500D01*
X30600000Y5687500D01*
X30600000Y5837500D01*
X31000000Y5837500D01*
X31000000Y5687500D01*
X31676250Y5687500D01*
X31835000Y5846250D01*
X31835000Y6001310D01*
X31745260Y6217961D01*
X32012853Y6271190D01*
X32069044Y6282367D01*
X32356159Y6474210D01*
X32356160Y6474211D01*
X34415787Y8533839D01*
X34415790Y8533841D01*
X34607633Y8820956D01*
X34615190Y8858946D01*
X34654569Y9056916D01*
X34840054Y9180853D01*
X35060000Y9510026D01*
X35279946Y9180853D01*
X35761715Y8858946D01*
X36330000Y8745907D01*
X36898285Y8858946D01*
X37380054Y9180853D01*
X37600000Y9510026D01*
X37819946Y9180853D01*
X38301715Y8858946D01*
X38870000Y8745907D01*
X39438285Y8858946D01*
X39920054Y9180853D01*
X40140000Y9510026D01*
X40359946Y9180853D01*
X40841715Y8858946D01*
X41410000Y8745907D01*
X41978285Y8858946D01*
X42460054Y9180853D01*
X42680000Y9510026D01*
X42899946Y9180853D01*
X43381715Y8858946D01*
X43950000Y8745907D01*
X44518285Y8858946D01*
X45000054Y9180853D01*
X45220000Y9510026D01*
X45439946Y9180853D01*
X45921715Y8858946D01*
X46490000Y8745907D01*
X47058285Y8858946D01*
X47540054Y9180853D01*
X47760000Y9510026D01*
X47979946Y9180853D01*
X48461715Y8858946D01*
X49030000Y8745907D01*
X49598285Y8858946D01*
X50080054Y9180853D01*
X50300000Y9510026D01*
X50300000Y7430005D01*
X50299999Y7430000D01*
X50396673Y6943992D01*
X50671974Y6531974D01*
X50730000Y6473948D01*
X50730000Y5500000D01*
X50754890Y5374869D01*
X50754784Y5253441D01*
X50801563Y5140226D01*
X50826673Y5013992D01*
X50897555Y4907910D01*
X50943925Y4795685D01*
X51030467Y4708992D01*
X51101974Y4601974D01*
X51208057Y4531092D01*
X51293843Y4445156D01*
X51406974Y4398180D01*
X51513992Y4326673D01*
X51639126Y4301782D01*
X51751268Y4255217D01*
X51873764Y4255110D01*
X52000000Y4230000D01*
X52125131Y4254890D01*
X52246559Y4254784D01*
X52359774Y4301563D01*
X52486008Y4326673D01*
X52592090Y4397555D01*
X52704315Y4443925D01*
X52791008Y4530467D01*
X52898026Y4601974D01*
X52968908Y4708057D01*
X53054844Y4793843D01*
X53101820Y4906974D01*
X53173327Y5013992D01*
X53198218Y5139126D01*
X53244783Y5251268D01*
X53244890Y5373764D01*
X53270000Y5500000D01*
X53270000Y6118750D01*
X53300000Y6148750D01*
X53300000Y6812500D01*
X53700000Y6812500D01*
X53700000Y6148750D01*
X53858750Y5990000D01*
X54026309Y5990000D01*
X54259698Y6086673D01*
X54438327Y6265301D01*
X54535000Y6498690D01*
X54535000Y6653750D01*
X54376250Y6812500D01*
X53700000Y6812500D01*
X53300000Y6812500D01*
X53270000Y6812500D01*
X53270000Y6999995D01*
X53270001Y7000000D01*
X53232705Y7187500D01*
X53300000Y7187500D01*
X53300000Y7851250D01*
X53700000Y7851250D01*
X53700000Y7187500D01*
X54376250Y7187500D01*
X54535000Y7346250D01*
X54535000Y7501310D01*
X54438327Y7734699D01*
X54259698Y7913327D01*
X54026309Y8010000D01*
X53858750Y8010000D01*
X53700000Y7851250D01*
X53300000Y7851250D01*
X53141250Y8010000D01*
X52973691Y8010000D01*
X52841010Y7955042D01*
X52840000Y7956051D01*
X52840000Y9510026D01*
X52850610Y9525906D01*
X53038980Y9231306D01*
X53514171Y8899749D01*
X53569476Y8876867D01*
X53792500Y8972315D01*
X53792500Y9942500D01*
X54427500Y9942500D01*
X54427500Y8972315D01*
X54650524Y8876867D01*
X54705829Y8899749D01*
X55181020Y9231306D01*
X55380000Y9542499D01*
X55578980Y9231306D01*
X56054171Y8899749D01*
X56109476Y8876867D01*
X56332500Y8972315D01*
X56332500Y9942500D01*
X56967500Y9942500D01*
X56967500Y8972315D01*
X57190524Y8876867D01*
X57245829Y8899749D01*
X57721020Y9231306D01*
X58033158Y9719472D01*
X57941936Y9942500D01*
X56967500Y9942500D01*
X56332500Y9942500D01*
X54427500Y9942500D01*
X53792500Y9942500D01*
X53772500Y9942500D01*
X53772500Y10577500D01*
X53792500Y10577500D01*
X53792500Y10597500D01*
X54427500Y10597500D01*
X54427500Y10577500D01*
X56332500Y10577500D01*
X56332500Y10597500D01*
X56967500Y10597500D01*
X56967500Y10577500D01*
X57941936Y10577500D01*
X58033158Y10800528D01*
X57721020Y11288694D01*
X57658424Y11332370D01*
X57735317Y11346838D01*
X57951441Y11485910D01*
X58096431Y11698110D01*
X58147440Y11950000D01*
X58147440Y13650000D01*
X58103162Y13885317D01*
X57964090Y14101441D01*
X57751890Y14246431D01*
X57500000Y14297440D01*
X55800000Y14297440D01*
X55564683Y14253162D01*
X55348559Y14114090D01*
X55203569Y13901890D01*
X55189914Y13834459D01*
X55160054Y13879147D01*
X54678285Y14201054D01*
X54110000Y14314093D01*
X53541715Y14201054D01*
X53059946Y13879147D01*
X52840000Y13549974D01*
X52620054Y13879147D01*
X52138285Y14201054D01*
X51570000Y14314093D01*
X51060000Y14212648D01*
X51060000Y15559727D01*
X51070000Y15610000D01*
X51060000Y15660273D01*
X51060000Y15895198D01*
X52373592Y17208790D01*
X52740000Y17135907D01*
X53308285Y17248946D01*
X53790054Y17570853D01*
X53817850Y17612452D01*
X53826838Y17564683D01*
X53965910Y17348559D01*
X54178110Y17203569D01*
X54430000Y17152560D01*
X56130000Y17152560D01*
X56365317Y17196838D01*
X56581441Y17335910D01*
X56726431Y17548110D01*
X56777440Y17800000D01*
X56777440Y18428750D01*
X58615000Y18428750D01*
X58615000Y18148690D01*
X58711673Y17915301D01*
X58890302Y17736673D01*
X59123691Y17640000D01*
X59341250Y17640000D01*
X59500000Y17798750D01*
X59500000Y18587500D01*
X58773750Y18587500D01*
X58615000Y18428750D01*
X56777440Y18428750D01*
X56777440Y19500000D01*
X56748970Y19651310D01*
X58615000Y19651310D01*
X58615000Y19371250D01*
X58773750Y19212500D01*
X59500000Y19212500D01*
X59500000Y20001250D01*
X60000000Y20001250D01*
X60000000Y19212500D01*
X60087500Y19212500D01*
X60087500Y18587500D01*
X60000000Y18587500D01*
X60000000Y17798750D01*
X60158750Y17640000D01*
X60376309Y17640000D01*
X60609698Y17736673D01*
X60750936Y17877910D01*
X60785910Y17823559D01*
X60876830Y17761436D01*
X60830718Y17715405D01*
X60665189Y17316767D01*
X60664812Y16885127D01*
X60829646Y16486200D01*
X61134595Y16180718D01*
X61533233Y16015189D01*
X61964873Y16014812D01*
X62363800Y16179646D01*
X62669282Y16484595D01*
X62834811Y16883233D01*
X62835188Y17314873D01*
X62670354Y17713800D01*
X62623488Y17760748D01*
X62701441Y17810910D01*
X62846431Y18023110D01*
X62897440Y18275000D01*
X62897440Y19525000D01*
X62853162Y19760317D01*
X62714090Y19976441D01*
X62501890Y20121431D01*
X62250000Y20172440D01*
X61250000Y20172440D01*
X61014683Y20128162D01*
X60798559Y19989090D01*
X60752031Y19920994D01*
X60609698Y20063327D01*
X60376309Y20160000D01*
X60158750Y20160000D01*
X60000000Y20001250D01*
X59500000Y20001250D01*
X59341250Y20160000D01*
X59123691Y20160000D01*
X58890302Y20063327D01*
X58711673Y19884699D01*
X58615000Y19651310D01*
X56748970Y19651310D01*
X56733162Y19735317D01*
X56594090Y19951441D01*
X56381890Y20096431D01*
X56130000Y20147440D01*
X54430000Y20147440D01*
X54194683Y20103162D01*
X53978559Y19964090D01*
X53833569Y19751890D01*
X53819914Y19684459D01*
X53790054Y19729147D01*
X53308285Y20051054D01*
X52740000Y20164093D01*
X52373592Y20091210D01*
X51644551Y20820251D01*
X51397989Y20984998D01*
X51107150Y21042850D01*
X49273843Y21042850D01*
X48127000Y22189693D01*
X48127000Y28273750D01*
X48865000Y28273750D01*
X48865000Y21623690D01*
X48961673Y21390301D01*
X49140302Y21211673D01*
X49373691Y21115000D01*
X51398750Y21115000D01*
X51557500Y21273750D01*
X51557500Y28432500D01*
X52192500Y28432500D01*
X52192500Y21273750D01*
X52351250Y21115000D01*
X54376309Y21115000D01*
X54609698Y21211673D01*
X54788327Y21390301D01*
X54885000Y21623690D01*
X54885000Y28273750D01*
X54726250Y28432500D01*
X52192500Y28432500D01*
X51557500Y28432500D01*
X49023750Y28432500D01*
X48865000Y28273750D01*
X48127000Y28273750D01*
X48127000Y30383052D01*
X48131441Y30385910D01*
X48276431Y30598110D01*
X48327440Y30850000D01*
X48327440Y32550000D01*
X48283162Y32785317D01*
X48144090Y33001441D01*
X48127000Y33013118D01*
X48127000Y37402560D01*
X48900000Y37402560D01*
X49129462Y37445736D01*
X50190198Y36385000D01*
X49373691Y36385000D01*
X49140302Y36288327D01*
X48961673Y36109699D01*
X48865000Y35876310D01*
X48865000Y29226250D01*
X49023750Y29067500D01*
X51557500Y29067500D01*
X51557500Y29087500D01*
X52192500Y29087500D01*
X52192500Y29067500D01*
X54726250Y29067500D01*
X54885000Y29226250D01*
X54885000Y35876310D01*
X54788327Y36109699D01*
X54758026Y36140000D01*
X56261500Y36140000D01*
X56552339Y36197852D01*
X56798901Y36362599D01*
X58152401Y37716099D01*
X58311067Y37953561D01*
X58379110Y37907069D01*
G36*
X28648110Y4528569D02*
X28900000Y4477560D01*
X29354970Y4477560D01*
X29221715Y4451054D01*
X28739946Y4129147D01*
X28509390Y3784094D01*
X28321020Y4078694D01*
X27845829Y4410251D01*
X27790524Y4433133D01*
X27567502Y4337686D01*
X27567502Y4535000D01*
X27545574Y4535000D01*
X27625574Y4615000D01*
X28521614Y4615000D01*
X28648110Y4528569D01*
X28648110Y4528569D01*
G37*
X28648110Y4528569D02*
X28900000Y4477560D01*
X29354970Y4477560D01*
X29221715Y4451054D01*
X28739946Y4129147D01*
X28509390Y3784094D01*
X28321020Y4078694D01*
X27845829Y4410251D01*
X27790524Y4433133D01*
X27567502Y4337686D01*
X27567502Y4535000D01*
X27545574Y4535000D01*
X27625574Y4615000D01*
X28521614Y4615000D01*
X28648110Y4528569D01*
G36*
X63873000Y61767012D02*
X63770774Y62014418D01*
X63018379Y62768127D01*
X62034824Y63176535D01*
X60969848Y63177464D01*
X59985582Y62770774D01*
X59231873Y62018379D01*
X58823465Y61034824D01*
X58822536Y59969848D01*
X59229226Y58985582D01*
X59981621Y58231873D01*
X60965176Y57823465D01*
X62030152Y57822536D01*
X63014418Y58229226D01*
X63768127Y58981621D01*
X63873000Y59234183D01*
X63873000Y36263680D01*
X63751890Y36346431D01*
X63500000Y36397440D01*
X61190000Y36397440D01*
X61190000Y39063336D01*
X61261673Y38890302D01*
X61440301Y38711673D01*
X61673690Y38615000D01*
X61866250Y38615000D01*
X62025000Y38773750D01*
X62025000Y39375000D01*
X62475000Y39375000D01*
X62475000Y38773750D01*
X62633750Y38615000D01*
X62826310Y38615000D01*
X63059699Y38711673D01*
X63238327Y38890302D01*
X63335000Y39123691D01*
X63335000Y39216250D01*
X63176250Y39375000D01*
X62475000Y39375000D01*
X62025000Y39375000D01*
X61323750Y39375000D01*
X61165000Y39216250D01*
X61165000Y39200683D01*
X61111215Y39471077D01*
X61056440Y39553054D01*
X61056440Y39646500D01*
X61012162Y39881817D01*
X60873090Y40097941D01*
X60660890Y40242931D01*
X60409000Y40293940D01*
X59901000Y40293940D01*
X59665683Y40249662D01*
X59519093Y40155334D01*
X59390890Y40242931D01*
X59139000Y40293940D01*
X58631000Y40293940D01*
X58395683Y40249662D01*
X58249093Y40155334D01*
X58120890Y40242931D01*
X57869000Y40293940D01*
X57361000Y40293940D01*
X57125683Y40249662D01*
X56979093Y40155334D01*
X56850890Y40242931D01*
X56599000Y40293940D01*
X56091000Y40293940D01*
X55855683Y40249662D01*
X55639559Y40110590D01*
X55522440Y39939181D01*
X55522440Y40750000D01*
X55478162Y40985317D01*
X55339090Y41201441D01*
X55126890Y41346431D01*
X55085000Y41354914D01*
X55085000Y41843156D01*
X55151441Y41885910D01*
X55296431Y42098110D01*
X55347440Y42350000D01*
X55347440Y42850000D01*
X55303162Y43085317D01*
X55164090Y43301441D01*
X55094289Y43349134D01*
X55151441Y43385910D01*
X55296431Y43598110D01*
X55347440Y43850000D01*
X55347440Y44350000D01*
X55303162Y44585317D01*
X55167365Y44796352D01*
X55181155Y44810118D01*
X55339819Y45192224D01*
X55340180Y45605961D01*
X55182183Y45988343D01*
X54889882Y46281155D01*
X54507776Y46439819D01*
X54094039Y46440180D01*
X53711657Y46282183D01*
X53418845Y45989882D01*
X53260181Y45607776D01*
X53259820Y45194039D01*
X53402476Y44848785D01*
X53348559Y44814090D01*
X53203569Y44601890D01*
X53152560Y44350000D01*
X53152560Y43850000D01*
X53196838Y43614683D01*
X53335910Y43398559D01*
X53405711Y43350866D01*
X53348559Y43314090D01*
X53203569Y43101890D01*
X53152560Y42850000D01*
X53152560Y42350000D01*
X53196838Y42114683D01*
X53335910Y41898559D01*
X53415000Y41844519D01*
X53415000Y41357926D01*
X53389683Y41353162D01*
X53173559Y41214090D01*
X53028569Y41001890D01*
X52977560Y40750000D01*
X52977560Y39750000D01*
X53021838Y39514683D01*
X53160910Y39298559D01*
X53230711Y39250866D01*
X53173559Y39214090D01*
X53028569Y39001890D01*
X52977560Y38750000D01*
X52977560Y37750000D01*
X52994495Y37660000D01*
X51064802Y37660000D01*
X49687401Y39037401D01*
X49508502Y39156937D01*
X49503162Y39185317D01*
X49364090Y39401441D01*
X49362452Y39402560D01*
X49850000Y39402560D01*
X50085317Y39446838D01*
X50301441Y39585910D01*
X50446431Y39798110D01*
X50497440Y40050000D01*
X50497440Y40950000D01*
X50453162Y41185317D01*
X50314090Y41401441D01*
X50210000Y41472563D01*
X50210000Y42300000D01*
X50152148Y42590839D01*
X50147440Y42597885D01*
X50147440Y42950000D01*
X50103162Y43185317D01*
X49964090Y43401441D01*
X49751890Y43546431D01*
X49500000Y43597440D01*
X49000000Y43597440D01*
X48764683Y43553162D01*
X48548559Y43414090D01*
X48510000Y43357657D01*
X48510000Y43460781D01*
X48557413Y43508111D01*
X48703872Y43860824D01*
X48704206Y44242736D01*
X48558362Y44595704D01*
X48288546Y44865992D01*
X48271669Y44873000D01*
X53000000Y44873000D01*
X53049410Y44883006D01*
X53091035Y44911447D01*
X53118315Y44953841D01*
X53127000Y45000000D01*
X53127000Y50215000D01*
X53127169Y50215000D01*
X53155493Y50186626D01*
X53508206Y50040167D01*
X53890118Y50039833D01*
X54243086Y50185677D01*
X54513374Y50455493D01*
X54530000Y50495533D01*
X54530000Y50200005D01*
X54529999Y50200000D01*
X54626673Y49713992D01*
X54901974Y49301974D01*
X56160334Y48043615D01*
X56011657Y47982183D01*
X55718845Y47689882D01*
X55560181Y47307776D01*
X55559820Y46894039D01*
X55717817Y46511657D01*
X55718248Y46511225D01*
X55639559Y46460590D01*
X55494569Y46248390D01*
X55443560Y45996500D01*
X55443560Y44853500D01*
X55487838Y44618183D01*
X55585000Y44467189D01*
X55585000Y44055000D01*
X55642852Y43764161D01*
X55807599Y43517599D01*
X57362599Y41962599D01*
X57609161Y41797852D01*
X57900000Y41740000D01*
X61388824Y41740000D01*
X61348559Y41714090D01*
X61203569Y41501890D01*
X61152560Y41250000D01*
X61152560Y40750000D01*
X61196838Y40514683D01*
X61335910Y40298559D01*
X61404006Y40252031D01*
X61261673Y40109698D01*
X61165000Y39876309D01*
X61165000Y39783750D01*
X61323750Y39625000D01*
X62025000Y39625000D01*
X62025000Y39750000D01*
X62475000Y39750000D01*
X62475000Y39625000D01*
X63176250Y39625000D01*
X63335000Y39783750D01*
X63335000Y39876309D01*
X63238327Y40109698D01*
X63097090Y40250936D01*
X63151441Y40285910D01*
X63296431Y40498110D01*
X63347440Y40750000D01*
X63347440Y41250000D01*
X63303162Y41485317D01*
X63164090Y41701441D01*
X63094289Y41749134D01*
X63151441Y41785910D01*
X63296431Y41998110D01*
X63347440Y42250000D01*
X63347440Y42750000D01*
X63303162Y42985317D01*
X63164090Y43201441D01*
X63094289Y43249134D01*
X63151441Y43285910D01*
X63296431Y43498110D01*
X63347440Y43750000D01*
X63347440Y44250000D01*
X63303162Y44485317D01*
X63243045Y44578741D01*
X63514018Y44849241D01*
X63735995Y45383821D01*
X63736500Y45962656D01*
X63515456Y46497622D01*
X63362049Y46651297D01*
X63504844Y46793843D01*
X63694783Y47251268D01*
X63695216Y47746559D01*
X63506075Y48204315D01*
X63156157Y48554844D01*
X62698732Y48744783D01*
X62203441Y48745216D01*
X61745685Y48556075D01*
X61582207Y48392882D01*
X61464090Y48576441D01*
X61251890Y48721431D01*
X61000000Y48772440D01*
X60000000Y48772440D01*
X59764683Y48728162D01*
X59548559Y48589090D01*
X59500866Y48519289D01*
X59464090Y48576441D01*
X59251890Y48721431D01*
X59029607Y48766445D01*
X57070000Y50726052D01*
X57070000Y51802560D01*
X57550000Y51802560D01*
X57785317Y51846838D01*
X58001441Y51985910D01*
X58146431Y52198110D01*
X58197440Y52450000D01*
X58197440Y54050000D01*
X58802560Y54050000D01*
X58802560Y52450000D01*
X58846838Y52214683D01*
X58985910Y51998559D01*
X59198110Y51853569D01*
X59450000Y51802560D01*
X60191727Y51802560D01*
X60095156Y51706157D01*
X59905217Y51248732D01*
X59904784Y50753441D01*
X60093925Y50295685D01*
X60443843Y49945156D01*
X60901268Y49755217D01*
X61396559Y49754784D01*
X61854315Y49943925D01*
X62204844Y50293843D01*
X62394783Y50751268D01*
X62395216Y51246559D01*
X62206075Y51704315D01*
X62108001Y51802560D01*
X62950000Y51802560D01*
X63185317Y51846838D01*
X63401441Y51985910D01*
X63546431Y52198110D01*
X63597440Y52450000D01*
X63597440Y54050000D01*
X63553162Y54285317D01*
X63414090Y54501441D01*
X63201890Y54646431D01*
X62950000Y54697440D01*
X59450000Y54697440D01*
X59214683Y54653162D01*
X58998559Y54514090D01*
X58853569Y54301890D01*
X58802560Y54050000D01*
X58197440Y54050000D01*
X58153162Y54285317D01*
X58014090Y54501441D01*
X57801890Y54646431D01*
X57636031Y54680018D01*
X57636031Y67761054D01*
X57848155Y67973177D01*
X57981515Y68028281D01*
X58470004Y68515918D01*
X58734699Y69153373D01*
X58734701Y69156401D01*
X60264699Y69156401D01*
X60528281Y68518485D01*
X61015918Y68029996D01*
X61653373Y67765301D01*
X62343599Y67764699D01*
X62981515Y68028281D01*
X63470004Y68515918D01*
X63734699Y69153373D01*
X63735301Y69843599D01*
X63471719Y70481515D01*
X62984082Y70970004D01*
X62346627Y71234699D01*
X61656401Y71235301D01*
X61018485Y70971719D01*
X60529996Y70484082D01*
X60265301Y69846627D01*
X60264699Y69156401D01*
X58734701Y69156401D01*
X58735301Y69843599D01*
X58471719Y70481515D01*
X57984082Y70970004D01*
X57346627Y71234699D01*
X56656401Y71235301D01*
X56018485Y70971719D01*
X55529996Y70484082D01*
X55265301Y69846627D01*
X55265257Y69795893D01*
X54062599Y68593235D01*
X53897852Y68346673D01*
X53840000Y68055834D01*
X53840000Y64205105D01*
X53698559Y64114090D01*
X53553569Y63901890D01*
X53502560Y63650000D01*
X53502560Y63150000D01*
X53546838Y62914683D01*
X53685910Y62698559D01*
X53742343Y62660000D01*
X53127000Y62660000D01*
X53127000Y73873000D01*
X63873000Y73873000D01*
X63873000Y61767012D01*
X63873000Y61767012D01*
G37*
X63873000Y61767012D02*
X63770774Y62014418D01*
X63018379Y62768127D01*
X62034824Y63176535D01*
X60969848Y63177464D01*
X59985582Y62770774D01*
X59231873Y62018379D01*
X58823465Y61034824D01*
X58822536Y59969848D01*
X59229226Y58985582D01*
X59981621Y58231873D01*
X60965176Y57823465D01*
X62030152Y57822536D01*
X63014418Y58229226D01*
X63768127Y58981621D01*
X63873000Y59234183D01*
X63873000Y36263680D01*
X63751890Y36346431D01*
X63500000Y36397440D01*
X61190000Y36397440D01*
X61190000Y39063336D01*
X61261673Y38890302D01*
X61440301Y38711673D01*
X61673690Y38615000D01*
X61866250Y38615000D01*
X62025000Y38773750D01*
X62025000Y39375000D01*
X62475000Y39375000D01*
X62475000Y38773750D01*
X62633750Y38615000D01*
X62826310Y38615000D01*
X63059699Y38711673D01*
X63238327Y38890302D01*
X63335000Y39123691D01*
X63335000Y39216250D01*
X63176250Y39375000D01*
X62475000Y39375000D01*
X62025000Y39375000D01*
X61323750Y39375000D01*
X61165000Y39216250D01*
X61165000Y39200683D01*
X61111215Y39471077D01*
X61056440Y39553054D01*
X61056440Y39646500D01*
X61012162Y39881817D01*
X60873090Y40097941D01*
X60660890Y40242931D01*
X60409000Y40293940D01*
X59901000Y40293940D01*
X59665683Y40249662D01*
X59519093Y40155334D01*
X59390890Y40242931D01*
X59139000Y40293940D01*
X58631000Y40293940D01*
X58395683Y40249662D01*
X58249093Y40155334D01*
X58120890Y40242931D01*
X57869000Y40293940D01*
X57361000Y40293940D01*
X57125683Y40249662D01*
X56979093Y40155334D01*
X56850890Y40242931D01*
X56599000Y40293940D01*
X56091000Y40293940D01*
X55855683Y40249662D01*
X55639559Y40110590D01*
X55522440Y39939181D01*
X55522440Y40750000D01*
X55478162Y40985317D01*
X55339090Y41201441D01*
X55126890Y41346431D01*
X55085000Y41354914D01*
X55085000Y41843156D01*
X55151441Y41885910D01*
X55296431Y42098110D01*
X55347440Y42350000D01*
X55347440Y42850000D01*
X55303162Y43085317D01*
X55164090Y43301441D01*
X55094289Y43349134D01*
X55151441Y43385910D01*
X55296431Y43598110D01*
X55347440Y43850000D01*
X55347440Y44350000D01*
X55303162Y44585317D01*
X55167365Y44796352D01*
X55181155Y44810118D01*
X55339819Y45192224D01*
X55340180Y45605961D01*
X55182183Y45988343D01*
X54889882Y46281155D01*
X54507776Y46439819D01*
X54094039Y46440180D01*
X53711657Y46282183D01*
X53418845Y45989882D01*
X53260181Y45607776D01*
X53259820Y45194039D01*
X53402476Y44848785D01*
X53348559Y44814090D01*
X53203569Y44601890D01*
X53152560Y44350000D01*
X53152560Y43850000D01*
X53196838Y43614683D01*
X53335910Y43398559D01*
X53405711Y43350866D01*
X53348559Y43314090D01*
X53203569Y43101890D01*
X53152560Y42850000D01*
X53152560Y42350000D01*
X53196838Y42114683D01*
X53335910Y41898559D01*
X53415000Y41844519D01*
X53415000Y41357926D01*
X53389683Y41353162D01*
X53173559Y41214090D01*
X53028569Y41001890D01*
X52977560Y40750000D01*
X52977560Y39750000D01*
X53021838Y39514683D01*
X53160910Y39298559D01*
X53230711Y39250866D01*
X53173559Y39214090D01*
X53028569Y39001890D01*
X52977560Y38750000D01*
X52977560Y37750000D01*
X52994495Y37660000D01*
X51064802Y37660000D01*
X49687401Y39037401D01*
X49508502Y39156937D01*
X49503162Y39185317D01*
X49364090Y39401441D01*
X49362452Y39402560D01*
X49850000Y39402560D01*
X50085317Y39446838D01*
X50301441Y39585910D01*
X50446431Y39798110D01*
X50497440Y40050000D01*
X50497440Y40950000D01*
X50453162Y41185317D01*
X50314090Y41401441D01*
X50210000Y41472563D01*
X50210000Y42300000D01*
X50152148Y42590839D01*
X50147440Y42597885D01*
X50147440Y42950000D01*
X50103162Y43185317D01*
X49964090Y43401441D01*
X49751890Y43546431D01*
X49500000Y43597440D01*
X49000000Y43597440D01*
X48764683Y43553162D01*
X48548559Y43414090D01*
X48510000Y43357657D01*
X48510000Y43460781D01*
X48557413Y43508111D01*
X48703872Y43860824D01*
X48704206Y44242736D01*
X48558362Y44595704D01*
X48288546Y44865992D01*
X48271669Y44873000D01*
X53000000Y44873000D01*
X53049410Y44883006D01*
X53091035Y44911447D01*
X53118315Y44953841D01*
X53127000Y45000000D01*
X53127000Y50215000D01*
X53127169Y50215000D01*
X53155493Y50186626D01*
X53508206Y50040167D01*
X53890118Y50039833D01*
X54243086Y50185677D01*
X54513374Y50455493D01*
X54530000Y50495533D01*
X54530000Y50200005D01*
X54529999Y50200000D01*
X54626673Y49713992D01*
X54901974Y49301974D01*
X56160334Y48043615D01*
X56011657Y47982183D01*
X55718845Y47689882D01*
X55560181Y47307776D01*
X55559820Y46894039D01*
X55717817Y46511657D01*
X55718248Y46511225D01*
X55639559Y46460590D01*
X55494569Y46248390D01*
X55443560Y45996500D01*
X55443560Y44853500D01*
X55487838Y44618183D01*
X55585000Y44467189D01*
X55585000Y44055000D01*
X55642852Y43764161D01*
X55807599Y43517599D01*
X57362599Y41962599D01*
X57609161Y41797852D01*
X57900000Y41740000D01*
X61388824Y41740000D01*
X61348559Y41714090D01*
X61203569Y41501890D01*
X61152560Y41250000D01*
X61152560Y40750000D01*
X61196838Y40514683D01*
X61335910Y40298559D01*
X61404006Y40252031D01*
X61261673Y40109698D01*
X61165000Y39876309D01*
X61165000Y39783750D01*
X61323750Y39625000D01*
X62025000Y39625000D01*
X62025000Y39750000D01*
X62475000Y39750000D01*
X62475000Y39625000D01*
X63176250Y39625000D01*
X63335000Y39783750D01*
X63335000Y39876309D01*
X63238327Y40109698D01*
X63097090Y40250936D01*
X63151441Y40285910D01*
X63296431Y40498110D01*
X63347440Y40750000D01*
X63347440Y41250000D01*
X63303162Y41485317D01*
X63164090Y41701441D01*
X63094289Y41749134D01*
X63151441Y41785910D01*
X63296431Y41998110D01*
X63347440Y42250000D01*
X63347440Y42750000D01*
X63303162Y42985317D01*
X63164090Y43201441D01*
X63094289Y43249134D01*
X63151441Y43285910D01*
X63296431Y43498110D01*
X63347440Y43750000D01*
X63347440Y44250000D01*
X63303162Y44485317D01*
X63243045Y44578741D01*
X63514018Y44849241D01*
X63735995Y45383821D01*
X63736500Y45962656D01*
X63515456Y46497622D01*
X63362049Y46651297D01*
X63504844Y46793843D01*
X63694783Y47251268D01*
X63695216Y47746559D01*
X63506075Y48204315D01*
X63156157Y48554844D01*
X62698732Y48744783D01*
X62203441Y48745216D01*
X61745685Y48556075D01*
X61582207Y48392882D01*
X61464090Y48576441D01*
X61251890Y48721431D01*
X61000000Y48772440D01*
X60000000Y48772440D01*
X59764683Y48728162D01*
X59548559Y48589090D01*
X59500866Y48519289D01*
X59464090Y48576441D01*
X59251890Y48721431D01*
X59029607Y48766445D01*
X57070000Y50726052D01*
X57070000Y51802560D01*
X57550000Y51802560D01*
X57785317Y51846838D01*
X58001441Y51985910D01*
X58146431Y52198110D01*
X58197440Y52450000D01*
X58197440Y54050000D01*
X58802560Y54050000D01*
X58802560Y52450000D01*
X58846838Y52214683D01*
X58985910Y51998559D01*
X59198110Y51853569D01*
X59450000Y51802560D01*
X60191727Y51802560D01*
X60095156Y51706157D01*
X59905217Y51248732D01*
X59904784Y50753441D01*
X60093925Y50295685D01*
X60443843Y49945156D01*
X60901268Y49755217D01*
X61396559Y49754784D01*
X61854315Y49943925D01*
X62204844Y50293843D01*
X62394783Y50751268D01*
X62395216Y51246559D01*
X62206075Y51704315D01*
X62108001Y51802560D01*
X62950000Y51802560D01*
X63185317Y51846838D01*
X63401441Y51985910D01*
X63546431Y52198110D01*
X63597440Y52450000D01*
X63597440Y54050000D01*
X63553162Y54285317D01*
X63414090Y54501441D01*
X63201890Y54646431D01*
X62950000Y54697440D01*
X59450000Y54697440D01*
X59214683Y54653162D01*
X58998559Y54514090D01*
X58853569Y54301890D01*
X58802560Y54050000D01*
X58197440Y54050000D01*
X58153162Y54285317D01*
X58014090Y54501441D01*
X57801890Y54646431D01*
X57636031Y54680018D01*
X57636031Y67761054D01*
X57848155Y67973177D01*
X57981515Y68028281D01*
X58470004Y68515918D01*
X58734699Y69153373D01*
X58734701Y69156401D01*
X60264699Y69156401D01*
X60528281Y68518485D01*
X61015918Y68029996D01*
X61653373Y67765301D01*
X62343599Y67764699D01*
X62981515Y68028281D01*
X63470004Y68515918D01*
X63734699Y69153373D01*
X63735301Y69843599D01*
X63471719Y70481515D01*
X62984082Y70970004D01*
X62346627Y71234699D01*
X61656401Y71235301D01*
X61018485Y70971719D01*
X60529996Y70484082D01*
X60265301Y69846627D01*
X60264699Y69156401D01*
X58734701Y69156401D01*
X58735301Y69843599D01*
X58471719Y70481515D01*
X57984082Y70970004D01*
X57346627Y71234699D01*
X56656401Y71235301D01*
X56018485Y70971719D01*
X55529996Y70484082D01*
X55265301Y69846627D01*
X55265257Y69795893D01*
X54062599Y68593235D01*
X53897852Y68346673D01*
X53840000Y68055834D01*
X53840000Y64205105D01*
X53698559Y64114090D01*
X53553569Y63901890D01*
X53502560Y63650000D01*
X53502560Y63150000D01*
X53546838Y62914683D01*
X53685910Y62698559D01*
X53742343Y62660000D01*
X53127000Y62660000D01*
X53127000Y73873000D01*
X63873000Y73873000D01*
X63873000Y61767012D01*
G36*
X22185910Y43398559D02*
X22244675Y43358406D01*
X22103569Y43151890D01*
X22052560Y42900000D01*
X22052560Y42100000D01*
X22096838Y41864683D01*
X22235910Y41648559D01*
X22375750Y41553010D01*
X22340302Y41538327D01*
X22161673Y41359699D01*
X22065000Y41126310D01*
X22065000Y40958750D01*
X22223750Y40800000D01*
X22925000Y40800000D01*
X22925000Y40937500D01*
X23375000Y40937500D01*
X23375000Y40800000D01*
X24076250Y40800000D01*
X24133680Y40857430D01*
X24235910Y40698559D01*
X24390000Y40593274D01*
X24390000Y39697440D01*
X24300000Y39697440D01*
X24064683Y39653162D01*
X23848559Y39514090D01*
X23800866Y39444289D01*
X23764090Y39501441D01*
X23671068Y39565000D01*
X23726309Y39565000D01*
X23959698Y39661673D01*
X24138327Y39840301D01*
X24235000Y40073690D01*
X24235000Y40241250D01*
X24076250Y40400000D01*
X23375000Y40400000D01*
X23375000Y40262500D01*
X22925000Y40262500D01*
X22925000Y40400000D01*
X22223750Y40400000D01*
X22065000Y40241250D01*
X22065000Y40073690D01*
X22161673Y39840301D01*
X22340302Y39661673D01*
X22484858Y39601796D01*
X22348559Y39514090D01*
X22203569Y39301890D01*
X22152560Y39050000D01*
X22152560Y38150000D01*
X22196838Y37914683D01*
X22216339Y37884378D01*
X22077004Y37548822D01*
X22076670Y37166910D01*
X22222514Y36813942D01*
X22492330Y36543654D01*
X22511290Y36535781D01*
X22447852Y36440839D01*
X22390000Y36150000D01*
X22390000Y33424833D01*
X22256005Y33290838D01*
X22174176Y33372810D01*
X21821463Y33519269D01*
X21439551Y33519603D01*
X21086583Y33373759D01*
X20816295Y33103943D01*
X20669836Y32751230D01*
X20669800Y32709725D01*
X20669484Y32709409D01*
X20651890Y32721431D01*
X20400000Y32772440D01*
X19600000Y32772440D01*
X19364683Y32728162D01*
X19261354Y32661671D01*
X19259698Y32663327D01*
X19026309Y32760000D01*
X18858750Y32760000D01*
X18700000Y32601250D01*
X18700000Y31937500D01*
X18837500Y31937500D01*
X18837500Y31562500D01*
X18700000Y31562500D01*
X18700000Y30898750D01*
X18822725Y30776025D01*
X18740000Y30576309D01*
X18740000Y30358750D01*
X18898750Y30200000D01*
X19227560Y30200000D01*
X19227560Y29700000D01*
X18898750Y29700000D01*
X18740000Y29541250D01*
X18740000Y29323691D01*
X18836673Y29090302D01*
X19015301Y28911673D01*
X19248690Y28815000D01*
X19278750Y28815000D01*
X19437500Y28973750D01*
X19437500Y28980391D01*
X19623110Y28853569D01*
X19697808Y28838442D01*
X19721250Y28815000D01*
X19751310Y28815000D01*
X19771753Y28823468D01*
X19875000Y28802560D01*
X20125000Y28802560D01*
X20254589Y28826944D01*
X20375000Y28802560D01*
X20625000Y28802560D01*
X20754589Y28826944D01*
X20875000Y28802560D01*
X21125000Y28802560D01*
X21254589Y28826944D01*
X21375000Y28802560D01*
X21625000Y28802560D01*
X21754589Y28826944D01*
X21875000Y28802560D01*
X22125000Y28802560D01*
X22254589Y28826944D01*
X22375000Y28802560D01*
X22625000Y28802560D01*
X22724089Y28821205D01*
X22621340Y28573757D01*
X22621006Y28191845D01*
X22766850Y27838877D01*
X22896578Y27708922D01*
X22861086Y27530494D01*
X22861086Y27290116D01*
X22807712Y27236835D01*
X22673509Y26913638D01*
X22189623Y27397524D01*
X21943061Y27562271D01*
X21652222Y27620123D01*
X20540094Y27620123D01*
X20486813Y27673497D01*
X20134100Y27819956D01*
X19752188Y27820290D01*
X19399220Y27674446D01*
X19128932Y27404630D01*
X19045761Y27204332D01*
X18706914Y27064323D01*
X18697440Y27054866D01*
X18697440Y27125000D01*
X18673056Y27254589D01*
X18697440Y27375000D01*
X18697440Y27625000D01*
X18677550Y27730705D01*
X18685000Y27748690D01*
X18685000Y27778750D01*
X18664688Y27799062D01*
X18653162Y27860317D01*
X18523061Y28062500D01*
X18526250Y28062500D01*
X18685000Y28221250D01*
X18685000Y28251310D01*
X18588327Y28484699D01*
X18409698Y28663327D01*
X18176309Y28760000D01*
X17958750Y28760000D01*
X17800000Y28601250D01*
X17800000Y28272440D01*
X17300000Y28272440D01*
X17300000Y28601250D01*
X17141250Y28760000D01*
X16923691Y28760000D01*
X16710000Y28671486D01*
X16710000Y28826309D01*
X16613327Y29059698D01*
X16611957Y29061068D01*
X16671431Y29148110D01*
X16722440Y29400000D01*
X16722440Y30200000D01*
X16719308Y30216645D01*
X17113800Y30379646D01*
X17419282Y30684595D01*
X17559141Y31021413D01*
X17561673Y31015301D01*
X17740302Y30836673D01*
X17973691Y30740000D01*
X18141250Y30740000D01*
X18300000Y30898750D01*
X18300000Y31562500D01*
X18162500Y31562500D01*
X18162500Y31937500D01*
X18300000Y31937500D01*
X18300000Y32601250D01*
X18141250Y32760000D01*
X17973691Y32760000D01*
X17740302Y32663327D01*
X17561673Y32484699D01*
X17465000Y32251310D01*
X17465000Y32096250D01*
X17493748Y32067502D01*
X17465000Y32067502D01*
X17465000Y31805749D01*
X17420354Y31913800D01*
X17115405Y32219282D01*
X16716767Y32384811D01*
X16285127Y32385188D01*
X15886200Y32220354D01*
X15580718Y31915405D01*
X15415189Y31516767D01*
X15415022Y31325180D01*
X15144921Y31055079D01*
X14974755Y30800407D01*
X14958514Y30718757D01*
X14873559Y30664090D01*
X14728569Y30451890D01*
X14677560Y30200000D01*
X14677560Y29400000D01*
X14721838Y29164683D01*
X14788329Y29061354D01*
X14786673Y29059698D01*
X14690000Y28826309D01*
X14690000Y28658750D01*
X14848750Y28500000D01*
X15512500Y28500000D01*
X15512500Y28637500D01*
X15887500Y28637500D01*
X15887500Y28500000D01*
X16037500Y28500000D01*
X16037500Y28100000D01*
X15887500Y28100000D01*
X15887500Y27962500D01*
X15512500Y27962500D01*
X15512500Y28100000D01*
X14848750Y28100000D01*
X14690000Y27941250D01*
X14690000Y27773691D01*
X14695671Y27760000D01*
X12935097Y27760000D01*
X12935197Y27874775D01*
X12762767Y28292086D01*
X12560000Y28495207D01*
X12560000Y29400000D01*
X12502148Y29690839D01*
X12497440Y29697885D01*
X12497440Y30125000D01*
X12456160Y30344382D01*
X12666364Y30554219D01*
X12825028Y30936325D01*
X12825389Y31350062D01*
X12667392Y31732444D01*
X12375091Y32025256D01*
X11992985Y32183920D01*
X11579248Y32184281D01*
X11196866Y32026284D01*
X11099513Y31929101D01*
X10729061Y31929101D01*
X10729056Y31929102D01*
X10428650Y31869346D01*
X10173977Y31699180D01*
X9394921Y30920124D01*
X9230432Y30673948D01*
X9098559Y30589090D01*
X8953569Y30376890D01*
X8902560Y30125000D01*
X8902560Y29375000D01*
X8946838Y29139683D01*
X9085910Y28923559D01*
X9215000Y28835356D01*
X9215000Y24581844D01*
X9148559Y24539090D01*
X9003569Y24326890D01*
X8952560Y24075000D01*
X8952560Y23325000D01*
X8960235Y23284213D01*
X6286655Y23284213D01*
X6189882Y23381155D01*
X5807776Y23539819D01*
X5394039Y23540180D01*
X5011657Y23382183D01*
X4718845Y23089882D01*
X4560181Y22707776D01*
X4559820Y22294039D01*
X4717817Y21911657D01*
X4983179Y21645831D01*
X3561145Y21645831D01*
X3532821Y21674205D01*
X3180108Y21820664D01*
X2798196Y21820998D01*
X2445228Y21675154D01*
X2174940Y21405338D01*
X2028481Y21052625D01*
X2028147Y20670713D01*
X2173991Y20317745D01*
X2443807Y20047457D01*
X2796520Y19900998D01*
X3178432Y19900664D01*
X3531400Y20046508D01*
X3560774Y20075831D01*
X11485831Y20075831D01*
X11786238Y20135586D01*
X12040910Y20305752D01*
X12726408Y20991250D01*
X13140000Y20991250D01*
X13140000Y20823691D01*
X13236673Y20590302D01*
X13415301Y20411673D01*
X13648690Y20315000D01*
X13803750Y20315000D01*
X13962500Y20473750D01*
X13962500Y21150000D01*
X14337500Y21150000D01*
X14337500Y20473750D01*
X14496250Y20315000D01*
X14651310Y20315000D01*
X14884699Y20411673D01*
X14900000Y20426974D01*
X14915301Y20411673D01*
X15148690Y20315000D01*
X15303750Y20315000D01*
X15462500Y20473750D01*
X15462500Y21150000D01*
X14337500Y21150000D01*
X13962500Y21150000D01*
X13298750Y21150000D01*
X13140000Y20991250D01*
X12726408Y20991250D01*
X13291954Y21556796D01*
X13298750Y21550000D01*
X13962500Y21550000D01*
X13962500Y21687500D01*
X14337500Y21687500D01*
X14337500Y21550000D01*
X15462500Y21550000D01*
X15462500Y21687500D01*
X15837500Y21687500D01*
X15837500Y21550000D01*
X15987500Y21550000D01*
X15987500Y21150000D01*
X15837500Y21150000D01*
X15837500Y20473750D01*
X15996250Y20315000D01*
X16151310Y20315000D01*
X16384699Y20411673D01*
X16402560Y20429534D01*
X16402560Y20375000D01*
X16446838Y20139683D01*
X16585910Y19923559D01*
X16798110Y19778569D01*
X17050000Y19727560D01*
X18050000Y19727560D01*
X18116113Y19740000D01*
X18543248Y19740000D01*
X18834087Y19797852D01*
X19080649Y19962599D01*
X19951992Y20833942D01*
X19828455Y20536431D01*
X19828121Y20154519D01*
X19973965Y19801551D01*
X20077894Y19697440D01*
X19875000Y19697440D01*
X19745411Y19673056D01*
X19625000Y19697440D01*
X19375000Y19697440D01*
X19139683Y19653162D01*
X18923559Y19514090D01*
X18778569Y19301890D01*
X18765205Y19235895D01*
X18542967Y19087401D01*
X17990566Y18535000D01*
X10617334Y18535000D01*
X10603162Y18610317D01*
X10464090Y18826441D01*
X10251890Y18971431D01*
X10000000Y19022440D01*
X9100000Y19022440D01*
X8864683Y18978162D01*
X8648559Y18839090D01*
X8503569Y18626890D01*
X8484961Y18535000D01*
X7947831Y18535000D01*
X7919507Y18563374D01*
X7566794Y18709833D01*
X7238941Y18710120D01*
X7164090Y18826441D01*
X6951890Y18971431D01*
X6700000Y19022440D01*
X5800000Y19022440D01*
X5564683Y18978162D01*
X5348559Y18839090D01*
X5222447Y18654519D01*
X4911325Y18592633D01*
X4624210Y18400790D01*
X4624208Y18400787D01*
X4618427Y18395006D01*
X4378441Y18395216D01*
X3920685Y18206075D01*
X3570156Y17856157D01*
X3380217Y17398732D01*
X3379784Y16903441D01*
X3568925Y16445685D01*
X3887055Y16127000D01*
X3617065Y16127000D01*
X1650763Y18093302D01*
X1650763Y28664784D01*
X1784595Y28530718D01*
X2183233Y28365189D01*
X2614873Y28364812D01*
X3013800Y28529646D01*
X3149391Y28665000D01*
X4200000Y28665000D01*
X4500407Y28724755D01*
X4755079Y28894921D01*
X5505079Y29644921D01*
X5675245Y29899593D01*
X5725564Y30152560D01*
X6300000Y30152560D01*
X6535317Y30196838D01*
X6751441Y30335910D01*
X6797969Y30404006D01*
X6940301Y30261673D01*
X7173690Y30165000D01*
X7366250Y30165000D01*
X7525000Y30323750D01*
X7525000Y30925000D01*
X7975000Y30925000D01*
X7975000Y30323750D01*
X8133750Y30165000D01*
X8326310Y30165000D01*
X8559699Y30261673D01*
X8738327Y30440302D01*
X8835000Y30673691D01*
X8835000Y30766250D01*
X8676250Y30925000D01*
X7975000Y30925000D01*
X7525000Y30925000D01*
X7412500Y30925000D01*
X7412500Y31175000D01*
X7525000Y31175000D01*
X7525000Y31300000D01*
X7975000Y31300000D01*
X7975000Y31175000D01*
X8676250Y31175000D01*
X8835000Y31333750D01*
X8835000Y31426309D01*
X8738327Y31659698D01*
X8597090Y31800936D01*
X8651441Y31835910D01*
X8796431Y32048110D01*
X8847440Y32300000D01*
X8847440Y32563016D01*
X14020696Y32563016D01*
X14033551Y32560459D01*
X14324390Y32618311D01*
X14424795Y32685399D01*
X14548668Y32685291D01*
X14901636Y32831135D01*
X15063615Y32992831D01*
X19037402Y32992831D01*
X19090683Y32939457D01*
X19443396Y32792998D01*
X19825308Y32792664D01*
X20178276Y32938508D01*
X20448564Y33208324D01*
X20595023Y33561037D01*
X20595357Y33942949D01*
X20449513Y34295917D01*
X20179697Y34566205D01*
X20147440Y34579599D01*
X20147440Y35500000D01*
X20103162Y35735317D01*
X19964090Y35951441D01*
X19894289Y35999134D01*
X19951441Y36035910D01*
X20096431Y36248110D01*
X20147440Y36500000D01*
X20147440Y37500000D01*
X20103162Y37735317D01*
X19964090Y37951441D01*
X19894289Y37999134D01*
X19951441Y38035910D01*
X20096431Y38248110D01*
X20147440Y38500000D01*
X20147440Y39276567D01*
X20254444Y39297852D01*
X20501006Y39462599D01*
X20967945Y39929538D01*
X21132692Y40176099D01*
X21152324Y40274797D01*
X21190544Y40466939D01*
X21190544Y43045874D01*
X21684669Y43540000D01*
X22094895Y43540000D01*
X22185910Y43398559D01*
X22185910Y43398559D01*
G37*
X22185910Y43398559D02*
X22244675Y43358406D01*
X22103569Y43151890D01*
X22052560Y42900000D01*
X22052560Y42100000D01*
X22096838Y41864683D01*
X22235910Y41648559D01*
X22375750Y41553010D01*
X22340302Y41538327D01*
X22161673Y41359699D01*
X22065000Y41126310D01*
X22065000Y40958750D01*
X22223750Y40800000D01*
X22925000Y40800000D01*
X22925000Y40937500D01*
X23375000Y40937500D01*
X23375000Y40800000D01*
X24076250Y40800000D01*
X24133680Y40857430D01*
X24235910Y40698559D01*
X24390000Y40593274D01*
X24390000Y39697440D01*
X24300000Y39697440D01*
X24064683Y39653162D01*
X23848559Y39514090D01*
X23800866Y39444289D01*
X23764090Y39501441D01*
X23671068Y39565000D01*
X23726309Y39565000D01*
X23959698Y39661673D01*
X24138327Y39840301D01*
X24235000Y40073690D01*
X24235000Y40241250D01*
X24076250Y40400000D01*
X23375000Y40400000D01*
X23375000Y40262500D01*
X22925000Y40262500D01*
X22925000Y40400000D01*
X22223750Y40400000D01*
X22065000Y40241250D01*
X22065000Y40073690D01*
X22161673Y39840301D01*
X22340302Y39661673D01*
X22484858Y39601796D01*
X22348559Y39514090D01*
X22203569Y39301890D01*
X22152560Y39050000D01*
X22152560Y38150000D01*
X22196838Y37914683D01*
X22216339Y37884378D01*
X22077004Y37548822D01*
X22076670Y37166910D01*
X22222514Y36813942D01*
X22492330Y36543654D01*
X22511290Y36535781D01*
X22447852Y36440839D01*
X22390000Y36150000D01*
X22390000Y33424833D01*
X22256005Y33290838D01*
X22174176Y33372810D01*
X21821463Y33519269D01*
X21439551Y33519603D01*
X21086583Y33373759D01*
X20816295Y33103943D01*
X20669836Y32751230D01*
X20669800Y32709725D01*
X20669484Y32709409D01*
X20651890Y32721431D01*
X20400000Y32772440D01*
X19600000Y32772440D01*
X19364683Y32728162D01*
X19261354Y32661671D01*
X19259698Y32663327D01*
X19026309Y32760000D01*
X18858750Y32760000D01*
X18700000Y32601250D01*
X18700000Y31937500D01*
X18837500Y31937500D01*
X18837500Y31562500D01*
X18700000Y31562500D01*
X18700000Y30898750D01*
X18822725Y30776025D01*
X18740000Y30576309D01*
X18740000Y30358750D01*
X18898750Y30200000D01*
X19227560Y30200000D01*
X19227560Y29700000D01*
X18898750Y29700000D01*
X18740000Y29541250D01*
X18740000Y29323691D01*
X18836673Y29090302D01*
X19015301Y28911673D01*
X19248690Y28815000D01*
X19278750Y28815000D01*
X19437500Y28973750D01*
X19437500Y28980391D01*
X19623110Y28853569D01*
X19697808Y28838442D01*
X19721250Y28815000D01*
X19751310Y28815000D01*
X19771753Y28823468D01*
X19875000Y28802560D01*
X20125000Y28802560D01*
X20254589Y28826944D01*
X20375000Y28802560D01*
X20625000Y28802560D01*
X20754589Y28826944D01*
X20875000Y28802560D01*
X21125000Y28802560D01*
X21254589Y28826944D01*
X21375000Y28802560D01*
X21625000Y28802560D01*
X21754589Y28826944D01*
X21875000Y28802560D01*
X22125000Y28802560D01*
X22254589Y28826944D01*
X22375000Y28802560D01*
X22625000Y28802560D01*
X22724089Y28821205D01*
X22621340Y28573757D01*
X22621006Y28191845D01*
X22766850Y27838877D01*
X22896578Y27708922D01*
X22861086Y27530494D01*
X22861086Y27290116D01*
X22807712Y27236835D01*
X22673509Y26913638D01*
X22189623Y27397524D01*
X21943061Y27562271D01*
X21652222Y27620123D01*
X20540094Y27620123D01*
X20486813Y27673497D01*
X20134100Y27819956D01*
X19752188Y27820290D01*
X19399220Y27674446D01*
X19128932Y27404630D01*
X19045761Y27204332D01*
X18706914Y27064323D01*
X18697440Y27054866D01*
X18697440Y27125000D01*
X18673056Y27254589D01*
X18697440Y27375000D01*
X18697440Y27625000D01*
X18677550Y27730705D01*
X18685000Y27748690D01*
X18685000Y27778750D01*
X18664688Y27799062D01*
X18653162Y27860317D01*
X18523061Y28062500D01*
X18526250Y28062500D01*
X18685000Y28221250D01*
X18685000Y28251310D01*
X18588327Y28484699D01*
X18409698Y28663327D01*
X18176309Y28760000D01*
X17958750Y28760000D01*
X17800000Y28601250D01*
X17800000Y28272440D01*
X17300000Y28272440D01*
X17300000Y28601250D01*
X17141250Y28760000D01*
X16923691Y28760000D01*
X16710000Y28671486D01*
X16710000Y28826309D01*
X16613327Y29059698D01*
X16611957Y29061068D01*
X16671431Y29148110D01*
X16722440Y29400000D01*
X16722440Y30200000D01*
X16719308Y30216645D01*
X17113800Y30379646D01*
X17419282Y30684595D01*
X17559141Y31021413D01*
X17561673Y31015301D01*
X17740302Y30836673D01*
X17973691Y30740000D01*
X18141250Y30740000D01*
X18300000Y30898750D01*
X18300000Y31562500D01*
X18162500Y31562500D01*
X18162500Y31937500D01*
X18300000Y31937500D01*
X18300000Y32601250D01*
X18141250Y32760000D01*
X17973691Y32760000D01*
X17740302Y32663327D01*
X17561673Y32484699D01*
X17465000Y32251310D01*
X17465000Y32096250D01*
X17493748Y32067502D01*
X17465000Y32067502D01*
X17465000Y31805749D01*
X17420354Y31913800D01*
X17115405Y32219282D01*
X16716767Y32384811D01*
X16285127Y32385188D01*
X15886200Y32220354D01*
X15580718Y31915405D01*
X15415189Y31516767D01*
X15415022Y31325180D01*
X15144921Y31055079D01*
X14974755Y30800407D01*
X14958514Y30718757D01*
X14873559Y30664090D01*
X14728569Y30451890D01*
X14677560Y30200000D01*
X14677560Y29400000D01*
X14721838Y29164683D01*
X14788329Y29061354D01*
X14786673Y29059698D01*
X14690000Y28826309D01*
X14690000Y28658750D01*
X14848750Y28500000D01*
X15512500Y28500000D01*
X15512500Y28637500D01*
X15887500Y28637500D01*
X15887500Y28500000D01*
X16037500Y28500000D01*
X16037500Y28100000D01*
X15887500Y28100000D01*
X15887500Y27962500D01*
X15512500Y27962500D01*
X15512500Y28100000D01*
X14848750Y28100000D01*
X14690000Y27941250D01*
X14690000Y27773691D01*
X14695671Y27760000D01*
X12935097Y27760000D01*
X12935197Y27874775D01*
X12762767Y28292086D01*
X12560000Y28495207D01*
X12560000Y29400000D01*
X12502148Y29690839D01*
X12497440Y29697885D01*
X12497440Y30125000D01*
X12456160Y30344382D01*
X12666364Y30554219D01*
X12825028Y30936325D01*
X12825389Y31350062D01*
X12667392Y31732444D01*
X12375091Y32025256D01*
X11992985Y32183920D01*
X11579248Y32184281D01*
X11196866Y32026284D01*
X11099513Y31929101D01*
X10729061Y31929101D01*
X10729056Y31929102D01*
X10428650Y31869346D01*
X10173977Y31699180D01*
X9394921Y30920124D01*
X9230432Y30673948D01*
X9098559Y30589090D01*
X8953569Y30376890D01*
X8902560Y30125000D01*
X8902560Y29375000D01*
X8946838Y29139683D01*
X9085910Y28923559D01*
X9215000Y28835356D01*
X9215000Y24581844D01*
X9148559Y24539090D01*
X9003569Y24326890D01*
X8952560Y24075000D01*
X8952560Y23325000D01*
X8960235Y23284213D01*
X6286655Y23284213D01*
X6189882Y23381155D01*
X5807776Y23539819D01*
X5394039Y23540180D01*
X5011657Y23382183D01*
X4718845Y23089882D01*
X4560181Y22707776D01*
X4559820Y22294039D01*
X4717817Y21911657D01*
X4983179Y21645831D01*
X3561145Y21645831D01*
X3532821Y21674205D01*
X3180108Y21820664D01*
X2798196Y21820998D01*
X2445228Y21675154D01*
X2174940Y21405338D01*
X2028481Y21052625D01*
X2028147Y20670713D01*
X2173991Y20317745D01*
X2443807Y20047457D01*
X2796520Y19900998D01*
X3178432Y19900664D01*
X3531400Y20046508D01*
X3560774Y20075831D01*
X11485831Y20075831D01*
X11786238Y20135586D01*
X12040910Y20305752D01*
X12726408Y20991250D01*
X13140000Y20991250D01*
X13140000Y20823691D01*
X13236673Y20590302D01*
X13415301Y20411673D01*
X13648690Y20315000D01*
X13803750Y20315000D01*
X13962500Y20473750D01*
X13962500Y21150000D01*
X14337500Y21150000D01*
X14337500Y20473750D01*
X14496250Y20315000D01*
X14651310Y20315000D01*
X14884699Y20411673D01*
X14900000Y20426974D01*
X14915301Y20411673D01*
X15148690Y20315000D01*
X15303750Y20315000D01*
X15462500Y20473750D01*
X15462500Y21150000D01*
X14337500Y21150000D01*
X13962500Y21150000D01*
X13298750Y21150000D01*
X13140000Y20991250D01*
X12726408Y20991250D01*
X13291954Y21556796D01*
X13298750Y21550000D01*
X13962500Y21550000D01*
X13962500Y21687500D01*
X14337500Y21687500D01*
X14337500Y21550000D01*
X15462500Y21550000D01*
X15462500Y21687500D01*
X15837500Y21687500D01*
X15837500Y21550000D01*
X15987500Y21550000D01*
X15987500Y21150000D01*
X15837500Y21150000D01*
X15837500Y20473750D01*
X15996250Y20315000D01*
X16151310Y20315000D01*
X16384699Y20411673D01*
X16402560Y20429534D01*
X16402560Y20375000D01*
X16446838Y20139683D01*
X16585910Y19923559D01*
X16798110Y19778569D01*
X17050000Y19727560D01*
X18050000Y19727560D01*
X18116113Y19740000D01*
X18543248Y19740000D01*
X18834087Y19797852D01*
X19080649Y19962599D01*
X19951992Y20833942D01*
X19828455Y20536431D01*
X19828121Y20154519D01*
X19973965Y19801551D01*
X20077894Y19697440D01*
X19875000Y19697440D01*
X19745411Y19673056D01*
X19625000Y19697440D01*
X19375000Y19697440D01*
X19139683Y19653162D01*
X18923559Y19514090D01*
X18778569Y19301890D01*
X18765205Y19235895D01*
X18542967Y19087401D01*
X17990566Y18535000D01*
X10617334Y18535000D01*
X10603162Y18610317D01*
X10464090Y18826441D01*
X10251890Y18971431D01*
X10000000Y19022440D01*
X9100000Y19022440D01*
X8864683Y18978162D01*
X8648559Y18839090D01*
X8503569Y18626890D01*
X8484961Y18535000D01*
X7947831Y18535000D01*
X7919507Y18563374D01*
X7566794Y18709833D01*
X7238941Y18710120D01*
X7164090Y18826441D01*
X6951890Y18971431D01*
X6700000Y19022440D01*
X5800000Y19022440D01*
X5564683Y18978162D01*
X5348559Y18839090D01*
X5222447Y18654519D01*
X4911325Y18592633D01*
X4624210Y18400790D01*
X4624208Y18400787D01*
X4618427Y18395006D01*
X4378441Y18395216D01*
X3920685Y18206075D01*
X3570156Y17856157D01*
X3380217Y17398732D01*
X3379784Y16903441D01*
X3568925Y16445685D01*
X3887055Y16127000D01*
X3617065Y16127000D01*
X1650763Y18093302D01*
X1650763Y28664784D01*
X1784595Y28530718D01*
X2183233Y28365189D01*
X2614873Y28364812D01*
X3013800Y28529646D01*
X3149391Y28665000D01*
X4200000Y28665000D01*
X4500407Y28724755D01*
X4755079Y28894921D01*
X5505079Y29644921D01*
X5675245Y29899593D01*
X5725564Y30152560D01*
X6300000Y30152560D01*
X6535317Y30196838D01*
X6751441Y30335910D01*
X6797969Y30404006D01*
X6940301Y30261673D01*
X7173690Y30165000D01*
X7366250Y30165000D01*
X7525000Y30323750D01*
X7525000Y30925000D01*
X7975000Y30925000D01*
X7975000Y30323750D01*
X8133750Y30165000D01*
X8326310Y30165000D01*
X8559699Y30261673D01*
X8738327Y30440302D01*
X8835000Y30673691D01*
X8835000Y30766250D01*
X8676250Y30925000D01*
X7975000Y30925000D01*
X7525000Y30925000D01*
X7412500Y30925000D01*
X7412500Y31175000D01*
X7525000Y31175000D01*
X7525000Y31300000D01*
X7975000Y31300000D01*
X7975000Y31175000D01*
X8676250Y31175000D01*
X8835000Y31333750D01*
X8835000Y31426309D01*
X8738327Y31659698D01*
X8597090Y31800936D01*
X8651441Y31835910D01*
X8796431Y32048110D01*
X8847440Y32300000D01*
X8847440Y32563016D01*
X14020696Y32563016D01*
X14033551Y32560459D01*
X14324390Y32618311D01*
X14424795Y32685399D01*
X14548668Y32685291D01*
X14901636Y32831135D01*
X15063615Y32992831D01*
X19037402Y32992831D01*
X19090683Y32939457D01*
X19443396Y32792998D01*
X19825308Y32792664D01*
X20178276Y32938508D01*
X20448564Y33208324D01*
X20595023Y33561037D01*
X20595357Y33942949D01*
X20449513Y34295917D01*
X20179697Y34566205D01*
X20147440Y34579599D01*
X20147440Y35500000D01*
X20103162Y35735317D01*
X19964090Y35951441D01*
X19894289Y35999134D01*
X19951441Y36035910D01*
X20096431Y36248110D01*
X20147440Y36500000D01*
X20147440Y37500000D01*
X20103162Y37735317D01*
X19964090Y37951441D01*
X19894289Y37999134D01*
X19951441Y38035910D01*
X20096431Y38248110D01*
X20147440Y38500000D01*
X20147440Y39276567D01*
X20254444Y39297852D01*
X20501006Y39462599D01*
X20967945Y39929538D01*
X21132692Y40176099D01*
X21152324Y40274797D01*
X21190544Y40466939D01*
X21190544Y43045874D01*
X21684669Y43540000D01*
X22094895Y43540000D01*
X22185910Y43398559D01*
G36*
X20600000Y17125198D02*
X20600000Y17037500D01*
X20687698Y17037500D01*
X20724198Y17001000D01*
X20737500Y16968807D01*
X20737500Y16710000D01*
X20062500Y16710000D01*
X20062500Y17005669D01*
X20094331Y17037500D01*
X20200000Y17037500D01*
X20200000Y17143169D01*
X20244331Y17187500D01*
X20537698Y17187500D01*
X20600000Y17125198D01*
X20600000Y17125198D01*
G37*
X20600000Y17125198D02*
X20600000Y17037500D01*
X20687698Y17037500D01*
X20724198Y17001000D01*
X20737500Y16968807D01*
X20737500Y16710000D01*
X20062500Y16710000D01*
X20062500Y17005669D01*
X20094331Y17037500D01*
X20200000Y17037500D01*
X20200000Y17143169D01*
X20244331Y17187500D01*
X20537698Y17187500D01*
X20600000Y17125198D01*
G36*
X8931306Y73571020D02*
X8599749Y73095829D01*
X8576867Y73040524D01*
X8672315Y72817500D01*
X9642500Y72817500D01*
X9642500Y72837500D01*
X10277500Y72837500D01*
X10277500Y72817500D01*
X10297500Y72817500D01*
X10297500Y72182500D01*
X10277500Y72182500D01*
X10277500Y72162500D01*
X9642500Y72162500D01*
X9642500Y72182500D01*
X8672315Y72182500D01*
X8576867Y71959476D01*
X8599749Y71904171D01*
X8931306Y71428980D01*
X9225906Y71240610D01*
X8880853Y71010054D01*
X8558946Y70528285D01*
X8445907Y69960000D01*
X8558946Y69391715D01*
X8880853Y68909946D01*
X9210026Y68690000D01*
X8880853Y68470054D01*
X8558946Y67988285D01*
X8445907Y67420000D01*
X8558946Y66851715D01*
X8880853Y66369946D01*
X9210026Y66150000D01*
X8960000Y65982938D01*
X8960000Y66000000D01*
X8902148Y66290839D01*
X8737401Y66537401D01*
X7960000Y67314802D01*
X7960000Y71493426D01*
X7910238Y71743593D01*
X7902148Y71784266D01*
X7737401Y72030827D01*
X6961194Y72807034D01*
X6941054Y72908285D01*
X6619147Y73390054D01*
X6137378Y73711961D01*
X5569093Y73825000D01*
X5510907Y73825000D01*
X4942622Y73711961D01*
X4460853Y73390054D01*
X4270000Y73104422D01*
X4079147Y73390054D01*
X3597378Y73711961D01*
X3029093Y73825000D01*
X2970907Y73825000D01*
X2402622Y73711961D01*
X1920853Y73390054D01*
X1598946Y72908285D01*
X1593036Y72878572D01*
X1591283Y72877401D01*
X1426536Y72630839D01*
X1368684Y72340000D01*
X1426536Y72049161D01*
X1591283Y71802599D01*
X1593036Y71801428D01*
X1598946Y71771715D01*
X1920853Y71289946D01*
X1962452Y71262150D01*
X1914683Y71253162D01*
X1698559Y71114090D01*
X1553569Y70901890D01*
X1502560Y70650000D01*
X1502560Y68950000D01*
X1546838Y68714683D01*
X1685910Y68498559D01*
X1898110Y68353569D01*
X2150000Y68302560D01*
X3850000Y68302560D01*
X4085317Y68346838D01*
X4301441Y68485910D01*
X4446431Y68698110D01*
X4465869Y68794100D01*
X4511306Y68728980D01*
X4999472Y68416842D01*
X5222500Y68508064D01*
X5222500Y69482500D01*
X5202500Y69482500D01*
X5202500Y70117500D01*
X5222500Y70117500D01*
X5222500Y70137500D01*
X5857500Y70137500D01*
X5857500Y70117500D01*
X5877500Y70117500D01*
X5877500Y69482500D01*
X5857500Y69482500D01*
X5857500Y68508064D01*
X6080528Y68416842D01*
X6440000Y68646692D01*
X6440000Y67752531D01*
X6241794Y67834833D01*
X5859882Y67835167D01*
X5506914Y67689323D01*
X5236626Y67419507D01*
X5090167Y67066794D01*
X5089833Y66684882D01*
X5235677Y66331914D01*
X5505493Y66061626D01*
X5858206Y65915167D01*
X5935098Y65915100D01*
X7039989Y64810209D01*
X7039989Y53200000D01*
X7097841Y52909161D01*
X7262588Y52662599D01*
X7322617Y52622489D01*
X10047946Y49897160D01*
X10047880Y49821743D01*
X10193724Y49468775D01*
X10463540Y49198487D01*
X10816253Y49052028D01*
X11198165Y49051694D01*
X11551133Y49197538D01*
X11821421Y49467354D01*
X11889295Y49630812D01*
X12143086Y49735677D01*
X12413374Y50005493D01*
X12559833Y50358206D01*
X12560167Y50740118D01*
X12414323Y51093086D01*
X12144507Y51363374D01*
X11791794Y51509833D01*
X11714902Y51509900D01*
X8960000Y54264802D01*
X8960000Y56157062D01*
X9362622Y55888039D01*
X9930907Y55775000D01*
X9989093Y55775000D01*
X10557378Y55888039D01*
X11039147Y56209946D01*
X11230000Y56495578D01*
X11420853Y56209946D01*
X11902622Y55888039D01*
X12470907Y55775000D01*
X12529093Y55775000D01*
X13097378Y55888039D01*
X13579147Y56209946D01*
X13901054Y56691715D01*
X14014093Y57260000D01*
X13901054Y57828285D01*
X13579147Y58310054D01*
X13249974Y58530000D01*
X13579147Y58749946D01*
X13901054Y59231715D01*
X14014093Y59800000D01*
X13901054Y60368285D01*
X13579147Y60850054D01*
X13249974Y61070000D01*
X13579147Y61289946D01*
X13901054Y61771715D01*
X14014093Y62340000D01*
X13901054Y62908285D01*
X13579147Y63390054D01*
X13249974Y63610000D01*
X13579147Y63829946D01*
X13607915Y63873000D01*
X15717049Y63873000D01*
X15746838Y63714683D01*
X15885910Y63498559D01*
X15955711Y63450866D01*
X15898559Y63414090D01*
X15753569Y63201890D01*
X15702560Y62950000D01*
X15702560Y62450000D01*
X15746838Y62214683D01*
X15879901Y62007897D01*
X15790167Y61791794D01*
X15789833Y61409882D01*
X15935677Y61056914D01*
X16205493Y60786626D01*
X16365423Y60720218D01*
X14839566Y59194361D01*
X14658561Y58923468D01*
X14605626Y58657350D01*
X14533569Y58551890D01*
X14482560Y58300000D01*
X14482560Y56800000D01*
X14526838Y56564683D01*
X14665910Y56348559D01*
X14878110Y56203569D01*
X15130000Y56152560D01*
X15730000Y56152560D01*
X15965317Y56196838D01*
X16064528Y56260678D01*
X16148110Y56203569D01*
X16400000Y56152560D01*
X17000000Y56152560D01*
X17235317Y56196838D01*
X17334528Y56260678D01*
X17418110Y56203569D01*
X17627000Y56161268D01*
X14986094Y53520362D01*
X14894683Y53503162D01*
X14678559Y53364090D01*
X14533569Y53151890D01*
X14482560Y52900000D01*
X14482560Y51400000D01*
X14526838Y51164683D01*
X14665910Y50948559D01*
X14878110Y50803569D01*
X15130000Y50752560D01*
X15730000Y50752560D01*
X15965317Y50796838D01*
X16064528Y50860678D01*
X16148110Y50803569D01*
X16400000Y50752560D01*
X17000000Y50752560D01*
X17235317Y50796838D01*
X17334528Y50860678D01*
X17418110Y50803569D01*
X17670000Y50752560D01*
X18270000Y50752560D01*
X18505317Y50796838D01*
X18604528Y50860678D01*
X18688110Y50803569D01*
X18940000Y50752560D01*
X19540000Y50752560D01*
X19775317Y50796838D01*
X19874528Y50860678D01*
X19958110Y50803569D01*
X20210000Y50752560D01*
X20810000Y50752560D01*
X21045317Y50796838D01*
X21144528Y50860678D01*
X21228110Y50803569D01*
X21480000Y50752560D01*
X22080000Y50752560D01*
X22315317Y50796838D01*
X22414528Y50860678D01*
X22498110Y50803569D01*
X22750000Y50752560D01*
X23159404Y50752560D01*
X23143453Y50714146D01*
X23143076Y50282506D01*
X23307910Y49883579D01*
X23612859Y49578097D01*
X24011497Y49412568D01*
X24443137Y49412191D01*
X24842064Y49577025D01*
X25147546Y49881974D01*
X25313075Y50280612D01*
X25313161Y50378775D01*
X25355000Y50589115D01*
X25355000Y52150000D01*
X25294868Y52452302D01*
X25518144Y52118144D01*
X25968142Y51668147D01*
X25968144Y51668144D01*
X26279655Y51460000D01*
X26303923Y51443785D01*
X26700000Y51364999D01*
X26700005Y51365000D01*
X26852560Y51365000D01*
X26852560Y50150000D01*
X26896838Y49914683D01*
X27035910Y49698559D01*
X27248110Y49553569D01*
X27500000Y49502560D01*
X28500000Y49502560D01*
X28735317Y49546838D01*
X28951441Y49685910D01*
X29047855Y49827016D01*
X29385809Y49686686D01*
X29881100Y49686253D01*
X30338856Y49875394D01*
X30689385Y50225312D01*
X30813306Y50523750D01*
X31015000Y50523750D01*
X31015000Y48373690D01*
X31111673Y48140301D01*
X31290302Y47961673D01*
X31523691Y47865000D01*
X32173750Y47865000D01*
X32332500Y48023750D01*
X32332500Y50682500D01*
X32967500Y50682500D01*
X32967500Y48023750D01*
X33126250Y47865000D01*
X33776309Y47865000D01*
X34009698Y47961673D01*
X34188327Y48140301D01*
X34285000Y48373690D01*
X34285000Y50523750D01*
X34126250Y50682500D01*
X32967500Y50682500D01*
X32332500Y50682500D01*
X31173750Y50682500D01*
X31015000Y50523750D01*
X30813306Y50523750D01*
X30879324Y50682737D01*
X30879757Y51178028D01*
X30690616Y51635784D01*
X30340698Y51986313D01*
X30250335Y52023835D01*
X31015000Y52788500D01*
X31015000Y51476250D01*
X31173750Y51317500D01*
X32332500Y51317500D01*
X32332500Y53976250D01*
X32967500Y53976250D01*
X32967500Y51317500D01*
X34126250Y51317500D01*
X34285000Y51476250D01*
X34285000Y53626310D01*
X34188327Y53859699D01*
X34009698Y54038327D01*
X33776309Y54135000D01*
X33126250Y54135000D01*
X32967500Y53976250D01*
X32332500Y53976250D01*
X32173750Y54135000D01*
X31735000Y54135000D01*
X31735000Y54481380D01*
X31746431Y54498110D01*
X31797440Y54750000D01*
X31797440Y55250000D01*
X31753162Y55485317D01*
X31614090Y55701441D01*
X31544289Y55749134D01*
X31601441Y55785910D01*
X31746431Y55998110D01*
X31797440Y56250000D01*
X31797440Y56750000D01*
X31753162Y56985317D01*
X31735000Y57013542D01*
X31735000Y57549995D01*
X31735001Y57550000D01*
X31675358Y57849840D01*
X32714792Y56810406D01*
X32702560Y56750000D01*
X32702560Y55850000D01*
X32746838Y55614683D01*
X32885910Y55398559D01*
X33098110Y55253569D01*
X33350000Y55202560D01*
X33850000Y55202560D01*
X34085317Y55246838D01*
X34301441Y55385910D01*
X34347969Y55454006D01*
X34490302Y55311673D01*
X34723691Y55215000D01*
X34816250Y55215000D01*
X34975000Y55373750D01*
X34975000Y56075000D01*
X35225000Y56075000D01*
X35225000Y55373750D01*
X35383750Y55215000D01*
X35476309Y55215000D01*
X35709698Y55311673D01*
X35850000Y55451974D01*
X35990302Y55311673D01*
X36223691Y55215000D01*
X36316250Y55215000D01*
X36475000Y55373750D01*
X36475000Y56075000D01*
X35873750Y56075000D01*
X35850000Y56051250D01*
X35826250Y56075000D01*
X35225000Y56075000D01*
X34975000Y56075000D01*
X34850000Y56075000D01*
X34850000Y56525000D01*
X34975000Y56525000D01*
X34975000Y57226250D01*
X34816250Y57385000D01*
X34723691Y57385000D01*
X34490302Y57288327D01*
X34349064Y57147090D01*
X34322544Y57188303D01*
X34302148Y57290840D01*
X34137401Y57537401D01*
X32539861Y59134941D01*
X32539861Y60344431D01*
X32923276Y60185223D01*
X33340339Y60184859D01*
X36164653Y57360545D01*
X35990302Y57288327D01*
X35850000Y57148026D01*
X35709698Y57288327D01*
X35476309Y57385000D01*
X35383750Y57385000D01*
X35225000Y57226250D01*
X35225000Y56525000D01*
X35826250Y56525000D01*
X35850000Y56548750D01*
X35873750Y56525000D01*
X36475000Y56525000D01*
X36475000Y56637500D01*
X36725000Y56637500D01*
X36725000Y56525000D01*
X36850000Y56525000D01*
X36850000Y56075000D01*
X36725000Y56075000D01*
X36725000Y55373750D01*
X36883750Y55215000D01*
X36976309Y55215000D01*
X37209698Y55311673D01*
X37350936Y55452910D01*
X37385910Y55398559D01*
X37598110Y55253569D01*
X37850000Y55202560D01*
X38350000Y55202560D01*
X38585317Y55246838D01*
X38801441Y55385910D01*
X38946431Y55598110D01*
X38997440Y55850000D01*
X38997440Y56750000D01*
X38953162Y56985317D01*
X38814090Y57201441D01*
X38601890Y57346431D01*
X38350000Y57397440D01*
X38277362Y57397440D01*
X36784877Y58889925D01*
X36890118Y58889833D01*
X37243086Y59035677D01*
X37297504Y59090000D01*
X37803642Y59090000D01*
X38094481Y59147852D01*
X38341043Y59312599D01*
X42901444Y63873000D01*
X42953505Y63873000D01*
X42905223Y63756724D01*
X42904777Y63245519D01*
X43099995Y62773057D01*
X43461155Y62411265D01*
X43933276Y62215223D01*
X44137493Y62215045D01*
X44121265Y62198845D01*
X43925223Y61726724D01*
X43924799Y61240829D01*
X43797852Y61050839D01*
X43740000Y60760000D01*
X43740000Y57078386D01*
X43653569Y56951890D01*
X43602560Y56700000D01*
X43602560Y55800000D01*
X43646838Y55564683D01*
X43785910Y55348559D01*
X43998110Y55203569D01*
X44250000Y55152560D01*
X44750000Y55152560D01*
X44985317Y55196838D01*
X45201441Y55335910D01*
X45247969Y55404006D01*
X45390302Y55261673D01*
X45623691Y55165000D01*
X45716250Y55165000D01*
X45875000Y55323750D01*
X45875000Y56025000D01*
X46125000Y56025000D01*
X46125000Y55323750D01*
X46283750Y55165000D01*
X46376309Y55165000D01*
X46609698Y55261673D01*
X46788327Y55440301D01*
X46885000Y55673690D01*
X46885000Y55866250D01*
X46726250Y56025000D01*
X46125000Y56025000D01*
X45875000Y56025000D01*
X45750000Y56025000D01*
X45750000Y56475000D01*
X45875000Y56475000D01*
X45875000Y57176250D01*
X46125000Y57176250D01*
X46125000Y56475000D01*
X46726250Y56475000D01*
X46885000Y56633750D01*
X46885000Y56826310D01*
X46788327Y57059699D01*
X46609698Y57238327D01*
X46376309Y57335000D01*
X46283750Y57335000D01*
X46125000Y57176250D01*
X45875000Y57176250D01*
X45716250Y57335000D01*
X45623691Y57335000D01*
X45390302Y57238327D01*
X45260000Y57108026D01*
X45260000Y60184955D01*
X45464481Y60184777D01*
X45936943Y60379995D01*
X46230195Y60672734D01*
X46521155Y60381265D01*
X46993276Y60185223D01*
X47504481Y60184777D01*
X47976943Y60379995D01*
X48338735Y60741155D01*
X48534777Y61213276D01*
X48535223Y61724481D01*
X48340005Y62196943D01*
X47978845Y62558735D01*
X47506724Y62754777D01*
X47302507Y62754955D01*
X47318735Y62771155D01*
X47514777Y63243276D01*
X47515010Y63510188D01*
X49662599Y61362599D01*
X49909160Y61197852D01*
X50200000Y61140000D01*
X51873000Y61140000D01*
X51873000Y54285000D01*
X48146829Y54285000D01*
X47750751Y54206215D01*
X47616258Y54116349D01*
X47414973Y53981856D01*
X47414971Y53981853D01*
X47144836Y53711718D01*
X47145216Y54146559D01*
X46956075Y54604315D01*
X46606157Y54954844D01*
X46148732Y55144783D01*
X45653441Y55145216D01*
X45195685Y54956075D01*
X44848264Y54609260D01*
X44644507Y54813374D01*
X44291794Y54959833D01*
X43909882Y54960167D01*
X43646365Y54851284D01*
X43614090Y54901441D01*
X43401890Y55046431D01*
X43150000Y55097440D01*
X42650000Y55097440D01*
X42414683Y55053162D01*
X42198559Y54914090D01*
X42150866Y54844289D01*
X42114090Y54901441D01*
X41901890Y55046431D01*
X41650000Y55097440D01*
X41150000Y55097440D01*
X40914683Y55053162D01*
X40698559Y54914090D01*
X40553569Y54701890D01*
X40502560Y54450000D01*
X40502560Y53550000D01*
X40546838Y53314683D01*
X40640000Y53169905D01*
X40640000Y53005105D01*
X40498559Y52914090D01*
X40353569Y52701890D01*
X40302560Y52450000D01*
X40302560Y51950000D01*
X40346838Y51714683D01*
X40485910Y51498559D01*
X40555711Y51450866D01*
X40498559Y51414090D01*
X40353569Y51201890D01*
X40302560Y50950000D01*
X40302560Y50450000D01*
X40346838Y50214683D01*
X40485910Y49998559D01*
X40698110Y49853569D01*
X40950000Y49802560D01*
X41422638Y49802560D01*
X41845198Y49380000D01*
X39933712Y49380000D01*
X38497440Y50816272D01*
X38497440Y53500000D01*
X38453162Y53735317D01*
X38314090Y53951441D01*
X38101890Y54096431D01*
X37850000Y54147440D01*
X35850000Y54147440D01*
X35614683Y54103162D01*
X35398559Y53964090D01*
X35253569Y53751890D01*
X35202560Y53500000D01*
X35202560Y48500000D01*
X35246838Y48264683D01*
X35385910Y48048559D01*
X35598110Y47903569D01*
X35850000Y47852560D01*
X37850000Y47852560D01*
X38085317Y47896838D01*
X38301441Y48035910D01*
X38321305Y48064983D01*
X38641236Y47745052D01*
X38453441Y47745216D01*
X37995685Y47556075D01*
X37645156Y47206157D01*
X37455217Y46748732D01*
X37454784Y46253441D01*
X37643925Y45795685D01*
X37841824Y45597440D01*
X35100000Y45597440D01*
X34864683Y45553162D01*
X34648559Y45414090D01*
X34503569Y45201890D01*
X34452560Y44950000D01*
X34452560Y43350000D01*
X34496838Y43114683D01*
X34635910Y42898559D01*
X34848110Y42753569D01*
X35100000Y42702560D01*
X35965000Y42702560D01*
X35965000Y42675705D01*
X35795156Y42506157D01*
X35605217Y42048732D01*
X35604784Y41553441D01*
X35793925Y41095685D01*
X36143843Y40745156D01*
X36601268Y40555217D01*
X37096559Y40554784D01*
X37554315Y40743925D01*
X37904844Y41093843D01*
X38094783Y41551268D01*
X38095216Y42046559D01*
X37906075Y42504315D01*
X37735000Y42675689D01*
X37735000Y42702560D01*
X38600000Y42702560D01*
X38835317Y42746838D01*
X39051441Y42885910D01*
X39196431Y43098110D01*
X39247440Y43350000D01*
X39247440Y44950000D01*
X39216393Y45115000D01*
X39478808Y45115000D01*
X39585910Y44948559D01*
X39798110Y44803569D01*
X40050000Y44752560D01*
X40950000Y44752560D01*
X41185317Y44796838D01*
X41401441Y44935910D01*
X41546431Y45148110D01*
X41597440Y45400000D01*
X41597440Y46600000D01*
X41553162Y46835317D01*
X41414090Y47051441D01*
X41201890Y47196431D01*
X40950000Y47247440D01*
X40050000Y47247440D01*
X39814683Y47203162D01*
X39768761Y47173612D01*
X39756075Y47204315D01*
X39650574Y47310000D01*
X42765000Y47310000D01*
X42765000Y46868620D01*
X42753569Y46851890D01*
X42702560Y46600000D01*
X42702560Y45400000D01*
X42746838Y45164683D01*
X42885910Y44948559D01*
X43098110Y44803569D01*
X43350000Y44752560D01*
X44250000Y44752560D01*
X44485317Y44796838D01*
X44701441Y44935910D01*
X44846431Y45148110D01*
X44897440Y45400000D01*
X44897440Y46600000D01*
X44853162Y46835317D01*
X44835000Y46863542D01*
X44835000Y47054037D01*
X45007051Y46881986D01*
X45003569Y46876890D01*
X44952560Y46625000D01*
X44952560Y45875000D01*
X44996838Y45639683D01*
X45135910Y45423559D01*
X45348110Y45278569D01*
X45600000Y45227560D01*
X46400000Y45227560D01*
X46635317Y45271838D01*
X46749978Y45345620D01*
X46848110Y45278569D01*
X46873000Y45273529D01*
X46873000Y44458252D01*
X46784206Y44244412D01*
X46783872Y43862500D01*
X46873000Y43646795D01*
X46873000Y43050936D01*
X46852560Y42950000D01*
X46852560Y42050000D01*
X46873000Y41941371D01*
X46873000Y41522582D01*
X46790301Y41488327D01*
X46611673Y41309698D01*
X46515000Y41076309D01*
X46515000Y41044622D01*
X46414090Y41201441D01*
X46385000Y41221317D01*
X46385000Y41449995D01*
X46385001Y41450000D01*
X46317633Y41788675D01*
X46277920Y41848110D01*
X46125790Y42075790D01*
X46125787Y42075792D01*
X45945163Y42256417D01*
X45790995Y42629531D01*
X45498694Y42922343D01*
X45116588Y43081007D01*
X44702851Y43081368D01*
X44320469Y42923371D01*
X44147440Y42750644D01*
X44147440Y42950000D01*
X44103162Y43185317D01*
X43964090Y43401441D01*
X43751890Y43546431D01*
X43500000Y43597440D01*
X43000000Y43597440D01*
X42764683Y43553162D01*
X42583388Y43436502D01*
X42718316Y43761445D01*
X42718650Y44143357D01*
X42572806Y44496325D01*
X42302990Y44766613D01*
X41950277Y44913072D01*
X41568365Y44913406D01*
X41215397Y44767562D01*
X40945109Y44497746D01*
X40798650Y44145033D01*
X40798316Y43763121D01*
X40944160Y43410153D01*
X40990000Y43364233D01*
X40990000Y43328386D01*
X40903569Y43201890D01*
X40852560Y42950000D01*
X40852560Y42050000D01*
X40896838Y41814683D01*
X40913211Y41789238D01*
X40790301Y41738327D01*
X40611673Y41559698D01*
X40515000Y41326309D01*
X40515000Y41133750D01*
X40673750Y40975000D01*
X41350000Y40975000D01*
X41350000Y41087500D01*
X41750000Y41087500D01*
X41750000Y40975000D01*
X41887500Y40975000D01*
X41887500Y40525000D01*
X41750000Y40525000D01*
X41750000Y39823750D01*
X41807430Y39766320D01*
X41648559Y39664090D01*
X41503569Y39451890D01*
X41452560Y39200000D01*
X41452560Y38300000D01*
X41496838Y38064683D01*
X41635910Y37848559D01*
X41848110Y37703569D01*
X42100000Y37652560D01*
X42900000Y37652560D01*
X43135317Y37696838D01*
X43351441Y37835910D01*
X43496431Y38048110D01*
X43535290Y38240000D01*
X44671614Y38240000D01*
X44798110Y38153569D01*
X45050000Y38102560D01*
X45950000Y38102560D01*
X46185317Y38146838D01*
X46330095Y38240000D01*
X46873000Y38240000D01*
X46873000Y28847440D01*
X44255000Y28847440D01*
X44019683Y28803162D01*
X43803559Y28664090D01*
X43658569Y28451890D01*
X43607560Y28200000D01*
X43607560Y27200000D01*
X43651838Y26964683D01*
X43790910Y26748559D01*
X44003110Y26603569D01*
X44255000Y26552560D01*
X44628777Y26552560D01*
X44610181Y26507776D01*
X44609820Y26094039D01*
X44767817Y25711657D01*
X45060118Y25418845D01*
X45442224Y25260181D01*
X45855961Y25259820D01*
X46238343Y25417817D01*
X46531155Y25710118D01*
X46689819Y26092224D01*
X46690180Y26505961D01*
X46670926Y26552560D01*
X46873000Y26552560D01*
X46873000Y24847440D01*
X44255000Y24847440D01*
X44019683Y24803162D01*
X43803559Y24664090D01*
X43664110Y24460000D01*
X41832279Y24460000D01*
X41709090Y24651441D01*
X41496890Y24796431D01*
X41245000Y24847440D01*
X38495000Y24847440D01*
X38259683Y24803162D01*
X38043559Y24664090D01*
X37898569Y24451890D01*
X37890086Y24410000D01*
X37647440Y24410000D01*
X37647440Y25400000D01*
X37603162Y25635317D01*
X37464090Y25851441D01*
X37394289Y25899134D01*
X37451441Y25935910D01*
X37596431Y26148110D01*
X37647440Y26400000D01*
X37647440Y26662802D01*
X38156420Y26662802D01*
X38243110Y26603569D01*
X38495000Y26552560D01*
X38878777Y26552560D01*
X38860181Y26507776D01*
X38859820Y26094039D01*
X39017817Y25711657D01*
X39310118Y25418845D01*
X39692224Y25260181D01*
X40105961Y25259820D01*
X40488343Y25417817D01*
X40781155Y25710118D01*
X40939819Y26092224D01*
X40940180Y26505961D01*
X40920926Y26552560D01*
X41245000Y26552560D01*
X41480317Y26596838D01*
X41696441Y26735910D01*
X41841431Y26948110D01*
X41892440Y27200000D01*
X41892440Y28200000D01*
X41848162Y28435317D01*
X41709090Y28651441D01*
X41496890Y28796431D01*
X41245000Y28847440D01*
X38495000Y28847440D01*
X38259683Y28803162D01*
X38043559Y28664090D01*
X37898569Y28451890D01*
X37894704Y28432802D01*
X36947807Y28432802D01*
X36947802Y28432803D01*
X36692218Y28381963D01*
X36609127Y28365435D01*
X36432534Y28247440D01*
X35800000Y28247440D01*
X35564683Y28203162D01*
X35348559Y28064090D01*
X35203569Y27851890D01*
X35152560Y27600000D01*
X35152560Y27368997D01*
X34958522Y27563374D01*
X34950992Y27566501D01*
X35009833Y27708206D01*
X35010167Y28090118D01*
X34864323Y28443086D01*
X34594507Y28713374D01*
X34241794Y28859833D01*
X33859882Y28860167D01*
X33672292Y28782656D01*
X33710000Y28873691D01*
X33710000Y29041250D01*
X33551250Y29200000D01*
X32887500Y29200000D01*
X32887500Y29062500D01*
X32512500Y29062500D01*
X32512500Y29200000D01*
X31337500Y29200000D01*
X31337500Y29062500D01*
X30962500Y29062500D01*
X30962500Y29200000D01*
X30298750Y29200000D01*
X30140000Y29041250D01*
X30140000Y28873691D01*
X30236673Y28640302D01*
X30238043Y28638932D01*
X30178569Y28551890D01*
X30127560Y28300000D01*
X30127560Y28260000D01*
X30085000Y28260000D01*
X30085000Y28317502D01*
X30057582Y28317502D01*
X29988327Y28484699D01*
X29809698Y28663327D01*
X29576309Y28760000D01*
X29358750Y28760000D01*
X29200000Y28601250D01*
X29200000Y28272440D01*
X28700000Y28272440D01*
X28700000Y28601250D01*
X28541250Y28760000D01*
X28323691Y28760000D01*
X28090302Y28663327D01*
X27911673Y28484699D01*
X27815000Y28251310D01*
X27815000Y28221250D01*
X27973750Y28062500D01*
X27980391Y28062500D01*
X27853569Y27876890D01*
X27838442Y27802192D01*
X27815000Y27778750D01*
X27815000Y27748690D01*
X27823468Y27728247D01*
X27802560Y27625000D01*
X27802560Y27375000D01*
X27826944Y27245411D01*
X27802560Y27125000D01*
X27802560Y26875000D01*
X27826944Y26745411D01*
X27802560Y26625000D01*
X27802560Y26375000D01*
X27826944Y26245411D01*
X27802560Y26125000D01*
X27802560Y26076303D01*
X27653592Y26138160D01*
X27271680Y26138494D01*
X26918712Y25992650D01*
X26648424Y25722834D01*
X26501965Y25370121D01*
X26501899Y25294257D01*
X26336589Y25225952D01*
X26066301Y24956136D01*
X25919842Y24603423D01*
X25919769Y24519567D01*
X25844831Y24488603D01*
X25574543Y24218787D01*
X25428084Y23866074D01*
X25427750Y23484162D01*
X25573594Y23131194D01*
X25843410Y22860906D01*
X26196123Y22714447D01*
X26273015Y22714380D01*
X26524796Y22462599D01*
X26771358Y22297852D01*
X27062197Y22240000D01*
X27825848Y22240000D01*
X27802560Y22125000D01*
X27802560Y21875000D01*
X27826944Y21745411D01*
X27802560Y21625000D01*
X27802560Y21375000D01*
X27826944Y21245411D01*
X27802560Y21125000D01*
X27802560Y20875000D01*
X27826944Y20745411D01*
X27802560Y20625000D01*
X27802560Y20375000D01*
X27846838Y20139683D01*
X27985910Y19923559D01*
X28198110Y19778569D01*
X28413260Y19735000D01*
X28398690Y19735000D01*
X28165301Y19638327D01*
X27986673Y19459698D01*
X27890000Y19226309D01*
X27890000Y19058750D01*
X28048750Y18900000D01*
X28712500Y18900000D01*
X28712500Y19037500D01*
X29087500Y19037500D01*
X29087500Y18900000D01*
X29751250Y18900000D01*
X29910000Y19058750D01*
X29910000Y19226309D01*
X29813327Y19459698D01*
X29634699Y19638327D01*
X29419272Y19727560D01*
X29450000Y19727560D01*
X29516113Y19740000D01*
X30977876Y19740000D01*
X30863385Y19625709D01*
X30757160Y19369891D01*
X30509327Y19267488D01*
X30239039Y18997672D01*
X30092580Y18644959D01*
X30092246Y18263047D01*
X30101733Y18240086D01*
X29994039Y18240180D01*
X29910000Y18205456D01*
X29910000Y18341250D01*
X29751250Y18500000D01*
X29087500Y18500000D01*
X29087500Y18362500D01*
X28712500Y18362500D01*
X28712500Y18500000D01*
X28048750Y18500000D01*
X27890000Y18341250D01*
X27890000Y18173691D01*
X27978514Y17960000D01*
X27760000Y17960000D01*
X27760000Y18141250D01*
X27601250Y18300000D01*
X27272440Y18300000D01*
X27272440Y18800000D01*
X27601250Y18800000D01*
X27760000Y18958750D01*
X27760000Y19176309D01*
X27663327Y19409698D01*
X27484699Y19588327D01*
X27251310Y19685000D01*
X27221250Y19685000D01*
X27062500Y19526250D01*
X27062500Y19519609D01*
X26876890Y19646431D01*
X26802192Y19661558D01*
X26778750Y19685000D01*
X26748690Y19685000D01*
X26728247Y19676532D01*
X26625000Y19697440D01*
X26375000Y19697440D01*
X26270483Y19677774D01*
X26366727Y19821813D01*
X26424579Y20112652D01*
X26424579Y20314361D01*
X26477953Y20367642D01*
X26624412Y20720355D01*
X26624746Y21102267D01*
X26478902Y21455235D01*
X26209086Y21725523D01*
X25856373Y21871982D01*
X25474461Y21872316D01*
X25121493Y21726472D01*
X25032105Y21637240D01*
X24952147Y21717337D01*
X24599434Y21863796D01*
X24217522Y21864130D01*
X23864554Y21718286D01*
X23664496Y21518578D01*
X23491255Y21692122D01*
X23138542Y21838581D01*
X22756630Y21838915D01*
X22403662Y21693071D01*
X22277364Y21566993D01*
X22079562Y21765141D01*
X21726849Y21911600D01*
X21344937Y21911934D01*
X20991969Y21766090D01*
X20721681Y21496274D01*
X20642160Y21304766D01*
X20598170Y21304804D01*
X20299407Y21181357D01*
X21916380Y22798330D01*
X22081127Y23044891D01*
X22138979Y23335731D01*
X22138979Y24890966D01*
X22192353Y24944247D01*
X22338536Y25296296D01*
X22485228Y25267117D01*
X25324026Y25267117D01*
X25614865Y25324969D01*
X25861427Y25489716D01*
X27037401Y26665690D01*
X27202148Y26912251D01*
X27260000Y27203091D01*
X27260000Y28827962D01*
X27360317Y28846838D01*
X27576441Y28985910D01*
X27718389Y29193658D01*
X27990839Y29247852D01*
X28237401Y29412599D01*
X28614802Y29790000D01*
X30140000Y29790000D01*
X30140000Y29758750D01*
X30298750Y29600000D01*
X30962500Y29600000D01*
X30962500Y29737500D01*
X31337500Y29737500D01*
X31337500Y29600000D01*
X32512500Y29600000D01*
X32512500Y29737500D01*
X32887500Y29737500D01*
X32887500Y29600000D01*
X33551250Y29600000D01*
X33710000Y29758750D01*
X33710000Y29821826D01*
X33840839Y29847852D01*
X34087401Y30012599D01*
X35278028Y31203226D01*
X35298039Y31102622D01*
X35619946Y30620853D01*
X36101715Y30298946D01*
X36670000Y30185907D01*
X37238285Y30298946D01*
X37720054Y30620853D01*
X37940000Y30950026D01*
X38159946Y30620853D01*
X38641715Y30298946D01*
X39210000Y30185907D01*
X39778285Y30298946D01*
X40260054Y30620853D01*
X40480000Y30950026D01*
X40699946Y30620853D01*
X41181715Y30298946D01*
X41750000Y30185907D01*
X42318285Y30298946D01*
X42800054Y30620853D01*
X43020000Y30950026D01*
X43239946Y30620853D01*
X43721715Y30298946D01*
X44290000Y30185907D01*
X44858285Y30298946D01*
X45340054Y30620853D01*
X45369403Y30664777D01*
X45441673Y30490302D01*
X45620301Y30311673D01*
X45853690Y30215000D01*
X46353750Y30215000D01*
X46512500Y30373750D01*
X46512500Y31382500D01*
X46492500Y31382500D01*
X46492500Y32017500D01*
X46512500Y32017500D01*
X46512500Y33026250D01*
X46353750Y33185000D01*
X45853690Y33185000D01*
X45620301Y33088327D01*
X45441673Y32909698D01*
X45369403Y32735223D01*
X45340054Y32779147D01*
X44858285Y33101054D01*
X44565512Y33159290D01*
X44037401Y33687401D01*
X43790839Y33852148D01*
X43500000Y33910000D01*
X40217714Y33910000D01*
X40313374Y34005493D01*
X40459833Y34358206D01*
X40460167Y34740118D01*
X40314323Y35093086D01*
X40044507Y35363374D01*
X39691794Y35509833D01*
X39309882Y35510167D01*
X38956914Y35364323D01*
X38902496Y35310000D01*
X38121486Y35310000D01*
X38210000Y35523691D01*
X38210000Y35691250D01*
X38051250Y35850000D01*
X37387500Y35850000D01*
X37387500Y35712500D01*
X37012500Y35712500D01*
X37012500Y35850000D01*
X35887500Y35850000D01*
X35887500Y35712500D01*
X35512500Y35712500D01*
X35512500Y35850000D01*
X34848750Y35850000D01*
X34703151Y35704401D01*
X34674999Y35710001D01*
X34410000Y35710001D01*
X34410000Y35767502D01*
X34392938Y35767502D01*
X34313327Y35959699D01*
X34160525Y36112500D01*
X34251250Y36112500D01*
X34410000Y36271250D01*
X34410000Y36351310D01*
X34316803Y36576309D01*
X34690000Y36576309D01*
X34690000Y36408750D01*
X34848750Y36250000D01*
X35512500Y36250000D01*
X35512500Y36926250D01*
X35887500Y36926250D01*
X35887500Y36250000D01*
X37012500Y36250000D01*
X37012500Y36926250D01*
X37387500Y36926250D01*
X37387500Y36250000D01*
X38051250Y36250000D01*
X38210000Y36408750D01*
X38210000Y36576309D01*
X38113327Y36809698D01*
X37934699Y36988327D01*
X37701310Y37085000D01*
X37546250Y37085000D01*
X37387500Y36926250D01*
X37012500Y36926250D01*
X36853750Y37085000D01*
X36698690Y37085000D01*
X36465301Y36988327D01*
X36450000Y36973026D01*
X36434699Y36988327D01*
X36201310Y37085000D01*
X36046250Y37085000D01*
X35887500Y36926250D01*
X35512500Y36926250D01*
X35353750Y37085000D01*
X35198690Y37085000D01*
X34965301Y36988327D01*
X34786673Y36809698D01*
X34690000Y36576309D01*
X34316803Y36576309D01*
X34313327Y36584699D01*
X34134698Y36763327D01*
X33901309Y36860000D01*
X33811250Y36860000D01*
X33900000Y36948750D01*
X33900000Y37612500D01*
X34300000Y37612500D01*
X34300000Y36948750D01*
X34458750Y36790000D01*
X34626309Y36790000D01*
X34859698Y36886673D01*
X35038327Y37065301D01*
X35135000Y37298690D01*
X35135000Y37453750D01*
X34976250Y37612500D01*
X34300000Y37612500D01*
X33900000Y37612500D01*
X33762500Y37612500D01*
X33762500Y37987500D01*
X33900000Y37987500D01*
X33900000Y38651250D01*
X34300000Y38651250D01*
X34300000Y37987500D01*
X34976250Y37987500D01*
X35135000Y38146250D01*
X35135000Y38301310D01*
X35038327Y38534699D01*
X34859698Y38713327D01*
X34626309Y38810000D01*
X34458750Y38810000D01*
X34300000Y38651250D01*
X33900000Y38651250D01*
X33741250Y38810000D01*
X33626438Y38810000D01*
X33639819Y38842224D01*
X33640180Y39255961D01*
X33482183Y39638343D01*
X33189882Y39931155D01*
X32807776Y40089819D01*
X32394039Y40090180D01*
X32011657Y39932183D01*
X31718845Y39639882D01*
X31560181Y39257776D01*
X31559820Y38844039D01*
X31683716Y38544189D01*
X31603569Y38426890D01*
X31552560Y38175000D01*
X31552560Y37997152D01*
X29183462Y40366250D01*
X40515000Y40366250D01*
X40515000Y40173691D01*
X40611673Y39940302D01*
X40790301Y39761673D01*
X41023690Y39665000D01*
X41191250Y39665000D01*
X41350000Y39823750D01*
X41350000Y40525000D01*
X40673750Y40525000D01*
X40515000Y40366250D01*
X29183462Y40366250D01*
X28779339Y40770373D01*
X28779339Y43673750D01*
X29065000Y43673750D01*
X29065000Y43223690D01*
X29161673Y42990301D01*
X29340302Y42811673D01*
X29573691Y42715000D01*
X30973750Y42715000D01*
X31132500Y42873750D01*
X31132500Y43832500D01*
X31767500Y43832500D01*
X31767500Y42873750D01*
X31926250Y42715000D01*
X33326309Y42715000D01*
X33559698Y42811673D01*
X33738327Y42990301D01*
X33835000Y43223690D01*
X33835000Y43673750D01*
X33676250Y43832500D01*
X31767500Y43832500D01*
X31132500Y43832500D01*
X29223750Y43832500D01*
X29065000Y43673750D01*
X28779339Y43673750D01*
X28779339Y43884281D01*
X28721487Y44175120D01*
X28556740Y44421682D01*
X27902112Y45076310D01*
X29065000Y45076310D01*
X29065000Y44626250D01*
X29223750Y44467500D01*
X31132500Y44467500D01*
X31132500Y45426250D01*
X31767500Y45426250D01*
X31767500Y44467500D01*
X33676250Y44467500D01*
X33835000Y44626250D01*
X33835000Y45076310D01*
X33738327Y45309699D01*
X33559698Y45488327D01*
X33326309Y45585000D01*
X31926250Y45585000D01*
X31767500Y45426250D01*
X31132500Y45426250D01*
X30973750Y45585000D01*
X29573691Y45585000D01*
X29340302Y45488327D01*
X29161673Y45309699D01*
X29065000Y45076310D01*
X27902112Y45076310D01*
X27610000Y45368422D01*
X27610000Y45394895D01*
X27751441Y45485910D01*
X27896431Y45698110D01*
X27947440Y45950000D01*
X27947440Y46450000D01*
X27903162Y46685317D01*
X27764090Y46901441D01*
X27695994Y46947969D01*
X27838327Y47090302D01*
X27935000Y47323691D01*
X27935000Y47416250D01*
X27776250Y47575000D01*
X27075000Y47575000D01*
X27075000Y47545687D01*
X26840839Y47702148D01*
X26550000Y47760000D01*
X26512500Y47760000D01*
X26512500Y47825000D01*
X26625000Y47825000D01*
X26625000Y48426250D01*
X27075000Y48426250D01*
X27075000Y47825000D01*
X27776250Y47825000D01*
X27935000Y47983750D01*
X27935000Y48076309D01*
X27838327Y48309698D01*
X27659699Y48488327D01*
X27426310Y48585000D01*
X27233750Y48585000D01*
X27075000Y48426250D01*
X26625000Y48426250D01*
X26466250Y48585000D01*
X26273690Y48585000D01*
X26089373Y48508653D01*
X26084699Y48513327D01*
X25851310Y48610000D01*
X25658750Y48610000D01*
X25500000Y48451250D01*
X25500000Y47850000D01*
X25612500Y47850000D01*
X25612500Y47760000D01*
X24937500Y47760000D01*
X24937500Y47850000D01*
X25050000Y47850000D01*
X25050000Y48451250D01*
X24891250Y48610000D01*
X24698690Y48610000D01*
X24465301Y48513327D01*
X24286673Y48334698D01*
X24190000Y48101309D01*
X24190000Y47760000D01*
X22979101Y47760000D01*
X22212401Y48526700D01*
X22102726Y48599982D01*
X22144783Y48701268D01*
X22145216Y49196559D01*
X21956075Y49654315D01*
X21606157Y50004844D01*
X21148732Y50194783D01*
X20653441Y50195216D01*
X20195685Y50006075D01*
X20074399Y49885000D01*
X20006844Y49885000D01*
X19964090Y49951441D01*
X19751890Y50096431D01*
X19500000Y50147440D01*
X17500000Y50147440D01*
X17264683Y50103162D01*
X17048559Y49964090D01*
X16903569Y49751890D01*
X16852560Y49500000D01*
X16852560Y48749299D01*
X14747788Y48749299D01*
X14694507Y48802673D01*
X14341794Y48949132D01*
X13959882Y48949466D01*
X13606914Y48803622D01*
X13336626Y48533806D01*
X13190167Y48181093D01*
X13189833Y47799181D01*
X13284727Y47569521D01*
X13190167Y47341794D01*
X13189833Y46959882D01*
X13335677Y46606914D01*
X13605493Y46336626D01*
X13958206Y46190167D01*
X14035098Y46190100D01*
X14465198Y45760000D01*
X13847788Y45760000D01*
X13794517Y45813364D01*
X13441804Y45959823D01*
X13059892Y45960157D01*
X12706924Y45814313D01*
X12436636Y45544497D01*
X12290177Y45191784D01*
X12289843Y44809872D01*
X12435687Y44456904D01*
X12705503Y44186616D01*
X13058216Y44040157D01*
X13440128Y44039823D01*
X13793096Y44185667D01*
X13847524Y44240000D01*
X16912721Y44240000D01*
X17035910Y44048559D01*
X17105711Y44000866D01*
X17048559Y43964090D01*
X16903569Y43751890D01*
X16895086Y43710000D01*
X12947788Y43710000D01*
X12894507Y43763374D01*
X12541794Y43909833D01*
X12159882Y43910167D01*
X11806914Y43764323D01*
X11536626Y43494507D01*
X11390167Y43141794D01*
X11389833Y42759882D01*
X11535677Y42406914D01*
X11805493Y42136626D01*
X12158206Y41990167D01*
X12540118Y41989833D01*
X12893086Y42135677D01*
X12947504Y42190000D01*
X16944895Y42190000D01*
X17035910Y42048559D01*
X17105711Y42000866D01*
X17048559Y41964090D01*
X16909110Y41760000D01*
X11547788Y41760000D01*
X11494507Y41813374D01*
X11141794Y41959833D01*
X10759882Y41960167D01*
X10406914Y41814323D01*
X10136626Y41544507D01*
X9990167Y41191794D01*
X9989833Y40809882D01*
X10010444Y40760000D01*
X6677831Y40760000D01*
X6510932Y40926899D01*
X6510998Y41002316D01*
X6365154Y41355284D01*
X6095338Y41625572D01*
X5742625Y41772031D01*
X5360713Y41772365D01*
X5007745Y41626521D01*
X4737457Y41356705D01*
X4590998Y41003992D01*
X4590664Y40622080D01*
X4736508Y40269112D01*
X5006324Y39998824D01*
X5359037Y39852365D01*
X5435929Y39852298D01*
X5478227Y39810000D01*
X4055105Y39810000D01*
X3964090Y39951441D01*
X3895994Y39997969D01*
X4038327Y40140301D01*
X4135000Y40373690D01*
X4135000Y40591250D01*
X3976250Y40750000D01*
X2817500Y40750000D01*
X2817500Y40662500D01*
X2182500Y40662500D01*
X2182500Y40750000D01*
X2162500Y40750000D01*
X2162500Y41250000D01*
X2182500Y41250000D01*
X2182500Y41337500D01*
X2817500Y41337500D01*
X2817500Y41250000D01*
X3976250Y41250000D01*
X4135000Y41408750D01*
X4135000Y41626310D01*
X4038327Y41859699D01*
X3897089Y42000936D01*
X3951441Y42035910D01*
X4096431Y42248110D01*
X4147440Y42500000D01*
X4147440Y43500000D01*
X4103162Y43735317D01*
X3964090Y43951441D01*
X3894289Y43999134D01*
X3951441Y44035910D01*
X4096431Y44248110D01*
X4147440Y44500000D01*
X4147440Y45500000D01*
X4103162Y45735317D01*
X4049916Y45818064D01*
X4201268Y45755217D01*
X4696559Y45754784D01*
X5154315Y45943925D01*
X5504844Y46293843D01*
X5694783Y46751268D01*
X5695216Y47246559D01*
X5506075Y47704315D01*
X5156157Y48054844D01*
X4698732Y48244783D01*
X4203441Y48245216D01*
X4051580Y48182468D01*
X4096431Y48248110D01*
X4147440Y48500000D01*
X4147440Y49500000D01*
X4103162Y49735317D01*
X4010000Y49880095D01*
X4010000Y50762721D01*
X4201441Y50885910D01*
X4346431Y51098110D01*
X4397440Y51350000D01*
X4397440Y51802560D01*
X5350000Y51802560D01*
X5585317Y51846838D01*
X5801441Y51985910D01*
X5946431Y52198110D01*
X5997440Y52450000D01*
X5997440Y54650000D01*
X5953162Y54885317D01*
X5814090Y55101441D01*
X5685000Y55189644D01*
X5685000Y56546190D01*
X5684618Y56548110D01*
X5621440Y56865730D01*
X5521682Y57015028D01*
X5521774Y57120557D01*
X5363777Y57502939D01*
X5071476Y57795751D01*
X4689370Y57954415D01*
X4350040Y57954711D01*
X5014418Y58229226D01*
X5768127Y58981621D01*
X6176535Y59965176D01*
X6177464Y61030152D01*
X5770774Y62014418D01*
X5018379Y62768127D01*
X4034824Y63176535D01*
X2969848Y63177464D01*
X1985582Y62770774D01*
X1231873Y62018379D01*
X1127000Y61765817D01*
X1127000Y66795322D01*
X1249296Y66499343D01*
X1498033Y66250171D01*
X1823190Y66115154D01*
X2175265Y66114847D01*
X2500657Y66249296D01*
X2749829Y66498033D01*
X2884846Y66823190D01*
X2885153Y67175265D01*
X2750704Y67500657D01*
X2501967Y67749829D01*
X2176810Y67884846D01*
X1824735Y67885153D01*
X1499343Y67750704D01*
X1250171Y67501967D01*
X1127000Y67205338D01*
X1127000Y73873000D01*
X9403585Y73873000D01*
X8931306Y73571020D01*
X8931306Y73571020D01*
G37*
X8931306Y73571020D02*
X8599749Y73095829D01*
X8576867Y73040524D01*
X8672315Y72817500D01*
X9642500Y72817500D01*
X9642500Y72837500D01*
X10277500Y72837500D01*
X10277500Y72817500D01*
X10297500Y72817500D01*
X10297500Y72182500D01*
X10277500Y72182500D01*
X10277500Y72162500D01*
X9642500Y72162500D01*
X9642500Y72182500D01*
X8672315Y72182500D01*
X8576867Y71959476D01*
X8599749Y71904171D01*
X8931306Y71428980D01*
X9225906Y71240610D01*
X8880853Y71010054D01*
X8558946Y70528285D01*
X8445907Y69960000D01*
X8558946Y69391715D01*
X8880853Y68909946D01*
X9210026Y68690000D01*
X8880853Y68470054D01*
X8558946Y67988285D01*
X8445907Y67420000D01*
X8558946Y66851715D01*
X8880853Y66369946D01*
X9210026Y66150000D01*
X8960000Y65982938D01*
X8960000Y66000000D01*
X8902148Y66290839D01*
X8737401Y66537401D01*
X7960000Y67314802D01*
X7960000Y71493426D01*
X7910238Y71743593D01*
X7902148Y71784266D01*
X7737401Y72030827D01*
X6961194Y72807034D01*
X6941054Y72908285D01*
X6619147Y73390054D01*
X6137378Y73711961D01*
X5569093Y73825000D01*
X5510907Y73825000D01*
X4942622Y73711961D01*
X4460853Y73390054D01*
X4270000Y73104422D01*
X4079147Y73390054D01*
X3597378Y73711961D01*
X3029093Y73825000D01*
X2970907Y73825000D01*
X2402622Y73711961D01*
X1920853Y73390054D01*
X1598946Y72908285D01*
X1593036Y72878572D01*
X1591283Y72877401D01*
X1426536Y72630839D01*
X1368684Y72340000D01*
X1426536Y72049161D01*
X1591283Y71802599D01*
X1593036Y71801428D01*
X1598946Y71771715D01*
X1920853Y71289946D01*
X1962452Y71262150D01*
X1914683Y71253162D01*
X1698559Y71114090D01*
X1553569Y70901890D01*
X1502560Y70650000D01*
X1502560Y68950000D01*
X1546838Y68714683D01*
X1685910Y68498559D01*
X1898110Y68353569D01*
X2150000Y68302560D01*
X3850000Y68302560D01*
X4085317Y68346838D01*
X4301441Y68485910D01*
X4446431Y68698110D01*
X4465869Y68794100D01*
X4511306Y68728980D01*
X4999472Y68416842D01*
X5222500Y68508064D01*
X5222500Y69482500D01*
X5202500Y69482500D01*
X5202500Y70117500D01*
X5222500Y70117500D01*
X5222500Y70137500D01*
X5857500Y70137500D01*
X5857500Y70117500D01*
X5877500Y70117500D01*
X5877500Y69482500D01*
X5857500Y69482500D01*
X5857500Y68508064D01*
X6080528Y68416842D01*
X6440000Y68646692D01*
X6440000Y67752531D01*
X6241794Y67834833D01*
X5859882Y67835167D01*
X5506914Y67689323D01*
X5236626Y67419507D01*
X5090167Y67066794D01*
X5089833Y66684882D01*
X5235677Y66331914D01*
X5505493Y66061626D01*
X5858206Y65915167D01*
X5935098Y65915100D01*
X7039989Y64810209D01*
X7039989Y53200000D01*
X7097841Y52909161D01*
X7262588Y52662599D01*
X7322617Y52622489D01*
X10047946Y49897160D01*
X10047880Y49821743D01*
X10193724Y49468775D01*
X10463540Y49198487D01*
X10816253Y49052028D01*
X11198165Y49051694D01*
X11551133Y49197538D01*
X11821421Y49467354D01*
X11889295Y49630812D01*
X12143086Y49735677D01*
X12413374Y50005493D01*
X12559833Y50358206D01*
X12560167Y50740118D01*
X12414323Y51093086D01*
X12144507Y51363374D01*
X11791794Y51509833D01*
X11714902Y51509900D01*
X8960000Y54264802D01*
X8960000Y56157062D01*
X9362622Y55888039D01*
X9930907Y55775000D01*
X9989093Y55775000D01*
X10557378Y55888039D01*
X11039147Y56209946D01*
X11230000Y56495578D01*
X11420853Y56209946D01*
X11902622Y55888039D01*
X12470907Y55775000D01*
X12529093Y55775000D01*
X13097378Y55888039D01*
X13579147Y56209946D01*
X13901054Y56691715D01*
X14014093Y57260000D01*
X13901054Y57828285D01*
X13579147Y58310054D01*
X13249974Y58530000D01*
X13579147Y58749946D01*
X13901054Y59231715D01*
X14014093Y59800000D01*
X13901054Y60368285D01*
X13579147Y60850054D01*
X13249974Y61070000D01*
X13579147Y61289946D01*
X13901054Y61771715D01*
X14014093Y62340000D01*
X13901054Y62908285D01*
X13579147Y63390054D01*
X13249974Y63610000D01*
X13579147Y63829946D01*
X13607915Y63873000D01*
X15717049Y63873000D01*
X15746838Y63714683D01*
X15885910Y63498559D01*
X15955711Y63450866D01*
X15898559Y63414090D01*
X15753569Y63201890D01*
X15702560Y62950000D01*
X15702560Y62450000D01*
X15746838Y62214683D01*
X15879901Y62007897D01*
X15790167Y61791794D01*
X15789833Y61409882D01*
X15935677Y61056914D01*
X16205493Y60786626D01*
X16365423Y60720218D01*
X14839566Y59194361D01*
X14658561Y58923468D01*
X14605626Y58657350D01*
X14533569Y58551890D01*
X14482560Y58300000D01*
X14482560Y56800000D01*
X14526838Y56564683D01*
X14665910Y56348559D01*
X14878110Y56203569D01*
X15130000Y56152560D01*
X15730000Y56152560D01*
X15965317Y56196838D01*
X16064528Y56260678D01*
X16148110Y56203569D01*
X16400000Y56152560D01*
X17000000Y56152560D01*
X17235317Y56196838D01*
X17334528Y56260678D01*
X17418110Y56203569D01*
X17627000Y56161268D01*
X14986094Y53520362D01*
X14894683Y53503162D01*
X14678559Y53364090D01*
X14533569Y53151890D01*
X14482560Y52900000D01*
X14482560Y51400000D01*
X14526838Y51164683D01*
X14665910Y50948559D01*
X14878110Y50803569D01*
X15130000Y50752560D01*
X15730000Y50752560D01*
X15965317Y50796838D01*
X16064528Y50860678D01*
X16148110Y50803569D01*
X16400000Y50752560D01*
X17000000Y50752560D01*
X17235317Y50796838D01*
X17334528Y50860678D01*
X17418110Y50803569D01*
X17670000Y50752560D01*
X18270000Y50752560D01*
X18505317Y50796838D01*
X18604528Y50860678D01*
X18688110Y50803569D01*
X18940000Y50752560D01*
X19540000Y50752560D01*
X19775317Y50796838D01*
X19874528Y50860678D01*
X19958110Y50803569D01*
X20210000Y50752560D01*
X20810000Y50752560D01*
X21045317Y50796838D01*
X21144528Y50860678D01*
X21228110Y50803569D01*
X21480000Y50752560D01*
X22080000Y50752560D01*
X22315317Y50796838D01*
X22414528Y50860678D01*
X22498110Y50803569D01*
X22750000Y50752560D01*
X23159404Y50752560D01*
X23143453Y50714146D01*
X23143076Y50282506D01*
X23307910Y49883579D01*
X23612859Y49578097D01*
X24011497Y49412568D01*
X24443137Y49412191D01*
X24842064Y49577025D01*
X25147546Y49881974D01*
X25313075Y50280612D01*
X25313161Y50378775D01*
X25355000Y50589115D01*
X25355000Y52150000D01*
X25294868Y52452302D01*
X25518144Y52118144D01*
X25968142Y51668147D01*
X25968144Y51668144D01*
X26279655Y51460000D01*
X26303923Y51443785D01*
X26700000Y51364999D01*
X26700005Y51365000D01*
X26852560Y51365000D01*
X26852560Y50150000D01*
X26896838Y49914683D01*
X27035910Y49698559D01*
X27248110Y49553569D01*
X27500000Y49502560D01*
X28500000Y49502560D01*
X28735317Y49546838D01*
X28951441Y49685910D01*
X29047855Y49827016D01*
X29385809Y49686686D01*
X29881100Y49686253D01*
X30338856Y49875394D01*
X30689385Y50225312D01*
X30813306Y50523750D01*
X31015000Y50523750D01*
X31015000Y48373690D01*
X31111673Y48140301D01*
X31290302Y47961673D01*
X31523691Y47865000D01*
X32173750Y47865000D01*
X32332500Y48023750D01*
X32332500Y50682500D01*
X32967500Y50682500D01*
X32967500Y48023750D01*
X33126250Y47865000D01*
X33776309Y47865000D01*
X34009698Y47961673D01*
X34188327Y48140301D01*
X34285000Y48373690D01*
X34285000Y50523750D01*
X34126250Y50682500D01*
X32967500Y50682500D01*
X32332500Y50682500D01*
X31173750Y50682500D01*
X31015000Y50523750D01*
X30813306Y50523750D01*
X30879324Y50682737D01*
X30879757Y51178028D01*
X30690616Y51635784D01*
X30340698Y51986313D01*
X30250335Y52023835D01*
X31015000Y52788500D01*
X31015000Y51476250D01*
X31173750Y51317500D01*
X32332500Y51317500D01*
X32332500Y53976250D01*
X32967500Y53976250D01*
X32967500Y51317500D01*
X34126250Y51317500D01*
X34285000Y51476250D01*
X34285000Y53626310D01*
X34188327Y53859699D01*
X34009698Y54038327D01*
X33776309Y54135000D01*
X33126250Y54135000D01*
X32967500Y53976250D01*
X32332500Y53976250D01*
X32173750Y54135000D01*
X31735000Y54135000D01*
X31735000Y54481380D01*
X31746431Y54498110D01*
X31797440Y54750000D01*
X31797440Y55250000D01*
X31753162Y55485317D01*
X31614090Y55701441D01*
X31544289Y55749134D01*
X31601441Y55785910D01*
X31746431Y55998110D01*
X31797440Y56250000D01*
X31797440Y56750000D01*
X31753162Y56985317D01*
X31735000Y57013542D01*
X31735000Y57549995D01*
X31735001Y57550000D01*
X31675358Y57849840D01*
X32714792Y56810406D01*
X32702560Y56750000D01*
X32702560Y55850000D01*
X32746838Y55614683D01*
X32885910Y55398559D01*
X33098110Y55253569D01*
X33350000Y55202560D01*
X33850000Y55202560D01*
X34085317Y55246838D01*
X34301441Y55385910D01*
X34347969Y55454006D01*
X34490302Y55311673D01*
X34723691Y55215000D01*
X34816250Y55215000D01*
X34975000Y55373750D01*
X34975000Y56075000D01*
X35225000Y56075000D01*
X35225000Y55373750D01*
X35383750Y55215000D01*
X35476309Y55215000D01*
X35709698Y55311673D01*
X35850000Y55451974D01*
X35990302Y55311673D01*
X36223691Y55215000D01*
X36316250Y55215000D01*
X36475000Y55373750D01*
X36475000Y56075000D01*
X35873750Y56075000D01*
X35850000Y56051250D01*
X35826250Y56075000D01*
X35225000Y56075000D01*
X34975000Y56075000D01*
X34850000Y56075000D01*
X34850000Y56525000D01*
X34975000Y56525000D01*
X34975000Y57226250D01*
X34816250Y57385000D01*
X34723691Y57385000D01*
X34490302Y57288327D01*
X34349064Y57147090D01*
X34322544Y57188303D01*
X34302148Y57290840D01*
X34137401Y57537401D01*
X32539861Y59134941D01*
X32539861Y60344431D01*
X32923276Y60185223D01*
X33340339Y60184859D01*
X36164653Y57360545D01*
X35990302Y57288327D01*
X35850000Y57148026D01*
X35709698Y57288327D01*
X35476309Y57385000D01*
X35383750Y57385000D01*
X35225000Y57226250D01*
X35225000Y56525000D01*
X35826250Y56525000D01*
X35850000Y56548750D01*
X35873750Y56525000D01*
X36475000Y56525000D01*
X36475000Y56637500D01*
X36725000Y56637500D01*
X36725000Y56525000D01*
X36850000Y56525000D01*
X36850000Y56075000D01*
X36725000Y56075000D01*
X36725000Y55373750D01*
X36883750Y55215000D01*
X36976309Y55215000D01*
X37209698Y55311673D01*
X37350936Y55452910D01*
X37385910Y55398559D01*
X37598110Y55253569D01*
X37850000Y55202560D01*
X38350000Y55202560D01*
X38585317Y55246838D01*
X38801441Y55385910D01*
X38946431Y55598110D01*
X38997440Y55850000D01*
X38997440Y56750000D01*
X38953162Y56985317D01*
X38814090Y57201441D01*
X38601890Y57346431D01*
X38350000Y57397440D01*
X38277362Y57397440D01*
X36784877Y58889925D01*
X36890118Y58889833D01*
X37243086Y59035677D01*
X37297504Y59090000D01*
X37803642Y59090000D01*
X38094481Y59147852D01*
X38341043Y59312599D01*
X42901444Y63873000D01*
X42953505Y63873000D01*
X42905223Y63756724D01*
X42904777Y63245519D01*
X43099995Y62773057D01*
X43461155Y62411265D01*
X43933276Y62215223D01*
X44137493Y62215045D01*
X44121265Y62198845D01*
X43925223Y61726724D01*
X43924799Y61240829D01*
X43797852Y61050839D01*
X43740000Y60760000D01*
X43740000Y57078386D01*
X43653569Y56951890D01*
X43602560Y56700000D01*
X43602560Y55800000D01*
X43646838Y55564683D01*
X43785910Y55348559D01*
X43998110Y55203569D01*
X44250000Y55152560D01*
X44750000Y55152560D01*
X44985317Y55196838D01*
X45201441Y55335910D01*
X45247969Y55404006D01*
X45390302Y55261673D01*
X45623691Y55165000D01*
X45716250Y55165000D01*
X45875000Y55323750D01*
X45875000Y56025000D01*
X46125000Y56025000D01*
X46125000Y55323750D01*
X46283750Y55165000D01*
X46376309Y55165000D01*
X46609698Y55261673D01*
X46788327Y55440301D01*
X46885000Y55673690D01*
X46885000Y55866250D01*
X46726250Y56025000D01*
X46125000Y56025000D01*
X45875000Y56025000D01*
X45750000Y56025000D01*
X45750000Y56475000D01*
X45875000Y56475000D01*
X45875000Y57176250D01*
X46125000Y57176250D01*
X46125000Y56475000D01*
X46726250Y56475000D01*
X46885000Y56633750D01*
X46885000Y56826310D01*
X46788327Y57059699D01*
X46609698Y57238327D01*
X46376309Y57335000D01*
X46283750Y57335000D01*
X46125000Y57176250D01*
X45875000Y57176250D01*
X45716250Y57335000D01*
X45623691Y57335000D01*
X45390302Y57238327D01*
X45260000Y57108026D01*
X45260000Y60184955D01*
X45464481Y60184777D01*
X45936943Y60379995D01*
X46230195Y60672734D01*
X46521155Y60381265D01*
X46993276Y60185223D01*
X47504481Y60184777D01*
X47976943Y60379995D01*
X48338735Y60741155D01*
X48534777Y61213276D01*
X48535223Y61724481D01*
X48340005Y62196943D01*
X47978845Y62558735D01*
X47506724Y62754777D01*
X47302507Y62754955D01*
X47318735Y62771155D01*
X47514777Y63243276D01*
X47515010Y63510188D01*
X49662599Y61362599D01*
X49909160Y61197852D01*
X50200000Y61140000D01*
X51873000Y61140000D01*
X51873000Y54285000D01*
X48146829Y54285000D01*
X47750751Y54206215D01*
X47616258Y54116349D01*
X47414973Y53981856D01*
X47414971Y53981853D01*
X47144836Y53711718D01*
X47145216Y54146559D01*
X46956075Y54604315D01*
X46606157Y54954844D01*
X46148732Y55144783D01*
X45653441Y55145216D01*
X45195685Y54956075D01*
X44848264Y54609260D01*
X44644507Y54813374D01*
X44291794Y54959833D01*
X43909882Y54960167D01*
X43646365Y54851284D01*
X43614090Y54901441D01*
X43401890Y55046431D01*
X43150000Y55097440D01*
X42650000Y55097440D01*
X42414683Y55053162D01*
X42198559Y54914090D01*
X42150866Y54844289D01*
X42114090Y54901441D01*
X41901890Y55046431D01*
X41650000Y55097440D01*
X41150000Y55097440D01*
X40914683Y55053162D01*
X40698559Y54914090D01*
X40553569Y54701890D01*
X40502560Y54450000D01*
X40502560Y53550000D01*
X40546838Y53314683D01*
X40640000Y53169905D01*
X40640000Y53005105D01*
X40498559Y52914090D01*
X40353569Y52701890D01*
X40302560Y52450000D01*
X40302560Y51950000D01*
X40346838Y51714683D01*
X40485910Y51498559D01*
X40555711Y51450866D01*
X40498559Y51414090D01*
X40353569Y51201890D01*
X40302560Y50950000D01*
X40302560Y50450000D01*
X40346838Y50214683D01*
X40485910Y49998559D01*
X40698110Y49853569D01*
X40950000Y49802560D01*
X41422638Y49802560D01*
X41845198Y49380000D01*
X39933712Y49380000D01*
X38497440Y50816272D01*
X38497440Y53500000D01*
X38453162Y53735317D01*
X38314090Y53951441D01*
X38101890Y54096431D01*
X37850000Y54147440D01*
X35850000Y54147440D01*
X35614683Y54103162D01*
X35398559Y53964090D01*
X35253569Y53751890D01*
X35202560Y53500000D01*
X35202560Y48500000D01*
X35246838Y48264683D01*
X35385910Y48048559D01*
X35598110Y47903569D01*
X35850000Y47852560D01*
X37850000Y47852560D01*
X38085317Y47896838D01*
X38301441Y48035910D01*
X38321305Y48064983D01*
X38641236Y47745052D01*
X38453441Y47745216D01*
X37995685Y47556075D01*
X37645156Y47206157D01*
X37455217Y46748732D01*
X37454784Y46253441D01*
X37643925Y45795685D01*
X37841824Y45597440D01*
X35100000Y45597440D01*
X34864683Y45553162D01*
X34648559Y45414090D01*
X34503569Y45201890D01*
X34452560Y44950000D01*
X34452560Y43350000D01*
X34496838Y43114683D01*
X34635910Y42898559D01*
X34848110Y42753569D01*
X35100000Y42702560D01*
X35965000Y42702560D01*
X35965000Y42675705D01*
X35795156Y42506157D01*
X35605217Y42048732D01*
X35604784Y41553441D01*
X35793925Y41095685D01*
X36143843Y40745156D01*
X36601268Y40555217D01*
X37096559Y40554784D01*
X37554315Y40743925D01*
X37904844Y41093843D01*
X38094783Y41551268D01*
X38095216Y42046559D01*
X37906075Y42504315D01*
X37735000Y42675689D01*
X37735000Y42702560D01*
X38600000Y42702560D01*
X38835317Y42746838D01*
X39051441Y42885910D01*
X39196431Y43098110D01*
X39247440Y43350000D01*
X39247440Y44950000D01*
X39216393Y45115000D01*
X39478808Y45115000D01*
X39585910Y44948559D01*
X39798110Y44803569D01*
X40050000Y44752560D01*
X40950000Y44752560D01*
X41185317Y44796838D01*
X41401441Y44935910D01*
X41546431Y45148110D01*
X41597440Y45400000D01*
X41597440Y46600000D01*
X41553162Y46835317D01*
X41414090Y47051441D01*
X41201890Y47196431D01*
X40950000Y47247440D01*
X40050000Y47247440D01*
X39814683Y47203162D01*
X39768761Y47173612D01*
X39756075Y47204315D01*
X39650574Y47310000D01*
X42765000Y47310000D01*
X42765000Y46868620D01*
X42753569Y46851890D01*
X42702560Y46600000D01*
X42702560Y45400000D01*
X42746838Y45164683D01*
X42885910Y44948559D01*
X43098110Y44803569D01*
X43350000Y44752560D01*
X44250000Y44752560D01*
X44485317Y44796838D01*
X44701441Y44935910D01*
X44846431Y45148110D01*
X44897440Y45400000D01*
X44897440Y46600000D01*
X44853162Y46835317D01*
X44835000Y46863542D01*
X44835000Y47054037D01*
X45007051Y46881986D01*
X45003569Y46876890D01*
X44952560Y46625000D01*
X44952560Y45875000D01*
X44996838Y45639683D01*
X45135910Y45423559D01*
X45348110Y45278569D01*
X45600000Y45227560D01*
X46400000Y45227560D01*
X46635317Y45271838D01*
X46749978Y45345620D01*
X46848110Y45278569D01*
X46873000Y45273529D01*
X46873000Y44458252D01*
X46784206Y44244412D01*
X46783872Y43862500D01*
X46873000Y43646795D01*
X46873000Y43050936D01*
X46852560Y42950000D01*
X46852560Y42050000D01*
X46873000Y41941371D01*
X46873000Y41522582D01*
X46790301Y41488327D01*
X46611673Y41309698D01*
X46515000Y41076309D01*
X46515000Y41044622D01*
X46414090Y41201441D01*
X46385000Y41221317D01*
X46385000Y41449995D01*
X46385001Y41450000D01*
X46317633Y41788675D01*
X46277920Y41848110D01*
X46125790Y42075790D01*
X46125787Y42075792D01*
X45945163Y42256417D01*
X45790995Y42629531D01*
X45498694Y42922343D01*
X45116588Y43081007D01*
X44702851Y43081368D01*
X44320469Y42923371D01*
X44147440Y42750644D01*
X44147440Y42950000D01*
X44103162Y43185317D01*
X43964090Y43401441D01*
X43751890Y43546431D01*
X43500000Y43597440D01*
X43000000Y43597440D01*
X42764683Y43553162D01*
X42583388Y43436502D01*
X42718316Y43761445D01*
X42718650Y44143357D01*
X42572806Y44496325D01*
X42302990Y44766613D01*
X41950277Y44913072D01*
X41568365Y44913406D01*
X41215397Y44767562D01*
X40945109Y44497746D01*
X40798650Y44145033D01*
X40798316Y43763121D01*
X40944160Y43410153D01*
X40990000Y43364233D01*
X40990000Y43328386D01*
X40903569Y43201890D01*
X40852560Y42950000D01*
X40852560Y42050000D01*
X40896838Y41814683D01*
X40913211Y41789238D01*
X40790301Y41738327D01*
X40611673Y41559698D01*
X40515000Y41326309D01*
X40515000Y41133750D01*
X40673750Y40975000D01*
X41350000Y40975000D01*
X41350000Y41087500D01*
X41750000Y41087500D01*
X41750000Y40975000D01*
X41887500Y40975000D01*
X41887500Y40525000D01*
X41750000Y40525000D01*
X41750000Y39823750D01*
X41807430Y39766320D01*
X41648559Y39664090D01*
X41503569Y39451890D01*
X41452560Y39200000D01*
X41452560Y38300000D01*
X41496838Y38064683D01*
X41635910Y37848559D01*
X41848110Y37703569D01*
X42100000Y37652560D01*
X42900000Y37652560D01*
X43135317Y37696838D01*
X43351441Y37835910D01*
X43496431Y38048110D01*
X43535290Y38240000D01*
X44671614Y38240000D01*
X44798110Y38153569D01*
X45050000Y38102560D01*
X45950000Y38102560D01*
X46185317Y38146838D01*
X46330095Y38240000D01*
X46873000Y38240000D01*
X46873000Y28847440D01*
X44255000Y28847440D01*
X44019683Y28803162D01*
X43803559Y28664090D01*
X43658569Y28451890D01*
X43607560Y28200000D01*
X43607560Y27200000D01*
X43651838Y26964683D01*
X43790910Y26748559D01*
X44003110Y26603569D01*
X44255000Y26552560D01*
X44628777Y26552560D01*
X44610181Y26507776D01*
X44609820Y26094039D01*
X44767817Y25711657D01*
X45060118Y25418845D01*
X45442224Y25260181D01*
X45855961Y25259820D01*
X46238343Y25417817D01*
X46531155Y25710118D01*
X46689819Y26092224D01*
X46690180Y26505961D01*
X46670926Y26552560D01*
X46873000Y26552560D01*
X46873000Y24847440D01*
X44255000Y24847440D01*
X44019683Y24803162D01*
X43803559Y24664090D01*
X43664110Y24460000D01*
X41832279Y24460000D01*
X41709090Y24651441D01*
X41496890Y24796431D01*
X41245000Y24847440D01*
X38495000Y24847440D01*
X38259683Y24803162D01*
X38043559Y24664090D01*
X37898569Y24451890D01*
X37890086Y24410000D01*
X37647440Y24410000D01*
X37647440Y25400000D01*
X37603162Y25635317D01*
X37464090Y25851441D01*
X37394289Y25899134D01*
X37451441Y25935910D01*
X37596431Y26148110D01*
X37647440Y26400000D01*
X37647440Y26662802D01*
X38156420Y26662802D01*
X38243110Y26603569D01*
X38495000Y26552560D01*
X38878777Y26552560D01*
X38860181Y26507776D01*
X38859820Y26094039D01*
X39017817Y25711657D01*
X39310118Y25418845D01*
X39692224Y25260181D01*
X40105961Y25259820D01*
X40488343Y25417817D01*
X40781155Y25710118D01*
X40939819Y26092224D01*
X40940180Y26505961D01*
X40920926Y26552560D01*
X41245000Y26552560D01*
X41480317Y26596838D01*
X41696441Y26735910D01*
X41841431Y26948110D01*
X41892440Y27200000D01*
X41892440Y28200000D01*
X41848162Y28435317D01*
X41709090Y28651441D01*
X41496890Y28796431D01*
X41245000Y28847440D01*
X38495000Y28847440D01*
X38259683Y28803162D01*
X38043559Y28664090D01*
X37898569Y28451890D01*
X37894704Y28432802D01*
X36947807Y28432802D01*
X36947802Y28432803D01*
X36692218Y28381963D01*
X36609127Y28365435D01*
X36432534Y28247440D01*
X35800000Y28247440D01*
X35564683Y28203162D01*
X35348559Y28064090D01*
X35203569Y27851890D01*
X35152560Y27600000D01*
X35152560Y27368997D01*
X34958522Y27563374D01*
X34950992Y27566501D01*
X35009833Y27708206D01*
X35010167Y28090118D01*
X34864323Y28443086D01*
X34594507Y28713374D01*
X34241794Y28859833D01*
X33859882Y28860167D01*
X33672292Y28782656D01*
X33710000Y28873691D01*
X33710000Y29041250D01*
X33551250Y29200000D01*
X32887500Y29200000D01*
X32887500Y29062500D01*
X32512500Y29062500D01*
X32512500Y29200000D01*
X31337500Y29200000D01*
X31337500Y29062500D01*
X30962500Y29062500D01*
X30962500Y29200000D01*
X30298750Y29200000D01*
X30140000Y29041250D01*
X30140000Y28873691D01*
X30236673Y28640302D01*
X30238043Y28638932D01*
X30178569Y28551890D01*
X30127560Y28300000D01*
X30127560Y28260000D01*
X30085000Y28260000D01*
X30085000Y28317502D01*
X30057582Y28317502D01*
X29988327Y28484699D01*
X29809698Y28663327D01*
X29576309Y28760000D01*
X29358750Y28760000D01*
X29200000Y28601250D01*
X29200000Y28272440D01*
X28700000Y28272440D01*
X28700000Y28601250D01*
X28541250Y28760000D01*
X28323691Y28760000D01*
X28090302Y28663327D01*
X27911673Y28484699D01*
X27815000Y28251310D01*
X27815000Y28221250D01*
X27973750Y28062500D01*
X27980391Y28062500D01*
X27853569Y27876890D01*
X27838442Y27802192D01*
X27815000Y27778750D01*
X27815000Y27748690D01*
X27823468Y27728247D01*
X27802560Y27625000D01*
X27802560Y27375000D01*
X27826944Y27245411D01*
X27802560Y27125000D01*
X27802560Y26875000D01*
X27826944Y26745411D01*
X27802560Y26625000D01*
X27802560Y26375000D01*
X27826944Y26245411D01*
X27802560Y26125000D01*
X27802560Y26076303D01*
X27653592Y26138160D01*
X27271680Y26138494D01*
X26918712Y25992650D01*
X26648424Y25722834D01*
X26501965Y25370121D01*
X26501899Y25294257D01*
X26336589Y25225952D01*
X26066301Y24956136D01*
X25919842Y24603423D01*
X25919769Y24519567D01*
X25844831Y24488603D01*
X25574543Y24218787D01*
X25428084Y23866074D01*
X25427750Y23484162D01*
X25573594Y23131194D01*
X25843410Y22860906D01*
X26196123Y22714447D01*
X26273015Y22714380D01*
X26524796Y22462599D01*
X26771358Y22297852D01*
X27062197Y22240000D01*
X27825848Y22240000D01*
X27802560Y22125000D01*
X27802560Y21875000D01*
X27826944Y21745411D01*
X27802560Y21625000D01*
X27802560Y21375000D01*
X27826944Y21245411D01*
X27802560Y21125000D01*
X27802560Y20875000D01*
X27826944Y20745411D01*
X27802560Y20625000D01*
X27802560Y20375000D01*
X27846838Y20139683D01*
X27985910Y19923559D01*
X28198110Y19778569D01*
X28413260Y19735000D01*
X28398690Y19735000D01*
X28165301Y19638327D01*
X27986673Y19459698D01*
X27890000Y19226309D01*
X27890000Y19058750D01*
X28048750Y18900000D01*
X28712500Y18900000D01*
X28712500Y19037500D01*
X29087500Y19037500D01*
X29087500Y18900000D01*
X29751250Y18900000D01*
X29910000Y19058750D01*
X29910000Y19226309D01*
X29813327Y19459698D01*
X29634699Y19638327D01*
X29419272Y19727560D01*
X29450000Y19727560D01*
X29516113Y19740000D01*
X30977876Y19740000D01*
X30863385Y19625709D01*
X30757160Y19369891D01*
X30509327Y19267488D01*
X30239039Y18997672D01*
X30092580Y18644959D01*
X30092246Y18263047D01*
X30101733Y18240086D01*
X29994039Y18240180D01*
X29910000Y18205456D01*
X29910000Y18341250D01*
X29751250Y18500000D01*
X29087500Y18500000D01*
X29087500Y18362500D01*
X28712500Y18362500D01*
X28712500Y18500000D01*
X28048750Y18500000D01*
X27890000Y18341250D01*
X27890000Y18173691D01*
X27978514Y17960000D01*
X27760000Y17960000D01*
X27760000Y18141250D01*
X27601250Y18300000D01*
X27272440Y18300000D01*
X27272440Y18800000D01*
X27601250Y18800000D01*
X27760000Y18958750D01*
X27760000Y19176309D01*
X27663327Y19409698D01*
X27484699Y19588327D01*
X27251310Y19685000D01*
X27221250Y19685000D01*
X27062500Y19526250D01*
X27062500Y19519609D01*
X26876890Y19646431D01*
X26802192Y19661558D01*
X26778750Y19685000D01*
X26748690Y19685000D01*
X26728247Y19676532D01*
X26625000Y19697440D01*
X26375000Y19697440D01*
X26270483Y19677774D01*
X26366727Y19821813D01*
X26424579Y20112652D01*
X26424579Y20314361D01*
X26477953Y20367642D01*
X26624412Y20720355D01*
X26624746Y21102267D01*
X26478902Y21455235D01*
X26209086Y21725523D01*
X25856373Y21871982D01*
X25474461Y21872316D01*
X25121493Y21726472D01*
X25032105Y21637240D01*
X24952147Y21717337D01*
X24599434Y21863796D01*
X24217522Y21864130D01*
X23864554Y21718286D01*
X23664496Y21518578D01*
X23491255Y21692122D01*
X23138542Y21838581D01*
X22756630Y21838915D01*
X22403662Y21693071D01*
X22277364Y21566993D01*
X22079562Y21765141D01*
X21726849Y21911600D01*
X21344937Y21911934D01*
X20991969Y21766090D01*
X20721681Y21496274D01*
X20642160Y21304766D01*
X20598170Y21304804D01*
X20299407Y21181357D01*
X21916380Y22798330D01*
X22081127Y23044891D01*
X22138979Y23335731D01*
X22138979Y24890966D01*
X22192353Y24944247D01*
X22338536Y25296296D01*
X22485228Y25267117D01*
X25324026Y25267117D01*
X25614865Y25324969D01*
X25861427Y25489716D01*
X27037401Y26665690D01*
X27202148Y26912251D01*
X27260000Y27203091D01*
X27260000Y28827962D01*
X27360317Y28846838D01*
X27576441Y28985910D01*
X27718389Y29193658D01*
X27990839Y29247852D01*
X28237401Y29412599D01*
X28614802Y29790000D01*
X30140000Y29790000D01*
X30140000Y29758750D01*
X30298750Y29600000D01*
X30962500Y29600000D01*
X30962500Y29737500D01*
X31337500Y29737500D01*
X31337500Y29600000D01*
X32512500Y29600000D01*
X32512500Y29737500D01*
X32887500Y29737500D01*
X32887500Y29600000D01*
X33551250Y29600000D01*
X33710000Y29758750D01*
X33710000Y29821826D01*
X33840839Y29847852D01*
X34087401Y30012599D01*
X35278028Y31203226D01*
X35298039Y31102622D01*
X35619946Y30620853D01*
X36101715Y30298946D01*
X36670000Y30185907D01*
X37238285Y30298946D01*
X37720054Y30620853D01*
X37940000Y30950026D01*
X38159946Y30620853D01*
X38641715Y30298946D01*
X39210000Y30185907D01*
X39778285Y30298946D01*
X40260054Y30620853D01*
X40480000Y30950026D01*
X40699946Y30620853D01*
X41181715Y30298946D01*
X41750000Y30185907D01*
X42318285Y30298946D01*
X42800054Y30620853D01*
X43020000Y30950026D01*
X43239946Y30620853D01*
X43721715Y30298946D01*
X44290000Y30185907D01*
X44858285Y30298946D01*
X45340054Y30620853D01*
X45369403Y30664777D01*
X45441673Y30490302D01*
X45620301Y30311673D01*
X45853690Y30215000D01*
X46353750Y30215000D01*
X46512500Y30373750D01*
X46512500Y31382500D01*
X46492500Y31382500D01*
X46492500Y32017500D01*
X46512500Y32017500D01*
X46512500Y33026250D01*
X46353750Y33185000D01*
X45853690Y33185000D01*
X45620301Y33088327D01*
X45441673Y32909698D01*
X45369403Y32735223D01*
X45340054Y32779147D01*
X44858285Y33101054D01*
X44565512Y33159290D01*
X44037401Y33687401D01*
X43790839Y33852148D01*
X43500000Y33910000D01*
X40217714Y33910000D01*
X40313374Y34005493D01*
X40459833Y34358206D01*
X40460167Y34740118D01*
X40314323Y35093086D01*
X40044507Y35363374D01*
X39691794Y35509833D01*
X39309882Y35510167D01*
X38956914Y35364323D01*
X38902496Y35310000D01*
X38121486Y35310000D01*
X38210000Y35523691D01*
X38210000Y35691250D01*
X38051250Y35850000D01*
X37387500Y35850000D01*
X37387500Y35712500D01*
X37012500Y35712500D01*
X37012500Y35850000D01*
X35887500Y35850000D01*
X35887500Y35712500D01*
X35512500Y35712500D01*
X35512500Y35850000D01*
X34848750Y35850000D01*
X34703151Y35704401D01*
X34674999Y35710001D01*
X34410000Y35710001D01*
X34410000Y35767502D01*
X34392938Y35767502D01*
X34313327Y35959699D01*
X34160525Y36112500D01*
X34251250Y36112500D01*
X34410000Y36271250D01*
X34410000Y36351310D01*
X34316803Y36576309D01*
X34690000Y36576309D01*
X34690000Y36408750D01*
X34848750Y36250000D01*
X35512500Y36250000D01*
X35512500Y36926250D01*
X35887500Y36926250D01*
X35887500Y36250000D01*
X37012500Y36250000D01*
X37012500Y36926250D01*
X37387500Y36926250D01*
X37387500Y36250000D01*
X38051250Y36250000D01*
X38210000Y36408750D01*
X38210000Y36576309D01*
X38113327Y36809698D01*
X37934699Y36988327D01*
X37701310Y37085000D01*
X37546250Y37085000D01*
X37387500Y36926250D01*
X37012500Y36926250D01*
X36853750Y37085000D01*
X36698690Y37085000D01*
X36465301Y36988327D01*
X36450000Y36973026D01*
X36434699Y36988327D01*
X36201310Y37085000D01*
X36046250Y37085000D01*
X35887500Y36926250D01*
X35512500Y36926250D01*
X35353750Y37085000D01*
X35198690Y37085000D01*
X34965301Y36988327D01*
X34786673Y36809698D01*
X34690000Y36576309D01*
X34316803Y36576309D01*
X34313327Y36584699D01*
X34134698Y36763327D01*
X33901309Y36860000D01*
X33811250Y36860000D01*
X33900000Y36948750D01*
X33900000Y37612500D01*
X34300000Y37612500D01*
X34300000Y36948750D01*
X34458750Y36790000D01*
X34626309Y36790000D01*
X34859698Y36886673D01*
X35038327Y37065301D01*
X35135000Y37298690D01*
X35135000Y37453750D01*
X34976250Y37612500D01*
X34300000Y37612500D01*
X33900000Y37612500D01*
X33762500Y37612500D01*
X33762500Y37987500D01*
X33900000Y37987500D01*
X33900000Y38651250D01*
X34300000Y38651250D01*
X34300000Y37987500D01*
X34976250Y37987500D01*
X35135000Y38146250D01*
X35135000Y38301310D01*
X35038327Y38534699D01*
X34859698Y38713327D01*
X34626309Y38810000D01*
X34458750Y38810000D01*
X34300000Y38651250D01*
X33900000Y38651250D01*
X33741250Y38810000D01*
X33626438Y38810000D01*
X33639819Y38842224D01*
X33640180Y39255961D01*
X33482183Y39638343D01*
X33189882Y39931155D01*
X32807776Y40089819D01*
X32394039Y40090180D01*
X32011657Y39932183D01*
X31718845Y39639882D01*
X31560181Y39257776D01*
X31559820Y38844039D01*
X31683716Y38544189D01*
X31603569Y38426890D01*
X31552560Y38175000D01*
X31552560Y37997152D01*
X29183462Y40366250D01*
X40515000Y40366250D01*
X40515000Y40173691D01*
X40611673Y39940302D01*
X40790301Y39761673D01*
X41023690Y39665000D01*
X41191250Y39665000D01*
X41350000Y39823750D01*
X41350000Y40525000D01*
X40673750Y40525000D01*
X40515000Y40366250D01*
X29183462Y40366250D01*
X28779339Y40770373D01*
X28779339Y43673750D01*
X29065000Y43673750D01*
X29065000Y43223690D01*
X29161673Y42990301D01*
X29340302Y42811673D01*
X29573691Y42715000D01*
X30973750Y42715000D01*
X31132500Y42873750D01*
X31132500Y43832500D01*
X31767500Y43832500D01*
X31767500Y42873750D01*
X31926250Y42715000D01*
X33326309Y42715000D01*
X33559698Y42811673D01*
X33738327Y42990301D01*
X33835000Y43223690D01*
X33835000Y43673750D01*
X33676250Y43832500D01*
X31767500Y43832500D01*
X31132500Y43832500D01*
X29223750Y43832500D01*
X29065000Y43673750D01*
X28779339Y43673750D01*
X28779339Y43884281D01*
X28721487Y44175120D01*
X28556740Y44421682D01*
X27902112Y45076310D01*
X29065000Y45076310D01*
X29065000Y44626250D01*
X29223750Y44467500D01*
X31132500Y44467500D01*
X31132500Y45426250D01*
X31767500Y45426250D01*
X31767500Y44467500D01*
X33676250Y44467500D01*
X33835000Y44626250D01*
X33835000Y45076310D01*
X33738327Y45309699D01*
X33559698Y45488327D01*
X33326309Y45585000D01*
X31926250Y45585000D01*
X31767500Y45426250D01*
X31132500Y45426250D01*
X30973750Y45585000D01*
X29573691Y45585000D01*
X29340302Y45488327D01*
X29161673Y45309699D01*
X29065000Y45076310D01*
X27902112Y45076310D01*
X27610000Y45368422D01*
X27610000Y45394895D01*
X27751441Y45485910D01*
X27896431Y45698110D01*
X27947440Y45950000D01*
X27947440Y46450000D01*
X27903162Y46685317D01*
X27764090Y46901441D01*
X27695994Y46947969D01*
X27838327Y47090302D01*
X27935000Y47323691D01*
X27935000Y47416250D01*
X27776250Y47575000D01*
X27075000Y47575000D01*
X27075000Y47545687D01*
X26840839Y47702148D01*
X26550000Y47760000D01*
X26512500Y47760000D01*
X26512500Y47825000D01*
X26625000Y47825000D01*
X26625000Y48426250D01*
X27075000Y48426250D01*
X27075000Y47825000D01*
X27776250Y47825000D01*
X27935000Y47983750D01*
X27935000Y48076309D01*
X27838327Y48309698D01*
X27659699Y48488327D01*
X27426310Y48585000D01*
X27233750Y48585000D01*
X27075000Y48426250D01*
X26625000Y48426250D01*
X26466250Y48585000D01*
X26273690Y48585000D01*
X26089373Y48508653D01*
X26084699Y48513327D01*
X25851310Y48610000D01*
X25658750Y48610000D01*
X25500000Y48451250D01*
X25500000Y47850000D01*
X25612500Y47850000D01*
X25612500Y47760000D01*
X24937500Y47760000D01*
X24937500Y47850000D01*
X25050000Y47850000D01*
X25050000Y48451250D01*
X24891250Y48610000D01*
X24698690Y48610000D01*
X24465301Y48513327D01*
X24286673Y48334698D01*
X24190000Y48101309D01*
X24190000Y47760000D01*
X22979101Y47760000D01*
X22212401Y48526700D01*
X22102726Y48599982D01*
X22144783Y48701268D01*
X22145216Y49196559D01*
X21956075Y49654315D01*
X21606157Y50004844D01*
X21148732Y50194783D01*
X20653441Y50195216D01*
X20195685Y50006075D01*
X20074399Y49885000D01*
X20006844Y49885000D01*
X19964090Y49951441D01*
X19751890Y50096431D01*
X19500000Y50147440D01*
X17500000Y50147440D01*
X17264683Y50103162D01*
X17048559Y49964090D01*
X16903569Y49751890D01*
X16852560Y49500000D01*
X16852560Y48749299D01*
X14747788Y48749299D01*
X14694507Y48802673D01*
X14341794Y48949132D01*
X13959882Y48949466D01*
X13606914Y48803622D01*
X13336626Y48533806D01*
X13190167Y48181093D01*
X13189833Y47799181D01*
X13284727Y47569521D01*
X13190167Y47341794D01*
X13189833Y46959882D01*
X13335677Y46606914D01*
X13605493Y46336626D01*
X13958206Y46190167D01*
X14035098Y46190100D01*
X14465198Y45760000D01*
X13847788Y45760000D01*
X13794517Y45813364D01*
X13441804Y45959823D01*
X13059892Y45960157D01*
X12706924Y45814313D01*
X12436636Y45544497D01*
X12290177Y45191784D01*
X12289843Y44809872D01*
X12435687Y44456904D01*
X12705503Y44186616D01*
X13058216Y44040157D01*
X13440128Y44039823D01*
X13793096Y44185667D01*
X13847524Y44240000D01*
X16912721Y44240000D01*
X17035910Y44048559D01*
X17105711Y44000866D01*
X17048559Y43964090D01*
X16903569Y43751890D01*
X16895086Y43710000D01*
X12947788Y43710000D01*
X12894507Y43763374D01*
X12541794Y43909833D01*
X12159882Y43910167D01*
X11806914Y43764323D01*
X11536626Y43494507D01*
X11390167Y43141794D01*
X11389833Y42759882D01*
X11535677Y42406914D01*
X11805493Y42136626D01*
X12158206Y41990167D01*
X12540118Y41989833D01*
X12893086Y42135677D01*
X12947504Y42190000D01*
X16944895Y42190000D01*
X17035910Y42048559D01*
X17105711Y42000866D01*
X17048559Y41964090D01*
X16909110Y41760000D01*
X11547788Y41760000D01*
X11494507Y41813374D01*
X11141794Y41959833D01*
X10759882Y41960167D01*
X10406914Y41814323D01*
X10136626Y41544507D01*
X9990167Y41191794D01*
X9989833Y40809882D01*
X10010444Y40760000D01*
X6677831Y40760000D01*
X6510932Y40926899D01*
X6510998Y41002316D01*
X6365154Y41355284D01*
X6095338Y41625572D01*
X5742625Y41772031D01*
X5360713Y41772365D01*
X5007745Y41626521D01*
X4737457Y41356705D01*
X4590998Y41003992D01*
X4590664Y40622080D01*
X4736508Y40269112D01*
X5006324Y39998824D01*
X5359037Y39852365D01*
X5435929Y39852298D01*
X5478227Y39810000D01*
X4055105Y39810000D01*
X3964090Y39951441D01*
X3895994Y39997969D01*
X4038327Y40140301D01*
X4135000Y40373690D01*
X4135000Y40591250D01*
X3976250Y40750000D01*
X2817500Y40750000D01*
X2817500Y40662500D01*
X2182500Y40662500D01*
X2182500Y40750000D01*
X2162500Y40750000D01*
X2162500Y41250000D01*
X2182500Y41250000D01*
X2182500Y41337500D01*
X2817500Y41337500D01*
X2817500Y41250000D01*
X3976250Y41250000D01*
X4135000Y41408750D01*
X4135000Y41626310D01*
X4038327Y41859699D01*
X3897089Y42000936D01*
X3951441Y42035910D01*
X4096431Y42248110D01*
X4147440Y42500000D01*
X4147440Y43500000D01*
X4103162Y43735317D01*
X3964090Y43951441D01*
X3894289Y43999134D01*
X3951441Y44035910D01*
X4096431Y44248110D01*
X4147440Y44500000D01*
X4147440Y45500000D01*
X4103162Y45735317D01*
X4049916Y45818064D01*
X4201268Y45755217D01*
X4696559Y45754784D01*
X5154315Y45943925D01*
X5504844Y46293843D01*
X5694783Y46751268D01*
X5695216Y47246559D01*
X5506075Y47704315D01*
X5156157Y48054844D01*
X4698732Y48244783D01*
X4203441Y48245216D01*
X4051580Y48182468D01*
X4096431Y48248110D01*
X4147440Y48500000D01*
X4147440Y49500000D01*
X4103162Y49735317D01*
X4010000Y49880095D01*
X4010000Y50762721D01*
X4201441Y50885910D01*
X4346431Y51098110D01*
X4397440Y51350000D01*
X4397440Y51802560D01*
X5350000Y51802560D01*
X5585317Y51846838D01*
X5801441Y51985910D01*
X5946431Y52198110D01*
X5997440Y52450000D01*
X5997440Y54650000D01*
X5953162Y54885317D01*
X5814090Y55101441D01*
X5685000Y55189644D01*
X5685000Y56546190D01*
X5684618Y56548110D01*
X5621440Y56865730D01*
X5521682Y57015028D01*
X5521774Y57120557D01*
X5363777Y57502939D01*
X5071476Y57795751D01*
X4689370Y57954415D01*
X4350040Y57954711D01*
X5014418Y58229226D01*
X5768127Y58981621D01*
X6176535Y59965176D01*
X6177464Y61030152D01*
X5770774Y62014418D01*
X5018379Y62768127D01*
X4034824Y63176535D01*
X2969848Y63177464D01*
X1985582Y62770774D01*
X1231873Y62018379D01*
X1127000Y61765817D01*
X1127000Y66795322D01*
X1249296Y66499343D01*
X1498033Y66250171D01*
X1823190Y66115154D01*
X2175265Y66114847D01*
X2500657Y66249296D01*
X2749829Y66498033D01*
X2884846Y66823190D01*
X2885153Y67175265D01*
X2750704Y67500657D01*
X2501967Y67749829D01*
X2176810Y67884846D01*
X1824735Y67885153D01*
X1499343Y67750704D01*
X1250171Y67501967D01*
X1127000Y67205338D01*
X1127000Y73873000D01*
X9403585Y73873000D01*
X8931306Y73571020D01*
G36*
X31090000Y35233887D02*
X31090000Y35160000D01*
X30566909Y35160000D01*
X30486909Y35240000D01*
X31088850Y35240000D01*
X31090000Y35233887D01*
X31090000Y35233887D01*
G37*
X31090000Y35233887D02*
X31090000Y35160000D01*
X30566909Y35160000D01*
X30486909Y35240000D01*
X31088850Y35240000D01*
X31090000Y35233887D01*
G36*
X51873000Y52047440D02*
X51525000Y52047440D01*
X51289683Y52003162D01*
X51111954Y51888796D01*
X50972750Y52028000D01*
X50210750Y52028000D01*
X50210750Y51901000D01*
X49639250Y51901000D01*
X49639250Y52028000D01*
X48877250Y52028000D01*
X48718500Y51869250D01*
X48718500Y51774691D01*
X48815173Y51541302D01*
X48841709Y51514765D01*
X48757069Y51390890D01*
X48706060Y51139000D01*
X48706060Y50631000D01*
X48750338Y50395683D01*
X48844666Y50249093D01*
X48757069Y50120890D01*
X48706060Y49869000D01*
X48706060Y49361000D01*
X48750338Y49125683D01*
X48844666Y48979093D01*
X48757069Y48850890D01*
X48706060Y48599000D01*
X48706060Y48306928D01*
X47671572Y47272440D01*
X47100000Y47272440D01*
X46864683Y47228162D01*
X46810461Y47193271D01*
X46771440Y47389445D01*
X46590434Y47660339D01*
X45315339Y48935434D01*
X45303731Y48943190D01*
X48575540Y52215000D01*
X51873000Y52215000D01*
X51873000Y52047440D01*
X51873000Y52047440D01*
G37*
X51873000Y52047440D02*
X51525000Y52047440D01*
X51289683Y52003162D01*
X51111954Y51888796D01*
X50972750Y52028000D01*
X50210750Y52028000D01*
X50210750Y51901000D01*
X49639250Y51901000D01*
X49639250Y52028000D01*
X48877250Y52028000D01*
X48718500Y51869250D01*
X48718500Y51774691D01*
X48815173Y51541302D01*
X48841709Y51514765D01*
X48757069Y51390890D01*
X48706060Y51139000D01*
X48706060Y50631000D01*
X48750338Y50395683D01*
X48844666Y50249093D01*
X48757069Y50120890D01*
X48706060Y49869000D01*
X48706060Y49361000D01*
X48750338Y49125683D01*
X48844666Y48979093D01*
X48757069Y48850890D01*
X48706060Y48599000D01*
X48706060Y48306928D01*
X47671572Y47272440D01*
X47100000Y47272440D01*
X46864683Y47228162D01*
X46810461Y47193271D01*
X46771440Y47389445D01*
X46590434Y47660339D01*
X45315339Y48935434D01*
X45303731Y48943190D01*
X48575540Y52215000D01*
X51873000Y52215000D01*
X51873000Y52047440D01*
G36*
X52873000Y65127000D02*
X52308816Y65127000D01*
X52435999Y65253961D01*
X52784603Y66093491D01*
X52785396Y67002521D01*
X52438258Y67842658D01*
X51796039Y68485999D01*
X50956509Y68834603D01*
X50047479Y68835396D01*
X49207342Y68488258D01*
X48564001Y67846039D01*
X48215397Y67006509D01*
X48214604Y66097479D01*
X48561742Y65257342D01*
X48691857Y65127000D01*
X48047802Y65127000D01*
X46960000Y66214802D01*
X46960000Y68052212D01*
X47013374Y68105493D01*
X47159833Y68458206D01*
X47160167Y68840118D01*
X47014323Y69193086D01*
X46744507Y69463374D01*
X46391794Y69609833D01*
X46009882Y69610167D01*
X45656914Y69464323D01*
X45386626Y69194507D01*
X45240167Y68841794D01*
X45239833Y68459882D01*
X45385677Y68106914D01*
X45440000Y68052496D01*
X45440000Y65900000D01*
X45497852Y65609161D01*
X45662599Y65362599D01*
X45898198Y65127000D01*
X45677802Y65127000D01*
X45167401Y65637401D01*
X44920839Y65802148D01*
X44630000Y65860000D01*
X43053642Y65860000D01*
X42762802Y65802148D01*
X42516241Y65637401D01*
X42005840Y65127000D01*
X30718816Y65127000D01*
X30845999Y65253961D01*
X31194603Y66093491D01*
X31195396Y67002521D01*
X30848258Y67842658D01*
X30206039Y68485999D01*
X29366509Y68834603D01*
X28457479Y68835396D01*
X27617342Y68488258D01*
X26974001Y67846039D01*
X26625397Y67006509D01*
X26624604Y66097479D01*
X26971742Y65257342D01*
X27101857Y65127000D01*
X22902592Y65127000D01*
X22813923Y65215824D01*
X22732069Y65249813D01*
X22811800Y65282757D01*
X23215824Y65686077D01*
X23434750Y66213309D01*
X23435248Y66784187D01*
X23217243Y67311800D01*
X22813923Y67715824D01*
X22732069Y67749813D01*
X22811800Y67782757D01*
X23215824Y68186077D01*
X23434750Y68713309D01*
X23435248Y69284187D01*
X23217243Y69811800D01*
X22813923Y70215824D01*
X22732069Y70249813D01*
X22811800Y70282757D01*
X23215824Y70686077D01*
X23434750Y71213309D01*
X23435248Y71784187D01*
X23217243Y72311800D01*
X22813923Y72715824D01*
X22286691Y72934750D01*
X21715813Y72935248D01*
X21188200Y72717243D01*
X20805290Y72335000D01*
X19940532Y72335000D01*
X19620991Y72271439D01*
X19350098Y72090434D01*
X17959556Y70699892D01*
X17914451Y70632387D01*
X17829147Y70760054D01*
X17499974Y70980000D01*
X17829147Y71199946D01*
X18151054Y71681715D01*
X18264093Y72250000D01*
X18151054Y72818285D01*
X17829147Y73300054D01*
X17347378Y73621961D01*
X16779093Y73735000D01*
X16720907Y73735000D01*
X16152622Y73621961D01*
X15670853Y73300054D01*
X15348946Y72818285D01*
X15235907Y72250000D01*
X15348946Y71681715D01*
X15670853Y71199946D01*
X16000026Y70980000D01*
X15670853Y70760054D01*
X15348946Y70278285D01*
X15235907Y69710000D01*
X15348946Y69141715D01*
X15670853Y68659946D01*
X15712452Y68632150D01*
X15664683Y68623162D01*
X15448559Y68484090D01*
X15303569Y68271890D01*
X15252560Y68020000D01*
X15252560Y66320000D01*
X15296838Y66084683D01*
X15435910Y65868559D01*
X15648110Y65723569D01*
X15900000Y65672560D01*
X16040000Y65672560D01*
X16040000Y65127000D01*
X13964962Y65127000D01*
X13901054Y65448285D01*
X13579147Y65930054D01*
X13249974Y66150000D01*
X13579147Y66369946D01*
X13901054Y66851715D01*
X14014093Y67420000D01*
X13901054Y67988285D01*
X13579147Y68470054D01*
X13249974Y68690000D01*
X13579147Y68909946D01*
X13901054Y69391715D01*
X14014093Y69960000D01*
X13901054Y70528285D01*
X13579147Y71010054D01*
X13535223Y71039403D01*
X13709698Y71111673D01*
X13888327Y71290301D01*
X13985000Y71523690D01*
X13985000Y72023750D01*
X13826250Y72182500D01*
X12817500Y72182500D01*
X12817500Y72162500D01*
X12182500Y72162500D01*
X12182500Y72182500D01*
X12162500Y72182500D01*
X12162500Y72817500D01*
X12182500Y72817500D01*
X12182500Y72837500D01*
X12817500Y72837500D01*
X12817500Y72817500D01*
X13826250Y72817500D01*
X13985000Y72976250D01*
X13985000Y73476310D01*
X13888327Y73709699D01*
X13725025Y73873000D01*
X52873000Y73873000D01*
X52873000Y65127000D01*
X52873000Y65127000D01*
G37*
X52873000Y65127000D02*
X52308816Y65127000D01*
X52435999Y65253961D01*
X52784603Y66093491D01*
X52785396Y67002521D01*
X52438258Y67842658D01*
X51796039Y68485999D01*
X50956509Y68834603D01*
X50047479Y68835396D01*
X49207342Y68488258D01*
X48564001Y67846039D01*
X48215397Y67006509D01*
X48214604Y66097479D01*
X48561742Y65257342D01*
X48691857Y65127000D01*
X48047802Y65127000D01*
X46960000Y66214802D01*
X46960000Y68052212D01*
X47013374Y68105493D01*
X47159833Y68458206D01*
X47160167Y68840118D01*
X47014323Y69193086D01*
X46744507Y69463374D01*
X46391794Y69609833D01*
X46009882Y69610167D01*
X45656914Y69464323D01*
X45386626Y69194507D01*
X45240167Y68841794D01*
X45239833Y68459882D01*
X45385677Y68106914D01*
X45440000Y68052496D01*
X45440000Y65900000D01*
X45497852Y65609161D01*
X45662599Y65362599D01*
X45898198Y65127000D01*
X45677802Y65127000D01*
X45167401Y65637401D01*
X44920839Y65802148D01*
X44630000Y65860000D01*
X43053642Y65860000D01*
X42762802Y65802148D01*
X42516241Y65637401D01*
X42005840Y65127000D01*
X30718816Y65127000D01*
X30845999Y65253961D01*
X31194603Y66093491D01*
X31195396Y67002521D01*
X30848258Y67842658D01*
X30206039Y68485999D01*
X29366509Y68834603D01*
X28457479Y68835396D01*
X27617342Y68488258D01*
X26974001Y67846039D01*
X26625397Y67006509D01*
X26624604Y66097479D01*
X26971742Y65257342D01*
X27101857Y65127000D01*
X22902592Y65127000D01*
X22813923Y65215824D01*
X22732069Y65249813D01*
X22811800Y65282757D01*
X23215824Y65686077D01*
X23434750Y66213309D01*
X23435248Y66784187D01*
X23217243Y67311800D01*
X22813923Y67715824D01*
X22732069Y67749813D01*
X22811800Y67782757D01*
X23215824Y68186077D01*
X23434750Y68713309D01*
X23435248Y69284187D01*
X23217243Y69811800D01*
X22813923Y70215824D01*
X22732069Y70249813D01*
X22811800Y70282757D01*
X23215824Y70686077D01*
X23434750Y71213309D01*
X23435248Y71784187D01*
X23217243Y72311800D01*
X22813923Y72715824D01*
X22286691Y72934750D01*
X21715813Y72935248D01*
X21188200Y72717243D01*
X20805290Y72335000D01*
X19940532Y72335000D01*
X19620991Y72271439D01*
X19350098Y72090434D01*
X17959556Y70699892D01*
X17914451Y70632387D01*
X17829147Y70760054D01*
X17499974Y70980000D01*
X17829147Y71199946D01*
X18151054Y71681715D01*
X18264093Y72250000D01*
X18151054Y72818285D01*
X17829147Y73300054D01*
X17347378Y73621961D01*
X16779093Y73735000D01*
X16720907Y73735000D01*
X16152622Y73621961D01*
X15670853Y73300054D01*
X15348946Y72818285D01*
X15235907Y72250000D01*
X15348946Y71681715D01*
X15670853Y71199946D01*
X16000026Y70980000D01*
X15670853Y70760054D01*
X15348946Y70278285D01*
X15235907Y69710000D01*
X15348946Y69141715D01*
X15670853Y68659946D01*
X15712452Y68632150D01*
X15664683Y68623162D01*
X15448559Y68484090D01*
X15303569Y68271890D01*
X15252560Y68020000D01*
X15252560Y66320000D01*
X15296838Y66084683D01*
X15435910Y65868559D01*
X15648110Y65723569D01*
X15900000Y65672560D01*
X16040000Y65672560D01*
X16040000Y65127000D01*
X13964962Y65127000D01*
X13901054Y65448285D01*
X13579147Y65930054D01*
X13249974Y66150000D01*
X13579147Y66369946D01*
X13901054Y66851715D01*
X14014093Y67420000D01*
X13901054Y67988285D01*
X13579147Y68470054D01*
X13249974Y68690000D01*
X13579147Y68909946D01*
X13901054Y69391715D01*
X14014093Y69960000D01*
X13901054Y70528285D01*
X13579147Y71010054D01*
X13535223Y71039403D01*
X13709698Y71111673D01*
X13888327Y71290301D01*
X13985000Y71523690D01*
X13985000Y72023750D01*
X13826250Y72182500D01*
X12817500Y72182500D01*
X12817500Y72162500D01*
X12182500Y72162500D01*
X12182500Y72182500D01*
X12162500Y72182500D01*
X12162500Y72817500D01*
X12182500Y72817500D01*
X12182500Y72837500D01*
X12817500Y72837500D01*
X12817500Y72817500D01*
X13826250Y72817500D01*
X13985000Y72976250D01*
X13985000Y73476310D01*
X13888327Y73709699D01*
X13725025Y73873000D01*
X52873000Y73873000D01*
X52873000Y65127000D01*
M02*
