M48
;DRILL file {KiCad 4.0.7} date 06/19/19 10:20:37
;FORMAT={-:-/ absolute / metric / decimal}
FMAT,2
METRIC,TZ
T1C0.350
T2C0.410
T3C0.500
T4C0.610
T5C0.820
T6C0.900
T7C1.000
T8C1.300
%
G90
G05
M71
T1
X2.988Y20.861
X5.551Y40.812
X6.05Y66.875
X7.375Y17.75
X10.9Y37.
X10.95Y41.
X11.008Y50.012
X11.55Y38.35
X11.6Y50.55
X12.35Y42.95
X13.25Y45.
X14.1Y39.05
X14.15Y47.989
X14.15Y47.15
X14.359Y33.645
X14.401Y25.294
X16.288Y15.332
X16.75Y61.6
X19.25Y26.25
X19.635Y33.753
X19.942Y26.86
X20.775Y26.256
X20.788Y20.345
X21.379Y25.489
X21.535Y20.952
X21.63Y32.559
X22.198Y20.337
X22.535Y55.983
X22.947Y20.879
X23.037Y37.357
X23.328Y55.236
X23.581Y28.382
X23.621Y26.692
X23.66Y20.413
X24.211Y54.622
X24.34Y27.358
X24.408Y20.904
X24.442Y36.033
X24.978Y26.852
X25.05Y20.4
X25.182Y54.083
X25.665Y20.912
X26.388Y23.674
X26.88Y24.412
X27.462Y25.178
X28.171Y36.899
X28.954Y36.203
X29.385Y34.833
X29.594Y33.964
X31.052Y18.453
X31.677Y19.081
X32.269Y19.62
X33.068Y19.562
X34.05Y27.9
X34.414Y26.75
X34.75Y49.65
X36.7Y59.85
X39.5Y34.55
X41.758Y43.953
X44.1Y54.
X46.2Y68.65
X47.744Y44.053
X47.85Y51.025
X53.7Y51.
T2
X1.65Y56.875
X3.25Y56.875
X4.482Y56.915
X4.95Y34.75
X5.6Y22.5
X6.411Y21.768
X11.785Y34.414
X11.785Y31.144
X21.738Y17.27
X25.1Y16.85
X26.3Y16.85
X28.8Y32.55
X30.2Y17.2
X30.563Y35.225
X30.74Y39.415
X32.6Y39.05
X39.9Y26.3
X44.909Y42.041
X45.65Y26.3
X54.3Y45.4
X54.75Y57.7
X56.6Y47.1
X60.25Y43.35
T3
X2.4Y29.45
X5.6Y6.75
X11.8Y27.65
X11.8Y25.75
X16.5Y31.3
X24.228Y50.497
X61.75Y17.1
T4
X4.45Y47.
X4.625Y17.15
X16.507Y35.041
X20.9Y48.95
X27.988Y55.621
X29.635Y50.931
X36.85Y41.8
X38.7Y46.5
X41.85Y67.1
X45.9Y53.9
X52.Y5.5
X58.675Y64.625
X61.15Y51.
X62.45Y47.5
T5
X56.375Y28.725
X62.281Y45.675
T6
X22.Y71.5
X22.Y69.
X22.Y66.5
X22.Y64.
X22.Y61.5
X32.16Y63.5
X33.18Y61.47
X34.2Y63.5
X35.22Y61.47
X44.19Y63.5
X45.21Y61.47
X46.23Y63.5
X47.25Y61.47
T7
X3.Y72.34
X3.Y69.8
X5.54Y72.34
X5.54Y69.8
X8.39Y12.8
X8.39Y10.26
X9.96Y72.5
X9.96Y69.96
X9.96Y67.42
X9.96Y64.88
X9.96Y62.34
X9.96Y59.8
X9.96Y57.26
X10.93Y12.8
X10.93Y10.26
X12.5Y72.5
X12.5Y69.96
X12.5Y67.42
X12.5Y64.88
X12.5Y62.34
X12.5Y59.8
X12.5Y57.26
X13.47Y12.8
X13.47Y10.26
X14.55Y3.05
X16.01Y12.8
X16.01Y10.26
X16.75Y72.25
X16.75Y69.71
X16.75Y67.17
X17.09Y3.05
X18.55Y12.8
X18.55Y10.26
X19.63Y3.05
X21.09Y12.8
X21.09Y10.26
X22.17Y3.05
X23.63Y12.8
X23.63Y10.26
X24.71Y3.05
X26.17Y12.8
X26.17Y10.26
X27.25Y3.05
X28.71Y12.8
X28.71Y10.26
X29.79Y3.05
X31.25Y12.8
X31.25Y10.26
X32.33Y3.05
X33.79Y12.8
X33.79Y10.26
X34.96Y18.65
X36.33Y12.8
X36.33Y10.26
X36.67Y31.7
X37.5Y18.65
X38.87Y12.8
X38.87Y10.26
X39.21Y31.7
X40.04Y18.65
X41.41Y12.8
X41.41Y10.26
X41.75Y31.7
X42.58Y18.65
X43.95Y12.8
X43.95Y10.26
X44.29Y31.7
X45.12Y18.65
X46.49Y12.8
X46.49Y10.26
X46.83Y31.7
X49.03Y12.8
X49.03Y10.26
X50.2Y18.65
X51.57Y12.8
X51.57Y10.26
X52.74Y18.65
X54.11Y12.8
X54.11Y10.26
X55.28Y18.65
X56.65Y12.8
X56.65Y10.26
T8
X57.Y69.5
X62.Y69.5
T0
M30
