G04 #@! TF.FileFunction,Soldermask,Bot*
%FSLAX46Y46*%
G04 Gerber Fmt 4.6, Leading zero omitted, Abs format (unit mm)*
G04 Created by KiCad (PCBNEW 4.0.7) date 06/19/19 10:20:30*
%MOMM*%
%LPD*%
G01*
G04 APERTURE LIST*
%ADD10C,0.100000*%
%ADD11C,5.000000*%
%ADD12C,3.700000*%
%ADD13C,1.700000*%
%ADD14R,2.100000X2.100000*%
%ADD15O,2.100000X2.100000*%
%ADD16C,2.600000*%
%ADD17C,2.000000*%
%ADD18C,1.400000*%
G04 APERTURE END LIST*
D10*
D11*
X61500000Y60500000D03*
D12*
X50500000Y66550000D03*
X28910000Y66550000D03*
D13*
X47250000Y61470000D03*
X46230000Y63500000D03*
X45210000Y61470000D03*
X44190000Y63500000D03*
X32160000Y63500000D03*
X33180000Y61470000D03*
X34200000Y63500000D03*
X35220000Y61470000D03*
D14*
X55280000Y18650000D03*
D15*
X52740000Y18650000D03*
X50200000Y18650000D03*
D14*
X45120000Y18650000D03*
D15*
X42580000Y18650000D03*
X40040000Y18650000D03*
X37500000Y18650000D03*
X34960000Y18650000D03*
D11*
X3500000Y11500000D03*
X61500000Y11500000D03*
X3500000Y60500000D03*
D14*
X56650000Y12800000D03*
D15*
X56650000Y10260000D03*
X54110000Y12800000D03*
X54110000Y10260000D03*
X51570000Y12800000D03*
X51570000Y10260000D03*
X49030000Y12800000D03*
X49030000Y10260000D03*
X46490000Y12800000D03*
X46490000Y10260000D03*
X43950000Y12800000D03*
X43950000Y10260000D03*
X41410000Y12800000D03*
X41410000Y10260000D03*
X38870000Y12800000D03*
X38870000Y10260000D03*
X36330000Y12800000D03*
X36330000Y10260000D03*
X33790000Y12800000D03*
X33790000Y10260000D03*
X31250000Y12800000D03*
X31250000Y10260000D03*
X28710000Y12800000D03*
X28710000Y10260000D03*
X26170000Y12800000D03*
X26170000Y10260000D03*
X23630000Y12800000D03*
X23630000Y10260000D03*
X21090000Y12800000D03*
X21090000Y10260000D03*
X18550000Y12800000D03*
X18550000Y10260000D03*
X16010000Y12800000D03*
X16010000Y10260000D03*
X13470000Y12800000D03*
X13470000Y10260000D03*
X10930000Y12800000D03*
X10930000Y10260000D03*
X8390000Y12800000D03*
X8390000Y10260000D03*
D16*
X62000000Y69500000D03*
X57000000Y69500000D03*
D14*
X46830000Y31700000D03*
D15*
X44290000Y31700000D03*
X41750000Y31700000D03*
X39210000Y31700000D03*
X36670000Y31700000D03*
D14*
X16750000Y67170000D03*
D15*
X16750000Y69710000D03*
X16750000Y72250000D03*
D17*
X22000000Y71500000D03*
X22000000Y69000000D03*
X22000000Y66500000D03*
X22000000Y64000000D03*
X22000000Y61500000D03*
D14*
X12500000Y72500000D03*
D15*
X9960000Y72500000D03*
X12500000Y69960000D03*
X9960000Y69960000D03*
X12500000Y67420000D03*
X9960000Y67420000D03*
X12500000Y64880000D03*
X9960000Y64880000D03*
X12500000Y62340000D03*
X9960000Y62340000D03*
X12500000Y59800000D03*
X9960000Y59800000D03*
X12500000Y57260000D03*
X9960000Y57260000D03*
D14*
X3000000Y69800000D03*
D15*
X5540000Y69800000D03*
X3000000Y72340000D03*
X5540000Y72340000D03*
D14*
X14550000Y3050000D03*
D15*
X17090000Y3050000D03*
X19630000Y3050000D03*
X22170000Y3050000D03*
X24710000Y3050000D03*
X27250000Y3050000D03*
X29790000Y3050000D03*
X32330000Y3050000D03*
D18*
X11800000Y27650000D03*
X11800000Y25750000D03*
M02*
